M48
; DRILL file {KiCad 9.0.0} date 2025-11-26T23:38:09+0100
; FORMAT={-:-/ absolute / metric / decimal}
; #@! TF.CreationDate,2025-11-26T23:38:09+01:00
; #@! TF.GenerationSoftware,Kicad,Pcbnew,9.0.0
; #@! TF.FileFunction,Plated,1,4,PTH
FMAT,2
METRIC
; #@! TA.AperFunction,Plated,PTH,ViaDrill
T1C0.300
; #@! TA.AperFunction,Plated,PTH,ComponentDrill
T2C0.500
; #@! TA.AperFunction,Plated,PTH,ComponentDrill
T3C0.750
; #@! TA.AperFunction,Plated,PTH,ComponentDrill
T4C0.800
; #@! TA.AperFunction,Plated,PTH,ComponentDrill
T5C1.850
; #@! TA.AperFunction,Plated,PTH,ComponentDrill
T6C2.700
; #@! TA.AperFunction,Plated,PTH,ComponentDrill
T7C3.200
%
G90
G05
T1
X169.49Y-50.335
X169.61Y-80.325
X170.07Y-57.175
X170.27Y-68.485
X170.99Y-76.235
X171.26Y-69.435
X171.63Y-65.785
X172.22Y-77.215
X172.69Y-61.245
X172.91Y-70.935
X172.91Y-71.935
X172.91Y-72.935
X173.47Y-67.405
X173.47Y-76.945
X173.48Y-54.695
X173.745Y-58.25
X173.79Y-79.375
X173.89Y-76.105
X173.91Y-70.935
X173.91Y-71.935
X173.91Y-72.935
X173.91Y-74.433
X174.545Y-68.415
X174.91Y-70.935
X174.91Y-71.935
X174.91Y-72.935
X175.1Y-75.655
X175.58Y-65.255
X175.85Y-39.275
X176.22Y-67.445
X176.39Y-77.175
X176.46Y-48.395
X176.65Y-69.585
X176.69Y-81.685
X176.72Y-85.505
X176.75Y-80.425
X176.84Y-57.555
X177.01Y-59.485
X177.19Y-47.055
X177.43Y-52.315
X178.08Y-71.785
X178.09Y-66.295
X178.33Y-70.435
X178.34Y-82.315
X178.44Y-40.505
X178.64Y-68.945
X178.91Y-42.425
X179.16Y-87.865
X179.44Y-62.905
X180.39Y-49.365
X180.6Y-53.565
X180.89Y-56.865
X180.935Y-42.725
X181.05Y-46.525
X181.06Y-69.405
X181.27Y-47.925
X181.55Y-62.995
X181.8Y-44.845
X181.95Y-41.885
X182.19Y-61.815
X182.22Y-44.215
X183.18Y-60.845
X183.41Y-75.875
X183.56Y-50.835
X183.76Y-64.975
X183.84Y-45.985
X183.87Y-40.455
X183.96Y-65.795
X184.0Y-60.915
X184.11Y-64.245
X184.15Y-44.985
X184.17Y-62.925
X184.26Y-55.185
X184.75Y-83.515
X184.88Y-60.875
X184.95Y-41.865
X184.96Y-71.925
X185.02Y-44.215
X185.07Y-43.395
X185.09Y-64.425
X185.34Y-59.035
X185.54Y-85.025
X185.58Y-79.845
X185.59Y-68.655
X186.21Y-66.305
X186.32Y-70.475
X186.38Y-48.095
X186.41Y-50.465
X186.42Y-46.305
X186.55Y-54.785
X186.585Y-69.085
X186.8Y-39.675
X187.07Y-56.495
X187.17Y-44.955
X187.34Y-49.435
X187.475Y-67.845
X187.6Y-76.255
X187.69Y-42.895
X187.72Y-70.575
X188.21Y-51.825
X188.43Y-66.775
X188.599Y-63.275
X188.62Y-57.625
X188.62Y-61.835
X188.72Y-67.975
X188.792Y-61.234
X188.82Y-54.925
X188.82Y-56.245
X189.16Y-45.205
X189.2Y-40.395
X189.21Y-72.075
X189.48Y-64.985
X189.61Y-78.615
X189.68Y-56.525
X189.71Y-48.085
X189.88Y-61.785
X190.02Y-42.125
X190.06Y-85.045
X190.11Y-43.395
X190.36Y-55.635
X190.4Y-54.925
X190.45Y-44.215
X190.57Y-62.745
X190.85Y-56.735
X190.98Y-61.625
X191.13Y-52.245
X191.13Y-64.965
X191.32Y-62.375
X191.37Y-55.675
X191.4Y-59.025
X191.46Y-60.545
X191.6Y-46.595
X191.61Y-47.975
X191.77Y-72.015
X191.88Y-67.135
X192.0Y-54.895
X192.26Y-59.085
X192.3Y-55.605
X192.54Y-48.005
X192.56Y-44.995
X192.57Y-39.545
X192.71Y-78.835
X192.91Y-70.635
X192.92Y-81.665
X193.25Y-60.895
X193.475Y-66.39
X193.95Y-59.765
X194.0Y-49.945
X194.2Y-66.235
X194.22Y-46.115
X194.75Y-44.865
X194.82Y-41.165
X194.9Y-61.525
X194.92Y-62.435
X194.92Y-67.085
X195.09Y-64.775
X195.14Y-84.985
X195.15Y-63.635
X195.16Y-52.665
X195.37Y-48.825
X195.5Y-74.135
X195.65Y-51.845
X195.79Y-44.215
X195.86Y-52.735
X195.9Y-43.395
X196.1Y-61.405
X196.18Y-63.685
X196.2Y-62.435
X196.36Y-67.285
X196.39Y-70.495
X196.43Y-51.415
X196.83Y-47.375
X197.3Y-65.535
X197.32Y-46.575
X197.34Y-69.2
X197.6Y-54.985
X197.65Y-84.455
X197.71Y-59.745
X197.98Y-48.175
X198.22Y-76.785
X198.26Y-41.095
X198.3Y-44.925
X198.425Y-68.83
X198.43Y-45.985
X198.485Y-58.26
X198.62Y-70.285
X198.73Y-54.735
X198.851Y-56.756
X198.93Y-42.885
X198.93Y-44.835
X198.96Y-67.725
X199.3Y-48.905
X199.37Y-52.245
X199.56Y-44.875
X199.85Y-68.875
X199.94Y-58.145
X200.03Y-48.065
X200.08Y-40.455
X200.15Y-60.185
X200.38Y-62.072
X200.56Y-58.775
X201.06Y-69.365
X201.09Y-44.215
X201.12Y-51.205
X201.13Y-42.745
X201.38Y-62.072
X201.44Y-45.065
X201.48Y-45.965
X201.62Y-49.595
X201.72Y-59.765
X201.78Y-57.562
X201.82Y-39.695
X201.87Y-70.175
X202.3Y-64.345
X202.38Y-62.072
X202.38Y-66.465
X202.6Y-68.255
X202.79Y-47.885
X202.97Y-65.905
X202.97Y-69.605
X203.03Y-53.025
X203.06Y-54.675
X203.18Y-58.825
X203.21Y-73.835
X203.38Y-62.072
X203.59Y-64.435
X203.89Y-43.395
X203.91Y-65.905
X204.01Y-67.665
X204.01Y-68.705
X204.1Y-58.915
X204.38Y-62.072
X204.62Y-70.625
X204.65Y-67.075
X204.78Y-69.355
X204.88Y-56.725
X204.93Y-75.045
X205.1Y-42.655
X205.15Y-46.065
X205.34Y-50.225
X205.345Y-54.045
X205.355Y-52.155
X205.44Y-40.365
X205.9Y-66.405
X205.92Y-69.335
X205.96Y-84.505
X206.19Y-62.655
X206.43Y-58.945
X206.71Y-44.975
X206.8Y-44.095
X206.832Y-61.333
X206.87Y-43.075
X206.97Y-64.375
X207.15Y-73.025
X207.27Y-46.965
X207.73Y-60.705
X207.92Y-48.795
X207.95Y-72.135
X208.19Y-84.485
X208.52Y-79.565
X208.8Y-52.375
X209.08Y-45.785
X209.18Y-50.605
X209.19Y-86.615
X209.24Y-41.385
X209.55Y-71.405
X209.63Y-69.335
X209.75Y-54.915
X209.762Y-62.395
X209.762Y-63.395
X209.762Y-64.395
X209.99Y-59.745
X210.04Y-68.085
X210.12Y-73.455
X210.127Y-66.905
X210.5Y-45.935
X210.54Y-52.495
X210.58Y-44.895
X210.64Y-39.345
X210.762Y-62.395
X210.762Y-63.395
X210.762Y-64.395
X210.85Y-68.015
X210.85Y-80.435
X210.91Y-50.175
X211.29Y-55.995
X211.397Y-59.795
X211.4Y-47.105
X211.44Y-52.715
X211.74Y-48.245
X211.762Y-62.395
X211.762Y-63.395
X211.762Y-64.395
X211.792Y-57.537
X211.885Y-50.335
X212.308Y-58.595
X212.31Y-77.245
X212.53Y-71.585
X212.55Y-49.875
X212.57Y-51.935
X213.28Y-70.095
X213.46Y-65.895
X213.85Y-59.175
X214.11Y-74.925
X214.58Y-66.655
X214.76Y-52.915
X214.8Y-46.895
X214.98Y-73.285
X215.28Y-50.095
X216.24Y-47.685
X216.25Y-55.115
X216.69Y-52.215
X216.81Y-73.285
X216.85Y-59.985
X216.95Y-57.065
X217.43Y-79.435
T2
X169.75Y-42.525
X169.75Y-84.525
X170.453Y-40.828
X170.453Y-44.222
X170.453Y-82.828
X170.453Y-86.222
X172.15Y-40.125
X172.15Y-44.925
X172.15Y-82.125
X172.15Y-86.925
X173.847Y-40.828
X173.847Y-44.222
X173.847Y-82.828
X173.847Y-86.222
X174.55Y-42.525
X174.55Y-84.525
X211.75Y-42.525
X211.75Y-84.525
X212.453Y-40.828
X212.453Y-44.222
X212.453Y-82.828
X212.453Y-86.222
X214.15Y-40.125
X214.15Y-44.925
X214.15Y-82.125
X214.15Y-86.925
X215.847Y-40.828
X215.847Y-44.222
X215.847Y-82.828
X215.847Y-86.222
X216.55Y-42.525
X216.55Y-84.525
T3
X169.13Y-66.625
X169.13Y-68.625
X169.13Y-70.625
X169.13Y-72.625
X169.13Y-74.625
X169.13Y-76.625
X169.47Y-49.015
X171.47Y-49.015
X173.47Y-49.015
X215.697Y-58.482
X215.697Y-60.482
X215.697Y-62.482
X215.697Y-64.483
X215.697Y-66.482
X215.697Y-68.483
T4
X169.05Y-55.185
X169.05Y-57.185
X169.05Y-59.185
X169.05Y-61.185
T5
X187.91Y-74.075
X190.07Y-86.775
X192.61Y-74.075
X195.15Y-86.775
X197.31Y-74.075
T6
X203.58Y-79.505
X203.58Y-84.505
T7
X172.15Y-42.525
X172.15Y-84.525
X214.15Y-42.525
X214.15Y-84.525
M30
