%TF.GenerationSoftware,KiCad,Pcbnew,9.0.0*%
%TF.CreationDate,2025-11-26T23:38:03+01:00*%
%TF.ProjectId,PCB_Projet_ESE_v2,5043425f-5072-46f6-9a65-745f4553455f,rev?*%
%TF.SameCoordinates,Original*%
%TF.FileFunction,Paste,Top*%
%TF.FilePolarity,Positive*%
%FSLAX46Y46*%
G04 Gerber Fmt 4.6, Leading zero omitted, Abs format (unit mm)*
G04 Created by KiCad (PCBNEW 9.0.0) date 2025-11-26 23:38:03*
%MOMM*%
%LPD*%
G01*
G04 APERTURE LIST*
G04 Aperture macros list*
%AMRoundRect*
0 Rectangle with rounded corners*
0 $1 Rounding radius*
0 $2 $3 $4 $5 $6 $7 $8 $9 X,Y pos of 4 corners*
0 Add a 4 corners polygon primitive as box body*
4,1,4,$2,$3,$4,$5,$6,$7,$8,$9,$2,$3,0*
0 Add four circle primitives for the rounded corners*
1,1,$1+$1,$2,$3*
1,1,$1+$1,$4,$5*
1,1,$1+$1,$6,$7*
1,1,$1+$1,$8,$9*
0 Add four rect primitives between the rounded corners*
20,1,$1+$1,$2,$3,$4,$5,0*
20,1,$1+$1,$4,$5,$6,$7,0*
20,1,$1+$1,$6,$7,$8,$9,0*
20,1,$1+$1,$8,$9,$2,$3,0*%
G04 Aperture macros list end*
%ADD10RoundRect,0.075000X0.075000X0.700000X-0.075000X0.700000X-0.075000X-0.700000X0.075000X-0.700000X0*%
%ADD11RoundRect,0.075000X0.700000X0.075000X-0.700000X0.075000X-0.700000X-0.075000X0.700000X-0.075000X0*%
%ADD12RoundRect,0.225000X-0.225000X-0.250000X0.225000X-0.250000X0.225000X0.250000X-0.225000X0.250000X0*%
%ADD13RoundRect,0.218750X-0.218750X-0.256250X0.218750X-0.256250X0.218750X0.256250X-0.218750X0.256250X0*%
%ADD14RoundRect,0.150000X0.625000X-0.150000X0.625000X0.150000X-0.625000X0.150000X-0.625000X-0.150000X0*%
%ADD15RoundRect,0.250000X0.650000X-0.350000X0.650000X0.350000X-0.650000X0.350000X-0.650000X-0.350000X0*%
%ADD16RoundRect,0.140000X-0.140000X-0.170000X0.140000X-0.170000X0.140000X0.170000X-0.140000X0.170000X0*%
%ADD17R,0.802000X1.505000*%
%ADD18R,2.101200X1.567800*%
%ADD19R,2.400000X0.740000*%
%ADD20RoundRect,0.140000X-0.170000X0.140000X-0.170000X-0.140000X0.170000X-0.140000X0.170000X0.140000X0*%
%ADD21RoundRect,0.225000X0.225000X0.250000X-0.225000X0.250000X-0.225000X-0.250000X0.225000X-0.250000X0*%
%ADD22RoundRect,0.140000X0.140000X0.170000X-0.140000X0.170000X-0.140000X-0.170000X0.140000X-0.170000X0*%
%ADD23RoundRect,0.140000X0.170000X-0.140000X0.170000X0.140000X-0.170000X0.140000X-0.170000X-0.140000X0*%
%ADD24RoundRect,0.135000X0.135000X0.185000X-0.135000X0.185000X-0.135000X-0.185000X0.135000X-0.185000X0*%
%ADD25R,1.300000X1.550000*%
%ADD26RoundRect,0.150000X-0.625000X0.150000X-0.625000X-0.150000X0.625000X-0.150000X0.625000X0.150000X0*%
%ADD27RoundRect,0.250000X-0.650000X0.350000X-0.650000X-0.350000X0.650000X-0.350000X0.650000X0.350000X0*%
%ADD28RoundRect,0.225000X-0.250000X0.225000X-0.250000X-0.225000X0.250000X-0.225000X0.250000X0.225000X0*%
%ADD29RoundRect,0.135000X-0.135000X-0.185000X0.135000X-0.185000X0.135000X0.185000X-0.135000X0.185000X0*%
%ADD30RoundRect,0.135000X-0.185000X0.135000X-0.185000X-0.135000X0.185000X-0.135000X0.185000X0.135000X0*%
%ADD31RoundRect,0.135000X0.185000X-0.135000X0.185000X0.135000X-0.185000X0.135000X-0.185000X-0.135000X0*%
%ADD32RoundRect,0.218750X0.218750X0.256250X-0.218750X0.256250X-0.218750X-0.256250X0.218750X-0.256250X0*%
G04 APERTURE END LIST*
D10*
%TO.C,U5*%
X196899999Y-69200000D03*
X196400000Y-69200000D03*
X195900000Y-69200000D03*
X195400000Y-69200000D03*
X194900000Y-69200000D03*
X194399999Y-69200000D03*
X193900000Y-69200000D03*
X193400000Y-69200000D03*
X192900000Y-69200000D03*
X192400000Y-69200000D03*
X191900001Y-69200000D03*
X191400000Y-69200000D03*
X190900000Y-69200000D03*
X190400000Y-69200000D03*
X189900000Y-69200000D03*
X189400001Y-69200000D03*
D11*
X187475000Y-67274999D03*
X187475000Y-66775000D03*
X187475000Y-66275000D03*
X187475000Y-65775000D03*
X187475000Y-65275000D03*
X187475000Y-64774999D03*
X187475000Y-64275000D03*
X187475000Y-63775000D03*
X187475000Y-63275000D03*
X187475000Y-62775000D03*
X187475000Y-62275001D03*
X187475000Y-61775000D03*
X187475000Y-61275000D03*
X187475000Y-60775000D03*
X187475000Y-60275000D03*
X187475000Y-59775001D03*
D10*
X189400001Y-57850000D03*
X189900000Y-57850000D03*
X190400000Y-57850000D03*
X190900000Y-57850000D03*
X191400000Y-57850000D03*
X191900001Y-57850000D03*
X192400000Y-57850000D03*
X192900000Y-57850000D03*
X193400000Y-57850000D03*
X193900000Y-57850000D03*
X194399999Y-57850000D03*
X194900000Y-57850000D03*
X195400000Y-57850000D03*
X195900000Y-57850000D03*
X196400000Y-57850000D03*
X196899999Y-57850000D03*
D11*
X198825000Y-59775001D03*
X198825000Y-60275000D03*
X198825000Y-60775000D03*
X198825000Y-61275000D03*
X198825000Y-61775000D03*
X198825000Y-62275001D03*
X198825000Y-62775000D03*
X198825000Y-63275000D03*
X198825000Y-63775000D03*
X198825000Y-64275000D03*
X198825000Y-64774999D03*
X198825000Y-65275000D03*
X198825000Y-65775000D03*
X198825000Y-66275000D03*
X198825000Y-66775000D03*
X198825000Y-67274999D03*
%TD*%
D12*
%TO.C,C22*%
X198160000Y-57415000D03*
X199710000Y-57415000D03*
%TD*%
D13*
%TO.C,D4*%
X205345000Y-53105000D03*
X206920000Y-53105000D03*
%TD*%
D14*
%TO.C,U15*%
X207960000Y-45785000D03*
X207960000Y-44785000D03*
X207960000Y-43785000D03*
X207960000Y-42785000D03*
X207960000Y-41785000D03*
X207960000Y-40785000D03*
D15*
X205435000Y-39485000D03*
X205435000Y-47085001D03*
%TD*%
D16*
%TO.C,C16*%
X210914999Y-51854999D03*
X211874999Y-51854999D03*
%TD*%
%TO.C,C2*%
X174530000Y-67795000D03*
X175490000Y-67795000D03*
%TD*%
%TO.C,C28*%
X198980000Y-58755000D03*
X199940000Y-58755000D03*
%TD*%
D17*
%TO.C,U1*%
X212667500Y-60897500D03*
X211397500Y-60897500D03*
X210127500Y-60897500D03*
X208857500Y-60897500D03*
X208857500Y-65892500D03*
X210127500Y-65892500D03*
X211397500Y-65892500D03*
X212667500Y-65892500D03*
D18*
X210762500Y-63395000D03*
%TD*%
D19*
%TO.C,J10*%
X178340000Y-79135000D03*
X182240000Y-79135000D03*
X178340000Y-80405000D03*
X182240000Y-80405000D03*
X178340000Y-81675000D03*
X182240000Y-81675000D03*
X178340000Y-82945000D03*
X182240000Y-82945000D03*
X178340000Y-84215000D03*
X182240000Y-84215000D03*
X178340000Y-85485000D03*
X182240000Y-85485000D03*
X178340000Y-86755000D03*
X182240000Y-86755000D03*
%TD*%
D20*
%TO.C,C3*%
X171590000Y-76255000D03*
X171590000Y-77215000D03*
%TD*%
D21*
%TO.C,C5*%
X176365000Y-76275000D03*
X174815000Y-76275000D03*
%TD*%
D16*
%TO.C,C47*%
X186370000Y-48705000D03*
X187330000Y-48705000D03*
%TD*%
D22*
%TO.C,C4*%
X213267500Y-59175000D03*
X212307500Y-59175000D03*
%TD*%
D14*
%TO.C,U9*%
X215045000Y-76935000D03*
X215045000Y-75935000D03*
X215045000Y-74935000D03*
X215045000Y-73935000D03*
D15*
X212520000Y-72635000D03*
X212520000Y-78235000D03*
%TD*%
D20*
%TO.C,C9*%
X171870000Y-60210000D03*
X171870000Y-61170000D03*
%TD*%
D23*
%TO.C,C8*%
X176500000Y-49915000D03*
X176500000Y-48955000D03*
%TD*%
D24*
%TO.C,R12*%
X209142498Y-54925000D03*
X208122500Y-54925000D03*
%TD*%
D20*
%TO.C,C70*%
X213250000Y-68455000D03*
X213250000Y-69415000D03*
%TD*%
%TO.C,C7*%
X216970000Y-73935000D03*
X216970000Y-74895000D03*
%TD*%
D25*
%TO.C,SW1*%
X182580000Y-64970000D03*
X182580000Y-72920000D03*
X178080000Y-64970000D03*
X178080000Y-72920000D03*
%TD*%
D23*
%TO.C,C72*%
X171560000Y-67435000D03*
X171560000Y-66475000D03*
%TD*%
D13*
%TO.C,D5*%
X205354998Y-51375000D03*
X206930000Y-51375000D03*
%TD*%
D14*
%TO.C,U12*%
X180935000Y-45725000D03*
X180935000Y-44725000D03*
X180935000Y-43725000D03*
X180935000Y-42725000D03*
X180935000Y-41725000D03*
X180935000Y-40725000D03*
D15*
X178410000Y-39425000D03*
X178410000Y-47025001D03*
%TD*%
D24*
%TO.C,R13*%
X209162499Y-53095000D03*
X208142501Y-53095000D03*
%TD*%
D14*
%TO.C,U10*%
X191745000Y-45765000D03*
X191745000Y-44765000D03*
X191745000Y-43765000D03*
X191745000Y-42765000D03*
X191745000Y-41765000D03*
X191745000Y-40765000D03*
D15*
X189220000Y-39465000D03*
X189220000Y-47065001D03*
%TD*%
D16*
%TO.C,C69*%
X212327500Y-58072500D03*
X213287500Y-58072500D03*
%TD*%
%TO.C,C15*%
X210924999Y-50865000D03*
X211884999Y-50865000D03*
%TD*%
D20*
%TO.C,C13*%
X211855000Y-48914999D03*
X211855000Y-49874999D03*
%TD*%
D17*
%TO.C,U2*%
X172005000Y-74432501D03*
X173275000Y-74432501D03*
X174545000Y-74432501D03*
X175815000Y-74432501D03*
X175815000Y-69437501D03*
X174545000Y-69437501D03*
X173275000Y-69437501D03*
X172005000Y-69437501D03*
D18*
X173910000Y-71935001D03*
%TD*%
D23*
%TO.C,C43*%
X209830000Y-45845001D03*
X209830000Y-44885001D03*
%TD*%
D16*
%TO.C,C44*%
X197790000Y-48825000D03*
X198750000Y-48825000D03*
%TD*%
D14*
%TO.C,U11*%
X186375000Y-45725000D03*
X186375000Y-44725000D03*
X186375000Y-43725000D03*
X186375000Y-42725000D03*
X186375000Y-41725000D03*
X186375000Y-40725000D03*
D15*
X183850000Y-39425000D03*
X183850000Y-47025001D03*
%TD*%
D22*
%TO.C,C45*%
X202865000Y-48795000D03*
X201905000Y-48795000D03*
%TD*%
D16*
%TO.C,C48*%
X191660000Y-48745000D03*
X192620000Y-48745000D03*
%TD*%
D23*
%TO.C,C71*%
X172890000Y-76945000D03*
X172890000Y-75985000D03*
%TD*%
D26*
%TO.C,U8*%
X213715000Y-49935000D03*
X213715000Y-50935000D03*
X213715000Y-51935000D03*
X213715000Y-52935000D03*
D27*
X216240000Y-54235000D03*
X216240000Y-48635000D03*
%TD*%
D22*
%TO.C,C46*%
X181315000Y-48685000D03*
X180355000Y-48685000D03*
%TD*%
D14*
%TO.C,U13*%
X202575000Y-45795000D03*
X202575000Y-44795000D03*
X202575000Y-43795000D03*
X202575000Y-42795000D03*
X202575000Y-41795000D03*
X202575000Y-40795000D03*
D15*
X200050000Y-39495000D03*
X200050000Y-47095001D03*
%TD*%
D14*
%TO.C,U14*%
X197185000Y-45795000D03*
X197185000Y-44795000D03*
X197185000Y-43795000D03*
X197185000Y-42795000D03*
X197185000Y-41795000D03*
X197185000Y-40795000D03*
D15*
X194660000Y-39495000D03*
X194660000Y-47095001D03*
%TD*%
D28*
%TO.C,C6*%
X210987500Y-57537500D03*
X210987500Y-59087500D03*
%TD*%
D24*
%TO.C,R14*%
X209152498Y-51365002D03*
X208132500Y-51365002D03*
%TD*%
D13*
%TO.C,D3*%
X205345000Y-54895000D03*
X206920000Y-54895000D03*
%TD*%
D16*
%TO.C,C1*%
X209890000Y-67485000D03*
X210850000Y-67485000D03*
%TD*%
D29*
%TO.C,R21*%
X184840001Y-62935000D03*
X185859999Y-62935000D03*
%TD*%
D30*
%TO.C,R22*%
X185850000Y-61984999D03*
X185850000Y-60965001D03*
%TD*%
D29*
%TO.C,R7*%
X184840001Y-64085000D03*
X185859999Y-64085000D03*
%TD*%
%TO.C,R8*%
X184830001Y-65115000D03*
X185849999Y-65115000D03*
%TD*%
D30*
%TO.C,R9*%
X183790000Y-59005000D03*
X183790000Y-60024998D03*
%TD*%
D23*
%TO.C,C32*%
X185860000Y-59995000D03*
X185860000Y-59035000D03*
%TD*%
D31*
%TO.C,R10*%
X184805060Y-60024996D03*
X184805060Y-59004998D03*
%TD*%
D16*
%TO.C,C26*%
X200590000Y-64425000D03*
X201550000Y-64425000D03*
%TD*%
D28*
%TO.C,C20*%
X188080000Y-54900000D03*
X188080000Y-56450000D03*
%TD*%
D22*
%TO.C,C27*%
X187300000Y-68295000D03*
X186340000Y-68295000D03*
%TD*%
D16*
%TO.C,C25*%
X191370000Y-56255000D03*
X192330000Y-56255000D03*
%TD*%
D20*
%TO.C,C21*%
X197920000Y-69335000D03*
X197920000Y-70295000D03*
%TD*%
D16*
%TO.C,C24*%
X198960000Y-68265000D03*
X199920000Y-68265000D03*
%TD*%
D21*
%TO.C,C30*%
X186585000Y-69645000D03*
X188135000Y-69645000D03*
%TD*%
D22*
%TO.C,C29*%
X189400000Y-56245000D03*
X190360000Y-56245000D03*
%TD*%
D32*
%TO.C,L1*%
X189682499Y-54925000D03*
X191257501Y-54925000D03*
%TD*%
M02*
