%TF.GenerationSoftware,KiCad,Pcbnew,9.0.0*%
%TF.CreationDate,2025-10-01T14:09:25+02:00*%
%TF.ProjectId,PCB projet ESE,50434220-7072-46f6-9a65-74204553452e,rev?*%
%TF.SameCoordinates,Original*%
%TF.FileFunction,Legend,Bot*%
%TF.FilePolarity,Positive*%
%FSLAX46Y46*%
G04 Gerber Fmt 4.6, Leading zero omitted, Abs format (unit mm)*
G04 Created by KiCad (PCBNEW 9.0.0) date 2025-10-01 14:09:25*
%MOMM*%
%LPD*%
G01*
G04 APERTURE LIST*
%ADD10C,0.250000*%
%ADD11C,0.125000*%
%ADD12C,0.150000*%
%ADD13C,0.120000*%
%ADD14C,0.100000*%
G04 APERTURE END LIST*
D10*
G36*
X100806720Y-93764970D02*
G01*
X100863131Y-93821381D01*
X100898621Y-93963341D01*
X100898621Y-94265896D01*
X100863131Y-94407855D01*
X100806717Y-94464269D01*
X100756018Y-94489619D01*
X100624559Y-94489619D01*
X100573858Y-94464268D01*
X100517444Y-94407855D01*
X100481955Y-94265896D01*
X100481955Y-93963341D01*
X100517445Y-93821381D01*
X100573855Y-93764970D01*
X100624559Y-93739619D01*
X100756018Y-93739619D01*
X100806720Y-93764970D01*
G37*
G36*
X101851002Y-94489619D02*
G01*
X101624559Y-94489619D01*
X101573857Y-94464268D01*
X101554925Y-94445336D01*
X101529574Y-94394634D01*
X101529574Y-94310793D01*
X101554924Y-94260091D01*
X101567335Y-94247681D01*
X101662955Y-94215809D01*
X101851002Y-94215809D01*
X101851002Y-94489619D01*
G37*
G36*
X101851002Y-93965809D02*
G01*
X101672178Y-93965809D01*
X101621476Y-93940458D01*
X101602543Y-93921526D01*
X101577193Y-93870825D01*
X101577193Y-93834603D01*
X101602543Y-93783901D01*
X101621476Y-93764969D01*
X101672178Y-93739619D01*
X101851002Y-93739619D01*
X101851002Y-93965809D01*
G37*
G36*
X102854339Y-93764970D02*
G01*
X102910750Y-93821381D01*
X102946240Y-93963341D01*
X102946240Y-94265896D01*
X102910750Y-94407855D01*
X102854336Y-94464269D01*
X102803637Y-94489619D01*
X102672178Y-94489619D01*
X102621477Y-94464268D01*
X102565063Y-94407855D01*
X102529574Y-94265896D01*
X102529574Y-93963341D01*
X102565064Y-93821381D01*
X102621474Y-93764970D01*
X102672178Y-93739619D01*
X102803637Y-93739619D01*
X102854339Y-93764970D01*
G37*
G36*
X103898621Y-94013428D02*
G01*
X103672178Y-94013428D01*
X103621476Y-93988077D01*
X103602543Y-93969145D01*
X103577193Y-93918444D01*
X103577193Y-93834603D01*
X103602543Y-93783901D01*
X103621476Y-93764969D01*
X103672178Y-93739619D01*
X103898621Y-93739619D01*
X103898621Y-94013428D01*
G37*
G36*
X96231145Y-94203904D02*
G01*
X96101811Y-94203904D01*
X96166477Y-94009903D01*
X96231145Y-94203904D01*
G37*
G36*
X107797431Y-94864619D02*
G01*
X94823642Y-94864619D01*
X94823642Y-93590233D01*
X94948642Y-93590233D01*
X94948642Y-93639005D01*
X94967306Y-93684065D01*
X95001794Y-93718553D01*
X95046854Y-93737217D01*
X95071240Y-93739619D01*
X95231954Y-93739619D01*
X95231954Y-94614619D01*
X95234356Y-94639005D01*
X95253020Y-94684065D01*
X95287508Y-94718553D01*
X95332568Y-94737217D01*
X95381340Y-94737217D01*
X95426400Y-94718553D01*
X95460888Y-94684065D01*
X95479552Y-94639005D01*
X95481954Y-94614619D01*
X95481954Y-94598985D01*
X95709127Y-94598985D01*
X95712584Y-94647634D01*
X95734396Y-94691259D01*
X95771242Y-94723214D01*
X95817511Y-94738637D01*
X95866160Y-94735180D01*
X95909785Y-94713368D01*
X95941740Y-94676522D01*
X95951730Y-94654147D01*
X96018478Y-94453904D01*
X96314478Y-94453904D01*
X96381225Y-94654147D01*
X96391216Y-94676522D01*
X96423171Y-94713368D01*
X96466795Y-94735180D01*
X96515445Y-94738637D01*
X96561714Y-94723214D01*
X96598560Y-94691258D01*
X96620372Y-94647634D01*
X96623829Y-94598984D01*
X96618396Y-94575090D01*
X96298239Y-93614619D01*
X96708145Y-93614619D01*
X96708145Y-94614619D01*
X96710547Y-94639005D01*
X96729211Y-94684065D01*
X96763699Y-94718553D01*
X96808759Y-94737217D01*
X96857531Y-94737217D01*
X96902591Y-94718553D01*
X96937079Y-94684065D01*
X96955743Y-94639005D01*
X96958145Y-94614619D01*
X96958145Y-94215809D01*
X97279573Y-94215809D01*
X97279573Y-94614619D01*
X97281975Y-94639005D01*
X97300639Y-94684065D01*
X97335127Y-94718553D01*
X97380187Y-94737217D01*
X97428959Y-94737217D01*
X97474019Y-94718553D01*
X97508507Y-94684065D01*
X97527171Y-94639005D01*
X97529573Y-94614619D01*
X97529573Y-93685470D01*
X97710547Y-93685470D01*
X97710547Y-93734244D01*
X97729212Y-93779303D01*
X97763699Y-93813790D01*
X97808758Y-93832455D01*
X97857532Y-93832455D01*
X97902591Y-93813790D01*
X97921533Y-93798245D01*
X97948287Y-93771491D01*
X98043907Y-93739619D01*
X98098576Y-93739619D01*
X98194193Y-93771491D01*
X98254221Y-93831519D01*
X98286632Y-93896342D01*
X98327192Y-94058579D01*
X98327192Y-94170658D01*
X98286632Y-94332894D01*
X98254222Y-94397715D01*
X98194192Y-94457746D01*
X98098576Y-94489619D01*
X98043907Y-94489619D01*
X97948287Y-94457746D01*
X97921534Y-94430993D01*
X97902592Y-94415447D01*
X97857533Y-94396782D01*
X97808760Y-94396782D01*
X97763700Y-94415446D01*
X97729212Y-94449933D01*
X97710547Y-94494992D01*
X97710547Y-94543765D01*
X97729211Y-94588825D01*
X97744756Y-94607767D01*
X97792375Y-94655387D01*
X97811316Y-94670933D01*
X97815469Y-94672653D01*
X97818861Y-94675595D01*
X97841236Y-94685585D01*
X97984092Y-94733204D01*
X97996185Y-94735953D01*
X97999235Y-94737217D01*
X98003656Y-94737652D01*
X98007986Y-94738637D01*
X98011277Y-94738403D01*
X98023621Y-94739619D01*
X98118859Y-94739619D01*
X98131202Y-94738403D01*
X98134493Y-94738637D01*
X98138822Y-94737652D01*
X98143245Y-94737217D01*
X98146296Y-94735953D01*
X98158387Y-94733204D01*
X98301244Y-94685586D01*
X98323619Y-94675595D01*
X98327011Y-94672652D01*
X98331163Y-94670933D01*
X98350105Y-94655388D01*
X98445343Y-94560149D01*
X98453211Y-94550560D01*
X98455703Y-94548400D01*
X98458067Y-94544643D01*
X98460888Y-94541207D01*
X98462152Y-94538155D01*
X98468757Y-94527663D01*
X98516376Y-94432425D01*
X98517059Y-94430639D01*
X98517596Y-94429915D01*
X98521251Y-94419685D01*
X98525134Y-94409539D01*
X98525197Y-94408639D01*
X98525841Y-94406840D01*
X98573460Y-94216364D01*
X98574085Y-94212134D01*
X98574790Y-94210433D01*
X98575694Y-94201253D01*
X98577044Y-94192124D01*
X98576772Y-94190301D01*
X98577192Y-94186047D01*
X98577192Y-94043190D01*
X98576772Y-94038935D01*
X98577044Y-94037113D01*
X98575694Y-94027983D01*
X98574790Y-94018804D01*
X98574085Y-94017102D01*
X98573460Y-94012873D01*
X98525841Y-93822397D01*
X98525197Y-93820597D01*
X98525134Y-93819698D01*
X98521251Y-93809551D01*
X98517596Y-93799322D01*
X98517059Y-93798597D01*
X98516376Y-93796812D01*
X98468757Y-93701574D01*
X98462149Y-93691077D01*
X98460887Y-93688030D01*
X98458070Y-93684598D01*
X98455703Y-93680837D01*
X98453208Y-93678673D01*
X98445342Y-93669088D01*
X98366487Y-93590233D01*
X99377214Y-93590233D01*
X99377214Y-93639005D01*
X99395878Y-93684065D01*
X99430366Y-93718553D01*
X99475426Y-93737217D01*
X99499812Y-93739619D01*
X99660526Y-93739619D01*
X99660526Y-94614619D01*
X99662928Y-94639005D01*
X99681592Y-94684065D01*
X99716080Y-94718553D01*
X99761140Y-94737217D01*
X99809912Y-94737217D01*
X99854972Y-94718553D01*
X99889460Y-94684065D01*
X99908124Y-94639005D01*
X99910526Y-94614619D01*
X99910526Y-93947952D01*
X100231955Y-93947952D01*
X100231955Y-94281285D01*
X100232374Y-94285539D01*
X100232103Y-94287361D01*
X100233452Y-94296489D01*
X100234357Y-94305671D01*
X100235061Y-94307372D01*
X100235687Y-94311602D01*
X100283306Y-94502078D01*
X100291551Y-94525153D01*
X100297083Y-94532619D01*
X100300640Y-94541207D01*
X100316185Y-94560149D01*
X100411423Y-94655388D01*
X100421011Y-94663257D01*
X100423173Y-94665749D01*
X100426930Y-94668114D01*
X100430365Y-94670933D01*
X100433415Y-94672196D01*
X100443910Y-94678803D01*
X100539148Y-94726422D01*
X100562034Y-94735180D01*
X100566514Y-94735498D01*
X100570664Y-94737217D01*
X100595050Y-94739619D01*
X100785526Y-94739619D01*
X100809912Y-94737217D01*
X100814060Y-94735498D01*
X100818542Y-94735180D01*
X100841428Y-94726422D01*
X100936665Y-94678804D01*
X100947161Y-94672196D01*
X100950211Y-94670933D01*
X100953645Y-94668114D01*
X100957403Y-94665749D01*
X100959564Y-94663257D01*
X100969153Y-94655388D01*
X101064391Y-94560149D01*
X101079936Y-94541207D01*
X101083493Y-94532618D01*
X101089025Y-94525153D01*
X101097270Y-94502078D01*
X101144889Y-94311602D01*
X101145514Y-94307372D01*
X101146219Y-94305671D01*
X101147123Y-94296491D01*
X101148473Y-94287362D01*
X101148201Y-94285539D01*
X101148621Y-94281285D01*
X101279574Y-94281285D01*
X101279574Y-94424142D01*
X101281976Y-94448528D01*
X101283694Y-94452676D01*
X101284013Y-94457158D01*
X101292771Y-94480044D01*
X101340389Y-94575281D01*
X101346996Y-94585777D01*
X101348259Y-94588825D01*
X101351076Y-94592258D01*
X101353444Y-94596019D01*
X101355938Y-94598182D01*
X101363804Y-94607767D01*
X101411423Y-94655387D01*
X101421011Y-94663256D01*
X101423173Y-94665749D01*
X101426927Y-94668112D01*
X101430364Y-94670933D01*
X101433417Y-94672197D01*
X101443910Y-94678803D01*
X101539148Y-94726422D01*
X101562034Y-94735180D01*
X101566514Y-94735498D01*
X101570664Y-94737217D01*
X101595050Y-94739619D01*
X101976002Y-94739619D01*
X102000388Y-94737217D01*
X102045448Y-94718553D01*
X102079936Y-94684065D01*
X102098600Y-94639005D01*
X102101002Y-94614619D01*
X102101002Y-93947952D01*
X102279574Y-93947952D01*
X102279574Y-94281285D01*
X102279993Y-94285539D01*
X102279722Y-94287361D01*
X102281071Y-94296489D01*
X102281976Y-94305671D01*
X102282680Y-94307372D01*
X102283306Y-94311602D01*
X102330925Y-94502078D01*
X102339170Y-94525153D01*
X102344702Y-94532619D01*
X102348259Y-94541207D01*
X102363804Y-94560149D01*
X102459042Y-94655388D01*
X102468630Y-94663257D01*
X102470792Y-94665749D01*
X102474549Y-94668114D01*
X102477984Y-94670933D01*
X102481034Y-94672196D01*
X102491529Y-94678803D01*
X102586767Y-94726422D01*
X102609653Y-94735180D01*
X102614133Y-94735498D01*
X102618283Y-94737217D01*
X102642669Y-94739619D01*
X102833145Y-94739619D01*
X102857531Y-94737217D01*
X102861679Y-94735498D01*
X102866161Y-94735180D01*
X102889047Y-94726422D01*
X102984284Y-94678804D01*
X102994780Y-94672196D01*
X102997830Y-94670933D01*
X103001264Y-94668114D01*
X103005022Y-94665749D01*
X103007183Y-94663257D01*
X103016772Y-94655388D01*
X103112010Y-94560149D01*
X103127555Y-94541207D01*
X103131112Y-94532618D01*
X103136644Y-94525153D01*
X103144889Y-94502078D01*
X103192508Y-94311602D01*
X103193133Y-94307372D01*
X103193838Y-94305671D01*
X103194742Y-94296491D01*
X103196092Y-94287362D01*
X103195820Y-94285539D01*
X103196240Y-94281285D01*
X103196240Y-93947952D01*
X103195820Y-93943697D01*
X103196092Y-93941875D01*
X103194742Y-93932745D01*
X103193838Y-93923566D01*
X103193133Y-93921864D01*
X103192508Y-93917635D01*
X103164373Y-93805095D01*
X103327193Y-93805095D01*
X103327193Y-93947952D01*
X103329595Y-93972338D01*
X103331313Y-93976486D01*
X103331632Y-93980968D01*
X103340390Y-94003854D01*
X103388008Y-94099091D01*
X103394617Y-94109589D01*
X103395879Y-94112636D01*
X103398694Y-94116067D01*
X103401063Y-94119829D01*
X103403557Y-94121992D01*
X103411424Y-94131578D01*
X103459042Y-94179197D01*
X103468630Y-94187066D01*
X103470792Y-94189558D01*
X103474549Y-94191923D01*
X103477984Y-94194742D01*
X103481034Y-94196005D01*
X103491529Y-94202612D01*
X103563000Y-94238347D01*
X103349789Y-94542936D01*
X103337772Y-94564292D01*
X103327222Y-94611909D01*
X103335698Y-94659940D01*
X103361910Y-94701071D01*
X103401866Y-94729040D01*
X103449483Y-94739590D01*
X103497514Y-94731114D01*
X103538645Y-94704902D01*
X103554597Y-94686302D01*
X103850608Y-94263428D01*
X103898621Y-94263428D01*
X103898621Y-94614619D01*
X103901023Y-94639005D01*
X103919687Y-94684065D01*
X103954175Y-94718553D01*
X103999235Y-94737217D01*
X104048007Y-94737217D01*
X104093067Y-94718553D01*
X104127555Y-94684065D01*
X104146219Y-94639005D01*
X104148621Y-94614619D01*
X104148621Y-93614619D01*
X104146219Y-93590233D01*
X105091500Y-93590233D01*
X105091500Y-93639005D01*
X105110164Y-93684065D01*
X105144652Y-93718553D01*
X105189712Y-93737217D01*
X105214098Y-93739619D01*
X105565288Y-93739619D01*
X105565288Y-93965809D01*
X105356955Y-93965809D01*
X105332569Y-93968211D01*
X105287509Y-93986875D01*
X105253021Y-94021363D01*
X105234357Y-94066423D01*
X105234357Y-94115195D01*
X105253021Y-94160255D01*
X105287509Y-94194743D01*
X105332569Y-94213407D01*
X105356955Y-94215809D01*
X105565288Y-94215809D01*
X105565288Y-94489619D01*
X105214098Y-94489619D01*
X105189712Y-94492021D01*
X105144652Y-94510685D01*
X105110164Y-94545173D01*
X105091500Y-94590233D01*
X105091500Y-94639005D01*
X105110164Y-94684065D01*
X105144652Y-94718553D01*
X105189712Y-94737217D01*
X105214098Y-94739619D01*
X105690288Y-94739619D01*
X105714674Y-94737217D01*
X105759734Y-94718553D01*
X105794222Y-94684065D01*
X105812886Y-94639005D01*
X105815288Y-94614619D01*
X105815288Y-94328904D01*
X105993860Y-94328904D01*
X105993860Y-94424142D01*
X105996262Y-94448528D01*
X105997980Y-94452676D01*
X105998299Y-94457158D01*
X106007057Y-94480044D01*
X106054675Y-94575281D01*
X106061282Y-94585777D01*
X106062545Y-94588825D01*
X106065362Y-94592258D01*
X106067730Y-94596019D01*
X106070224Y-94598182D01*
X106078090Y-94607767D01*
X106125709Y-94655387D01*
X106135297Y-94663256D01*
X106137459Y-94665749D01*
X106141213Y-94668112D01*
X106144650Y-94670933D01*
X106147703Y-94672197D01*
X106158196Y-94678803D01*
X106253434Y-94726422D01*
X106276320Y-94735180D01*
X106280800Y-94735498D01*
X106284950Y-94737217D01*
X106309336Y-94739619D01*
X106547431Y-94739619D01*
X106559774Y-94738403D01*
X106563065Y-94738637D01*
X106567394Y-94737652D01*
X106571817Y-94737217D01*
X106574868Y-94735953D01*
X106586959Y-94733204D01*
X106729816Y-94685586D01*
X106752191Y-94675595D01*
X106789037Y-94643640D01*
X106810849Y-94600016D01*
X106814306Y-94551366D01*
X106798883Y-94505097D01*
X106766927Y-94468251D01*
X106723303Y-94446439D01*
X106674653Y-94442982D01*
X106650759Y-94448415D01*
X106527148Y-94489619D01*
X106338845Y-94489619D01*
X106288143Y-94464268D01*
X106269211Y-94445336D01*
X106243860Y-94394634D01*
X106243860Y-94358412D01*
X106269210Y-94307710D01*
X106288143Y-94288778D01*
X106352964Y-94256368D01*
X106530129Y-94212077D01*
X106531928Y-94211433D01*
X106532828Y-94211370D01*
X106542974Y-94207487D01*
X106553204Y-94203832D01*
X106553928Y-94203295D01*
X106555714Y-94202612D01*
X106650951Y-94154994D01*
X106661449Y-94148384D01*
X106664496Y-94147123D01*
X106667927Y-94144307D01*
X106671689Y-94141939D01*
X106673852Y-94139444D01*
X106683438Y-94131578D01*
X106731057Y-94083960D01*
X106738926Y-94074371D01*
X106741418Y-94072210D01*
X106743783Y-94068452D01*
X106746602Y-94065018D01*
X106747865Y-94061967D01*
X106754472Y-94051473D01*
X106802091Y-93956235D01*
X106810849Y-93933349D01*
X106811167Y-93928868D01*
X106812886Y-93924719D01*
X106815288Y-93900333D01*
X106815288Y-93805095D01*
X106812886Y-93780709D01*
X106811167Y-93776559D01*
X106810849Y-93772079D01*
X106802091Y-93749193D01*
X106754472Y-93653955D01*
X106747865Y-93643460D01*
X106746602Y-93640410D01*
X106743783Y-93636975D01*
X106741418Y-93633218D01*
X106738926Y-93631056D01*
X106731057Y-93621468D01*
X106699821Y-93590233D01*
X106948643Y-93590233D01*
X106948643Y-93639005D01*
X106967307Y-93684065D01*
X107001795Y-93718553D01*
X107046855Y-93737217D01*
X107071241Y-93739619D01*
X107422431Y-93739619D01*
X107422431Y-93965809D01*
X107214098Y-93965809D01*
X107189712Y-93968211D01*
X107144652Y-93986875D01*
X107110164Y-94021363D01*
X107091500Y-94066423D01*
X107091500Y-94115195D01*
X107110164Y-94160255D01*
X107144652Y-94194743D01*
X107189712Y-94213407D01*
X107214098Y-94215809D01*
X107422431Y-94215809D01*
X107422431Y-94489619D01*
X107071241Y-94489619D01*
X107046855Y-94492021D01*
X107001795Y-94510685D01*
X106967307Y-94545173D01*
X106948643Y-94590233D01*
X106948643Y-94639005D01*
X106967307Y-94684065D01*
X107001795Y-94718553D01*
X107046855Y-94737217D01*
X107071241Y-94739619D01*
X107547431Y-94739619D01*
X107571817Y-94737217D01*
X107616877Y-94718553D01*
X107651365Y-94684065D01*
X107670029Y-94639005D01*
X107672431Y-94614619D01*
X107672431Y-93614619D01*
X107670029Y-93590233D01*
X107651365Y-93545173D01*
X107616877Y-93510685D01*
X107571817Y-93492021D01*
X107547431Y-93489619D01*
X107071241Y-93489619D01*
X107046855Y-93492021D01*
X107001795Y-93510685D01*
X106967307Y-93545173D01*
X106948643Y-93590233D01*
X106699821Y-93590233D01*
X106683438Y-93573850D01*
X106673852Y-93565983D01*
X106671689Y-93563489D01*
X106667927Y-93561120D01*
X106664496Y-93558305D01*
X106661449Y-93557043D01*
X106650951Y-93550434D01*
X106555714Y-93502816D01*
X106532828Y-93494058D01*
X106528346Y-93493739D01*
X106524198Y-93492021D01*
X106499812Y-93489619D01*
X106261717Y-93489619D01*
X106249373Y-93490834D01*
X106246082Y-93490601D01*
X106241752Y-93491585D01*
X106237331Y-93492021D01*
X106234281Y-93493284D01*
X106222188Y-93496034D01*
X106079332Y-93543653D01*
X106056957Y-93553643D01*
X106020111Y-93585598D01*
X105998299Y-93629223D01*
X105994842Y-93677872D01*
X106010265Y-93724141D01*
X106042220Y-93760987D01*
X106085845Y-93782799D01*
X106134494Y-93786256D01*
X106158388Y-93780823D01*
X106282003Y-93739619D01*
X106470304Y-93739619D01*
X106521005Y-93764969D01*
X106539937Y-93783902D01*
X106565288Y-93834603D01*
X106565288Y-93870824D01*
X106539937Y-93921525D01*
X106521005Y-93940458D01*
X106456185Y-93972868D01*
X106279019Y-94017160D01*
X106277219Y-94017803D01*
X106276320Y-94017867D01*
X106266173Y-94021749D01*
X106255944Y-94025405D01*
X106255219Y-94025941D01*
X106253434Y-94026625D01*
X106158196Y-94074244D01*
X106147701Y-94080850D01*
X106144651Y-94082114D01*
X106141216Y-94084932D01*
X106137459Y-94087298D01*
X106135297Y-94089789D01*
X106125709Y-94097659D01*
X106078091Y-94145278D01*
X106070224Y-94154863D01*
X106067730Y-94157027D01*
X106065361Y-94160788D01*
X106062546Y-94164220D01*
X106061284Y-94167266D01*
X106054675Y-94177765D01*
X106007057Y-94273002D01*
X105998299Y-94295888D01*
X105997980Y-94300369D01*
X105996262Y-94304518D01*
X105993860Y-94328904D01*
X105815288Y-94328904D01*
X105815288Y-93614619D01*
X105812886Y-93590233D01*
X105794222Y-93545173D01*
X105759734Y-93510685D01*
X105714674Y-93492021D01*
X105690288Y-93489619D01*
X105214098Y-93489619D01*
X105189712Y-93492021D01*
X105144652Y-93510685D01*
X105110164Y-93545173D01*
X105091500Y-93590233D01*
X104146219Y-93590233D01*
X104127555Y-93545173D01*
X104093067Y-93510685D01*
X104048007Y-93492021D01*
X104023621Y-93489619D01*
X103642669Y-93489619D01*
X103618283Y-93492021D01*
X103614133Y-93493739D01*
X103609653Y-93494058D01*
X103586767Y-93502816D01*
X103491529Y-93550435D01*
X103481034Y-93557041D01*
X103477984Y-93558305D01*
X103474549Y-93561123D01*
X103470792Y-93563489D01*
X103468630Y-93565980D01*
X103459042Y-93573850D01*
X103411424Y-93621469D01*
X103403557Y-93631054D01*
X103401063Y-93633218D01*
X103398694Y-93636979D01*
X103395879Y-93640411D01*
X103394617Y-93643457D01*
X103388008Y-93653956D01*
X103340390Y-93749193D01*
X103331632Y-93772079D01*
X103331313Y-93776560D01*
X103329595Y-93780709D01*
X103327193Y-93805095D01*
X103164373Y-93805095D01*
X103144889Y-93727159D01*
X103136644Y-93704084D01*
X103131110Y-93696615D01*
X103127554Y-93688030D01*
X103112009Y-93669088D01*
X103016771Y-93573850D01*
X103007185Y-93565983D01*
X103005022Y-93563489D01*
X103001260Y-93561120D01*
X102997829Y-93558305D01*
X102994782Y-93557043D01*
X102984284Y-93550434D01*
X102889047Y-93502816D01*
X102866161Y-93494058D01*
X102861679Y-93493739D01*
X102857531Y-93492021D01*
X102833145Y-93489619D01*
X102642669Y-93489619D01*
X102618283Y-93492021D01*
X102614133Y-93493739D01*
X102609653Y-93494058D01*
X102586767Y-93502816D01*
X102491529Y-93550435D01*
X102481032Y-93557042D01*
X102477985Y-93558305D01*
X102474553Y-93561121D01*
X102470792Y-93563489D01*
X102468628Y-93565983D01*
X102459043Y-93573850D01*
X102363805Y-93669088D01*
X102348260Y-93688030D01*
X102344703Y-93696615D01*
X102339170Y-93704084D01*
X102330925Y-93727159D01*
X102283306Y-93917635D01*
X102282680Y-93921864D01*
X102281976Y-93923566D01*
X102281071Y-93932747D01*
X102279722Y-93941876D01*
X102279993Y-93943697D01*
X102279574Y-93947952D01*
X102101002Y-93947952D01*
X102101002Y-93614619D01*
X102098600Y-93590233D01*
X102079936Y-93545173D01*
X102045448Y-93510685D01*
X102000388Y-93492021D01*
X101976002Y-93489619D01*
X101642669Y-93489619D01*
X101618283Y-93492021D01*
X101614133Y-93493739D01*
X101609653Y-93494058D01*
X101586767Y-93502816D01*
X101491529Y-93550435D01*
X101481034Y-93557041D01*
X101477984Y-93558305D01*
X101474549Y-93561123D01*
X101470792Y-93563489D01*
X101468630Y-93565980D01*
X101459042Y-93573850D01*
X101411424Y-93621469D01*
X101403557Y-93631054D01*
X101401063Y-93633218D01*
X101398694Y-93636979D01*
X101395879Y-93640411D01*
X101394617Y-93643457D01*
X101388008Y-93653956D01*
X101340390Y-93749193D01*
X101331632Y-93772079D01*
X101331313Y-93776560D01*
X101329595Y-93780709D01*
X101327193Y-93805095D01*
X101327193Y-93900333D01*
X101329595Y-93924719D01*
X101331313Y-93928867D01*
X101331632Y-93933349D01*
X101340390Y-93956235D01*
X101388008Y-94051472D01*
X101394617Y-94061970D01*
X101395879Y-94065017D01*
X101396134Y-94065328D01*
X101363805Y-94097659D01*
X101355938Y-94107244D01*
X101353444Y-94109408D01*
X101351075Y-94113169D01*
X101348260Y-94116601D01*
X101346998Y-94119647D01*
X101340389Y-94130146D01*
X101292771Y-94225383D01*
X101284013Y-94248269D01*
X101283694Y-94252750D01*
X101281976Y-94256899D01*
X101279574Y-94281285D01*
X101148621Y-94281285D01*
X101148621Y-93947952D01*
X101148201Y-93943697D01*
X101148473Y-93941875D01*
X101147123Y-93932745D01*
X101146219Y-93923566D01*
X101145514Y-93921864D01*
X101144889Y-93917635D01*
X101097270Y-93727159D01*
X101089025Y-93704084D01*
X101083491Y-93696615D01*
X101079935Y-93688030D01*
X101064390Y-93669088D01*
X100969152Y-93573850D01*
X100959566Y-93565983D01*
X100957403Y-93563489D01*
X100953641Y-93561120D01*
X100950210Y-93558305D01*
X100947163Y-93557043D01*
X100936665Y-93550434D01*
X100841428Y-93502816D01*
X100818542Y-93494058D01*
X100814060Y-93493739D01*
X100809912Y-93492021D01*
X100785526Y-93489619D01*
X100595050Y-93489619D01*
X100570664Y-93492021D01*
X100566514Y-93493739D01*
X100562034Y-93494058D01*
X100539148Y-93502816D01*
X100443910Y-93550435D01*
X100433413Y-93557042D01*
X100430366Y-93558305D01*
X100426934Y-93561121D01*
X100423173Y-93563489D01*
X100421009Y-93565983D01*
X100411424Y-93573850D01*
X100316186Y-93669088D01*
X100300641Y-93688030D01*
X100297084Y-93696615D01*
X100291551Y-93704084D01*
X100283306Y-93727159D01*
X100235687Y-93917635D01*
X100235061Y-93921864D01*
X100234357Y-93923566D01*
X100233452Y-93932747D01*
X100232103Y-93941876D01*
X100232374Y-93943697D01*
X100231955Y-93947952D01*
X99910526Y-93947952D01*
X99910526Y-93739619D01*
X100071240Y-93739619D01*
X100095626Y-93737217D01*
X100140686Y-93718553D01*
X100175174Y-93684065D01*
X100193838Y-93639005D01*
X100193838Y-93590233D01*
X100175174Y-93545173D01*
X100140686Y-93510685D01*
X100095626Y-93492021D01*
X100071240Y-93489619D01*
X99499812Y-93489619D01*
X99475426Y-93492021D01*
X99430366Y-93510685D01*
X99395878Y-93545173D01*
X99377214Y-93590233D01*
X98366487Y-93590233D01*
X98350104Y-93573850D01*
X98331162Y-93558305D01*
X98327012Y-93556586D01*
X98323619Y-93553643D01*
X98301244Y-93543652D01*
X98158387Y-93496034D01*
X98146296Y-93493284D01*
X98143245Y-93492021D01*
X98138822Y-93491585D01*
X98134493Y-93490601D01*
X98131202Y-93490834D01*
X98118859Y-93489619D01*
X98023621Y-93489619D01*
X98011277Y-93490834D01*
X98007986Y-93490601D01*
X98003656Y-93491585D01*
X97999235Y-93492021D01*
X97996185Y-93493284D01*
X97984092Y-93496034D01*
X97841236Y-93543653D01*
X97818861Y-93553643D01*
X97815468Y-93556585D01*
X97811317Y-93558305D01*
X97792375Y-93573850D01*
X97744757Y-93621469D01*
X97729212Y-93640411D01*
X97710547Y-93685470D01*
X97529573Y-93685470D01*
X97529573Y-93614619D01*
X97527171Y-93590233D01*
X97508507Y-93545173D01*
X97474019Y-93510685D01*
X97428959Y-93492021D01*
X97380187Y-93492021D01*
X97335127Y-93510685D01*
X97300639Y-93545173D01*
X97281975Y-93590233D01*
X97279573Y-93614619D01*
X97279573Y-93965809D01*
X96958145Y-93965809D01*
X96958145Y-93614619D01*
X96955743Y-93590233D01*
X96937079Y-93545173D01*
X96902591Y-93510685D01*
X96857531Y-93492021D01*
X96808759Y-93492021D01*
X96763699Y-93510685D01*
X96729211Y-93545173D01*
X96710547Y-93590233D01*
X96708145Y-93614619D01*
X96298239Y-93614619D01*
X96285063Y-93575091D01*
X96275073Y-93552716D01*
X96269221Y-93545968D01*
X96265227Y-93537980D01*
X96253389Y-93527713D01*
X96243118Y-93515870D01*
X96235126Y-93511874D01*
X96228381Y-93506024D01*
X96213513Y-93501068D01*
X96199493Y-93494058D01*
X96190583Y-93493424D01*
X96182112Y-93490601D01*
X96166477Y-93491711D01*
X96150844Y-93490601D01*
X96142372Y-93493424D01*
X96133462Y-93494058D01*
X96119440Y-93501069D01*
X96104575Y-93506024D01*
X96097829Y-93511874D01*
X96089838Y-93515870D01*
X96079569Y-93527710D01*
X96067729Y-93537979D01*
X96063733Y-93545969D01*
X96057883Y-93552716D01*
X96047892Y-93575091D01*
X95714560Y-94575091D01*
X95709127Y-94598985D01*
X95481954Y-94598985D01*
X95481954Y-93739619D01*
X95642668Y-93739619D01*
X95667054Y-93737217D01*
X95712114Y-93718553D01*
X95746602Y-93684065D01*
X95765266Y-93639005D01*
X95765266Y-93590233D01*
X95746602Y-93545173D01*
X95712114Y-93510685D01*
X95667054Y-93492021D01*
X95642668Y-93489619D01*
X95071240Y-93489619D01*
X95046854Y-93492021D01*
X95001794Y-93510685D01*
X94967306Y-93545173D01*
X94948642Y-93590233D01*
X94823642Y-93590233D01*
X94823642Y-93364619D01*
X107797431Y-93364619D01*
X107797431Y-94864619D01*
G37*
G36*
X99462907Y-92939619D02*
G01*
X99370098Y-92939619D01*
X99274479Y-92907746D01*
X99214448Y-92847715D01*
X99182038Y-92782896D01*
X99141479Y-92620658D01*
X99141479Y-92508579D01*
X99182038Y-92346341D01*
X99214449Y-92281520D01*
X99274477Y-92221491D01*
X99370098Y-92189619D01*
X99462907Y-92189619D01*
X99462907Y-92939619D01*
G37*
G36*
X103415288Y-92463428D02*
G01*
X103188845Y-92463428D01*
X103138143Y-92438077D01*
X103119210Y-92419145D01*
X103093860Y-92368444D01*
X103093860Y-92284603D01*
X103119210Y-92233901D01*
X103138143Y-92214969D01*
X103188845Y-92189619D01*
X103415288Y-92189619D01*
X103415288Y-92463428D01*
G37*
G36*
X101366860Y-92653904D02*
G01*
X101237526Y-92653904D01*
X101302192Y-92459903D01*
X101366860Y-92653904D01*
G37*
G36*
X107789306Y-93314619D02*
G01*
X96909336Y-93314619D01*
X96909336Y-92778904D01*
X97034336Y-92778904D01*
X97034336Y-92874142D01*
X97036738Y-92898528D01*
X97038456Y-92902676D01*
X97038775Y-92907158D01*
X97047533Y-92930044D01*
X97095151Y-93025281D01*
X97101758Y-93035777D01*
X97103021Y-93038825D01*
X97105838Y-93042258D01*
X97108206Y-93046019D01*
X97110700Y-93048182D01*
X97118566Y-93057767D01*
X97166185Y-93105387D01*
X97175773Y-93113256D01*
X97177935Y-93115749D01*
X97181689Y-93118112D01*
X97185126Y-93120933D01*
X97188179Y-93122197D01*
X97198672Y-93128803D01*
X97293910Y-93176422D01*
X97316796Y-93185180D01*
X97321276Y-93185498D01*
X97325426Y-93187217D01*
X97349812Y-93189619D01*
X97587907Y-93189619D01*
X97600250Y-93188403D01*
X97603541Y-93188637D01*
X97607870Y-93187652D01*
X97612293Y-93187217D01*
X97615344Y-93185953D01*
X97627435Y-93183204D01*
X97770292Y-93135586D01*
X97792667Y-93125595D01*
X97829513Y-93093640D01*
X97851325Y-93050016D01*
X97854782Y-93001366D01*
X97839359Y-92955097D01*
X97807403Y-92918251D01*
X97763779Y-92896439D01*
X97715129Y-92892982D01*
X97691235Y-92898415D01*
X97567624Y-92939619D01*
X97379321Y-92939619D01*
X97328619Y-92914268D01*
X97309687Y-92895336D01*
X97284336Y-92844634D01*
X97284336Y-92808412D01*
X97309686Y-92757710D01*
X97328619Y-92738778D01*
X97393440Y-92706368D01*
X97570605Y-92662077D01*
X97572404Y-92661433D01*
X97573304Y-92661370D01*
X97583450Y-92657487D01*
X97593680Y-92653832D01*
X97594404Y-92653295D01*
X97596190Y-92652612D01*
X97691427Y-92604994D01*
X97701925Y-92598384D01*
X97704972Y-92597123D01*
X97708403Y-92594307D01*
X97712165Y-92591939D01*
X97714328Y-92589444D01*
X97723914Y-92581578D01*
X97771533Y-92533960D01*
X97779402Y-92524371D01*
X97781894Y-92522210D01*
X97784259Y-92518452D01*
X97787078Y-92515018D01*
X97788341Y-92511967D01*
X97794948Y-92501473D01*
X97842567Y-92406235D01*
X97851325Y-92383349D01*
X97851643Y-92378868D01*
X97853362Y-92374719D01*
X97855764Y-92350333D01*
X97855764Y-92255095D01*
X97853362Y-92230709D01*
X97851643Y-92226559D01*
X97851325Y-92222079D01*
X97842567Y-92199193D01*
X97794948Y-92103955D01*
X97788341Y-92093460D01*
X97787078Y-92090410D01*
X97784259Y-92086975D01*
X97781894Y-92083218D01*
X97779402Y-92081056D01*
X97771533Y-92071468D01*
X97740297Y-92040233D01*
X97989119Y-92040233D01*
X97989119Y-92089005D01*
X98007783Y-92134065D01*
X98042271Y-92168553D01*
X98087331Y-92187217D01*
X98111717Y-92189619D01*
X98462907Y-92189619D01*
X98462907Y-92415809D01*
X98254574Y-92415809D01*
X98230188Y-92418211D01*
X98185128Y-92436875D01*
X98150640Y-92471363D01*
X98131976Y-92516423D01*
X98131976Y-92565195D01*
X98150640Y-92610255D01*
X98185128Y-92644743D01*
X98230188Y-92663407D01*
X98254574Y-92665809D01*
X98462907Y-92665809D01*
X98462907Y-92939619D01*
X98111717Y-92939619D01*
X98087331Y-92942021D01*
X98042271Y-92960685D01*
X98007783Y-92995173D01*
X97989119Y-93040233D01*
X97989119Y-93089005D01*
X98007783Y-93134065D01*
X98042271Y-93168553D01*
X98087331Y-93187217D01*
X98111717Y-93189619D01*
X98587907Y-93189619D01*
X98612293Y-93187217D01*
X98657353Y-93168553D01*
X98691841Y-93134065D01*
X98710505Y-93089005D01*
X98712907Y-93064619D01*
X98712907Y-92493190D01*
X98891479Y-92493190D01*
X98891479Y-92636047D01*
X98891898Y-92640301D01*
X98891627Y-92642123D01*
X98892976Y-92651251D01*
X98893881Y-92660433D01*
X98894585Y-92662134D01*
X98895211Y-92666364D01*
X98942830Y-92856840D01*
X98943473Y-92858639D01*
X98943537Y-92859539D01*
X98947419Y-92869685D01*
X98951075Y-92879915D01*
X98951611Y-92880639D01*
X98952295Y-92882425D01*
X98999913Y-92977662D01*
X99006519Y-92988156D01*
X99007783Y-92991207D01*
X99010603Y-92994643D01*
X99012968Y-92998400D01*
X99015459Y-93000560D01*
X99023328Y-93010149D01*
X99118566Y-93105388D01*
X99137508Y-93120933D01*
X99141659Y-93122652D01*
X99145052Y-93125595D01*
X99167427Y-93135585D01*
X99310283Y-93183204D01*
X99322376Y-93185953D01*
X99325426Y-93187217D01*
X99329847Y-93187652D01*
X99334177Y-93188637D01*
X99337468Y-93188403D01*
X99349812Y-93189619D01*
X99587907Y-93189619D01*
X99612293Y-93187217D01*
X99657353Y-93168553D01*
X99691841Y-93134065D01*
X99710505Y-93089005D01*
X99712907Y-93064619D01*
X99712907Y-92064619D01*
X99939098Y-92064619D01*
X99939098Y-93064619D01*
X99939715Y-93070889D01*
X99939403Y-93073349D01*
X99940271Y-93076533D01*
X99941500Y-93089005D01*
X99947861Y-93104362D01*
X99952236Y-93120404D01*
X99957115Y-93126704D01*
X99960164Y-93134065D01*
X99971919Y-93145820D01*
X99982099Y-93158965D01*
X99989017Y-93162918D01*
X99994652Y-93168553D01*
X100010010Y-93174914D01*
X100024445Y-93183163D01*
X100032351Y-93184168D01*
X100039712Y-93187217D01*
X100056333Y-93187217D01*
X100072828Y-93189314D01*
X100080517Y-93187217D01*
X100088484Y-93187217D01*
X100103841Y-93180855D01*
X100119883Y-93176481D01*
X100126183Y-93171601D01*
X100133544Y-93168553D01*
X100145299Y-93156797D01*
X100158444Y-93146618D01*
X100165697Y-93136399D01*
X100168032Y-93134065D01*
X100168981Y-93131773D01*
X100172628Y-93126636D01*
X100510526Y-92535314D01*
X100510526Y-93064619D01*
X100512928Y-93089005D01*
X100531592Y-93134065D01*
X100566080Y-93168553D01*
X100611140Y-93187217D01*
X100659912Y-93187217D01*
X100704972Y-93168553D01*
X100739460Y-93134065D01*
X100758124Y-93089005D01*
X100760526Y-93064619D01*
X100760526Y-93048985D01*
X100844842Y-93048985D01*
X100848299Y-93097634D01*
X100870111Y-93141259D01*
X100906957Y-93173214D01*
X100953226Y-93188637D01*
X101001875Y-93185180D01*
X101045500Y-93163368D01*
X101077455Y-93126522D01*
X101087445Y-93104147D01*
X101154193Y-92903904D01*
X101450193Y-92903904D01*
X101516940Y-93104147D01*
X101526931Y-93126522D01*
X101558886Y-93163368D01*
X101602510Y-93185180D01*
X101651160Y-93188637D01*
X101697429Y-93173214D01*
X101734275Y-93141258D01*
X101756087Y-93097634D01*
X101759544Y-93048984D01*
X101754111Y-93025090D01*
X101433954Y-92064619D01*
X101843860Y-92064619D01*
X101843860Y-93064619D01*
X101844477Y-93070889D01*
X101844165Y-93073349D01*
X101845033Y-93076533D01*
X101846262Y-93089005D01*
X101852623Y-93104362D01*
X101856998Y-93120404D01*
X101861877Y-93126704D01*
X101864926Y-93134065D01*
X101876681Y-93145820D01*
X101886861Y-93158965D01*
X101893779Y-93162918D01*
X101899414Y-93168553D01*
X101914772Y-93174914D01*
X101929207Y-93183163D01*
X101937113Y-93184168D01*
X101944474Y-93187217D01*
X101961095Y-93187217D01*
X101977590Y-93189314D01*
X101985279Y-93187217D01*
X101993246Y-93187217D01*
X102008603Y-93180855D01*
X102024645Y-93176481D01*
X102030945Y-93171601D01*
X102038306Y-93168553D01*
X102050061Y-93156797D01*
X102063206Y-93146618D01*
X102070459Y-93136399D01*
X102072794Y-93134065D01*
X102073743Y-93131773D01*
X102077390Y-93126636D01*
X102415288Y-92535314D01*
X102415288Y-93064619D01*
X102417690Y-93089005D01*
X102436354Y-93134065D01*
X102470842Y-93168553D01*
X102515902Y-93187217D01*
X102564674Y-93187217D01*
X102609734Y-93168553D01*
X102644222Y-93134065D01*
X102662886Y-93089005D01*
X102665288Y-93064619D01*
X102665288Y-92255095D01*
X102843860Y-92255095D01*
X102843860Y-92397952D01*
X102846262Y-92422338D01*
X102847980Y-92426486D01*
X102848299Y-92430968D01*
X102857057Y-92453854D01*
X102904675Y-92549091D01*
X102911284Y-92559589D01*
X102912546Y-92562636D01*
X102915361Y-92566067D01*
X102917730Y-92569829D01*
X102920224Y-92571992D01*
X102928091Y-92581578D01*
X102975709Y-92629197D01*
X102985297Y-92637066D01*
X102987459Y-92639558D01*
X102991216Y-92641923D01*
X102994651Y-92644742D01*
X102997701Y-92646005D01*
X103008196Y-92652612D01*
X103079667Y-92688347D01*
X102866456Y-92992936D01*
X102854439Y-93014292D01*
X102843889Y-93061909D01*
X102852365Y-93109940D01*
X102878577Y-93151071D01*
X102918533Y-93179040D01*
X102966150Y-93189590D01*
X103014181Y-93181114D01*
X103055312Y-93154902D01*
X103071264Y-93136302D01*
X103367275Y-92713428D01*
X103415288Y-92713428D01*
X103415288Y-93064619D01*
X103417690Y-93089005D01*
X103436354Y-93134065D01*
X103470842Y-93168553D01*
X103515902Y-93187217D01*
X103564674Y-93187217D01*
X103609734Y-93168553D01*
X103644222Y-93134065D01*
X103662886Y-93089005D01*
X103665288Y-93064619D01*
X103665288Y-92064619D01*
X103662886Y-92040233D01*
X103846262Y-92040233D01*
X103846262Y-92089005D01*
X103864926Y-92134065D01*
X103899414Y-92168553D01*
X103944474Y-92187217D01*
X103968860Y-92189619D01*
X104320050Y-92189619D01*
X104320050Y-92415809D01*
X104111717Y-92415809D01*
X104087331Y-92418211D01*
X104042271Y-92436875D01*
X104007783Y-92471363D01*
X103989119Y-92516423D01*
X103989119Y-92565195D01*
X104007783Y-92610255D01*
X104042271Y-92644743D01*
X104087331Y-92663407D01*
X104111717Y-92665809D01*
X104320050Y-92665809D01*
X104320050Y-92939619D01*
X103968860Y-92939619D01*
X103944474Y-92942021D01*
X103899414Y-92960685D01*
X103864926Y-92995173D01*
X103846262Y-93040233D01*
X103846262Y-93089005D01*
X103864926Y-93134065D01*
X103899414Y-93168553D01*
X103944474Y-93187217D01*
X103968860Y-93189619D01*
X104445050Y-93189619D01*
X104469436Y-93187217D01*
X104514496Y-93168553D01*
X104548984Y-93134065D01*
X104567648Y-93089005D01*
X104570050Y-93064619D01*
X104570050Y-92064619D01*
X104567648Y-92040233D01*
X104703405Y-92040233D01*
X104703405Y-92089005D01*
X104722069Y-92134065D01*
X104756557Y-92168553D01*
X104801617Y-92187217D01*
X104826003Y-92189619D01*
X105177193Y-92189619D01*
X105177193Y-92415809D01*
X104968860Y-92415809D01*
X104944474Y-92418211D01*
X104899414Y-92436875D01*
X104864926Y-92471363D01*
X104846262Y-92516423D01*
X104846262Y-92565195D01*
X104864926Y-92610255D01*
X104899414Y-92644743D01*
X104944474Y-92663407D01*
X104968860Y-92665809D01*
X105177193Y-92665809D01*
X105177193Y-93064619D01*
X105179595Y-93089005D01*
X105198259Y-93134065D01*
X105232747Y-93168553D01*
X105277807Y-93187217D01*
X105326579Y-93187217D01*
X105371639Y-93168553D01*
X105406127Y-93134065D01*
X105424791Y-93089005D01*
X105427193Y-93064619D01*
X105427193Y-92992613D01*
X106370071Y-92992613D01*
X106370071Y-92992614D01*
X106370071Y-92992615D01*
X106370071Y-93041388D01*
X106388736Y-93086447D01*
X106388740Y-93086451D01*
X106404281Y-93105388D01*
X106451899Y-93153007D01*
X106470841Y-93168552D01*
X106470842Y-93168553D01*
X106497237Y-93179485D01*
X106515901Y-93187217D01*
X106515902Y-93187217D01*
X106564674Y-93187217D01*
X106564675Y-93187217D01*
X106579408Y-93181114D01*
X106609734Y-93168553D01*
X106609739Y-93168547D01*
X106628676Y-93153007D01*
X106676295Y-93105389D01*
X106691840Y-93086447D01*
X106707358Y-93048984D01*
X106710505Y-93041388D01*
X106710505Y-92992614D01*
X106691841Y-92947555D01*
X106676296Y-92928612D01*
X106628677Y-92880993D01*
X106609735Y-92865447D01*
X106609734Y-92865446D01*
X106588957Y-92856840D01*
X106564676Y-92846782D01*
X106564674Y-92846782D01*
X106564673Y-92846782D01*
X106515900Y-92846782D01*
X106470840Y-92865447D01*
X106451899Y-92880993D01*
X106404280Y-92928613D01*
X106388735Y-92947555D01*
X106385611Y-92955097D01*
X106370071Y-92992613D01*
X105427193Y-92992613D01*
X105427193Y-92080253D01*
X106749604Y-92080253D01*
X106755037Y-92104147D01*
X107088369Y-93104147D01*
X107098360Y-93126522D01*
X107104210Y-93133268D01*
X107108206Y-93141259D01*
X107120046Y-93151527D01*
X107130315Y-93163368D01*
X107138306Y-93167363D01*
X107145052Y-93173214D01*
X107159917Y-93178169D01*
X107173939Y-93185180D01*
X107182849Y-93185813D01*
X107191321Y-93188637D01*
X107206954Y-93187526D01*
X107222589Y-93188637D01*
X107231060Y-93185813D01*
X107239970Y-93185180D01*
X107253990Y-93178169D01*
X107268858Y-93173214D01*
X107275603Y-93167363D01*
X107283595Y-93163368D01*
X107293866Y-93151524D01*
X107305704Y-93141258D01*
X107309698Y-93133269D01*
X107315550Y-93126522D01*
X107325540Y-93104147D01*
X107658873Y-92104148D01*
X107664306Y-92080254D01*
X107660849Y-92031604D01*
X107639037Y-91987980D01*
X107602191Y-91956024D01*
X107555922Y-91940601D01*
X107507272Y-91944058D01*
X107463648Y-91965870D01*
X107431693Y-92002716D01*
X107421702Y-92025091D01*
X107206954Y-92669334D01*
X106992207Y-92025091D01*
X106982217Y-92002716D01*
X106950262Y-91965870D01*
X106906637Y-91944058D01*
X106857988Y-91940601D01*
X106811719Y-91956024D01*
X106774873Y-91987979D01*
X106753061Y-92031604D01*
X106749604Y-92080253D01*
X105427193Y-92080253D01*
X105427193Y-92064619D01*
X105424791Y-92040233D01*
X105406127Y-91995173D01*
X105371639Y-91960685D01*
X105326579Y-91942021D01*
X105302193Y-91939619D01*
X104826003Y-91939619D01*
X104801617Y-91942021D01*
X104756557Y-91960685D01*
X104722069Y-91995173D01*
X104703405Y-92040233D01*
X104567648Y-92040233D01*
X104548984Y-91995173D01*
X104514496Y-91960685D01*
X104469436Y-91942021D01*
X104445050Y-91939619D01*
X103968860Y-91939619D01*
X103944474Y-91942021D01*
X103899414Y-91960685D01*
X103864926Y-91995173D01*
X103846262Y-92040233D01*
X103662886Y-92040233D01*
X103644222Y-91995173D01*
X103609734Y-91960685D01*
X103564674Y-91942021D01*
X103540288Y-91939619D01*
X103159336Y-91939619D01*
X103134950Y-91942021D01*
X103130800Y-91943739D01*
X103126320Y-91944058D01*
X103103434Y-91952816D01*
X103008196Y-92000435D01*
X102997701Y-92007041D01*
X102994651Y-92008305D01*
X102991216Y-92011123D01*
X102987459Y-92013489D01*
X102985297Y-92015980D01*
X102975709Y-92023850D01*
X102928091Y-92071469D01*
X102920224Y-92081054D01*
X102917730Y-92083218D01*
X102915361Y-92086979D01*
X102912546Y-92090411D01*
X102911284Y-92093457D01*
X102904675Y-92103956D01*
X102857057Y-92199193D01*
X102848299Y-92222079D01*
X102847980Y-92226560D01*
X102846262Y-92230709D01*
X102843860Y-92255095D01*
X102665288Y-92255095D01*
X102665288Y-92064619D01*
X102664670Y-92058347D01*
X102664983Y-92055888D01*
X102664114Y-92052702D01*
X102662886Y-92040233D01*
X102656525Y-92024876D01*
X102652150Y-92008834D01*
X102647270Y-92002533D01*
X102644222Y-91995173D01*
X102632466Y-91983417D01*
X102622287Y-91970273D01*
X102615368Y-91966319D01*
X102609734Y-91960685D01*
X102594375Y-91954323D01*
X102579941Y-91946075D01*
X102572034Y-91945069D01*
X102564674Y-91942021D01*
X102548053Y-91942021D01*
X102531558Y-91939924D01*
X102523869Y-91942021D01*
X102515902Y-91942021D01*
X102500544Y-91948382D01*
X102484503Y-91952757D01*
X102478202Y-91957636D01*
X102470842Y-91960685D01*
X102459086Y-91972440D01*
X102445942Y-91982620D01*
X102438688Y-91992838D01*
X102436354Y-91995173D01*
X102435404Y-91997464D01*
X102431758Y-92002602D01*
X102093860Y-92593924D01*
X102093860Y-92064619D01*
X102091458Y-92040233D01*
X102072794Y-91995173D01*
X102038306Y-91960685D01*
X101993246Y-91942021D01*
X101944474Y-91942021D01*
X101899414Y-91960685D01*
X101864926Y-91995173D01*
X101846262Y-92040233D01*
X101843860Y-92064619D01*
X101433954Y-92064619D01*
X101420778Y-92025091D01*
X101410788Y-92002716D01*
X101404936Y-91995968D01*
X101400942Y-91987980D01*
X101389104Y-91977713D01*
X101378833Y-91965870D01*
X101370841Y-91961874D01*
X101364096Y-91956024D01*
X101349228Y-91951068D01*
X101335208Y-91944058D01*
X101326298Y-91943424D01*
X101317827Y-91940601D01*
X101302192Y-91941711D01*
X101286559Y-91940601D01*
X101278087Y-91943424D01*
X101269177Y-91944058D01*
X101255155Y-91951069D01*
X101240290Y-91956024D01*
X101233544Y-91961874D01*
X101225553Y-91965870D01*
X101215284Y-91977710D01*
X101203444Y-91987979D01*
X101199448Y-91995969D01*
X101193598Y-92002716D01*
X101183607Y-92025091D01*
X100850275Y-93025091D01*
X100844842Y-93048985D01*
X100760526Y-93048985D01*
X100760526Y-92064619D01*
X100759908Y-92058347D01*
X100760221Y-92055888D01*
X100759352Y-92052702D01*
X100758124Y-92040233D01*
X100751763Y-92024876D01*
X100747388Y-92008834D01*
X100742508Y-92002533D01*
X100739460Y-91995173D01*
X100727704Y-91983417D01*
X100717525Y-91970273D01*
X100710606Y-91966319D01*
X100704972Y-91960685D01*
X100689613Y-91954323D01*
X100675179Y-91946075D01*
X100667272Y-91945069D01*
X100659912Y-91942021D01*
X100643291Y-91942021D01*
X100626796Y-91939924D01*
X100619107Y-91942021D01*
X100611140Y-91942021D01*
X100595782Y-91948382D01*
X100579741Y-91952757D01*
X100573440Y-91957636D01*
X100566080Y-91960685D01*
X100554324Y-91972440D01*
X100541180Y-91982620D01*
X100533926Y-91992838D01*
X100531592Y-91995173D01*
X100530642Y-91997464D01*
X100526996Y-92002602D01*
X100189098Y-92593924D01*
X100189098Y-92064619D01*
X100186696Y-92040233D01*
X100168032Y-91995173D01*
X100133544Y-91960685D01*
X100088484Y-91942021D01*
X100039712Y-91942021D01*
X99994652Y-91960685D01*
X99960164Y-91995173D01*
X99941500Y-92040233D01*
X99939098Y-92064619D01*
X99712907Y-92064619D01*
X99710505Y-92040233D01*
X99691841Y-91995173D01*
X99657353Y-91960685D01*
X99612293Y-91942021D01*
X99587907Y-91939619D01*
X99349812Y-91939619D01*
X99337468Y-91940834D01*
X99334177Y-91940601D01*
X99329847Y-91941585D01*
X99325426Y-91942021D01*
X99322376Y-91943284D01*
X99310283Y-91946034D01*
X99167427Y-91993653D01*
X99145052Y-92003643D01*
X99141658Y-92006586D01*
X99137509Y-92008305D01*
X99118567Y-92023850D01*
X99023329Y-92119088D01*
X99015462Y-92128673D01*
X99012968Y-92130837D01*
X99010599Y-92134598D01*
X99007784Y-92138030D01*
X99006522Y-92141076D01*
X98999913Y-92151575D01*
X98952295Y-92246812D01*
X98951611Y-92248597D01*
X98951075Y-92249322D01*
X98947419Y-92259551D01*
X98943537Y-92269698D01*
X98943473Y-92270597D01*
X98942830Y-92272397D01*
X98895211Y-92462873D01*
X98894585Y-92467102D01*
X98893881Y-92468804D01*
X98892976Y-92477985D01*
X98891627Y-92487114D01*
X98891898Y-92488935D01*
X98891479Y-92493190D01*
X98712907Y-92493190D01*
X98712907Y-92064619D01*
X98710505Y-92040233D01*
X98691841Y-91995173D01*
X98657353Y-91960685D01*
X98612293Y-91942021D01*
X98587907Y-91939619D01*
X98111717Y-91939619D01*
X98087331Y-91942021D01*
X98042271Y-91960685D01*
X98007783Y-91995173D01*
X97989119Y-92040233D01*
X97740297Y-92040233D01*
X97723914Y-92023850D01*
X97714328Y-92015983D01*
X97712165Y-92013489D01*
X97708403Y-92011120D01*
X97704972Y-92008305D01*
X97701925Y-92007043D01*
X97691427Y-92000434D01*
X97596190Y-91952816D01*
X97573304Y-91944058D01*
X97568822Y-91943739D01*
X97564674Y-91942021D01*
X97540288Y-91939619D01*
X97302193Y-91939619D01*
X97289849Y-91940834D01*
X97286558Y-91940601D01*
X97282228Y-91941585D01*
X97277807Y-91942021D01*
X97274757Y-91943284D01*
X97262664Y-91946034D01*
X97119808Y-91993653D01*
X97097433Y-92003643D01*
X97060587Y-92035598D01*
X97038775Y-92079223D01*
X97035318Y-92127872D01*
X97050741Y-92174141D01*
X97082696Y-92210987D01*
X97126321Y-92232799D01*
X97174970Y-92236256D01*
X97198864Y-92230823D01*
X97322479Y-92189619D01*
X97510780Y-92189619D01*
X97561481Y-92214969D01*
X97580413Y-92233902D01*
X97605764Y-92284603D01*
X97605764Y-92320824D01*
X97580413Y-92371525D01*
X97561481Y-92390458D01*
X97496661Y-92422868D01*
X97319495Y-92467160D01*
X97317695Y-92467803D01*
X97316796Y-92467867D01*
X97306649Y-92471749D01*
X97296420Y-92475405D01*
X97295695Y-92475941D01*
X97293910Y-92476625D01*
X97198672Y-92524244D01*
X97188177Y-92530850D01*
X97185127Y-92532114D01*
X97181692Y-92534932D01*
X97177935Y-92537298D01*
X97175773Y-92539789D01*
X97166185Y-92547659D01*
X97118567Y-92595278D01*
X97110700Y-92604863D01*
X97108206Y-92607027D01*
X97105837Y-92610788D01*
X97103022Y-92614220D01*
X97101760Y-92617266D01*
X97095151Y-92627765D01*
X97047533Y-92723002D01*
X97038775Y-92745888D01*
X97038456Y-92750369D01*
X97036738Y-92754518D01*
X97034336Y-92778904D01*
X96909336Y-92778904D01*
X96909336Y-91814619D01*
X107789306Y-91814619D01*
X107789306Y-93314619D01*
G37*
D11*
G36*
X86368651Y-70353261D02*
G01*
X86361476Y-70338910D01*
X86361476Y-70273180D01*
X86369370Y-70257391D01*
X86385158Y-70249498D01*
X86389405Y-70249498D01*
X86368651Y-70353261D01*
G37*
G36*
X86547669Y-69524079D02*
G01*
X86557133Y-69533543D01*
X86569809Y-69558894D01*
X86569809Y-69600815D01*
X86557133Y-69626166D01*
X86547669Y-69635631D01*
X86522317Y-69648307D01*
X86408968Y-69648307D01*
X86383616Y-69635631D01*
X86374152Y-69626167D01*
X86361476Y-69600815D01*
X86361476Y-69558895D01*
X86374152Y-69533543D01*
X86383616Y-69524078D01*
X86408968Y-69511403D01*
X86522317Y-69511403D01*
X86547669Y-69524079D01*
G37*
G36*
X86757309Y-71354858D02*
G01*
X86007370Y-71354858D01*
X86007370Y-71186997D01*
X86236476Y-71186997D01*
X86236476Y-71234616D01*
X86241234Y-71258534D01*
X86275058Y-71292358D01*
X86322894Y-71292358D01*
X86356718Y-71258534D01*
X86361476Y-71234616D01*
X86361476Y-71201751D01*
X86374151Y-71176399D01*
X86383617Y-71166934D01*
X86408967Y-71154259D01*
X86632309Y-71154259D01*
X86656227Y-71149501D01*
X86690051Y-71115677D01*
X86690051Y-71067841D01*
X86656227Y-71034017D01*
X86632309Y-71029259D01*
X86298976Y-71029259D01*
X86275058Y-71034017D01*
X86241234Y-71067841D01*
X86241234Y-71115677D01*
X86256917Y-71131360D01*
X86243074Y-71159047D01*
X86242247Y-71162065D01*
X86241234Y-71163079D01*
X86239280Y-71172900D01*
X86236633Y-71182567D01*
X86237086Y-71183927D01*
X86236476Y-71186997D01*
X86007370Y-71186997D01*
X86007370Y-70615460D01*
X86241234Y-70615460D01*
X86241234Y-70663296D01*
X86275058Y-70697120D01*
X86298976Y-70701878D01*
X86546125Y-70701878D01*
X86561915Y-70709773D01*
X86569809Y-70725560D01*
X86569809Y-70767481D01*
X86557968Y-70791164D01*
X86298976Y-70791164D01*
X86275058Y-70795922D01*
X86241234Y-70829746D01*
X86241234Y-70877582D01*
X86275058Y-70911406D01*
X86298976Y-70916164D01*
X86632309Y-70916164D01*
X86656227Y-70911406D01*
X86690051Y-70877582D01*
X86690051Y-70829746D01*
X86682304Y-70821999D01*
X86688211Y-70810186D01*
X86689037Y-70807166D01*
X86690051Y-70806153D01*
X86692005Y-70796325D01*
X86694651Y-70786665D01*
X86694198Y-70785306D01*
X86694809Y-70782235D01*
X86694809Y-70710807D01*
X86694198Y-70707735D01*
X86694651Y-70706377D01*
X86692005Y-70696716D01*
X86690051Y-70686889D01*
X86689037Y-70685875D01*
X86688211Y-70682856D01*
X86664402Y-70635238D01*
X86656771Y-70625406D01*
X86655716Y-70622239D01*
X86652189Y-70619501D01*
X86649450Y-70615972D01*
X86646280Y-70614915D01*
X86636451Y-70607286D01*
X86588831Y-70583476D01*
X86585811Y-70582649D01*
X86584798Y-70581636D01*
X86574970Y-70579681D01*
X86565310Y-70577036D01*
X86563951Y-70577488D01*
X86560880Y-70576878D01*
X86298976Y-70576878D01*
X86275058Y-70581636D01*
X86241234Y-70615460D01*
X86007370Y-70615460D01*
X86007370Y-70258426D01*
X86236476Y-70258426D01*
X86236476Y-70353664D01*
X86237086Y-70356733D01*
X86236633Y-70358094D01*
X86239280Y-70367760D01*
X86241234Y-70377582D01*
X86242247Y-70378595D01*
X86243074Y-70381614D01*
X86266883Y-70429233D01*
X86274513Y-70439063D01*
X86275569Y-70442232D01*
X86279096Y-70444970D01*
X86281835Y-70448498D01*
X86285003Y-70449554D01*
X86294834Y-70457184D01*
X86342453Y-70480995D01*
X86345472Y-70481821D01*
X86346486Y-70482835D01*
X86356311Y-70484789D01*
X86365973Y-70487435D01*
X86367332Y-70486981D01*
X86370404Y-70487593D01*
X86418023Y-70487593D01*
X86427084Y-70485790D01*
X86430152Y-70486404D01*
X86432768Y-70484659D01*
X86441941Y-70482835D01*
X86454810Y-70469965D01*
X86469953Y-70459871D01*
X86473540Y-70451235D01*
X86475765Y-70449011D01*
X86475765Y-70445880D01*
X86479309Y-70437350D01*
X86516879Y-70249498D01*
X86546127Y-70249498D01*
X86561915Y-70257392D01*
X86569809Y-70273179D01*
X86569809Y-70338910D01*
X86552598Y-70373333D01*
X86546157Y-70396853D01*
X86561284Y-70442233D01*
X86604070Y-70463626D01*
X86649450Y-70448499D01*
X86664402Y-70429233D01*
X86688211Y-70381615D01*
X86689037Y-70378595D01*
X86690051Y-70377582D01*
X86692005Y-70367754D01*
X86694651Y-70358094D01*
X86694198Y-70356735D01*
X86694809Y-70353664D01*
X86694809Y-70258426D01*
X86694198Y-70255354D01*
X86694651Y-70253996D01*
X86692005Y-70244335D01*
X86690051Y-70234508D01*
X86689037Y-70233494D01*
X86688211Y-70230475D01*
X86664402Y-70182857D01*
X86656771Y-70173024D01*
X86655715Y-70169856D01*
X86652187Y-70167118D01*
X86649450Y-70163591D01*
X86646281Y-70162534D01*
X86636450Y-70154905D01*
X86588830Y-70131096D01*
X86585811Y-70130269D01*
X86584798Y-70129256D01*
X86574974Y-70127301D01*
X86565309Y-70124655D01*
X86563948Y-70125108D01*
X86560880Y-70124498D01*
X86370404Y-70124498D01*
X86367332Y-70125108D01*
X86365974Y-70124656D01*
X86356313Y-70127301D01*
X86346486Y-70129256D01*
X86345472Y-70130269D01*
X86342453Y-70131096D01*
X86294835Y-70154905D01*
X86285001Y-70162536D01*
X86281835Y-70163592D01*
X86279098Y-70167117D01*
X86275569Y-70169857D01*
X86274512Y-70173026D01*
X86266883Y-70182857D01*
X86243074Y-70230476D01*
X86242247Y-70233494D01*
X86241234Y-70234508D01*
X86239280Y-70244329D01*
X86236633Y-70253996D01*
X86237086Y-70255356D01*
X86236476Y-70258426D01*
X86007370Y-70258426D01*
X86007370Y-69901175D01*
X86074567Y-69901175D01*
X86074567Y-69949011D01*
X86108391Y-69982835D01*
X86132309Y-69987593D01*
X86236476Y-69987593D01*
X86236476Y-70044141D01*
X86241234Y-70068059D01*
X86275058Y-70101883D01*
X86322894Y-70101883D01*
X86356718Y-70068059D01*
X86361476Y-70044141D01*
X86361476Y-69987593D01*
X86546125Y-69987593D01*
X86561915Y-69995488D01*
X86569809Y-70011275D01*
X86569809Y-70044141D01*
X86574567Y-70068059D01*
X86608391Y-70101883D01*
X86656227Y-70101883D01*
X86690051Y-70068059D01*
X86694809Y-70044141D01*
X86694809Y-69996522D01*
X86694198Y-69993450D01*
X86694651Y-69992092D01*
X86692005Y-69982431D01*
X86690051Y-69972604D01*
X86689037Y-69971590D01*
X86688211Y-69968571D01*
X86664402Y-69920953D01*
X86656771Y-69911121D01*
X86655716Y-69907954D01*
X86652189Y-69905216D01*
X86649450Y-69901687D01*
X86646280Y-69900630D01*
X86636451Y-69893001D01*
X86588831Y-69869191D01*
X86585811Y-69868364D01*
X86584798Y-69867351D01*
X86574970Y-69865396D01*
X86565310Y-69862751D01*
X86563951Y-69863203D01*
X86560880Y-69862593D01*
X86361476Y-69862593D01*
X86361476Y-69853665D01*
X86356718Y-69829747D01*
X86322894Y-69795923D01*
X86275058Y-69795923D01*
X86241234Y-69829747D01*
X86236476Y-69853665D01*
X86236476Y-69862593D01*
X86132309Y-69862593D01*
X86108391Y-69867351D01*
X86074567Y-69901175D01*
X86007370Y-69901175D01*
X86007370Y-69544141D01*
X86236476Y-69544141D01*
X86236476Y-69615569D01*
X86237086Y-69618638D01*
X86236633Y-69619999D01*
X86239280Y-69629665D01*
X86241234Y-69639487D01*
X86242247Y-69640500D01*
X86243074Y-69643519D01*
X86266883Y-69691138D01*
X86273026Y-69699053D01*
X86278591Y-69707382D01*
X86302401Y-69731192D01*
X86310727Y-69736755D01*
X86318645Y-69742900D01*
X86366263Y-69766709D01*
X86369282Y-69767535D01*
X86370296Y-69768549D01*
X86380123Y-69770503D01*
X86389784Y-69773149D01*
X86391142Y-69772696D01*
X86394214Y-69773307D01*
X86537071Y-69773307D01*
X86540140Y-69772696D01*
X86541501Y-69773150D01*
X86551167Y-69770502D01*
X86560989Y-69768549D01*
X86562002Y-69767535D01*
X86565021Y-69766709D01*
X86612640Y-69742900D01*
X86620555Y-69736756D01*
X86628884Y-69731192D01*
X86652694Y-69707382D01*
X86658257Y-69699055D01*
X86664402Y-69691138D01*
X86688211Y-69643520D01*
X86689037Y-69640500D01*
X86690051Y-69639487D01*
X86692005Y-69629659D01*
X86694651Y-69619999D01*
X86694198Y-69618640D01*
X86694809Y-69615569D01*
X86694809Y-69544141D01*
X86694198Y-69541069D01*
X86694651Y-69539711D01*
X86692005Y-69530050D01*
X86690051Y-69520223D01*
X86689037Y-69519209D01*
X86688211Y-69516190D01*
X86664402Y-69468572D01*
X86658257Y-69460654D01*
X86652694Y-69452328D01*
X86628884Y-69428518D01*
X86620555Y-69422953D01*
X86612640Y-69416810D01*
X86565021Y-69393001D01*
X86562002Y-69392174D01*
X86560989Y-69391161D01*
X86551167Y-69389207D01*
X86541501Y-69386560D01*
X86540140Y-69387013D01*
X86537071Y-69386403D01*
X86394214Y-69386403D01*
X86391142Y-69387013D01*
X86389784Y-69386561D01*
X86380123Y-69389206D01*
X86370296Y-69391161D01*
X86369282Y-69392174D01*
X86366263Y-69393001D01*
X86318645Y-69416810D01*
X86310727Y-69422954D01*
X86302401Y-69428518D01*
X86278591Y-69452328D01*
X86273026Y-69460656D01*
X86266883Y-69468572D01*
X86243074Y-69516191D01*
X86242247Y-69519209D01*
X86241234Y-69520223D01*
X86239280Y-69530044D01*
X86236633Y-69539711D01*
X86237086Y-69541071D01*
X86236476Y-69544141D01*
X86007370Y-69544141D01*
X86007370Y-68898539D01*
X86069870Y-68898539D01*
X86074567Y-68911455D01*
X86074567Y-68925201D01*
X86082421Y-68933055D01*
X86086217Y-68943493D01*
X86105879Y-68957919D01*
X86341658Y-69067949D01*
X86105879Y-69177980D01*
X86086217Y-69192406D01*
X86082421Y-69202843D01*
X86074567Y-69210698D01*
X86074567Y-69224443D01*
X86069870Y-69237360D01*
X86074567Y-69247425D01*
X86074567Y-69258534D01*
X86084287Y-69268254D01*
X86090099Y-69280708D01*
X86100536Y-69284503D01*
X86108391Y-69292358D01*
X86132309Y-69297116D01*
X86632309Y-69297116D01*
X86656227Y-69292358D01*
X86690051Y-69258534D01*
X86690051Y-69210698D01*
X86656227Y-69176874D01*
X86632309Y-69172116D01*
X86414032Y-69172116D01*
X86515883Y-69124586D01*
X86528870Y-69115057D01*
X86531662Y-69114042D01*
X86532395Y-69112471D01*
X86535545Y-69110160D01*
X86542856Y-69090054D01*
X86551891Y-69070694D01*
X86550893Y-69067951D01*
X86551892Y-69065206D01*
X86542848Y-69045826D01*
X86535544Y-69025740D01*
X86532397Y-69023431D01*
X86531663Y-69021858D01*
X86528867Y-69020841D01*
X86515882Y-69011314D01*
X86414030Y-68963783D01*
X86632309Y-68963783D01*
X86656227Y-68959025D01*
X86690051Y-68925201D01*
X86690051Y-68877365D01*
X86656227Y-68843541D01*
X86632309Y-68838783D01*
X86132309Y-68838783D01*
X86108391Y-68843541D01*
X86100536Y-68851395D01*
X86090099Y-68855191D01*
X86084287Y-68867644D01*
X86074567Y-68877365D01*
X86074567Y-68888473D01*
X86069870Y-68898539D01*
X86007370Y-68898539D01*
X86007370Y-68776283D01*
X86757309Y-68776283D01*
X86757309Y-71354858D01*
G37*
D10*
G36*
X106781244Y-55379970D02*
G01*
X106837655Y-55436381D01*
X106873145Y-55578341D01*
X106873145Y-55880896D01*
X106837655Y-56022855D01*
X106781241Y-56079269D01*
X106730542Y-56104619D01*
X106599083Y-56104619D01*
X106548382Y-56079268D01*
X106491968Y-56022855D01*
X106456479Y-55880896D01*
X106456479Y-55578341D01*
X106491969Y-55436381D01*
X106548379Y-55379970D01*
X106599083Y-55354619D01*
X106730542Y-55354619D01*
X106781244Y-55379970D01*
G37*
G36*
X108102886Y-56479619D02*
G01*
X105179119Y-56479619D01*
X105179119Y-55205233D01*
X105304119Y-55205233D01*
X105304119Y-55254005D01*
X105322783Y-55299065D01*
X105357271Y-55333553D01*
X105402331Y-55352217D01*
X105426717Y-55354619D01*
X105777907Y-55354619D01*
X105777907Y-55580809D01*
X105569574Y-55580809D01*
X105545188Y-55583211D01*
X105500128Y-55601875D01*
X105465640Y-55636363D01*
X105446976Y-55681423D01*
X105446976Y-55730195D01*
X105465640Y-55775255D01*
X105500128Y-55809743D01*
X105545188Y-55828407D01*
X105569574Y-55830809D01*
X105777907Y-55830809D01*
X105777907Y-56229619D01*
X105780309Y-56254005D01*
X105798973Y-56299065D01*
X105833461Y-56333553D01*
X105878521Y-56352217D01*
X105927293Y-56352217D01*
X105972353Y-56333553D01*
X106006841Y-56299065D01*
X106025505Y-56254005D01*
X106027907Y-56229619D01*
X106027907Y-55562952D01*
X106206479Y-55562952D01*
X106206479Y-55896285D01*
X106206898Y-55900539D01*
X106206627Y-55902361D01*
X106207976Y-55911489D01*
X106208881Y-55920671D01*
X106209585Y-55922372D01*
X106210211Y-55926602D01*
X106257830Y-56117078D01*
X106266075Y-56140153D01*
X106271607Y-56147619D01*
X106275164Y-56156207D01*
X106290709Y-56175149D01*
X106385947Y-56270388D01*
X106395535Y-56278257D01*
X106397697Y-56280749D01*
X106401454Y-56283114D01*
X106404889Y-56285933D01*
X106407939Y-56287196D01*
X106418434Y-56293803D01*
X106513672Y-56341422D01*
X106536558Y-56350180D01*
X106541038Y-56350498D01*
X106545188Y-56352217D01*
X106569574Y-56354619D01*
X106760050Y-56354619D01*
X106784436Y-56352217D01*
X106788584Y-56350498D01*
X106793066Y-56350180D01*
X106815952Y-56341422D01*
X106911189Y-56293804D01*
X106921685Y-56287196D01*
X106924735Y-56285933D01*
X106928169Y-56283114D01*
X106931927Y-56280749D01*
X106934088Y-56278257D01*
X106943677Y-56270388D01*
X107038915Y-56175149D01*
X107054460Y-56156207D01*
X107058017Y-56147618D01*
X107063549Y-56140153D01*
X107071794Y-56117078D01*
X107119413Y-55926602D01*
X107120038Y-55922372D01*
X107120743Y-55920671D01*
X107121647Y-55911491D01*
X107122997Y-55902362D01*
X107122725Y-55900539D01*
X107123145Y-55896285D01*
X107123145Y-55562952D01*
X107122725Y-55558697D01*
X107122997Y-55556875D01*
X107121647Y-55547745D01*
X107120743Y-55538566D01*
X107120038Y-55536864D01*
X107119413Y-55532635D01*
X107071794Y-55342159D01*
X107063549Y-55319084D01*
X107058015Y-55311615D01*
X107054459Y-55303030D01*
X107038914Y-55284088D01*
X106960059Y-55205233D01*
X107161262Y-55205233D01*
X107161262Y-55254005D01*
X107179926Y-55299065D01*
X107214414Y-55333553D01*
X107259474Y-55352217D01*
X107283860Y-55354619D01*
X107444574Y-55354619D01*
X107444574Y-56229619D01*
X107446976Y-56254005D01*
X107465640Y-56299065D01*
X107500128Y-56333553D01*
X107545188Y-56352217D01*
X107593960Y-56352217D01*
X107639020Y-56333553D01*
X107673508Y-56299065D01*
X107692172Y-56254005D01*
X107694574Y-56229619D01*
X107694574Y-55354619D01*
X107855288Y-55354619D01*
X107879674Y-55352217D01*
X107924734Y-55333553D01*
X107959222Y-55299065D01*
X107977886Y-55254005D01*
X107977886Y-55205233D01*
X107959222Y-55160173D01*
X107924734Y-55125685D01*
X107879674Y-55107021D01*
X107855288Y-55104619D01*
X107283860Y-55104619D01*
X107259474Y-55107021D01*
X107214414Y-55125685D01*
X107179926Y-55160173D01*
X107161262Y-55205233D01*
X106960059Y-55205233D01*
X106943676Y-55188850D01*
X106934090Y-55180983D01*
X106931927Y-55178489D01*
X106928165Y-55176120D01*
X106924734Y-55173305D01*
X106921687Y-55172043D01*
X106911189Y-55165434D01*
X106815952Y-55117816D01*
X106793066Y-55109058D01*
X106788584Y-55108739D01*
X106784436Y-55107021D01*
X106760050Y-55104619D01*
X106569574Y-55104619D01*
X106545188Y-55107021D01*
X106541038Y-55108739D01*
X106536558Y-55109058D01*
X106513672Y-55117816D01*
X106418434Y-55165435D01*
X106407937Y-55172042D01*
X106404890Y-55173305D01*
X106401458Y-55176121D01*
X106397697Y-55178489D01*
X106395533Y-55180983D01*
X106385948Y-55188850D01*
X106290710Y-55284088D01*
X106275165Y-55303030D01*
X106271608Y-55311615D01*
X106266075Y-55319084D01*
X106257830Y-55342159D01*
X106210211Y-55532635D01*
X106209585Y-55536864D01*
X106208881Y-55538566D01*
X106207976Y-55547747D01*
X106206627Y-55556876D01*
X106206898Y-55558697D01*
X106206479Y-55562952D01*
X106027907Y-55562952D01*
X106027907Y-55229619D01*
X106025505Y-55205233D01*
X106006841Y-55160173D01*
X105972353Y-55125685D01*
X105927293Y-55107021D01*
X105902907Y-55104619D01*
X105426717Y-55104619D01*
X105402331Y-55107021D01*
X105357271Y-55125685D01*
X105322783Y-55160173D01*
X105304119Y-55205233D01*
X105179119Y-55205233D01*
X105179119Y-54979619D01*
X108102886Y-54979619D01*
X108102886Y-56479619D01*
G37*
D11*
G36*
X128942607Y-78269370D02*
G01*
X128950501Y-78285157D01*
X128950501Y-78289404D01*
X128846736Y-78268651D01*
X128861089Y-78261476D01*
X128926819Y-78261476D01*
X128942607Y-78269370D01*
G37*
G36*
X129666456Y-78274152D02*
G01*
X129675920Y-78283616D01*
X129688596Y-78308967D01*
X129688596Y-78422317D01*
X129675920Y-78447668D01*
X129666456Y-78457133D01*
X129641104Y-78469809D01*
X129599184Y-78469809D01*
X129573832Y-78457133D01*
X129564368Y-78447669D01*
X129551692Y-78422317D01*
X129551692Y-78308968D01*
X129564368Y-78283616D01*
X129573832Y-78274151D01*
X129599184Y-78261476D01*
X129641104Y-78261476D01*
X129666456Y-78274152D01*
G37*
G36*
X130423716Y-78657309D02*
G01*
X127845141Y-78657309D01*
X127845141Y-78175058D01*
X127907641Y-78175058D01*
X127907641Y-78222894D01*
X127941465Y-78256718D01*
X127965383Y-78261476D01*
X127998248Y-78261476D01*
X128023599Y-78274151D01*
X128033064Y-78283617D01*
X128045740Y-78308967D01*
X128045740Y-78532309D01*
X128050498Y-78556227D01*
X128084322Y-78590051D01*
X128132158Y-78590051D01*
X128165982Y-78556227D01*
X128170740Y-78532309D01*
X128170740Y-78198976D01*
X128283835Y-78198976D01*
X128283835Y-78532309D01*
X128288593Y-78556227D01*
X128322417Y-78590051D01*
X128370253Y-78590051D01*
X128377999Y-78582304D01*
X128389813Y-78588211D01*
X128392832Y-78589037D01*
X128393846Y-78590051D01*
X128403673Y-78592005D01*
X128413334Y-78594651D01*
X128414692Y-78594198D01*
X128417764Y-78594809D01*
X128489192Y-78594809D01*
X128492261Y-78594198D01*
X128493622Y-78594652D01*
X128503288Y-78592004D01*
X128513110Y-78590051D01*
X128514123Y-78589037D01*
X128517142Y-78588211D01*
X128564761Y-78564402D01*
X128574591Y-78556772D01*
X128577761Y-78555716D01*
X128580500Y-78552186D01*
X128584026Y-78549450D01*
X128585081Y-78546284D01*
X128592713Y-78536451D01*
X128616523Y-78488831D01*
X128617349Y-78485811D01*
X128618363Y-78484798D01*
X128620316Y-78474978D01*
X128622964Y-78465310D01*
X128622510Y-78463949D01*
X128623121Y-78460880D01*
X128623121Y-78270404D01*
X128712406Y-78270404D01*
X128712406Y-78318023D01*
X128714208Y-78327084D01*
X128713595Y-78330152D01*
X128715339Y-78332768D01*
X128717164Y-78341941D01*
X128730033Y-78354810D01*
X128740128Y-78369953D01*
X128748763Y-78373540D01*
X128750988Y-78375765D01*
X128754118Y-78375765D01*
X128762649Y-78379309D01*
X128950501Y-78416879D01*
X128950501Y-78446126D01*
X128942607Y-78461914D01*
X128926819Y-78469809D01*
X128861089Y-78469809D01*
X128826666Y-78452598D01*
X128803146Y-78446157D01*
X128757766Y-78461284D01*
X128736373Y-78504070D01*
X128751500Y-78549450D01*
X128770766Y-78564402D01*
X128818384Y-78588211D01*
X128821403Y-78589037D01*
X128822417Y-78590051D01*
X128832244Y-78592005D01*
X128841905Y-78594651D01*
X128843263Y-78594198D01*
X128846335Y-78594809D01*
X128941573Y-78594809D01*
X128944642Y-78594198D01*
X128946003Y-78594652D01*
X128955669Y-78592004D01*
X128965491Y-78590051D01*
X128966504Y-78589037D01*
X128969523Y-78588211D01*
X129017142Y-78564402D01*
X129026974Y-78556771D01*
X129030142Y-78555715D01*
X129032879Y-78552187D01*
X129036407Y-78549450D01*
X129037462Y-78546282D01*
X129045094Y-78536450D01*
X129068903Y-78488830D01*
X129069729Y-78485811D01*
X129070743Y-78484798D01*
X129072698Y-78474966D01*
X129075343Y-78465309D01*
X129074890Y-78463950D01*
X129075501Y-78460880D01*
X129075501Y-78270404D01*
X129074890Y-78267332D01*
X129075343Y-78265974D01*
X129072697Y-78256313D01*
X129070743Y-78246486D01*
X129069729Y-78245472D01*
X129068903Y-78242453D01*
X129045094Y-78194835D01*
X129037462Y-78185001D01*
X129036407Y-78181835D01*
X129032881Y-78179098D01*
X129030142Y-78175569D01*
X129028609Y-78175058D01*
X129098116Y-78175058D01*
X129098116Y-78222894D01*
X129131940Y-78256718D01*
X129155858Y-78261476D01*
X129212406Y-78261476D01*
X129212406Y-78446125D01*
X129204511Y-78461915D01*
X129188723Y-78469809D01*
X129155858Y-78469809D01*
X129131940Y-78474567D01*
X129098116Y-78508391D01*
X129098116Y-78556227D01*
X129131940Y-78590051D01*
X129155858Y-78594809D01*
X129203477Y-78594809D01*
X129206546Y-78594198D01*
X129207907Y-78594652D01*
X129217573Y-78592004D01*
X129227395Y-78590051D01*
X129228408Y-78589037D01*
X129231427Y-78588211D01*
X129279046Y-78564402D01*
X129288876Y-78556772D01*
X129292046Y-78555716D01*
X129294785Y-78552186D01*
X129298311Y-78549450D01*
X129299366Y-78546284D01*
X129306998Y-78536451D01*
X129330808Y-78488831D01*
X129331634Y-78485811D01*
X129332648Y-78484798D01*
X129334601Y-78474978D01*
X129337249Y-78465310D01*
X129336795Y-78463949D01*
X129337406Y-78460880D01*
X129337406Y-78294214D01*
X129426692Y-78294214D01*
X129426692Y-78437071D01*
X129427302Y-78440140D01*
X129426849Y-78441501D01*
X129429496Y-78451167D01*
X129431450Y-78460989D01*
X129432463Y-78462002D01*
X129433290Y-78465021D01*
X129457099Y-78512640D01*
X129463242Y-78520555D01*
X129468807Y-78528884D01*
X129492617Y-78552694D01*
X129500943Y-78558257D01*
X129508861Y-78564402D01*
X129556479Y-78588211D01*
X129559498Y-78589037D01*
X129560512Y-78590051D01*
X129570339Y-78592005D01*
X129580000Y-78594651D01*
X129581358Y-78594198D01*
X129584430Y-78594809D01*
X129655858Y-78594809D01*
X129658927Y-78594198D01*
X129660288Y-78594652D01*
X129669954Y-78592004D01*
X129679776Y-78590051D01*
X129680789Y-78589037D01*
X129683808Y-78588211D01*
X129731427Y-78564402D01*
X129739342Y-78558258D01*
X129747671Y-78552694D01*
X129771481Y-78528884D01*
X129777044Y-78520557D01*
X129783189Y-78512640D01*
X129806998Y-78465022D01*
X129807824Y-78462002D01*
X129808838Y-78460989D01*
X129810792Y-78451161D01*
X129813438Y-78441501D01*
X129812985Y-78440142D01*
X129813596Y-78437071D01*
X129813596Y-78294214D01*
X129812985Y-78291142D01*
X129813438Y-78289784D01*
X129810792Y-78280123D01*
X129808838Y-78270296D01*
X129807824Y-78269282D01*
X129806998Y-78266263D01*
X129783189Y-78218645D01*
X129777044Y-78210727D01*
X129771481Y-78202401D01*
X129747671Y-78178591D01*
X129739342Y-78173026D01*
X129731427Y-78166883D01*
X129683808Y-78143074D01*
X129680789Y-78142247D01*
X129679776Y-78141234D01*
X129669954Y-78139280D01*
X129660288Y-78136633D01*
X129658927Y-78137086D01*
X129655858Y-78136476D01*
X129584430Y-78136476D01*
X129581358Y-78137086D01*
X129580000Y-78136634D01*
X129570339Y-78139279D01*
X129560512Y-78141234D01*
X129559498Y-78142247D01*
X129556479Y-78143074D01*
X129508861Y-78166883D01*
X129500943Y-78173027D01*
X129492617Y-78178591D01*
X129468807Y-78202401D01*
X129463242Y-78210729D01*
X129457099Y-78218645D01*
X129433290Y-78266264D01*
X129432463Y-78269282D01*
X129431450Y-78270296D01*
X129429496Y-78280117D01*
X129426849Y-78289784D01*
X129427302Y-78291144D01*
X129426692Y-78294214D01*
X129337406Y-78294214D01*
X129337406Y-78261476D01*
X129346334Y-78261476D01*
X129370252Y-78256718D01*
X129404076Y-78222894D01*
X129404076Y-78175058D01*
X129370252Y-78141234D01*
X129346334Y-78136476D01*
X129337406Y-78136476D01*
X129337406Y-78032309D01*
X129902883Y-78032309D01*
X129902883Y-78532309D01*
X129907641Y-78556227D01*
X129941465Y-78590051D01*
X129989301Y-78590051D01*
X130023125Y-78556227D01*
X130027883Y-78532309D01*
X130027883Y-78314032D01*
X130075413Y-78415883D01*
X130084941Y-78428870D01*
X130085957Y-78431662D01*
X130087527Y-78432395D01*
X130089839Y-78435545D01*
X130109944Y-78442856D01*
X130129305Y-78451891D01*
X130132047Y-78450893D01*
X130134793Y-78451892D01*
X130154172Y-78442848D01*
X130174259Y-78435544D01*
X130176567Y-78432397D01*
X130178141Y-78431663D01*
X130179157Y-78428867D01*
X130188685Y-78415882D01*
X130236216Y-78314030D01*
X130236216Y-78532309D01*
X130240974Y-78556227D01*
X130274798Y-78590051D01*
X130322634Y-78590051D01*
X130356458Y-78556227D01*
X130361216Y-78532309D01*
X130361216Y-78032309D01*
X130356458Y-78008391D01*
X130348603Y-78000536D01*
X130344808Y-77990099D01*
X130332354Y-77984287D01*
X130322634Y-77974567D01*
X130311525Y-77974567D01*
X130301460Y-77969870D01*
X130288543Y-77974567D01*
X130274798Y-77974567D01*
X130266943Y-77982421D01*
X130256506Y-77986217D01*
X130242080Y-78005879D01*
X130132049Y-78241658D01*
X130022019Y-78005879D01*
X130007593Y-77986217D01*
X129997155Y-77982421D01*
X129989301Y-77974567D01*
X129975556Y-77974567D01*
X129962639Y-77969870D01*
X129952574Y-77974567D01*
X129941465Y-77974567D01*
X129931744Y-77984287D01*
X129919291Y-77990099D01*
X129915495Y-78000536D01*
X129907641Y-78008391D01*
X129902883Y-78032309D01*
X129337406Y-78032309D01*
X129332648Y-78008391D01*
X129298824Y-77974567D01*
X129250988Y-77974567D01*
X129217164Y-78008391D01*
X129212406Y-78032309D01*
X129212406Y-78136476D01*
X129155858Y-78136476D01*
X129131940Y-78141234D01*
X129098116Y-78175058D01*
X129028609Y-78175058D01*
X129026972Y-78174512D01*
X129017142Y-78166883D01*
X128969523Y-78143074D01*
X128966504Y-78142247D01*
X128965491Y-78141234D01*
X128955669Y-78139280D01*
X128946003Y-78136633D01*
X128944642Y-78137086D01*
X128941573Y-78136476D01*
X128846335Y-78136476D01*
X128843263Y-78137086D01*
X128841905Y-78136634D01*
X128832244Y-78139279D01*
X128822417Y-78141234D01*
X128821403Y-78142247D01*
X128818384Y-78143074D01*
X128770766Y-78166883D01*
X128760934Y-78174513D01*
X128757767Y-78175569D01*
X128755030Y-78179095D01*
X128751500Y-78181835D01*
X128750443Y-78185005D01*
X128742815Y-78194834D01*
X128719005Y-78242453D01*
X128718178Y-78245471D01*
X128717164Y-78246486D01*
X128715208Y-78256316D01*
X128712564Y-78265973D01*
X128713017Y-78267332D01*
X128712406Y-78270404D01*
X128623121Y-78270404D01*
X128623121Y-78198976D01*
X128618363Y-78175058D01*
X128584539Y-78141234D01*
X128536703Y-78141234D01*
X128502879Y-78175058D01*
X128498121Y-78198976D01*
X128498121Y-78446125D01*
X128490226Y-78461915D01*
X128474438Y-78469809D01*
X128432518Y-78469809D01*
X128408835Y-78457967D01*
X128408835Y-78198976D01*
X128404077Y-78175058D01*
X128370253Y-78141234D01*
X128322417Y-78141234D01*
X128288593Y-78175058D01*
X128283835Y-78198976D01*
X128170740Y-78198976D01*
X128165982Y-78175058D01*
X128132158Y-78141234D01*
X128084322Y-78141234D01*
X128068638Y-78156917D01*
X128040952Y-78143074D01*
X128037933Y-78142247D01*
X128036920Y-78141234D01*
X128027098Y-78139280D01*
X128017432Y-78136633D01*
X128016071Y-78137086D01*
X128013002Y-78136476D01*
X127965383Y-78136476D01*
X127941465Y-78141234D01*
X127907641Y-78175058D01*
X127845141Y-78175058D01*
X127845141Y-77907370D01*
X130423716Y-77907370D01*
X130423716Y-78657309D01*
G37*
X116284809Y-77718571D02*
X116046714Y-77551905D01*
X116284809Y-77432857D02*
X115784809Y-77432857D01*
X115784809Y-77432857D02*
X115784809Y-77623333D01*
X115784809Y-77623333D02*
X115808619Y-77670952D01*
X115808619Y-77670952D02*
X115832428Y-77694762D01*
X115832428Y-77694762D02*
X115880047Y-77718571D01*
X115880047Y-77718571D02*
X115951476Y-77718571D01*
X115951476Y-77718571D02*
X115999095Y-77694762D01*
X115999095Y-77694762D02*
X116022904Y-77670952D01*
X116022904Y-77670952D02*
X116046714Y-77623333D01*
X116046714Y-77623333D02*
X116046714Y-77432857D01*
X116284809Y-78194762D02*
X116284809Y-77909048D01*
X116284809Y-78051905D02*
X115784809Y-78051905D01*
X115784809Y-78051905D02*
X115856238Y-78004286D01*
X115856238Y-78004286D02*
X115903857Y-77956667D01*
X115903857Y-77956667D02*
X115927666Y-77909048D01*
X115784809Y-78647142D02*
X115784809Y-78409047D01*
X115784809Y-78409047D02*
X116022904Y-78385238D01*
X116022904Y-78385238D02*
X115999095Y-78409047D01*
X115999095Y-78409047D02*
X115975285Y-78456666D01*
X115975285Y-78456666D02*
X115975285Y-78575714D01*
X115975285Y-78575714D02*
X115999095Y-78623333D01*
X115999095Y-78623333D02*
X116022904Y-78647142D01*
X116022904Y-78647142D02*
X116070523Y-78670952D01*
X116070523Y-78670952D02*
X116189571Y-78670952D01*
X116189571Y-78670952D02*
X116237190Y-78647142D01*
X116237190Y-78647142D02*
X116261000Y-78623333D01*
X116261000Y-78623333D02*
X116284809Y-78575714D01*
X116284809Y-78575714D02*
X116284809Y-78456666D01*
X116284809Y-78456666D02*
X116261000Y-78409047D01*
X116261000Y-78409047D02*
X116237190Y-78385238D01*
X102970948Y-81877214D02*
X102732853Y-81877214D01*
X103018567Y-82020071D02*
X102851901Y-81520071D01*
X102851901Y-81520071D02*
X102685234Y-82020071D01*
X102304282Y-81996262D02*
X102351901Y-82020071D01*
X102351901Y-82020071D02*
X102447139Y-82020071D01*
X102447139Y-82020071D02*
X102494758Y-81996262D01*
X102494758Y-81996262D02*
X102518568Y-81972452D01*
X102518568Y-81972452D02*
X102542377Y-81924833D01*
X102542377Y-81924833D02*
X102542377Y-81781976D01*
X102542377Y-81781976D02*
X102518568Y-81734357D01*
X102518568Y-81734357D02*
X102494758Y-81710547D01*
X102494758Y-81710547D02*
X102447139Y-81686738D01*
X102447139Y-81686738D02*
X102351901Y-81686738D01*
X102351901Y-81686738D02*
X102304282Y-81710547D01*
X101875711Y-81996262D02*
X101923330Y-82020071D01*
X101923330Y-82020071D02*
X102018568Y-82020071D01*
X102018568Y-82020071D02*
X102066187Y-81996262D01*
X102066187Y-81996262D02*
X102089997Y-81972452D01*
X102089997Y-81972452D02*
X102113806Y-81924833D01*
X102113806Y-81924833D02*
X102113806Y-81781976D01*
X102113806Y-81781976D02*
X102089997Y-81734357D01*
X102089997Y-81734357D02*
X102066187Y-81710547D01*
X102066187Y-81710547D02*
X102018568Y-81686738D01*
X102018568Y-81686738D02*
X101923330Y-81686738D01*
X101923330Y-81686738D02*
X101875711Y-81710547D01*
X101470950Y-81996262D02*
X101518569Y-82020071D01*
X101518569Y-82020071D02*
X101613807Y-82020071D01*
X101613807Y-82020071D02*
X101661426Y-81996262D01*
X101661426Y-81996262D02*
X101685235Y-81948642D01*
X101685235Y-81948642D02*
X101685235Y-81758166D01*
X101685235Y-81758166D02*
X101661426Y-81710547D01*
X101661426Y-81710547D02*
X101613807Y-81686738D01*
X101613807Y-81686738D02*
X101518569Y-81686738D01*
X101518569Y-81686738D02*
X101470950Y-81710547D01*
X101470950Y-81710547D02*
X101447140Y-81758166D01*
X101447140Y-81758166D02*
X101447140Y-81805785D01*
X101447140Y-81805785D02*
X101685235Y-81853404D01*
X101161426Y-82020071D02*
X101209045Y-81996262D01*
X101209045Y-81996262D02*
X101232855Y-81948642D01*
X101232855Y-81948642D02*
X101232855Y-81520071D01*
X100613807Y-81996262D02*
X100542379Y-82020071D01*
X100542379Y-82020071D02*
X100423331Y-82020071D01*
X100423331Y-82020071D02*
X100375712Y-81996262D01*
X100375712Y-81996262D02*
X100351903Y-81972452D01*
X100351903Y-81972452D02*
X100328093Y-81924833D01*
X100328093Y-81924833D02*
X100328093Y-81877214D01*
X100328093Y-81877214D02*
X100351903Y-81829595D01*
X100351903Y-81829595D02*
X100375712Y-81805785D01*
X100375712Y-81805785D02*
X100423331Y-81781976D01*
X100423331Y-81781976D02*
X100518569Y-81758166D01*
X100518569Y-81758166D02*
X100566188Y-81734357D01*
X100566188Y-81734357D02*
X100589998Y-81710547D01*
X100589998Y-81710547D02*
X100613807Y-81662928D01*
X100613807Y-81662928D02*
X100613807Y-81615309D01*
X100613807Y-81615309D02*
X100589998Y-81567690D01*
X100589998Y-81567690D02*
X100566188Y-81543881D01*
X100566188Y-81543881D02*
X100518569Y-81520071D01*
X100518569Y-81520071D02*
X100399522Y-81520071D01*
X100399522Y-81520071D02*
X100328093Y-81543881D01*
X99828094Y-81972452D02*
X99851903Y-81996262D01*
X99851903Y-81996262D02*
X99923332Y-82020071D01*
X99923332Y-82020071D02*
X99970951Y-82020071D01*
X99970951Y-82020071D02*
X100042379Y-81996262D01*
X100042379Y-81996262D02*
X100089998Y-81948642D01*
X100089998Y-81948642D02*
X100113808Y-81901023D01*
X100113808Y-81901023D02*
X100137617Y-81805785D01*
X100137617Y-81805785D02*
X100137617Y-81734357D01*
X100137617Y-81734357D02*
X100113808Y-81639119D01*
X100113808Y-81639119D02*
X100089998Y-81591500D01*
X100089998Y-81591500D02*
X100042379Y-81543881D01*
X100042379Y-81543881D02*
X99970951Y-81520071D01*
X99970951Y-81520071D02*
X99923332Y-81520071D01*
X99923332Y-81520071D02*
X99851903Y-81543881D01*
X99851903Y-81543881D02*
X99828094Y-81567690D01*
X99375713Y-82020071D02*
X99613808Y-82020071D01*
X99613808Y-82020071D02*
X99613808Y-81520071D01*
X113421428Y-87877190D02*
X113445237Y-87901000D01*
X113445237Y-87901000D02*
X113516666Y-87924809D01*
X113516666Y-87924809D02*
X113564285Y-87924809D01*
X113564285Y-87924809D02*
X113635713Y-87901000D01*
X113635713Y-87901000D02*
X113683332Y-87853380D01*
X113683332Y-87853380D02*
X113707142Y-87805761D01*
X113707142Y-87805761D02*
X113730951Y-87710523D01*
X113730951Y-87710523D02*
X113730951Y-87639095D01*
X113730951Y-87639095D02*
X113707142Y-87543857D01*
X113707142Y-87543857D02*
X113683332Y-87496238D01*
X113683332Y-87496238D02*
X113635713Y-87448619D01*
X113635713Y-87448619D02*
X113564285Y-87424809D01*
X113564285Y-87424809D02*
X113516666Y-87424809D01*
X113516666Y-87424809D02*
X113445237Y-87448619D01*
X113445237Y-87448619D02*
X113421428Y-87472428D01*
X113230951Y-87472428D02*
X113207142Y-87448619D01*
X113207142Y-87448619D02*
X113159523Y-87424809D01*
X113159523Y-87424809D02*
X113040475Y-87424809D01*
X113040475Y-87424809D02*
X112992856Y-87448619D01*
X112992856Y-87448619D02*
X112969047Y-87472428D01*
X112969047Y-87472428D02*
X112945237Y-87520047D01*
X112945237Y-87520047D02*
X112945237Y-87567666D01*
X112945237Y-87567666D02*
X112969047Y-87639095D01*
X112969047Y-87639095D02*
X113254761Y-87924809D01*
X113254761Y-87924809D02*
X112945237Y-87924809D01*
X112754761Y-87472428D02*
X112730952Y-87448619D01*
X112730952Y-87448619D02*
X112683333Y-87424809D01*
X112683333Y-87424809D02*
X112564285Y-87424809D01*
X112564285Y-87424809D02*
X112516666Y-87448619D01*
X112516666Y-87448619D02*
X112492857Y-87472428D01*
X112492857Y-87472428D02*
X112469047Y-87520047D01*
X112469047Y-87520047D02*
X112469047Y-87567666D01*
X112469047Y-87567666D02*
X112492857Y-87639095D01*
X112492857Y-87639095D02*
X112778571Y-87924809D01*
X112778571Y-87924809D02*
X112469047Y-87924809D01*
X97224809Y-77341666D02*
X96986714Y-77175000D01*
X97224809Y-77055952D02*
X96724809Y-77055952D01*
X96724809Y-77055952D02*
X96724809Y-77246428D01*
X96724809Y-77246428D02*
X96748619Y-77294047D01*
X96748619Y-77294047D02*
X96772428Y-77317857D01*
X96772428Y-77317857D02*
X96820047Y-77341666D01*
X96820047Y-77341666D02*
X96891476Y-77341666D01*
X96891476Y-77341666D02*
X96939095Y-77317857D01*
X96939095Y-77317857D02*
X96962904Y-77294047D01*
X96962904Y-77294047D02*
X96986714Y-77246428D01*
X96986714Y-77246428D02*
X96986714Y-77055952D01*
X97224809Y-77817857D02*
X97224809Y-77532143D01*
X97224809Y-77675000D02*
X96724809Y-77675000D01*
X96724809Y-77675000D02*
X96796238Y-77627381D01*
X96796238Y-77627381D02*
X96843857Y-77579762D01*
X96843857Y-77579762D02*
X96867666Y-77532143D01*
X124277190Y-87278571D02*
X124301000Y-87254762D01*
X124301000Y-87254762D02*
X124324809Y-87183333D01*
X124324809Y-87183333D02*
X124324809Y-87135714D01*
X124324809Y-87135714D02*
X124301000Y-87064286D01*
X124301000Y-87064286D02*
X124253380Y-87016667D01*
X124253380Y-87016667D02*
X124205761Y-86992857D01*
X124205761Y-86992857D02*
X124110523Y-86969048D01*
X124110523Y-86969048D02*
X124039095Y-86969048D01*
X124039095Y-86969048D02*
X123943857Y-86992857D01*
X123943857Y-86992857D02*
X123896238Y-87016667D01*
X123896238Y-87016667D02*
X123848619Y-87064286D01*
X123848619Y-87064286D02*
X123824809Y-87135714D01*
X123824809Y-87135714D02*
X123824809Y-87183333D01*
X123824809Y-87183333D02*
X123848619Y-87254762D01*
X123848619Y-87254762D02*
X123872428Y-87278571D01*
X123824809Y-87445238D02*
X123824809Y-87754762D01*
X123824809Y-87754762D02*
X124015285Y-87588095D01*
X124015285Y-87588095D02*
X124015285Y-87659524D01*
X124015285Y-87659524D02*
X124039095Y-87707143D01*
X124039095Y-87707143D02*
X124062904Y-87730952D01*
X124062904Y-87730952D02*
X124110523Y-87754762D01*
X124110523Y-87754762D02*
X124229571Y-87754762D01*
X124229571Y-87754762D02*
X124277190Y-87730952D01*
X124277190Y-87730952D02*
X124301000Y-87707143D01*
X124301000Y-87707143D02*
X124324809Y-87659524D01*
X124324809Y-87659524D02*
X124324809Y-87516667D01*
X124324809Y-87516667D02*
X124301000Y-87469048D01*
X124301000Y-87469048D02*
X124277190Y-87445238D01*
X123824809Y-88064285D02*
X123824809Y-88111904D01*
X123824809Y-88111904D02*
X123848619Y-88159523D01*
X123848619Y-88159523D02*
X123872428Y-88183333D01*
X123872428Y-88183333D02*
X123920047Y-88207142D01*
X123920047Y-88207142D02*
X124015285Y-88230952D01*
X124015285Y-88230952D02*
X124134333Y-88230952D01*
X124134333Y-88230952D02*
X124229571Y-88207142D01*
X124229571Y-88207142D02*
X124277190Y-88183333D01*
X124277190Y-88183333D02*
X124301000Y-88159523D01*
X124301000Y-88159523D02*
X124324809Y-88111904D01*
X124324809Y-88111904D02*
X124324809Y-88064285D01*
X124324809Y-88064285D02*
X124301000Y-88016666D01*
X124301000Y-88016666D02*
X124277190Y-87992857D01*
X124277190Y-87992857D02*
X124229571Y-87969047D01*
X124229571Y-87969047D02*
X124134333Y-87945238D01*
X124134333Y-87945238D02*
X124015285Y-87945238D01*
X124015285Y-87945238D02*
X123920047Y-87969047D01*
X123920047Y-87969047D02*
X123872428Y-87992857D01*
X123872428Y-87992857D02*
X123848619Y-88016666D01*
X123848619Y-88016666D02*
X123824809Y-88064285D01*
X97254809Y-75716666D02*
X97016714Y-75550000D01*
X97254809Y-75430952D02*
X96754809Y-75430952D01*
X96754809Y-75430952D02*
X96754809Y-75621428D01*
X96754809Y-75621428D02*
X96778619Y-75669047D01*
X96778619Y-75669047D02*
X96802428Y-75692857D01*
X96802428Y-75692857D02*
X96850047Y-75716666D01*
X96850047Y-75716666D02*
X96921476Y-75716666D01*
X96921476Y-75716666D02*
X96969095Y-75692857D01*
X96969095Y-75692857D02*
X96992904Y-75669047D01*
X96992904Y-75669047D02*
X97016714Y-75621428D01*
X97016714Y-75621428D02*
X97016714Y-75430952D01*
X96921476Y-76145238D02*
X97254809Y-76145238D01*
X96731000Y-76026190D02*
X97088142Y-75907143D01*
X97088142Y-75907143D02*
X97088142Y-76216666D01*
X117971428Y-78027190D02*
X117995237Y-78051000D01*
X117995237Y-78051000D02*
X118066666Y-78074809D01*
X118066666Y-78074809D02*
X118114285Y-78074809D01*
X118114285Y-78074809D02*
X118185713Y-78051000D01*
X118185713Y-78051000D02*
X118233332Y-78003380D01*
X118233332Y-78003380D02*
X118257142Y-77955761D01*
X118257142Y-77955761D02*
X118280951Y-77860523D01*
X118280951Y-77860523D02*
X118280951Y-77789095D01*
X118280951Y-77789095D02*
X118257142Y-77693857D01*
X118257142Y-77693857D02*
X118233332Y-77646238D01*
X118233332Y-77646238D02*
X118185713Y-77598619D01*
X118185713Y-77598619D02*
X118114285Y-77574809D01*
X118114285Y-77574809D02*
X118066666Y-77574809D01*
X118066666Y-77574809D02*
X117995237Y-77598619D01*
X117995237Y-77598619D02*
X117971428Y-77622428D01*
X117780951Y-77622428D02*
X117757142Y-77598619D01*
X117757142Y-77598619D02*
X117709523Y-77574809D01*
X117709523Y-77574809D02*
X117590475Y-77574809D01*
X117590475Y-77574809D02*
X117542856Y-77598619D01*
X117542856Y-77598619D02*
X117519047Y-77622428D01*
X117519047Y-77622428D02*
X117495237Y-77670047D01*
X117495237Y-77670047D02*
X117495237Y-77717666D01*
X117495237Y-77717666D02*
X117519047Y-77789095D01*
X117519047Y-77789095D02*
X117804761Y-78074809D01*
X117804761Y-78074809D02*
X117495237Y-78074809D01*
X117328571Y-77574809D02*
X116995238Y-77574809D01*
X116995238Y-77574809D02*
X117209523Y-78074809D01*
X129916666Y-61974809D02*
X129916666Y-62331952D01*
X129916666Y-62331952D02*
X129940475Y-62403380D01*
X129940475Y-62403380D02*
X129988094Y-62451000D01*
X129988094Y-62451000D02*
X130059523Y-62474809D01*
X130059523Y-62474809D02*
X130107142Y-62474809D01*
X129416666Y-62474809D02*
X129702380Y-62474809D01*
X129559523Y-62474809D02*
X129559523Y-61974809D01*
X129559523Y-61974809D02*
X129607142Y-62046238D01*
X129607142Y-62046238D02*
X129654761Y-62093857D01*
X129654761Y-62093857D02*
X129702380Y-62117666D01*
X117921428Y-81502190D02*
X117945237Y-81526000D01*
X117945237Y-81526000D02*
X118016666Y-81549809D01*
X118016666Y-81549809D02*
X118064285Y-81549809D01*
X118064285Y-81549809D02*
X118135713Y-81526000D01*
X118135713Y-81526000D02*
X118183332Y-81478380D01*
X118183332Y-81478380D02*
X118207142Y-81430761D01*
X118207142Y-81430761D02*
X118230951Y-81335523D01*
X118230951Y-81335523D02*
X118230951Y-81264095D01*
X118230951Y-81264095D02*
X118207142Y-81168857D01*
X118207142Y-81168857D02*
X118183332Y-81121238D01*
X118183332Y-81121238D02*
X118135713Y-81073619D01*
X118135713Y-81073619D02*
X118064285Y-81049809D01*
X118064285Y-81049809D02*
X118016666Y-81049809D01*
X118016666Y-81049809D02*
X117945237Y-81073619D01*
X117945237Y-81073619D02*
X117921428Y-81097428D01*
X117730951Y-81097428D02*
X117707142Y-81073619D01*
X117707142Y-81073619D02*
X117659523Y-81049809D01*
X117659523Y-81049809D02*
X117540475Y-81049809D01*
X117540475Y-81049809D02*
X117492856Y-81073619D01*
X117492856Y-81073619D02*
X117469047Y-81097428D01*
X117469047Y-81097428D02*
X117445237Y-81145047D01*
X117445237Y-81145047D02*
X117445237Y-81192666D01*
X117445237Y-81192666D02*
X117469047Y-81264095D01*
X117469047Y-81264095D02*
X117754761Y-81549809D01*
X117754761Y-81549809D02*
X117445237Y-81549809D01*
X117016666Y-81216476D02*
X117016666Y-81549809D01*
X117135714Y-81026000D02*
X117254761Y-81383142D01*
X117254761Y-81383142D02*
X116945238Y-81383142D01*
X111521428Y-82524809D02*
X111688094Y-82286714D01*
X111807142Y-82524809D02*
X111807142Y-82024809D01*
X111807142Y-82024809D02*
X111616666Y-82024809D01*
X111616666Y-82024809D02*
X111569047Y-82048619D01*
X111569047Y-82048619D02*
X111545237Y-82072428D01*
X111545237Y-82072428D02*
X111521428Y-82120047D01*
X111521428Y-82120047D02*
X111521428Y-82191476D01*
X111521428Y-82191476D02*
X111545237Y-82239095D01*
X111545237Y-82239095D02*
X111569047Y-82262904D01*
X111569047Y-82262904D02*
X111616666Y-82286714D01*
X111616666Y-82286714D02*
X111807142Y-82286714D01*
X111045237Y-82524809D02*
X111330951Y-82524809D01*
X111188094Y-82524809D02*
X111188094Y-82024809D01*
X111188094Y-82024809D02*
X111235713Y-82096238D01*
X111235713Y-82096238D02*
X111283332Y-82143857D01*
X111283332Y-82143857D02*
X111330951Y-82167666D01*
X110854761Y-82072428D02*
X110830952Y-82048619D01*
X110830952Y-82048619D02*
X110783333Y-82024809D01*
X110783333Y-82024809D02*
X110664285Y-82024809D01*
X110664285Y-82024809D02*
X110616666Y-82048619D01*
X110616666Y-82048619D02*
X110592857Y-82072428D01*
X110592857Y-82072428D02*
X110569047Y-82120047D01*
X110569047Y-82120047D02*
X110569047Y-82167666D01*
X110569047Y-82167666D02*
X110592857Y-82239095D01*
X110592857Y-82239095D02*
X110878571Y-82524809D01*
X110878571Y-82524809D02*
X110569047Y-82524809D01*
X112849809Y-85120238D02*
X112349809Y-85120238D01*
X112349809Y-85120238D02*
X112706952Y-85286905D01*
X112706952Y-85286905D02*
X112349809Y-85453571D01*
X112349809Y-85453571D02*
X112849809Y-85453571D01*
X112849809Y-85691667D02*
X112349809Y-85691667D01*
X112349809Y-85691667D02*
X112349809Y-85882143D01*
X112349809Y-85882143D02*
X112373619Y-85929762D01*
X112373619Y-85929762D02*
X112397428Y-85953572D01*
X112397428Y-85953572D02*
X112445047Y-85977381D01*
X112445047Y-85977381D02*
X112516476Y-85977381D01*
X112516476Y-85977381D02*
X112564095Y-85953572D01*
X112564095Y-85953572D02*
X112587904Y-85929762D01*
X112587904Y-85929762D02*
X112611714Y-85882143D01*
X112611714Y-85882143D02*
X112611714Y-85691667D01*
X112849809Y-86453572D02*
X112849809Y-86167858D01*
X112849809Y-86310715D02*
X112349809Y-86310715D01*
X112349809Y-86310715D02*
X112421238Y-86263096D01*
X112421238Y-86263096D02*
X112468857Y-86215477D01*
X112468857Y-86215477D02*
X112492666Y-86167858D01*
X118299809Y-79803571D02*
X118061714Y-79636905D01*
X118299809Y-79517857D02*
X117799809Y-79517857D01*
X117799809Y-79517857D02*
X117799809Y-79708333D01*
X117799809Y-79708333D02*
X117823619Y-79755952D01*
X117823619Y-79755952D02*
X117847428Y-79779762D01*
X117847428Y-79779762D02*
X117895047Y-79803571D01*
X117895047Y-79803571D02*
X117966476Y-79803571D01*
X117966476Y-79803571D02*
X118014095Y-79779762D01*
X118014095Y-79779762D02*
X118037904Y-79755952D01*
X118037904Y-79755952D02*
X118061714Y-79708333D01*
X118061714Y-79708333D02*
X118061714Y-79517857D01*
X118299809Y-80279762D02*
X118299809Y-79994048D01*
X118299809Y-80136905D02*
X117799809Y-80136905D01*
X117799809Y-80136905D02*
X117871238Y-80089286D01*
X117871238Y-80089286D02*
X117918857Y-80041667D01*
X117918857Y-80041667D02*
X117942666Y-79994048D01*
X117966476Y-80708333D02*
X118299809Y-80708333D01*
X117776000Y-80589285D02*
X118133142Y-80470238D01*
X118133142Y-80470238D02*
X118133142Y-80779761D01*
X125342904Y-79020834D02*
X125342904Y-78854167D01*
X125604809Y-78854167D02*
X125104809Y-78854167D01*
X125104809Y-78854167D02*
X125104809Y-79092262D01*
X125152428Y-79258929D02*
X125128619Y-79282738D01*
X125128619Y-79282738D02*
X125104809Y-79330357D01*
X125104809Y-79330357D02*
X125104809Y-79449405D01*
X125104809Y-79449405D02*
X125128619Y-79497024D01*
X125128619Y-79497024D02*
X125152428Y-79520833D01*
X125152428Y-79520833D02*
X125200047Y-79544643D01*
X125200047Y-79544643D02*
X125247666Y-79544643D01*
X125247666Y-79544643D02*
X125319095Y-79520833D01*
X125319095Y-79520833D02*
X125604809Y-79235119D01*
X125604809Y-79235119D02*
X125604809Y-79544643D01*
X104521428Y-71877190D02*
X104545237Y-71901000D01*
X104545237Y-71901000D02*
X104616666Y-71924809D01*
X104616666Y-71924809D02*
X104664285Y-71924809D01*
X104664285Y-71924809D02*
X104735713Y-71901000D01*
X104735713Y-71901000D02*
X104783332Y-71853380D01*
X104783332Y-71853380D02*
X104807142Y-71805761D01*
X104807142Y-71805761D02*
X104830951Y-71710523D01*
X104830951Y-71710523D02*
X104830951Y-71639095D01*
X104830951Y-71639095D02*
X104807142Y-71543857D01*
X104807142Y-71543857D02*
X104783332Y-71496238D01*
X104783332Y-71496238D02*
X104735713Y-71448619D01*
X104735713Y-71448619D02*
X104664285Y-71424809D01*
X104664285Y-71424809D02*
X104616666Y-71424809D01*
X104616666Y-71424809D02*
X104545237Y-71448619D01*
X104545237Y-71448619D02*
X104521428Y-71472428D01*
X104045237Y-71924809D02*
X104330951Y-71924809D01*
X104188094Y-71924809D02*
X104188094Y-71424809D01*
X104188094Y-71424809D02*
X104235713Y-71496238D01*
X104235713Y-71496238D02*
X104283332Y-71543857D01*
X104283332Y-71543857D02*
X104330951Y-71567666D01*
X103759523Y-71639095D02*
X103807142Y-71615285D01*
X103807142Y-71615285D02*
X103830952Y-71591476D01*
X103830952Y-71591476D02*
X103854761Y-71543857D01*
X103854761Y-71543857D02*
X103854761Y-71520047D01*
X103854761Y-71520047D02*
X103830952Y-71472428D01*
X103830952Y-71472428D02*
X103807142Y-71448619D01*
X103807142Y-71448619D02*
X103759523Y-71424809D01*
X103759523Y-71424809D02*
X103664285Y-71424809D01*
X103664285Y-71424809D02*
X103616666Y-71448619D01*
X103616666Y-71448619D02*
X103592857Y-71472428D01*
X103592857Y-71472428D02*
X103569047Y-71520047D01*
X103569047Y-71520047D02*
X103569047Y-71543857D01*
X103569047Y-71543857D02*
X103592857Y-71591476D01*
X103592857Y-71591476D02*
X103616666Y-71615285D01*
X103616666Y-71615285D02*
X103664285Y-71639095D01*
X103664285Y-71639095D02*
X103759523Y-71639095D01*
X103759523Y-71639095D02*
X103807142Y-71662904D01*
X103807142Y-71662904D02*
X103830952Y-71686714D01*
X103830952Y-71686714D02*
X103854761Y-71734333D01*
X103854761Y-71734333D02*
X103854761Y-71829571D01*
X103854761Y-71829571D02*
X103830952Y-71877190D01*
X103830952Y-71877190D02*
X103807142Y-71901000D01*
X103807142Y-71901000D02*
X103759523Y-71924809D01*
X103759523Y-71924809D02*
X103664285Y-71924809D01*
X103664285Y-71924809D02*
X103616666Y-71901000D01*
X103616666Y-71901000D02*
X103592857Y-71877190D01*
X103592857Y-71877190D02*
X103569047Y-71829571D01*
X103569047Y-71829571D02*
X103569047Y-71734333D01*
X103569047Y-71734333D02*
X103592857Y-71686714D01*
X103592857Y-71686714D02*
X103616666Y-71662904D01*
X103616666Y-71662904D02*
X103664285Y-71639095D01*
X90083333Y-71027190D02*
X90107142Y-71051000D01*
X90107142Y-71051000D02*
X90178571Y-71074809D01*
X90178571Y-71074809D02*
X90226190Y-71074809D01*
X90226190Y-71074809D02*
X90297618Y-71051000D01*
X90297618Y-71051000D02*
X90345237Y-71003380D01*
X90345237Y-71003380D02*
X90369047Y-70955761D01*
X90369047Y-70955761D02*
X90392856Y-70860523D01*
X90392856Y-70860523D02*
X90392856Y-70789095D01*
X90392856Y-70789095D02*
X90369047Y-70693857D01*
X90369047Y-70693857D02*
X90345237Y-70646238D01*
X90345237Y-70646238D02*
X90297618Y-70598619D01*
X90297618Y-70598619D02*
X90226190Y-70574809D01*
X90226190Y-70574809D02*
X90178571Y-70574809D01*
X90178571Y-70574809D02*
X90107142Y-70598619D01*
X90107142Y-70598619D02*
X90083333Y-70622428D01*
X89654761Y-70741476D02*
X89654761Y-71074809D01*
X89773809Y-70551000D02*
X89892856Y-70908142D01*
X89892856Y-70908142D02*
X89583333Y-70908142D01*
X125621428Y-84977190D02*
X125645237Y-85001000D01*
X125645237Y-85001000D02*
X125716666Y-85024809D01*
X125716666Y-85024809D02*
X125764285Y-85024809D01*
X125764285Y-85024809D02*
X125835713Y-85001000D01*
X125835713Y-85001000D02*
X125883332Y-84953380D01*
X125883332Y-84953380D02*
X125907142Y-84905761D01*
X125907142Y-84905761D02*
X125930951Y-84810523D01*
X125930951Y-84810523D02*
X125930951Y-84739095D01*
X125930951Y-84739095D02*
X125907142Y-84643857D01*
X125907142Y-84643857D02*
X125883332Y-84596238D01*
X125883332Y-84596238D02*
X125835713Y-84548619D01*
X125835713Y-84548619D02*
X125764285Y-84524809D01*
X125764285Y-84524809D02*
X125716666Y-84524809D01*
X125716666Y-84524809D02*
X125645237Y-84548619D01*
X125645237Y-84548619D02*
X125621428Y-84572428D01*
X125430951Y-84572428D02*
X125407142Y-84548619D01*
X125407142Y-84548619D02*
X125359523Y-84524809D01*
X125359523Y-84524809D02*
X125240475Y-84524809D01*
X125240475Y-84524809D02*
X125192856Y-84548619D01*
X125192856Y-84548619D02*
X125169047Y-84572428D01*
X125169047Y-84572428D02*
X125145237Y-84620047D01*
X125145237Y-84620047D02*
X125145237Y-84667666D01*
X125145237Y-84667666D02*
X125169047Y-84739095D01*
X125169047Y-84739095D02*
X125454761Y-85024809D01*
X125454761Y-85024809D02*
X125145237Y-85024809D01*
X124907142Y-85024809D02*
X124811904Y-85024809D01*
X124811904Y-85024809D02*
X124764285Y-85001000D01*
X124764285Y-85001000D02*
X124740476Y-84977190D01*
X124740476Y-84977190D02*
X124692857Y-84905761D01*
X124692857Y-84905761D02*
X124669047Y-84810523D01*
X124669047Y-84810523D02*
X124669047Y-84620047D01*
X124669047Y-84620047D02*
X124692857Y-84572428D01*
X124692857Y-84572428D02*
X124716666Y-84548619D01*
X124716666Y-84548619D02*
X124764285Y-84524809D01*
X124764285Y-84524809D02*
X124859523Y-84524809D01*
X124859523Y-84524809D02*
X124907142Y-84548619D01*
X124907142Y-84548619D02*
X124930952Y-84572428D01*
X124930952Y-84572428D02*
X124954761Y-84620047D01*
X124954761Y-84620047D02*
X124954761Y-84739095D01*
X124954761Y-84739095D02*
X124930952Y-84786714D01*
X124930952Y-84786714D02*
X124907142Y-84810523D01*
X124907142Y-84810523D02*
X124859523Y-84834333D01*
X124859523Y-84834333D02*
X124764285Y-84834333D01*
X124764285Y-84834333D02*
X124716666Y-84810523D01*
X124716666Y-84810523D02*
X124692857Y-84786714D01*
X124692857Y-84786714D02*
X124669047Y-84739095D01*
X104074809Y-74894047D02*
X104479571Y-74894047D01*
X104479571Y-74894047D02*
X104527190Y-74917857D01*
X104527190Y-74917857D02*
X104551000Y-74941666D01*
X104551000Y-74941666D02*
X104574809Y-74989285D01*
X104574809Y-74989285D02*
X104574809Y-75084523D01*
X104574809Y-75084523D02*
X104551000Y-75132142D01*
X104551000Y-75132142D02*
X104527190Y-75155952D01*
X104527190Y-75155952D02*
X104479571Y-75179761D01*
X104479571Y-75179761D02*
X104074809Y-75179761D01*
X104241476Y-75632143D02*
X104574809Y-75632143D01*
X104051000Y-75513095D02*
X104408142Y-75394048D01*
X104408142Y-75394048D02*
X104408142Y-75703571D01*
X112077190Y-83558571D02*
X112101000Y-83534762D01*
X112101000Y-83534762D02*
X112124809Y-83463333D01*
X112124809Y-83463333D02*
X112124809Y-83415714D01*
X112124809Y-83415714D02*
X112101000Y-83344286D01*
X112101000Y-83344286D02*
X112053380Y-83296667D01*
X112053380Y-83296667D02*
X112005761Y-83272857D01*
X112005761Y-83272857D02*
X111910523Y-83249048D01*
X111910523Y-83249048D02*
X111839095Y-83249048D01*
X111839095Y-83249048D02*
X111743857Y-83272857D01*
X111743857Y-83272857D02*
X111696238Y-83296667D01*
X111696238Y-83296667D02*
X111648619Y-83344286D01*
X111648619Y-83344286D02*
X111624809Y-83415714D01*
X111624809Y-83415714D02*
X111624809Y-83463333D01*
X111624809Y-83463333D02*
X111648619Y-83534762D01*
X111648619Y-83534762D02*
X111672428Y-83558571D01*
X111672428Y-83749048D02*
X111648619Y-83772857D01*
X111648619Y-83772857D02*
X111624809Y-83820476D01*
X111624809Y-83820476D02*
X111624809Y-83939524D01*
X111624809Y-83939524D02*
X111648619Y-83987143D01*
X111648619Y-83987143D02*
X111672428Y-84010952D01*
X111672428Y-84010952D02*
X111720047Y-84034762D01*
X111720047Y-84034762D02*
X111767666Y-84034762D01*
X111767666Y-84034762D02*
X111839095Y-84010952D01*
X111839095Y-84010952D02*
X112124809Y-83725238D01*
X112124809Y-83725238D02*
X112124809Y-84034762D01*
X111624809Y-84201428D02*
X111624809Y-84510952D01*
X111624809Y-84510952D02*
X111815285Y-84344285D01*
X111815285Y-84344285D02*
X111815285Y-84415714D01*
X111815285Y-84415714D02*
X111839095Y-84463333D01*
X111839095Y-84463333D02*
X111862904Y-84487142D01*
X111862904Y-84487142D02*
X111910523Y-84510952D01*
X111910523Y-84510952D02*
X112029571Y-84510952D01*
X112029571Y-84510952D02*
X112077190Y-84487142D01*
X112077190Y-84487142D02*
X112101000Y-84463333D01*
X112101000Y-84463333D02*
X112124809Y-84415714D01*
X112124809Y-84415714D02*
X112124809Y-84272857D01*
X112124809Y-84272857D02*
X112101000Y-84225238D01*
X112101000Y-84225238D02*
X112077190Y-84201428D01*
X115052190Y-71478571D02*
X115076000Y-71454762D01*
X115076000Y-71454762D02*
X115099809Y-71383333D01*
X115099809Y-71383333D02*
X115099809Y-71335714D01*
X115099809Y-71335714D02*
X115076000Y-71264286D01*
X115076000Y-71264286D02*
X115028380Y-71216667D01*
X115028380Y-71216667D02*
X114980761Y-71192857D01*
X114980761Y-71192857D02*
X114885523Y-71169048D01*
X114885523Y-71169048D02*
X114814095Y-71169048D01*
X114814095Y-71169048D02*
X114718857Y-71192857D01*
X114718857Y-71192857D02*
X114671238Y-71216667D01*
X114671238Y-71216667D02*
X114623619Y-71264286D01*
X114623619Y-71264286D02*
X114599809Y-71335714D01*
X114599809Y-71335714D02*
X114599809Y-71383333D01*
X114599809Y-71383333D02*
X114623619Y-71454762D01*
X114623619Y-71454762D02*
X114647428Y-71478571D01*
X114647428Y-71669048D02*
X114623619Y-71692857D01*
X114623619Y-71692857D02*
X114599809Y-71740476D01*
X114599809Y-71740476D02*
X114599809Y-71859524D01*
X114599809Y-71859524D02*
X114623619Y-71907143D01*
X114623619Y-71907143D02*
X114647428Y-71930952D01*
X114647428Y-71930952D02*
X114695047Y-71954762D01*
X114695047Y-71954762D02*
X114742666Y-71954762D01*
X114742666Y-71954762D02*
X114814095Y-71930952D01*
X114814095Y-71930952D02*
X115099809Y-71645238D01*
X115099809Y-71645238D02*
X115099809Y-71954762D01*
X114814095Y-72240476D02*
X114790285Y-72192857D01*
X114790285Y-72192857D02*
X114766476Y-72169047D01*
X114766476Y-72169047D02*
X114718857Y-72145238D01*
X114718857Y-72145238D02*
X114695047Y-72145238D01*
X114695047Y-72145238D02*
X114647428Y-72169047D01*
X114647428Y-72169047D02*
X114623619Y-72192857D01*
X114623619Y-72192857D02*
X114599809Y-72240476D01*
X114599809Y-72240476D02*
X114599809Y-72335714D01*
X114599809Y-72335714D02*
X114623619Y-72383333D01*
X114623619Y-72383333D02*
X114647428Y-72407142D01*
X114647428Y-72407142D02*
X114695047Y-72430952D01*
X114695047Y-72430952D02*
X114718857Y-72430952D01*
X114718857Y-72430952D02*
X114766476Y-72407142D01*
X114766476Y-72407142D02*
X114790285Y-72383333D01*
X114790285Y-72383333D02*
X114814095Y-72335714D01*
X114814095Y-72335714D02*
X114814095Y-72240476D01*
X114814095Y-72240476D02*
X114837904Y-72192857D01*
X114837904Y-72192857D02*
X114861714Y-72169047D01*
X114861714Y-72169047D02*
X114909333Y-72145238D01*
X114909333Y-72145238D02*
X115004571Y-72145238D01*
X115004571Y-72145238D02*
X115052190Y-72169047D01*
X115052190Y-72169047D02*
X115076000Y-72192857D01*
X115076000Y-72192857D02*
X115099809Y-72240476D01*
X115099809Y-72240476D02*
X115099809Y-72335714D01*
X115099809Y-72335714D02*
X115076000Y-72383333D01*
X115076000Y-72383333D02*
X115052190Y-72407142D01*
X115052190Y-72407142D02*
X115004571Y-72430952D01*
X115004571Y-72430952D02*
X114909333Y-72430952D01*
X114909333Y-72430952D02*
X114861714Y-72407142D01*
X114861714Y-72407142D02*
X114837904Y-72383333D01*
X114837904Y-72383333D02*
X114814095Y-72335714D01*
X115012095Y-75632142D02*
X114988285Y-75560714D01*
X114988285Y-75560714D02*
X114964476Y-75536904D01*
X114964476Y-75536904D02*
X114916857Y-75513095D01*
X114916857Y-75513095D02*
X114845428Y-75513095D01*
X114845428Y-75513095D02*
X114797809Y-75536904D01*
X114797809Y-75536904D02*
X114774000Y-75560714D01*
X114774000Y-75560714D02*
X114750190Y-75608333D01*
X114750190Y-75608333D02*
X114750190Y-75798809D01*
X114750190Y-75798809D02*
X115250190Y-75798809D01*
X115250190Y-75798809D02*
X115250190Y-75632142D01*
X115250190Y-75632142D02*
X115226380Y-75584523D01*
X115226380Y-75584523D02*
X115202571Y-75560714D01*
X115202571Y-75560714D02*
X115154952Y-75536904D01*
X115154952Y-75536904D02*
X115107333Y-75536904D01*
X115107333Y-75536904D02*
X115059714Y-75560714D01*
X115059714Y-75560714D02*
X115035904Y-75584523D01*
X115035904Y-75584523D02*
X115012095Y-75632142D01*
X115012095Y-75632142D02*
X115012095Y-75798809D01*
X115250190Y-75298809D02*
X114845428Y-75298809D01*
X114845428Y-75298809D02*
X114797809Y-75274999D01*
X114797809Y-75274999D02*
X114774000Y-75251190D01*
X114774000Y-75251190D02*
X114750190Y-75203571D01*
X114750190Y-75203571D02*
X114750190Y-75108333D01*
X114750190Y-75108333D02*
X114774000Y-75060714D01*
X114774000Y-75060714D02*
X114797809Y-75036904D01*
X114797809Y-75036904D02*
X114845428Y-75013095D01*
X114845428Y-75013095D02*
X115250190Y-75013095D01*
X114750190Y-74822618D02*
X115083523Y-74560713D01*
X115083523Y-74822618D02*
X114750190Y-74560713D01*
X114750190Y-74417856D02*
X115083523Y-74155951D01*
X115083523Y-74417856D02*
X114750190Y-74155951D01*
X114774000Y-73989284D02*
X114750190Y-73917856D01*
X114750190Y-73917856D02*
X114750190Y-73798808D01*
X114750190Y-73798808D02*
X114774000Y-73751189D01*
X114774000Y-73751189D02*
X114797809Y-73727380D01*
X114797809Y-73727380D02*
X114845428Y-73703570D01*
X114845428Y-73703570D02*
X114893047Y-73703570D01*
X114893047Y-73703570D02*
X114940666Y-73727380D01*
X114940666Y-73727380D02*
X114964476Y-73751189D01*
X114964476Y-73751189D02*
X114988285Y-73798808D01*
X114988285Y-73798808D02*
X115012095Y-73894046D01*
X115012095Y-73894046D02*
X115035904Y-73941665D01*
X115035904Y-73941665D02*
X115059714Y-73965475D01*
X115059714Y-73965475D02*
X115107333Y-73989284D01*
X115107333Y-73989284D02*
X115154952Y-73989284D01*
X115154952Y-73989284D02*
X115202571Y-73965475D01*
X115202571Y-73965475D02*
X115226380Y-73941665D01*
X115226380Y-73941665D02*
X115250190Y-73894046D01*
X115250190Y-73894046D02*
X115250190Y-73774999D01*
X115250190Y-73774999D02*
X115226380Y-73703570D01*
X114750190Y-73489285D02*
X115250190Y-73489285D01*
X115250190Y-73489285D02*
X115250190Y-73370237D01*
X115250190Y-73370237D02*
X115226380Y-73298809D01*
X115226380Y-73298809D02*
X115178761Y-73251190D01*
X115178761Y-73251190D02*
X115131142Y-73227380D01*
X115131142Y-73227380D02*
X115035904Y-73203571D01*
X115035904Y-73203571D02*
X114964476Y-73203571D01*
X114964476Y-73203571D02*
X114869238Y-73227380D01*
X114869238Y-73227380D02*
X114821619Y-73251190D01*
X114821619Y-73251190D02*
X114774000Y-73298809D01*
X114774000Y-73298809D02*
X114750190Y-73370237D01*
X114750190Y-73370237D02*
X114750190Y-73489285D01*
X114750190Y-72727380D02*
X114750190Y-73013094D01*
X114750190Y-72870237D02*
X115250190Y-72870237D01*
X115250190Y-72870237D02*
X115178761Y-72917856D01*
X115178761Y-72917856D02*
X115131142Y-72965475D01*
X115131142Y-72965475D02*
X115107333Y-73013094D01*
X121658333Y-73727190D02*
X121682142Y-73751000D01*
X121682142Y-73751000D02*
X121753571Y-73774809D01*
X121753571Y-73774809D02*
X121801190Y-73774809D01*
X121801190Y-73774809D02*
X121872618Y-73751000D01*
X121872618Y-73751000D02*
X121920237Y-73703380D01*
X121920237Y-73703380D02*
X121944047Y-73655761D01*
X121944047Y-73655761D02*
X121967856Y-73560523D01*
X121967856Y-73560523D02*
X121967856Y-73489095D01*
X121967856Y-73489095D02*
X121944047Y-73393857D01*
X121944047Y-73393857D02*
X121920237Y-73346238D01*
X121920237Y-73346238D02*
X121872618Y-73298619D01*
X121872618Y-73298619D02*
X121801190Y-73274809D01*
X121801190Y-73274809D02*
X121753571Y-73274809D01*
X121753571Y-73274809D02*
X121682142Y-73298619D01*
X121682142Y-73298619D02*
X121658333Y-73322428D01*
X121491666Y-73274809D02*
X121182142Y-73274809D01*
X121182142Y-73274809D02*
X121348809Y-73465285D01*
X121348809Y-73465285D02*
X121277380Y-73465285D01*
X121277380Y-73465285D02*
X121229761Y-73489095D01*
X121229761Y-73489095D02*
X121205952Y-73512904D01*
X121205952Y-73512904D02*
X121182142Y-73560523D01*
X121182142Y-73560523D02*
X121182142Y-73679571D01*
X121182142Y-73679571D02*
X121205952Y-73727190D01*
X121205952Y-73727190D02*
X121229761Y-73751000D01*
X121229761Y-73751000D02*
X121277380Y-73774809D01*
X121277380Y-73774809D02*
X121420237Y-73774809D01*
X121420237Y-73774809D02*
X121467856Y-73751000D01*
X121467856Y-73751000D02*
X121491666Y-73727190D01*
X120583333Y-63127190D02*
X120607142Y-63151000D01*
X120607142Y-63151000D02*
X120678571Y-63174809D01*
X120678571Y-63174809D02*
X120726190Y-63174809D01*
X120726190Y-63174809D02*
X120797618Y-63151000D01*
X120797618Y-63151000D02*
X120845237Y-63103380D01*
X120845237Y-63103380D02*
X120869047Y-63055761D01*
X120869047Y-63055761D02*
X120892856Y-62960523D01*
X120892856Y-62960523D02*
X120892856Y-62889095D01*
X120892856Y-62889095D02*
X120869047Y-62793857D01*
X120869047Y-62793857D02*
X120845237Y-62746238D01*
X120845237Y-62746238D02*
X120797618Y-62698619D01*
X120797618Y-62698619D02*
X120726190Y-62674809D01*
X120726190Y-62674809D02*
X120678571Y-62674809D01*
X120678571Y-62674809D02*
X120607142Y-62698619D01*
X120607142Y-62698619D02*
X120583333Y-62722428D01*
X120107142Y-63174809D02*
X120392856Y-63174809D01*
X120249999Y-63174809D02*
X120249999Y-62674809D01*
X120249999Y-62674809D02*
X120297618Y-62746238D01*
X120297618Y-62746238D02*
X120345237Y-62793857D01*
X120345237Y-62793857D02*
X120392856Y-62817666D01*
X123066666Y-98524809D02*
X123066666Y-98881952D01*
X123066666Y-98881952D02*
X123090475Y-98953380D01*
X123090475Y-98953380D02*
X123138094Y-99001000D01*
X123138094Y-99001000D02*
X123209523Y-99024809D01*
X123209523Y-99024809D02*
X123257142Y-99024809D01*
X122757142Y-98739095D02*
X122804761Y-98715285D01*
X122804761Y-98715285D02*
X122828571Y-98691476D01*
X122828571Y-98691476D02*
X122852380Y-98643857D01*
X122852380Y-98643857D02*
X122852380Y-98620047D01*
X122852380Y-98620047D02*
X122828571Y-98572428D01*
X122828571Y-98572428D02*
X122804761Y-98548619D01*
X122804761Y-98548619D02*
X122757142Y-98524809D01*
X122757142Y-98524809D02*
X122661904Y-98524809D01*
X122661904Y-98524809D02*
X122614285Y-98548619D01*
X122614285Y-98548619D02*
X122590476Y-98572428D01*
X122590476Y-98572428D02*
X122566666Y-98620047D01*
X122566666Y-98620047D02*
X122566666Y-98643857D01*
X122566666Y-98643857D02*
X122590476Y-98691476D01*
X122590476Y-98691476D02*
X122614285Y-98715285D01*
X122614285Y-98715285D02*
X122661904Y-98739095D01*
X122661904Y-98739095D02*
X122757142Y-98739095D01*
X122757142Y-98739095D02*
X122804761Y-98762904D01*
X122804761Y-98762904D02*
X122828571Y-98786714D01*
X122828571Y-98786714D02*
X122852380Y-98834333D01*
X122852380Y-98834333D02*
X122852380Y-98929571D01*
X122852380Y-98929571D02*
X122828571Y-98977190D01*
X122828571Y-98977190D02*
X122804761Y-99001000D01*
X122804761Y-99001000D02*
X122757142Y-99024809D01*
X122757142Y-99024809D02*
X122661904Y-99024809D01*
X122661904Y-99024809D02*
X122614285Y-99001000D01*
X122614285Y-99001000D02*
X122590476Y-98977190D01*
X122590476Y-98977190D02*
X122566666Y-98929571D01*
X122566666Y-98929571D02*
X122566666Y-98834333D01*
X122566666Y-98834333D02*
X122590476Y-98786714D01*
X122590476Y-98786714D02*
X122614285Y-98762904D01*
X122614285Y-98762904D02*
X122661904Y-98739095D01*
D12*
X111771428Y-95914700D02*
X110628571Y-95914700D01*
X111199999Y-96486128D02*
X111199999Y-95343271D01*
D11*
X117921428Y-82549809D02*
X118088094Y-82311714D01*
X118207142Y-82549809D02*
X118207142Y-82049809D01*
X118207142Y-82049809D02*
X118016666Y-82049809D01*
X118016666Y-82049809D02*
X117969047Y-82073619D01*
X117969047Y-82073619D02*
X117945237Y-82097428D01*
X117945237Y-82097428D02*
X117921428Y-82145047D01*
X117921428Y-82145047D02*
X117921428Y-82216476D01*
X117921428Y-82216476D02*
X117945237Y-82264095D01*
X117945237Y-82264095D02*
X117969047Y-82287904D01*
X117969047Y-82287904D02*
X118016666Y-82311714D01*
X118016666Y-82311714D02*
X118207142Y-82311714D01*
X117445237Y-82549809D02*
X117730951Y-82549809D01*
X117588094Y-82549809D02*
X117588094Y-82049809D01*
X117588094Y-82049809D02*
X117635713Y-82121238D01*
X117635713Y-82121238D02*
X117683332Y-82168857D01*
X117683332Y-82168857D02*
X117730951Y-82192666D01*
X117278571Y-82049809D02*
X116969047Y-82049809D01*
X116969047Y-82049809D02*
X117135714Y-82240285D01*
X117135714Y-82240285D02*
X117064285Y-82240285D01*
X117064285Y-82240285D02*
X117016666Y-82264095D01*
X117016666Y-82264095D02*
X116992857Y-82287904D01*
X116992857Y-82287904D02*
X116969047Y-82335523D01*
X116969047Y-82335523D02*
X116969047Y-82454571D01*
X116969047Y-82454571D02*
X116992857Y-82502190D01*
X116992857Y-82502190D02*
X117016666Y-82526000D01*
X117016666Y-82526000D02*
X117064285Y-82549809D01*
X117064285Y-82549809D02*
X117207142Y-82549809D01*
X117207142Y-82549809D02*
X117254761Y-82526000D01*
X117254761Y-82526000D02*
X117278571Y-82502190D01*
X89916666Y-54324809D02*
X89916666Y-54681952D01*
X89916666Y-54681952D02*
X89940475Y-54753380D01*
X89940475Y-54753380D02*
X89988094Y-54801000D01*
X89988094Y-54801000D02*
X90059523Y-54824809D01*
X90059523Y-54824809D02*
X90107142Y-54824809D01*
X89726190Y-54324809D02*
X89392857Y-54324809D01*
X89392857Y-54324809D02*
X89607142Y-54824809D01*
X118324809Y-85713571D02*
X118086714Y-85546905D01*
X118324809Y-85427857D02*
X117824809Y-85427857D01*
X117824809Y-85427857D02*
X117824809Y-85618333D01*
X117824809Y-85618333D02*
X117848619Y-85665952D01*
X117848619Y-85665952D02*
X117872428Y-85689762D01*
X117872428Y-85689762D02*
X117920047Y-85713571D01*
X117920047Y-85713571D02*
X117991476Y-85713571D01*
X117991476Y-85713571D02*
X118039095Y-85689762D01*
X118039095Y-85689762D02*
X118062904Y-85665952D01*
X118062904Y-85665952D02*
X118086714Y-85618333D01*
X118086714Y-85618333D02*
X118086714Y-85427857D01*
X118324809Y-86189762D02*
X118324809Y-85904048D01*
X118324809Y-86046905D02*
X117824809Y-86046905D01*
X117824809Y-86046905D02*
X117896238Y-85999286D01*
X117896238Y-85999286D02*
X117943857Y-85951667D01*
X117943857Y-85951667D02*
X117967666Y-85904048D01*
X118324809Y-86665952D02*
X118324809Y-86380238D01*
X118324809Y-86523095D02*
X117824809Y-86523095D01*
X117824809Y-86523095D02*
X117896238Y-86475476D01*
X117896238Y-86475476D02*
X117943857Y-86427857D01*
X117943857Y-86427857D02*
X117967666Y-86380238D01*
X114846428Y-91427190D02*
X114870237Y-91451000D01*
X114870237Y-91451000D02*
X114941666Y-91474809D01*
X114941666Y-91474809D02*
X114989285Y-91474809D01*
X114989285Y-91474809D02*
X115060713Y-91451000D01*
X115060713Y-91451000D02*
X115108332Y-91403380D01*
X115108332Y-91403380D02*
X115132142Y-91355761D01*
X115132142Y-91355761D02*
X115155951Y-91260523D01*
X115155951Y-91260523D02*
X115155951Y-91189095D01*
X115155951Y-91189095D02*
X115132142Y-91093857D01*
X115132142Y-91093857D02*
X115108332Y-91046238D01*
X115108332Y-91046238D02*
X115060713Y-90998619D01*
X115060713Y-90998619D02*
X114989285Y-90974809D01*
X114989285Y-90974809D02*
X114941666Y-90974809D01*
X114941666Y-90974809D02*
X114870237Y-90998619D01*
X114870237Y-90998619D02*
X114846428Y-91022428D01*
X114655951Y-91022428D02*
X114632142Y-90998619D01*
X114632142Y-90998619D02*
X114584523Y-90974809D01*
X114584523Y-90974809D02*
X114465475Y-90974809D01*
X114465475Y-90974809D02*
X114417856Y-90998619D01*
X114417856Y-90998619D02*
X114394047Y-91022428D01*
X114394047Y-91022428D02*
X114370237Y-91070047D01*
X114370237Y-91070047D02*
X114370237Y-91117666D01*
X114370237Y-91117666D02*
X114394047Y-91189095D01*
X114394047Y-91189095D02*
X114679761Y-91474809D01*
X114679761Y-91474809D02*
X114370237Y-91474809D01*
X114060714Y-90974809D02*
X114013095Y-90974809D01*
X114013095Y-90974809D02*
X113965476Y-90998619D01*
X113965476Y-90998619D02*
X113941666Y-91022428D01*
X113941666Y-91022428D02*
X113917857Y-91070047D01*
X113917857Y-91070047D02*
X113894047Y-91165285D01*
X113894047Y-91165285D02*
X113894047Y-91284333D01*
X113894047Y-91284333D02*
X113917857Y-91379571D01*
X113917857Y-91379571D02*
X113941666Y-91427190D01*
X113941666Y-91427190D02*
X113965476Y-91451000D01*
X113965476Y-91451000D02*
X114013095Y-91474809D01*
X114013095Y-91474809D02*
X114060714Y-91474809D01*
X114060714Y-91474809D02*
X114108333Y-91451000D01*
X114108333Y-91451000D02*
X114132142Y-91427190D01*
X114132142Y-91427190D02*
X114155952Y-91379571D01*
X114155952Y-91379571D02*
X114179761Y-91284333D01*
X114179761Y-91284333D02*
X114179761Y-91165285D01*
X114179761Y-91165285D02*
X114155952Y-91070047D01*
X114155952Y-91070047D02*
X114132142Y-91022428D01*
X114132142Y-91022428D02*
X114108333Y-90998619D01*
X114108333Y-90998619D02*
X114060714Y-90974809D01*
X113021428Y-81624809D02*
X113188094Y-81386714D01*
X113307142Y-81624809D02*
X113307142Y-81124809D01*
X113307142Y-81124809D02*
X113116666Y-81124809D01*
X113116666Y-81124809D02*
X113069047Y-81148619D01*
X113069047Y-81148619D02*
X113045237Y-81172428D01*
X113045237Y-81172428D02*
X113021428Y-81220047D01*
X113021428Y-81220047D02*
X113021428Y-81291476D01*
X113021428Y-81291476D02*
X113045237Y-81339095D01*
X113045237Y-81339095D02*
X113069047Y-81362904D01*
X113069047Y-81362904D02*
X113116666Y-81386714D01*
X113116666Y-81386714D02*
X113307142Y-81386714D01*
X112545237Y-81624809D02*
X112830951Y-81624809D01*
X112688094Y-81624809D02*
X112688094Y-81124809D01*
X112688094Y-81124809D02*
X112735713Y-81196238D01*
X112735713Y-81196238D02*
X112783332Y-81243857D01*
X112783332Y-81243857D02*
X112830951Y-81267666D01*
X112235714Y-81124809D02*
X112188095Y-81124809D01*
X112188095Y-81124809D02*
X112140476Y-81148619D01*
X112140476Y-81148619D02*
X112116666Y-81172428D01*
X112116666Y-81172428D02*
X112092857Y-81220047D01*
X112092857Y-81220047D02*
X112069047Y-81315285D01*
X112069047Y-81315285D02*
X112069047Y-81434333D01*
X112069047Y-81434333D02*
X112092857Y-81529571D01*
X112092857Y-81529571D02*
X112116666Y-81577190D01*
X112116666Y-81577190D02*
X112140476Y-81601000D01*
X112140476Y-81601000D02*
X112188095Y-81624809D01*
X112188095Y-81624809D02*
X112235714Y-81624809D01*
X112235714Y-81624809D02*
X112283333Y-81601000D01*
X112283333Y-81601000D02*
X112307142Y-81577190D01*
X112307142Y-81577190D02*
X112330952Y-81529571D01*
X112330952Y-81529571D02*
X112354761Y-81434333D01*
X112354761Y-81434333D02*
X112354761Y-81315285D01*
X112354761Y-81315285D02*
X112330952Y-81220047D01*
X112330952Y-81220047D02*
X112307142Y-81172428D01*
X112307142Y-81172428D02*
X112283333Y-81148619D01*
X112283333Y-81148619D02*
X112235714Y-81124809D01*
X119716666Y-86075190D02*
X119478571Y-86075190D01*
X119478571Y-86075190D02*
X119478571Y-86575190D01*
X119859524Y-86527571D02*
X119883333Y-86551380D01*
X119883333Y-86551380D02*
X119930952Y-86575190D01*
X119930952Y-86575190D02*
X120050000Y-86575190D01*
X120050000Y-86575190D02*
X120097619Y-86551380D01*
X120097619Y-86551380D02*
X120121428Y-86527571D01*
X120121428Y-86527571D02*
X120145238Y-86479952D01*
X120145238Y-86479952D02*
X120145238Y-86432333D01*
X120145238Y-86432333D02*
X120121428Y-86360904D01*
X120121428Y-86360904D02*
X119835714Y-86075190D01*
X119835714Y-86075190D02*
X120145238Y-86075190D01*
X84380952Y-99499809D02*
X84380952Y-98999809D01*
X84380952Y-99237904D02*
X84095238Y-99237904D01*
X84095238Y-99499809D02*
X84095238Y-98999809D01*
X83880951Y-99047428D02*
X83857142Y-99023619D01*
X83857142Y-99023619D02*
X83809523Y-98999809D01*
X83809523Y-98999809D02*
X83690475Y-98999809D01*
X83690475Y-98999809D02*
X83642856Y-99023619D01*
X83642856Y-99023619D02*
X83619047Y-99047428D01*
X83619047Y-99047428D02*
X83595237Y-99095047D01*
X83595237Y-99095047D02*
X83595237Y-99142666D01*
X83595237Y-99142666D02*
X83619047Y-99214095D01*
X83619047Y-99214095D02*
X83904761Y-99499809D01*
X83904761Y-99499809D02*
X83595237Y-99499809D01*
X118299809Y-67619047D02*
X118704571Y-67619047D01*
X118704571Y-67619047D02*
X118752190Y-67642857D01*
X118752190Y-67642857D02*
X118776000Y-67666666D01*
X118776000Y-67666666D02*
X118799809Y-67714285D01*
X118799809Y-67714285D02*
X118799809Y-67809523D01*
X118799809Y-67809523D02*
X118776000Y-67857142D01*
X118776000Y-67857142D02*
X118752190Y-67880952D01*
X118752190Y-67880952D02*
X118704571Y-67904761D01*
X118704571Y-67904761D02*
X118299809Y-67904761D01*
X118799809Y-68404762D02*
X118799809Y-68119048D01*
X118799809Y-68261905D02*
X118299809Y-68261905D01*
X118299809Y-68261905D02*
X118371238Y-68214286D01*
X118371238Y-68214286D02*
X118418857Y-68166667D01*
X118418857Y-68166667D02*
X118442666Y-68119048D01*
X113811428Y-76477190D02*
X113835237Y-76501000D01*
X113835237Y-76501000D02*
X113906666Y-76524809D01*
X113906666Y-76524809D02*
X113954285Y-76524809D01*
X113954285Y-76524809D02*
X114025713Y-76501000D01*
X114025713Y-76501000D02*
X114073332Y-76453380D01*
X114073332Y-76453380D02*
X114097142Y-76405761D01*
X114097142Y-76405761D02*
X114120951Y-76310523D01*
X114120951Y-76310523D02*
X114120951Y-76239095D01*
X114120951Y-76239095D02*
X114097142Y-76143857D01*
X114097142Y-76143857D02*
X114073332Y-76096238D01*
X114073332Y-76096238D02*
X114025713Y-76048619D01*
X114025713Y-76048619D02*
X113954285Y-76024809D01*
X113954285Y-76024809D02*
X113906666Y-76024809D01*
X113906666Y-76024809D02*
X113835237Y-76048619D01*
X113835237Y-76048619D02*
X113811428Y-76072428D01*
X113620951Y-76072428D02*
X113597142Y-76048619D01*
X113597142Y-76048619D02*
X113549523Y-76024809D01*
X113549523Y-76024809D02*
X113430475Y-76024809D01*
X113430475Y-76024809D02*
X113382856Y-76048619D01*
X113382856Y-76048619D02*
X113359047Y-76072428D01*
X113359047Y-76072428D02*
X113335237Y-76120047D01*
X113335237Y-76120047D02*
X113335237Y-76167666D01*
X113335237Y-76167666D02*
X113359047Y-76239095D01*
X113359047Y-76239095D02*
X113644761Y-76524809D01*
X113644761Y-76524809D02*
X113335237Y-76524809D01*
X112906666Y-76024809D02*
X113001904Y-76024809D01*
X113001904Y-76024809D02*
X113049523Y-76048619D01*
X113049523Y-76048619D02*
X113073333Y-76072428D01*
X113073333Y-76072428D02*
X113120952Y-76143857D01*
X113120952Y-76143857D02*
X113144761Y-76239095D01*
X113144761Y-76239095D02*
X113144761Y-76429571D01*
X113144761Y-76429571D02*
X113120952Y-76477190D01*
X113120952Y-76477190D02*
X113097142Y-76501000D01*
X113097142Y-76501000D02*
X113049523Y-76524809D01*
X113049523Y-76524809D02*
X112954285Y-76524809D01*
X112954285Y-76524809D02*
X112906666Y-76501000D01*
X112906666Y-76501000D02*
X112882857Y-76477190D01*
X112882857Y-76477190D02*
X112859047Y-76429571D01*
X112859047Y-76429571D02*
X112859047Y-76310523D01*
X112859047Y-76310523D02*
X112882857Y-76262904D01*
X112882857Y-76262904D02*
X112906666Y-76239095D01*
X112906666Y-76239095D02*
X112954285Y-76215285D01*
X112954285Y-76215285D02*
X113049523Y-76215285D01*
X113049523Y-76215285D02*
X113097142Y-76239095D01*
X113097142Y-76239095D02*
X113120952Y-76262904D01*
X113120952Y-76262904D02*
X113144761Y-76310523D01*
X99977190Y-74803571D02*
X100001000Y-74779762D01*
X100001000Y-74779762D02*
X100024809Y-74708333D01*
X100024809Y-74708333D02*
X100024809Y-74660714D01*
X100024809Y-74660714D02*
X100001000Y-74589286D01*
X100001000Y-74589286D02*
X99953380Y-74541667D01*
X99953380Y-74541667D02*
X99905761Y-74517857D01*
X99905761Y-74517857D02*
X99810523Y-74494048D01*
X99810523Y-74494048D02*
X99739095Y-74494048D01*
X99739095Y-74494048D02*
X99643857Y-74517857D01*
X99643857Y-74517857D02*
X99596238Y-74541667D01*
X99596238Y-74541667D02*
X99548619Y-74589286D01*
X99548619Y-74589286D02*
X99524809Y-74660714D01*
X99524809Y-74660714D02*
X99524809Y-74708333D01*
X99524809Y-74708333D02*
X99548619Y-74779762D01*
X99548619Y-74779762D02*
X99572428Y-74803571D01*
X100024809Y-75279762D02*
X100024809Y-74994048D01*
X100024809Y-75136905D02*
X99524809Y-75136905D01*
X99524809Y-75136905D02*
X99596238Y-75089286D01*
X99596238Y-75089286D02*
X99643857Y-75041667D01*
X99643857Y-75041667D02*
X99667666Y-74994048D01*
X100024809Y-75517857D02*
X100024809Y-75613095D01*
X100024809Y-75613095D02*
X100001000Y-75660714D01*
X100001000Y-75660714D02*
X99977190Y-75684523D01*
X99977190Y-75684523D02*
X99905761Y-75732142D01*
X99905761Y-75732142D02*
X99810523Y-75755952D01*
X99810523Y-75755952D02*
X99620047Y-75755952D01*
X99620047Y-75755952D02*
X99572428Y-75732142D01*
X99572428Y-75732142D02*
X99548619Y-75708333D01*
X99548619Y-75708333D02*
X99524809Y-75660714D01*
X99524809Y-75660714D02*
X99524809Y-75565476D01*
X99524809Y-75565476D02*
X99548619Y-75517857D01*
X99548619Y-75517857D02*
X99572428Y-75494047D01*
X99572428Y-75494047D02*
X99620047Y-75470238D01*
X99620047Y-75470238D02*
X99739095Y-75470238D01*
X99739095Y-75470238D02*
X99786714Y-75494047D01*
X99786714Y-75494047D02*
X99810523Y-75517857D01*
X99810523Y-75517857D02*
X99834333Y-75565476D01*
X99834333Y-75565476D02*
X99834333Y-75660714D01*
X99834333Y-75660714D02*
X99810523Y-75708333D01*
X99810523Y-75708333D02*
X99786714Y-75732142D01*
X99786714Y-75732142D02*
X99739095Y-75755952D01*
X86349809Y-80383333D02*
X86706952Y-80383333D01*
X86706952Y-80383333D02*
X86778380Y-80359524D01*
X86778380Y-80359524D02*
X86826000Y-80311905D01*
X86826000Y-80311905D02*
X86849809Y-80240476D01*
X86849809Y-80240476D02*
X86849809Y-80192857D01*
X86349809Y-80573809D02*
X86349809Y-80883333D01*
X86349809Y-80883333D02*
X86540285Y-80716666D01*
X86540285Y-80716666D02*
X86540285Y-80788095D01*
X86540285Y-80788095D02*
X86564095Y-80835714D01*
X86564095Y-80835714D02*
X86587904Y-80859523D01*
X86587904Y-80859523D02*
X86635523Y-80883333D01*
X86635523Y-80883333D02*
X86754571Y-80883333D01*
X86754571Y-80883333D02*
X86802190Y-80859523D01*
X86802190Y-80859523D02*
X86826000Y-80835714D01*
X86826000Y-80835714D02*
X86849809Y-80788095D01*
X86849809Y-80788095D02*
X86849809Y-80645238D01*
X86849809Y-80645238D02*
X86826000Y-80597619D01*
X86826000Y-80597619D02*
X86802190Y-80573809D01*
X104378919Y-77589287D02*
X104378919Y-77827382D01*
X104521776Y-77541668D02*
X104021776Y-77708334D01*
X104021776Y-77708334D02*
X104521776Y-77875001D01*
X104497967Y-78255953D02*
X104521776Y-78208334D01*
X104521776Y-78208334D02*
X104521776Y-78113096D01*
X104521776Y-78113096D02*
X104497967Y-78065477D01*
X104497967Y-78065477D02*
X104474157Y-78041667D01*
X104474157Y-78041667D02*
X104426538Y-78017858D01*
X104426538Y-78017858D02*
X104283681Y-78017858D01*
X104283681Y-78017858D02*
X104236062Y-78041667D01*
X104236062Y-78041667D02*
X104212252Y-78065477D01*
X104212252Y-78065477D02*
X104188443Y-78113096D01*
X104188443Y-78113096D02*
X104188443Y-78208334D01*
X104188443Y-78208334D02*
X104212252Y-78255953D01*
X104497967Y-78684524D02*
X104521776Y-78636905D01*
X104521776Y-78636905D02*
X104521776Y-78541667D01*
X104521776Y-78541667D02*
X104497967Y-78494048D01*
X104497967Y-78494048D02*
X104474157Y-78470238D01*
X104474157Y-78470238D02*
X104426538Y-78446429D01*
X104426538Y-78446429D02*
X104283681Y-78446429D01*
X104283681Y-78446429D02*
X104236062Y-78470238D01*
X104236062Y-78470238D02*
X104212252Y-78494048D01*
X104212252Y-78494048D02*
X104188443Y-78541667D01*
X104188443Y-78541667D02*
X104188443Y-78636905D01*
X104188443Y-78636905D02*
X104212252Y-78684524D01*
X104497967Y-79089285D02*
X104521776Y-79041666D01*
X104521776Y-79041666D02*
X104521776Y-78946428D01*
X104521776Y-78946428D02*
X104497967Y-78898809D01*
X104497967Y-78898809D02*
X104450347Y-78875000D01*
X104450347Y-78875000D02*
X104259871Y-78875000D01*
X104259871Y-78875000D02*
X104212252Y-78898809D01*
X104212252Y-78898809D02*
X104188443Y-78946428D01*
X104188443Y-78946428D02*
X104188443Y-79041666D01*
X104188443Y-79041666D02*
X104212252Y-79089285D01*
X104212252Y-79089285D02*
X104259871Y-79113095D01*
X104259871Y-79113095D02*
X104307490Y-79113095D01*
X104307490Y-79113095D02*
X104355109Y-78875000D01*
X104521776Y-79398809D02*
X104497967Y-79351190D01*
X104497967Y-79351190D02*
X104450347Y-79327380D01*
X104450347Y-79327380D02*
X104021776Y-79327380D01*
X104497967Y-79946428D02*
X104521776Y-80017856D01*
X104521776Y-80017856D02*
X104521776Y-80136904D01*
X104521776Y-80136904D02*
X104497967Y-80184523D01*
X104497967Y-80184523D02*
X104474157Y-80208332D01*
X104474157Y-80208332D02*
X104426538Y-80232142D01*
X104426538Y-80232142D02*
X104378919Y-80232142D01*
X104378919Y-80232142D02*
X104331300Y-80208332D01*
X104331300Y-80208332D02*
X104307490Y-80184523D01*
X104307490Y-80184523D02*
X104283681Y-80136904D01*
X104283681Y-80136904D02*
X104259871Y-80041666D01*
X104259871Y-80041666D02*
X104236062Y-79994047D01*
X104236062Y-79994047D02*
X104212252Y-79970237D01*
X104212252Y-79970237D02*
X104164633Y-79946428D01*
X104164633Y-79946428D02*
X104117014Y-79946428D01*
X104117014Y-79946428D02*
X104069395Y-79970237D01*
X104069395Y-79970237D02*
X104045586Y-79994047D01*
X104045586Y-79994047D02*
X104021776Y-80041666D01*
X104021776Y-80041666D02*
X104021776Y-80160713D01*
X104021776Y-80160713D02*
X104045586Y-80232142D01*
X104521776Y-80446427D02*
X104021776Y-80446427D01*
X104021776Y-80446427D02*
X104021776Y-80565475D01*
X104021776Y-80565475D02*
X104045586Y-80636903D01*
X104045586Y-80636903D02*
X104093205Y-80684522D01*
X104093205Y-80684522D02*
X104140824Y-80708332D01*
X104140824Y-80708332D02*
X104236062Y-80732141D01*
X104236062Y-80732141D02*
X104307490Y-80732141D01*
X104307490Y-80732141D02*
X104402728Y-80708332D01*
X104402728Y-80708332D02*
X104450347Y-80684522D01*
X104450347Y-80684522D02*
X104497967Y-80636903D01*
X104497967Y-80636903D02*
X104521776Y-80565475D01*
X104521776Y-80565475D02*
X104521776Y-80446427D01*
X104378919Y-80922618D02*
X104378919Y-81160713D01*
X104521776Y-80874999D02*
X104021776Y-81041665D01*
X104021776Y-81041665D02*
X104521776Y-81208332D01*
X121624809Y-84780952D02*
X121124809Y-84780952D01*
X121124809Y-84780952D02*
X121124809Y-84900000D01*
X121124809Y-84900000D02*
X121148619Y-84971428D01*
X121148619Y-84971428D02*
X121196238Y-85019047D01*
X121196238Y-85019047D02*
X121243857Y-85042857D01*
X121243857Y-85042857D02*
X121339095Y-85066666D01*
X121339095Y-85066666D02*
X121410523Y-85066666D01*
X121410523Y-85066666D02*
X121505761Y-85042857D01*
X121505761Y-85042857D02*
X121553380Y-85019047D01*
X121553380Y-85019047D02*
X121601000Y-84971428D01*
X121601000Y-84971428D02*
X121624809Y-84900000D01*
X121624809Y-84900000D02*
X121624809Y-84780952D01*
X121124809Y-85519047D02*
X121124809Y-85280952D01*
X121124809Y-85280952D02*
X121362904Y-85257143D01*
X121362904Y-85257143D02*
X121339095Y-85280952D01*
X121339095Y-85280952D02*
X121315285Y-85328571D01*
X121315285Y-85328571D02*
X121315285Y-85447619D01*
X121315285Y-85447619D02*
X121339095Y-85495238D01*
X121339095Y-85495238D02*
X121362904Y-85519047D01*
X121362904Y-85519047D02*
X121410523Y-85542857D01*
X121410523Y-85542857D02*
X121529571Y-85542857D01*
X121529571Y-85542857D02*
X121577190Y-85519047D01*
X121577190Y-85519047D02*
X121601000Y-85495238D01*
X121601000Y-85495238D02*
X121624809Y-85447619D01*
X121624809Y-85447619D02*
X121624809Y-85328571D01*
X121624809Y-85328571D02*
X121601000Y-85280952D01*
X121601000Y-85280952D02*
X121577190Y-85257143D01*
X92174809Y-75994047D02*
X92579571Y-75994047D01*
X92579571Y-75994047D02*
X92627190Y-76017857D01*
X92627190Y-76017857D02*
X92651000Y-76041666D01*
X92651000Y-76041666D02*
X92674809Y-76089285D01*
X92674809Y-76089285D02*
X92674809Y-76184523D01*
X92674809Y-76184523D02*
X92651000Y-76232142D01*
X92651000Y-76232142D02*
X92627190Y-76255952D01*
X92627190Y-76255952D02*
X92579571Y-76279761D01*
X92579571Y-76279761D02*
X92174809Y-76279761D01*
X92222428Y-76494048D02*
X92198619Y-76517857D01*
X92198619Y-76517857D02*
X92174809Y-76565476D01*
X92174809Y-76565476D02*
X92174809Y-76684524D01*
X92174809Y-76684524D02*
X92198619Y-76732143D01*
X92198619Y-76732143D02*
X92222428Y-76755952D01*
X92222428Y-76755952D02*
X92270047Y-76779762D01*
X92270047Y-76779762D02*
X92317666Y-76779762D01*
X92317666Y-76779762D02*
X92389095Y-76755952D01*
X92389095Y-76755952D02*
X92674809Y-76470238D01*
X92674809Y-76470238D02*
X92674809Y-76779762D01*
X111597190Y-79408571D02*
X111621000Y-79384762D01*
X111621000Y-79384762D02*
X111644809Y-79313333D01*
X111644809Y-79313333D02*
X111644809Y-79265714D01*
X111644809Y-79265714D02*
X111621000Y-79194286D01*
X111621000Y-79194286D02*
X111573380Y-79146667D01*
X111573380Y-79146667D02*
X111525761Y-79122857D01*
X111525761Y-79122857D02*
X111430523Y-79099048D01*
X111430523Y-79099048D02*
X111359095Y-79099048D01*
X111359095Y-79099048D02*
X111263857Y-79122857D01*
X111263857Y-79122857D02*
X111216238Y-79146667D01*
X111216238Y-79146667D02*
X111168619Y-79194286D01*
X111168619Y-79194286D02*
X111144809Y-79265714D01*
X111144809Y-79265714D02*
X111144809Y-79313333D01*
X111144809Y-79313333D02*
X111168619Y-79384762D01*
X111168619Y-79384762D02*
X111192428Y-79408571D01*
X111192428Y-79599048D02*
X111168619Y-79622857D01*
X111168619Y-79622857D02*
X111144809Y-79670476D01*
X111144809Y-79670476D02*
X111144809Y-79789524D01*
X111144809Y-79789524D02*
X111168619Y-79837143D01*
X111168619Y-79837143D02*
X111192428Y-79860952D01*
X111192428Y-79860952D02*
X111240047Y-79884762D01*
X111240047Y-79884762D02*
X111287666Y-79884762D01*
X111287666Y-79884762D02*
X111359095Y-79860952D01*
X111359095Y-79860952D02*
X111644809Y-79575238D01*
X111644809Y-79575238D02*
X111644809Y-79884762D01*
X111144809Y-80337142D02*
X111144809Y-80099047D01*
X111144809Y-80099047D02*
X111382904Y-80075238D01*
X111382904Y-80075238D02*
X111359095Y-80099047D01*
X111359095Y-80099047D02*
X111335285Y-80146666D01*
X111335285Y-80146666D02*
X111335285Y-80265714D01*
X111335285Y-80265714D02*
X111359095Y-80313333D01*
X111359095Y-80313333D02*
X111382904Y-80337142D01*
X111382904Y-80337142D02*
X111430523Y-80360952D01*
X111430523Y-80360952D02*
X111549571Y-80360952D01*
X111549571Y-80360952D02*
X111597190Y-80337142D01*
X111597190Y-80337142D02*
X111621000Y-80313333D01*
X111621000Y-80313333D02*
X111644809Y-80265714D01*
X111644809Y-80265714D02*
X111644809Y-80146666D01*
X111644809Y-80146666D02*
X111621000Y-80099047D01*
X111621000Y-80099047D02*
X111597190Y-80075238D01*
X90033333Y-81827190D02*
X90057142Y-81851000D01*
X90057142Y-81851000D02*
X90128571Y-81874809D01*
X90128571Y-81874809D02*
X90176190Y-81874809D01*
X90176190Y-81874809D02*
X90247618Y-81851000D01*
X90247618Y-81851000D02*
X90295237Y-81803380D01*
X90295237Y-81803380D02*
X90319047Y-81755761D01*
X90319047Y-81755761D02*
X90342856Y-81660523D01*
X90342856Y-81660523D02*
X90342856Y-81589095D01*
X90342856Y-81589095D02*
X90319047Y-81493857D01*
X90319047Y-81493857D02*
X90295237Y-81446238D01*
X90295237Y-81446238D02*
X90247618Y-81398619D01*
X90247618Y-81398619D02*
X90176190Y-81374809D01*
X90176190Y-81374809D02*
X90128571Y-81374809D01*
X90128571Y-81374809D02*
X90057142Y-81398619D01*
X90057142Y-81398619D02*
X90033333Y-81422428D01*
X89842856Y-81422428D02*
X89819047Y-81398619D01*
X89819047Y-81398619D02*
X89771428Y-81374809D01*
X89771428Y-81374809D02*
X89652380Y-81374809D01*
X89652380Y-81374809D02*
X89604761Y-81398619D01*
X89604761Y-81398619D02*
X89580952Y-81422428D01*
X89580952Y-81422428D02*
X89557142Y-81470047D01*
X89557142Y-81470047D02*
X89557142Y-81517666D01*
X89557142Y-81517666D02*
X89580952Y-81589095D01*
X89580952Y-81589095D02*
X89866666Y-81874809D01*
X89866666Y-81874809D02*
X89557142Y-81874809D01*
X118077190Y-83678571D02*
X118101000Y-83654762D01*
X118101000Y-83654762D02*
X118124809Y-83583333D01*
X118124809Y-83583333D02*
X118124809Y-83535714D01*
X118124809Y-83535714D02*
X118101000Y-83464286D01*
X118101000Y-83464286D02*
X118053380Y-83416667D01*
X118053380Y-83416667D02*
X118005761Y-83392857D01*
X118005761Y-83392857D02*
X117910523Y-83369048D01*
X117910523Y-83369048D02*
X117839095Y-83369048D01*
X117839095Y-83369048D02*
X117743857Y-83392857D01*
X117743857Y-83392857D02*
X117696238Y-83416667D01*
X117696238Y-83416667D02*
X117648619Y-83464286D01*
X117648619Y-83464286D02*
X117624809Y-83535714D01*
X117624809Y-83535714D02*
X117624809Y-83583333D01*
X117624809Y-83583333D02*
X117648619Y-83654762D01*
X117648619Y-83654762D02*
X117672428Y-83678571D01*
X117672428Y-83869048D02*
X117648619Y-83892857D01*
X117648619Y-83892857D02*
X117624809Y-83940476D01*
X117624809Y-83940476D02*
X117624809Y-84059524D01*
X117624809Y-84059524D02*
X117648619Y-84107143D01*
X117648619Y-84107143D02*
X117672428Y-84130952D01*
X117672428Y-84130952D02*
X117720047Y-84154762D01*
X117720047Y-84154762D02*
X117767666Y-84154762D01*
X117767666Y-84154762D02*
X117839095Y-84130952D01*
X117839095Y-84130952D02*
X118124809Y-83845238D01*
X118124809Y-83845238D02*
X118124809Y-84154762D01*
X118124809Y-84630952D02*
X118124809Y-84345238D01*
X118124809Y-84488095D02*
X117624809Y-84488095D01*
X117624809Y-84488095D02*
X117696238Y-84440476D01*
X117696238Y-84440476D02*
X117743857Y-84392857D01*
X117743857Y-84392857D02*
X117767666Y-84345238D01*
D13*
%TO.C,R15*%
X115720000Y-79853641D02*
X115720000Y-79546359D01*
X116480000Y-79853641D02*
X116480000Y-79546359D01*
%TO.C,Accel SCL*%
X101800000Y-80400000D02*
G75*
G02*
X100400000Y-80400000I-700000J0D01*
G01*
X100400000Y-80400000D02*
G75*
G02*
X101800000Y-80400000I700000J0D01*
G01*
%TO.C,C22*%
X114692164Y-87340000D02*
X114907836Y-87340000D01*
X114692164Y-88060000D02*
X114907836Y-88060000D01*
%TO.C,R1*%
X97620000Y-77953641D02*
X97620000Y-77646359D01*
X98380000Y-77953641D02*
X98380000Y-77646359D01*
%TO.C,C30*%
X123490000Y-85234420D02*
X123490000Y-85515580D01*
X124510000Y-85234420D02*
X124510000Y-85515580D01*
%TO.C,R4*%
X97820000Y-75646359D02*
X97820000Y-75953641D01*
X98580000Y-75646359D02*
X98580000Y-75953641D01*
%TO.C,C27*%
X117190580Y-76090000D02*
X116909420Y-76090000D01*
X117190580Y-77110000D02*
X116909420Y-77110000D01*
%TO.C,J1*%
X125365000Y-63040000D02*
X133185000Y-63040000D01*
X125365000Y-63960000D02*
X125365000Y-63040000D01*
X125365000Y-76240000D02*
X126965000Y-76240000D01*
X125365000Y-77160000D02*
X125365000Y-76240000D01*
X126965000Y-63040000D02*
X126965000Y-63960000D01*
X126965000Y-63960000D02*
X125365000Y-63960000D01*
X126965000Y-64240000D02*
X125750000Y-64240000D01*
X126965000Y-64240000D02*
X126965000Y-63960000D01*
X126965000Y-76240000D02*
X126965000Y-75960000D01*
X126965000Y-77160000D02*
X126965000Y-76240000D01*
X128825000Y-65600000D02*
X128825000Y-74600000D01*
X128825000Y-74600000D02*
X133185000Y-74600000D01*
X129325000Y-63800000D02*
X130925000Y-63800000D01*
X129325000Y-64800000D02*
X129325000Y-63800000D01*
X129325000Y-75400000D02*
X129325000Y-76400000D01*
X129325000Y-76400000D02*
X130925000Y-76400000D01*
X130925000Y-63800000D02*
X130925000Y-64800000D01*
X130925000Y-64300000D02*
X133185000Y-64300000D01*
X130925000Y-64800000D02*
X129325000Y-64800000D01*
X130925000Y-64800000D02*
X133185000Y-64800000D01*
X130925000Y-75400000D02*
X129325000Y-75400000D01*
X130925000Y-76400000D02*
X130925000Y-75400000D01*
X133185000Y-63040000D02*
X133185000Y-77160000D01*
X133185000Y-65600000D02*
X128825000Y-65600000D01*
X133185000Y-77160000D02*
X125365000Y-77160000D01*
%TO.C,C24*%
X116007836Y-80940000D02*
X115792164Y-80940000D01*
X116007836Y-81660000D02*
X115792164Y-81660000D01*
%TO.C,R12*%
X113063641Y-81920000D02*
X112756359Y-81920000D01*
X113063641Y-82680000D02*
X112756359Y-82680000D01*
%TO.C,MP1*%
D14*
X116300000Y-87000000D02*
X113500000Y-87000000D01*
X113500000Y-83000000D01*
X116300000Y-83000000D01*
X116300000Y-87000000D01*
D13*
X116530000Y-86740000D02*
X116200000Y-86500000D01*
X116530000Y-86260000D01*
X116530000Y-86740000D01*
G36*
X116530000Y-86740000D02*
G01*
X116200000Y-86500000D01*
X116530000Y-86260000D01*
X116530000Y-86740000D01*
G37*
%TO.C,R14*%
X116820000Y-79853641D02*
X116820000Y-79546359D01*
X117580000Y-79853641D02*
X117580000Y-79546359D01*
%TO.C,F2*%
X119030000Y-81391252D02*
X119030000Y-76983748D01*
X124370000Y-81391252D02*
X124370000Y-76983748D01*
%TO.C,C18*%
X101915580Y-71190000D02*
X101634420Y-71190000D01*
X101915580Y-72210000D02*
X101634420Y-72210000D01*
%TO.C,C4*%
X90140580Y-71492500D02*
X89859420Y-71492500D01*
X90140580Y-72512500D02*
X89859420Y-72512500D01*
%TO.C,C29*%
X124940000Y-85972164D02*
X124940000Y-86187836D01*
X125660000Y-85972164D02*
X125660000Y-86187836D01*
%TO.C,U4*%
X101540000Y-72690000D02*
X100490000Y-72690000D01*
X101540000Y-77910000D02*
X100790000Y-77910000D01*
X102660000Y-72690000D02*
X103710000Y-72690000D01*
X102660000Y-77910000D02*
X103710000Y-77910000D01*
X100630000Y-78100000D02*
X100350000Y-78100000D01*
X100490000Y-77910000D01*
X100630000Y-78100000D01*
G36*
X100630000Y-78100000D02*
G01*
X100350000Y-78100000D01*
X100490000Y-77910000D01*
X100630000Y-78100000D01*
G37*
%TO.C,C23*%
X112440000Y-83772164D02*
X112440000Y-83987836D01*
X113160000Y-83772164D02*
X113160000Y-83987836D01*
%TO.C,C28*%
X117190580Y-71490000D02*
X116909420Y-71490000D01*
X117190580Y-72510000D02*
X116909420Y-72510000D01*
%TO.C,BUxxSD1*%
D14*
X118450000Y-75600000D02*
X115650000Y-75600000D01*
X115650000Y-73000000D01*
X118450000Y-73000000D01*
X118450000Y-75600000D01*
D13*
%TO.C,C3*%
X121459420Y-71890000D02*
X121740580Y-71890000D01*
X121459420Y-72910000D02*
X121740580Y-72910000D01*
%TO.C,C1*%
X120707836Y-63540000D02*
X120492164Y-63540000D01*
X120707836Y-64260000D02*
X120492164Y-64260000D01*
%TO.C,J8*%
X112490000Y-93090000D02*
X112490000Y-98510000D01*
X121210000Y-93090000D02*
X112490000Y-93090000D01*
X121210000Y-98510000D02*
X112490000Y-98510000D01*
X122910000Y-94390000D02*
X121210000Y-93090000D01*
X122910000Y-94390000D02*
X122910000Y-97210000D01*
X122910000Y-97210000D02*
X121210000Y-98510000D01*
%TO.C,R13*%
X116053641Y-81920000D02*
X115746359Y-81920000D01*
X116053641Y-82680000D02*
X115746359Y-82680000D01*
%TO.C,J7*%
X87690000Y-55140000D02*
X88940000Y-55140000D01*
X87690000Y-56390000D02*
X87690000Y-55140000D01*
X87790000Y-56900000D02*
X87990000Y-56900000D01*
X87790000Y-57200000D02*
X87790000Y-56900000D01*
X87890000Y-57200000D02*
X87890000Y-56900000D01*
X87990000Y-55440000D02*
X92710000Y-55440000D01*
X87990000Y-57200000D02*
X87790000Y-57200000D01*
X87990000Y-58000000D02*
X88600000Y-58000000D01*
X87990000Y-65560000D02*
X87990000Y-55440000D01*
X88600000Y-56050000D02*
X92100000Y-56050000D01*
X88600000Y-58000000D02*
X88600000Y-56050000D01*
X88600000Y-63000000D02*
X87990000Y-63000000D01*
X88600000Y-64950000D02*
X88600000Y-63000000D01*
X89300000Y-55440000D02*
X89300000Y-56050000D01*
X89300000Y-65560000D02*
X89300000Y-64950000D01*
X90600000Y-55440000D02*
X90600000Y-56050000D01*
X90600000Y-65560000D02*
X90600000Y-64950000D01*
X91600000Y-58400000D02*
X91600000Y-58600000D01*
X91600000Y-58600000D02*
X92100000Y-58600000D01*
X91600000Y-60400000D02*
X91600000Y-60600000D01*
X91600000Y-60600000D02*
X92100000Y-60600000D01*
X91600000Y-62400000D02*
X91600000Y-62600000D01*
X91600000Y-62600000D02*
X92100000Y-62600000D01*
X92100000Y-56050000D02*
X92100000Y-64950000D01*
X92100000Y-58400000D02*
X91600000Y-58400000D01*
X92100000Y-58500000D02*
X91600000Y-58500000D01*
X92100000Y-60400000D02*
X91600000Y-60400000D01*
X92100000Y-60500000D02*
X91600000Y-60500000D01*
X92100000Y-62400000D02*
X91600000Y-62400000D01*
X92100000Y-62500000D02*
X91600000Y-62500000D01*
X92100000Y-64950000D02*
X88600000Y-64950000D01*
X92710000Y-55440000D02*
X92710000Y-65560000D01*
X92710000Y-65560000D02*
X87990000Y-65560000D01*
%TO.C,R11*%
X116720000Y-85781359D02*
X116720000Y-86088641D01*
X117480000Y-85781359D02*
X117480000Y-86088641D01*
%TO.C,C20*%
X113813748Y-88490000D02*
X115236252Y-88490000D01*
X113813748Y-90310000D02*
X115236252Y-90310000D01*
%TO.C,R10*%
X114020000Y-81646359D02*
X114020000Y-81953641D01*
X114780000Y-81646359D02*
X114780000Y-81953641D01*
D14*
%TO.C,L2*%
X117025000Y-92200000D02*
X117075000Y-87000000D01*
X117075000Y-87000000D02*
X117200000Y-87000000D01*
X117150000Y-92200000D02*
X117025000Y-92200000D01*
X117250000Y-92200000D02*
X117150000Y-92200000D01*
X117250000Y-92200000D02*
X119250000Y-92200000D01*
X119150000Y-87000000D02*
X117200000Y-87000000D01*
X119150000Y-87000000D02*
X119525000Y-86700000D01*
X119650000Y-92500000D02*
X119250000Y-92200000D01*
X119650000Y-92500000D02*
X121175000Y-92500000D01*
X121050000Y-86700000D02*
X119525000Y-86700000D01*
X121050000Y-86700000D02*
X121450000Y-87000000D01*
X121550000Y-92200000D02*
X121175000Y-92500000D01*
X123650000Y-87000000D02*
X121450000Y-87000000D01*
X123650000Y-87000000D02*
X123650000Y-92200000D01*
X123650000Y-92200000D02*
X121550000Y-92200000D01*
D12*
%TO.C,U1*%
X119225000Y-70075000D02*
X119225000Y-65925000D01*
X124375000Y-70075000D02*
X124375000Y-65925000D01*
D13*
X124705000Y-70740000D02*
X124375000Y-70500000D01*
X124705000Y-70260000D01*
X124705000Y-70740000D01*
G36*
X124705000Y-70740000D02*
G01*
X124375000Y-70500000D01*
X124705000Y-70260000D01*
X124705000Y-70740000D01*
G37*
%TO.C,C26*%
X113438748Y-76915000D02*
X113961252Y-76915000D01*
X113438748Y-78385000D02*
X113961252Y-78385000D01*
%TO.C,C19*%
X99440000Y-77007836D02*
X99440000Y-76792164D01*
X100160000Y-77007836D02*
X100160000Y-76792164D01*
%TO.C,J3*%
X77640000Y-69390000D02*
X85460000Y-69390000D01*
X77640000Y-80950000D02*
X82000000Y-80950000D01*
X77640000Y-83510000D02*
X77640000Y-69390000D01*
X79900000Y-70150000D02*
X79900000Y-71150000D01*
X79900000Y-71150000D02*
X81500000Y-71150000D01*
X79900000Y-81750000D02*
X77640000Y-81750000D01*
X79900000Y-81750000D02*
X81500000Y-81750000D01*
X79900000Y-82250000D02*
X77640000Y-82250000D01*
X79900000Y-82750000D02*
X79900000Y-81750000D01*
X81500000Y-70150000D02*
X79900000Y-70150000D01*
X81500000Y-71150000D02*
X81500000Y-70150000D01*
X81500000Y-81750000D02*
X81500000Y-82750000D01*
X81500000Y-82750000D02*
X79900000Y-82750000D01*
X82000000Y-71950000D02*
X77640000Y-71950000D01*
X82000000Y-80950000D02*
X82000000Y-71950000D01*
X83860000Y-69390000D02*
X83860000Y-70310000D01*
X83860000Y-70310000D02*
X83860000Y-70590000D01*
X83860000Y-82310000D02*
X83860000Y-82590000D01*
X83860000Y-82310000D02*
X85075000Y-82310000D01*
X83860000Y-82590000D02*
X85460000Y-82590000D01*
X83860000Y-83510000D02*
X83860000Y-82590000D01*
X85460000Y-69390000D02*
X85460000Y-70310000D01*
X85460000Y-70310000D02*
X83860000Y-70310000D01*
X85460000Y-82590000D02*
X85460000Y-83510000D01*
X85460000Y-83510000D02*
X77640000Y-83510000D01*
%TO.C,Accel SDA*%
X103700000Y-79700000D02*
G75*
G02*
X102300000Y-79700000I-700000J0D01*
G01*
X102300000Y-79700000D02*
G75*
G02*
X103700000Y-79700000I700000J0D01*
G01*
%TO.C,D5*%
X121900000Y-84500000D02*
X121900000Y-86460000D01*
X123100000Y-84500000D02*
X123100000Y-86460000D01*
X123100000Y-86460000D02*
X121900000Y-86460000D01*
D12*
%TO.C,U2*%
X86625000Y-74325000D02*
X86625000Y-78475000D01*
X91775000Y-74325000D02*
X91775000Y-78475000D01*
D13*
X86625000Y-73900000D02*
X86295000Y-74140000D01*
X86295000Y-73660000D01*
X86625000Y-73900000D01*
G36*
X86625000Y-73900000D02*
G01*
X86295000Y-74140000D01*
X86295000Y-73660000D01*
X86625000Y-73900000D01*
G37*
%TO.C,C25*%
X113438748Y-78965000D02*
X113961252Y-78965000D01*
X113438748Y-80435000D02*
X113961252Y-80435000D01*
%TO.C,C2*%
X89987836Y-80142500D02*
X89772164Y-80142500D01*
X89987836Y-80862500D02*
X89772164Y-80862500D01*
%TO.C,C21*%
X116640000Y-84107836D02*
X116640000Y-83892164D01*
X117360000Y-84107836D02*
X117360000Y-83892164D01*
%TD*%
M02*
