%TF.GenerationSoftware,KiCad,Pcbnew,9.0.0*%
%TF.CreationDate,2025-10-01T14:09:25+02:00*%
%TF.ProjectId,PCB projet ESE,50434220-7072-46f6-9a65-74204553452e,rev?*%
%TF.SameCoordinates,Original*%
%TF.FileFunction,Paste,Bot*%
%TF.FilePolarity,Positive*%
%FSLAX46Y46*%
G04 Gerber Fmt 4.6, Leading zero omitted, Abs format (unit mm)*
G04 Created by KiCad (PCBNEW 9.0.0) date 2025-10-01 14:09:25*
%MOMM*%
%LPD*%
G01*
G04 APERTURE LIST*
G04 Aperture macros list*
%AMRoundRect*
0 Rectangle with rounded corners*
0 $1 Rounding radius*
0 $2 $3 $4 $5 $6 $7 $8 $9 X,Y pos of 4 corners*
0 Add a 4 corners polygon primitive as box body*
4,1,4,$2,$3,$4,$5,$6,$7,$8,$9,$2,$3,0*
0 Add four circle primitives for the rounded corners*
1,1,$1+$1,$2,$3*
1,1,$1+$1,$4,$5*
1,1,$1+$1,$6,$7*
1,1,$1+$1,$8,$9*
0 Add four rect primitives between the rounded corners*
20,1,$1+$1,$2,$3,$4,$5,0*
20,1,$1+$1,$4,$5,$6,$7,0*
20,1,$1+$1,$6,$7,$8,$9,0*
20,1,$1+$1,$8,$9,$2,$3,0*%
G04 Aperture macros list end*
%ADD10RoundRect,0.135000X0.185000X-0.135000X0.185000X0.135000X-0.185000X0.135000X-0.185000X-0.135000X0*%
%ADD11RoundRect,0.140000X-0.140000X-0.170000X0.140000X-0.170000X0.140000X0.170000X-0.140000X0.170000X0*%
%ADD12RoundRect,0.225000X-0.250000X0.225000X-0.250000X-0.225000X0.250000X-0.225000X0.250000X0.225000X0*%
%ADD13RoundRect,0.135000X-0.185000X0.135000X-0.185000X-0.135000X0.185000X-0.135000X0.185000X0.135000X0*%
%ADD14RoundRect,0.225000X0.225000X0.250000X-0.225000X0.250000X-0.225000X-0.250000X0.225000X-0.250000X0*%
%ADD15RoundRect,0.140000X0.140000X0.170000X-0.140000X0.170000X-0.140000X-0.170000X0.140000X-0.170000X0*%
%ADD16RoundRect,0.135000X0.135000X0.185000X-0.135000X0.185000X-0.135000X-0.185000X0.135000X-0.185000X0*%
%ADD17RoundRect,0.045000X0.105000X-0.555000X0.105000X0.555000X-0.105000X0.555000X-0.105000X-0.555000X0*%
%ADD18RoundRect,0.250000X2.475000X-0.712500X2.475000X0.712500X-2.475000X0.712500X-2.475000X-0.712500X0*%
%ADD19RoundRect,0.140000X-0.170000X0.140000X-0.170000X-0.140000X0.170000X-0.140000X0.170000X0.140000X0*%
%ADD20RoundRect,0.150000X-0.325000X-0.150000X0.325000X-0.150000X0.325000X0.150000X-0.325000X0.150000X0*%
%ADD21RoundRect,0.150000X-0.150000X-0.325000X0.150000X-0.325000X0.150000X0.325000X-0.150000X0.325000X0*%
%ADD22RoundRect,0.070500X0.164500X-0.279500X0.164500X0.279500X-0.164500X0.279500X-0.164500X-0.279500X0*%
%ADD23RoundRect,0.225000X-0.225000X-0.250000X0.225000X-0.250000X0.225000X0.250000X-0.225000X0.250000X0*%
%ADD24RoundRect,0.250000X-0.325000X-0.650000X0.325000X-0.650000X0.325000X0.650000X-0.325000X0.650000X0*%
%ADD25RoundRect,0.232500X-0.542500X2.017500X-0.542500X-2.017500X0.542500X-2.017500X0.542500X2.017500X0*%
%ADD26RoundRect,0.232500X0.542500X-2.017500X0.542500X2.017500X-0.542500X2.017500X-0.542500X-2.017500X0*%
%ADD27R,0.802000X1.505000*%
%ADD28R,3.502000X2.613000*%
%ADD29RoundRect,0.250000X-0.250000X-0.475000X0.250000X-0.475000X0.250000X0.475000X-0.250000X0.475000X0*%
%ADD30RoundRect,0.140000X0.170000X-0.140000X0.170000X0.140000X-0.170000X0.140000X-0.170000X-0.140000X0*%
%ADD31RoundRect,0.150000X-0.200000X0.150000X-0.200000X-0.150000X0.200000X-0.150000X0.200000X0.150000X0*%
G04 APERTURE END LIST*
D10*
%TO.C,R15*%
X116100000Y-80210000D03*
X116100000Y-79190000D03*
%TD*%
D11*
%TO.C,C22*%
X114320000Y-87700000D03*
X115280000Y-87700000D03*
%TD*%
D10*
%TO.C,R1*%
X98000000Y-78310000D03*
X98000000Y-77290000D03*
%TD*%
D12*
%TO.C,C30*%
X124000000Y-84600000D03*
X124000000Y-86150000D03*
%TD*%
D13*
%TO.C,R4*%
X98200000Y-75290000D03*
X98200000Y-76310000D03*
%TD*%
D14*
%TO.C,C27*%
X117825000Y-76600000D03*
X116275000Y-76600000D03*
%TD*%
D15*
%TO.C,C24*%
X116380000Y-81300000D03*
X115420000Y-81300000D03*
%TD*%
D16*
%TO.C,R12*%
X113420000Y-82300000D03*
X112400000Y-82300000D03*
%TD*%
D17*
%TO.C,MP1*%
X115900000Y-86300000D03*
X115250000Y-86300000D03*
X114600000Y-86300000D03*
X113950000Y-86300000D03*
X113950000Y-83700000D03*
X114600000Y-83700000D03*
X115250000Y-83700000D03*
X115900000Y-83700000D03*
%TD*%
D10*
%TO.C,R14*%
X117200000Y-80210000D03*
X117200000Y-79190000D03*
%TD*%
D18*
%TO.C,F2*%
X121700000Y-82575000D03*
X121700000Y-75800000D03*
%TD*%
D14*
%TO.C,C18*%
X102550000Y-71700000D03*
X101000000Y-71700000D03*
%TD*%
%TO.C,C4*%
X90775000Y-72002500D03*
X89225000Y-72002500D03*
%TD*%
D19*
%TO.C,C29*%
X125300000Y-85600000D03*
X125300000Y-86560000D03*
%TD*%
D20*
%TO.C,U4*%
X101100000Y-77300000D03*
X101100000Y-76500000D03*
X101100000Y-75700000D03*
X101100000Y-74900000D03*
X101100000Y-74100000D03*
X101100000Y-73300000D03*
D21*
X102100000Y-73300000D03*
D20*
X103100000Y-73300000D03*
X103100000Y-74100000D03*
X103100000Y-74900000D03*
X103100000Y-75700000D03*
X103100000Y-76500000D03*
X103100000Y-77300000D03*
D21*
X102100000Y-77300000D03*
%TD*%
D19*
%TO.C,C23*%
X112800000Y-83400000D03*
X112800000Y-84360000D03*
%TD*%
D14*
%TO.C,C28*%
X117825000Y-72000000D03*
X116275000Y-72000000D03*
%TD*%
D22*
%TO.C,BUxxSD1*%
X118000000Y-75100000D03*
X117050000Y-75100000D03*
X116100000Y-75100000D03*
X116100000Y-73500000D03*
X118000000Y-73500000D03*
%TD*%
D23*
%TO.C,C3*%
X120825000Y-72400000D03*
X122375000Y-72400000D03*
%TD*%
D15*
%TO.C,C1*%
X121080000Y-63900000D03*
X120120000Y-63900000D03*
%TD*%
D16*
%TO.C,R13*%
X116410000Y-82300000D03*
X115390000Y-82300000D03*
%TD*%
D13*
%TO.C,R11*%
X117100000Y-85425000D03*
X117100000Y-86445000D03*
%TD*%
D24*
%TO.C,C20*%
X113050000Y-89400000D03*
X116000000Y-89400000D03*
%TD*%
D13*
%TO.C,R10*%
X114400000Y-81290000D03*
X114400000Y-82310000D03*
%TD*%
D25*
%TO.C,L2*%
X118450000Y-89600000D03*
D26*
X122300000Y-89600000D03*
%TD*%
D27*
%TO.C,U1*%
X123705000Y-70497500D03*
X122435000Y-70497500D03*
X121165000Y-70497500D03*
X119895000Y-70497500D03*
X119895000Y-65502500D03*
X121165000Y-65502500D03*
X122435000Y-65502500D03*
X123705000Y-65502500D03*
D28*
X121800000Y-68000000D03*
%TD*%
D29*
%TO.C,C26*%
X112750000Y-77650000D03*
X114650000Y-77650000D03*
%TD*%
D30*
%TO.C,C19*%
X99800000Y-77380000D03*
X99800000Y-76420000D03*
%TD*%
D31*
%TO.C,D5*%
X122500000Y-85900000D03*
X122500000Y-84500000D03*
%TD*%
D27*
%TO.C,U2*%
X87295000Y-73902500D03*
X88565000Y-73902500D03*
X89835000Y-73902500D03*
X91105000Y-73902500D03*
X91105000Y-78897500D03*
X89835000Y-78897500D03*
X88565000Y-78897500D03*
X87295000Y-78897500D03*
D28*
X89200000Y-76400000D03*
%TD*%
D29*
%TO.C,C25*%
X112750000Y-79700000D03*
X114650000Y-79700000D03*
%TD*%
D15*
%TO.C,C2*%
X90360000Y-80502500D03*
X89400000Y-80502500D03*
%TD*%
D30*
%TO.C,C21*%
X117000000Y-84480000D03*
X117000000Y-83520000D03*
%TD*%
M02*
