M48
; DRILL file {KiCad 9.0.0} date 2025-10-01T14:10:31+0200
; FORMAT={-:-/ absolute / metric / decimal}
; #@! TF.CreationDate,2025-10-01T14:10:31+02:00
; #@! TF.GenerationSoftware,Kicad,Pcbnew,9.0.0
; #@! TF.FileFunction,Plated,1,4,PTH
FMAT,2
METRIC
; #@! TA.AperFunction,Plated,PTH,ViaDrill
T1C0.300
; #@! TA.AperFunction,Plated,PTH,ComponentDrill
T2C0.500
; #@! TA.AperFunction,Plated,PTH,ComponentDrill
T3C0.750
; #@! TA.AperFunction,Plated,PTH,ComponentDrill
T4C1.850
; #@! TA.AperFunction,Plated,PTH,ComponentDrill
T5C2.700
; #@! TA.AperFunction,Plated,PTH,ComponentDrill
T6C3.200
%
G90
G05
T1
X80.2Y-71.925
X80.5Y-81.825
X82.2Y-62.9
X82.3Y-68.5
X82.9Y-73.5
X84.2Y-89.6
X85.2Y-79.5
X85.3Y-84.8
X85.9Y-65.3
X85.9Y-66.3
X85.9Y-68.3
X86.475Y-78.9
X86.75Y-72.25
X86.825Y-91.425
X87.9Y-67.0
X88.2Y-76.4
X89.141Y-71.159
X89.2Y-73.9
X89.2Y-76.4
X89.2Y-84.6
X89.225Y-72.9
X89.3Y-81.1
X89.3Y-89.1
X89.425Y-87.65
X89.6Y-64.4
X90.0Y-68.6
X90.1Y-98.2
X90.2Y-76.4
X90.36Y-80.0
X90.4Y-81.1
X90.9Y-57.5
X91.1Y-59.5
X91.105Y-80.5
X91.4Y-72.2
X91.4Y-82.15
X92.129Y-74.729
X92.3Y-73.3
X92.7Y-98.3
X92.8Y-55.1
X92.959Y-76.034
X93.0Y-66.9
X93.1Y-70.3
X93.375Y-85.825
X93.5Y-80.3
X93.59Y-76.1
X94.2Y-63.9
X94.2Y-78.0
X94.2Y-79.08
X94.2Y-81.1
X94.375Y-67.9
X94.4Y-61.45
X94.9Y-72.1
X95.186Y-78.12
X95.3Y-98.3
X95.4Y-79.05
X96.164Y-62.8
X96.4Y-57.7
X96.4Y-80.5
X96.475Y-66.125
X96.6Y-69.5
X96.653Y-61.614
X96.7Y-68.6
X97.5Y-62.0
X97.5Y-70.7
X97.5Y-81.675
X97.516Y-76.052
X97.669Y-60.908
X97.786Y-67.861
X97.8Y-64.8
X97.8Y-77.0
X97.827Y-87.3
X98.025Y-72.5
X98.1Y-55.1
X98.2Y-78.7
X98.45Y-59.15
X98.7Y-75.3
X98.757Y-72.614
X98.9Y-74.6
X99.125Y-67.3
X99.175Y-62.0
X99.37Y-70.618
X99.425Y-77.2
X99.477Y-71.26
X99.7Y-63.7
X99.7Y-78.2
X99.85Y-89.35
X100.1Y-79.325
X100.3Y-76.5
X100.3Y-77.3
X100.35Y-68.6
X100.74Y-67.26
X100.75Y-65.7
X100.875Y-82.2
X100.9Y-63.0
X100.917Y-71.085
X101.1Y-72.6
X101.252Y-68.227
X101.271Y-82.729
X101.275Y-55.675
X101.37Y-70.618
X101.575Y-61.366
X101.7Y-74.3
X101.775Y-59.5
X101.775Y-60.6
X102.029Y-67.229
X102.2Y-95.7
X102.4Y-82.2
X102.475Y-87.025
X103.0Y-62.6
X103.2Y-71.7
X103.7Y-55.2
X103.7Y-82.6
X104.15Y-57.8
X104.625Y-72.7
X104.675Y-76.775
X104.95Y-61.075
X105.15Y-90.9
X105.396Y-82.003
X105.6Y-62.9
X105.75Y-71.14
X106.2Y-81.12
X106.264Y-78.337
X106.322Y-79.022
X106.6Y-76.2
X106.694Y-73.45
X106.7Y-74.1
X107.1Y-59.4
X107.3Y-95.7
X107.4Y-69.6
X107.4Y-82.08
X107.5Y-61.6
X107.562Y-81.062
X108.0Y-71.1
X108.1Y-68.35
X108.4Y-79.55
X108.7Y-94.025
X108.775Y-54.725
X108.78Y-72.022
X108.956Y-73.836
X109.1Y-57.2
X109.1Y-62.6
X109.15Y-60.825
X109.375Y-86.925
X109.5Y-77.4
X110.15Y-98.625
X110.495Y-61.071
X110.55Y-81.45
X111.25Y-71.35
X111.275Y-84.85
X111.4Y-62.9
X111.7Y-76.3
X112.02Y-77.65
X112.02Y-79.7
X112.1Y-74.16
X112.375Y-68.875
X112.5Y-91.6
X112.7Y-59.4
X112.725Y-66.45
X112.75Y-78.68
X112.775Y-61.6
X112.8Y-84.36
X113.1Y-64.375
X113.225Y-86.275
X113.8Y-81.29
X113.887Y-85.013
X113.95Y-87.2
X113.975Y-88.475
X114.064Y-72.022
X114.1Y-55.1
X114.375Y-57.75
X114.65Y-78.69
X114.687Y-76.378
X115.031Y-80.814
X115.05Y-87.25
X115.2Y-61.6
X115.256Y-76.064
X115.4Y-98.85
X115.471Y-59.471
X115.5Y-72.0
X115.5Y-74.2
X115.51Y-79.19
X115.55Y-91.25
X115.74Y-88.16
X115.8Y-62.5
X115.9Y-85.4
X116.0Y-92.1
X116.6Y-77.4
X116.775Y-76.1
X116.95Y-78.498
X117.312Y-67.112
X117.475Y-55.775
X117.6Y-70.498
X117.65Y-83.025
X117.8Y-79.2
X117.825Y-61.075
X117.825Y-76.1
X118.05Y-69.475
X118.45Y-89.025
X118.45Y-90.1
X118.45Y-91.0
X118.7Y-73.675
X118.7Y-86.3
X119.8Y-62.7
X119.9Y-55.1
X120.584Y-71.635
X120.65Y-86.15
X120.8Y-67.0
X120.8Y-68.0
X120.8Y-69.0
X120.925Y-61.3
X121.033Y-58.975
X121.1Y-62.5
X121.165Y-64.5
X121.7Y-85.9
X121.8Y-67.0
X121.8Y-68.0
X121.8Y-69.0
X121.8Y-70.5
X122.2Y-95.4
X122.375Y-71.6
X122.8Y-67.0
X122.8Y-68.0
X122.8Y-69.0
X123.125Y-61.45
X123.2Y-86.15
X123.5Y-88.0
X123.5Y-88.8
X123.5Y-89.6
X123.5Y-90.4
X123.5Y-91.2
X123.8Y-98.75
X124.0Y-63.0
X124.125Y-55.55
X124.3Y-65.5
X124.8Y-80.2
X124.8Y-86.56
X125.0Y-88.5
X125.01Y-78.24
X125.6Y-73.1
X125.8Y-67.1
X125.825Y-86.675
X126.5Y-80.6
X128.1Y-87.35
X130.4Y-66.675
X130.55Y-92.325
X130.9Y-63.625
X130.925Y-75.85
T2
X81.6Y-59.0
X81.6Y-95.0
X82.303Y-57.303
X82.303Y-60.697
X82.303Y-93.303
X82.303Y-96.697
X84.0Y-56.6
X84.0Y-61.4
X84.0Y-92.6
X84.0Y-97.4
X85.697Y-57.303
X85.697Y-60.697
X85.697Y-93.303
X85.697Y-96.697
X86.4Y-59.0
X86.4Y-95.0
X124.6Y-59.0
X124.6Y-95.0
X125.303Y-57.303
X125.303Y-60.697
X125.303Y-93.303
X125.303Y-96.697
X127.0Y-56.6
X127.0Y-61.4
X127.0Y-92.6
X127.0Y-97.4
X128.697Y-57.303
X128.697Y-60.697
X128.697Y-93.303
X128.697Y-96.697
X129.4Y-59.0
X129.4Y-95.0
T3
X84.0Y-71.45
X84.0Y-73.45
X84.0Y-75.45
X84.0Y-77.45
X84.0Y-79.45
X84.0Y-81.45
X84.2Y-84.75
X84.2Y-86.75
X84.2Y-88.75
X89.8Y-57.5
X89.8Y-59.5
X89.8Y-61.5
X89.8Y-63.5
X126.75Y-81.6
X126.75Y-83.6
X126.75Y-85.6
X126.75Y-87.6
X126.825Y-65.1
X126.825Y-67.1
X126.825Y-69.1
X126.825Y-71.1
X126.825Y-73.1
X126.825Y-75.1
T4
X100.04Y-84.85
X102.2Y-97.55
X104.74Y-84.85
X107.28Y-97.55
X109.44Y-84.85
T5
X115.2Y-95.8
X120.2Y-95.8
T6
X84.0Y-59.0
X84.0Y-95.0
X127.0Y-59.0
X127.0Y-95.0
M30
