M48
; DRILL file {KiCad 9.0.0} date 2025-12-02T09:04:28+0100
; FORMAT={-:-/ absolute / metric / decimal}
; #@! TF.CreationDate,2025-12-02T09:04:28+01:00
; #@! TF.GenerationSoftware,Kicad,Pcbnew,9.0.0
; #@! TF.FileFunction,Plated,1,8,PTH
FMAT,2
METRIC
; #@! TA.AperFunction,Plated,PTH,ViaDrill
T1C0.300
; #@! TA.AperFunction,Plated,PTH,ComponentDrill
T2C0.750
; #@! TA.AperFunction,Plated,PTH,ComponentDrill
T3C0.800
; #@! TA.AperFunction,Plated,PTH,ComponentDrill
T4C1.200
; #@! TA.AperFunction,Plated,PTH,ComponentDrill
T5C1.850
; #@! TA.AperFunction,Plated,PTH,ComponentDrill
T6C2.700
%
G90
G05
T1
X55.97Y-77.245
X56.34Y-74.885
X56.97Y-71.005
X57.02Y-73.105
X57.21Y-74.015
X57.35Y-71.975
X57.57Y-67.745
X57.84Y-79.585
X57.86Y-73.185
X57.88Y-83.235
X57.89Y-83.945
X57.92Y-81.725
X57.95Y-70.175
X57.95Y-75.175
X58.06Y-77.595
X59.069Y-79.562
X59.29Y-81.675
X59.43Y-84.215
X59.44Y-83.545
X59.569Y-79.082
X59.57Y-72.465
X59.69Y-75.695
X59.69Y-85.805
X59.7Y-67.775
X59.74Y-78.245
X59.79Y-76.635
X59.81Y-74.097
X59.81Y-77.515
X60.15Y-66.275
X60.22Y-80.405
X60.32Y-72.575
X60.75Y-65.775
X60.81Y-74.097
X60.836Y-89.165
X60.87Y-85.595
X61.0Y-86.576
X61.21Y-67.055
X61.25Y-72.645
X61.29Y-69.165
X61.45Y-65.034
X61.553Y-83.872
X61.62Y-68.585
X61.673Y-78.248
X61.81Y-74.097
X61.985Y-66.24
X62.06Y-64.133
X62.26Y-68.435
X62.27Y-87.085
X62.39Y-90.215
X62.475Y-79.25
X62.495Y-71.635
X62.544Y-75.46
X62.549Y-82.935
X62.805Y-77.93
X62.94Y-63.665
X63.05Y-69.975
X63.15Y-82.765
X63.209Y-83.869
X63.3Y-89.845
X63.51Y-72.445
X63.514Y-78.211
X63.79Y-91.135
X63.94Y-85.495
X64.1Y-76.195
X64.15Y-89.775
X64.45Y-68.675
X64.45Y-84.884
X64.716Y-77.925
X64.76Y-70.375
X64.84Y-90.535
X64.86Y-61.595
X64.96Y-63.015
X65.038Y-80.39
X65.099Y-81.037
X65.099Y-81.687
X65.099Y-82.337
X65.29Y-73.305
X65.36Y-92.275
X65.43Y-61.015
X65.58Y-67.195
X65.599Y-85.481
X65.74Y-83.655
X65.774Y-70.149
X65.817Y-67.773
X65.87Y-93.485
X66.04Y-60.455
X66.2Y-87.175
X66.21Y-84.145
X66.329Y-91.614
X66.57Y-68.735
X66.574Y-71.595
X66.725Y-78.543
X66.74Y-59.383
X66.75Y-82.505
X66.75Y-87.675
X66.78Y-86.855
X66.92Y-85.825
X66.961Y-72.364
X67.01Y-74.085
X67.01Y-79.475
X67.06Y-92.865
X67.1Y-61.145
X67.234Y-63.489
X67.24Y-73.485
X67.3Y-88.125
X67.31Y-65.085
X67.341Y-83.517
X67.352Y-78.463
X67.56Y-67.835
X67.59Y-81.537
X67.69Y-66.735
X67.71Y-82.425
X67.82Y-63.985
X67.82Y-70.525
X67.88Y-75.095
X67.95Y-77.605
X67.986Y-59.489
X68.018Y-76.783
X68.05Y-65.798
X68.194Y-74.554
X68.25Y-73.138
X68.29Y-68.135
X68.4Y-70.095
X68.405Y-87.91
X68.434Y-96.731
X68.518Y-76.229
X68.587Y-62.738
X68.62Y-80.795
X68.85Y-91.915
X68.91Y-61.525
X69.071Y-78.271
X69.131Y-89.013
X69.14Y-58.975
X69.32Y-91.385
X69.98Y-95.415
X70.034Y-91.401
X70.19Y-87.715
X70.275Y-88.457
X70.333Y-79.328
X70.45Y-67.915
X70.48Y-61.165
X70.5Y-65.885
X70.62Y-75.055
X70.8Y-63.895
X70.941Y-79.558
X70.976Y-62.438
X71.184Y-81.955
X71.29Y-56.455
X71.35Y-85.205
X71.571Y-91.365
X71.58Y-62.925
X71.64Y-77.155
X71.73Y-82.355
X71.77Y-80.705
X71.82Y-61.955
X71.88Y-75.545
X71.92Y-64.565
X71.935Y-91.903
X71.97Y-84.135
X71.98Y-61.235
X72.08Y-76.345
X72.235Y-81.25
X72.29Y-86.005
X72.51Y-93.285
X72.68Y-91.995
X72.718Y-76.44
X72.87Y-59.535
X72.9Y-58.725
X72.9Y-61.125
X72.93Y-60.375
X73.168Y-76.006
X73.3Y-71.625
X73.32Y-95.075
X73.35Y-56.625
X73.35Y-63.225
X73.37Y-91.355
X73.43Y-69.765
X73.5Y-67.335
X73.528Y-84.121
X73.59Y-75.545
X73.625Y-84.739
X73.75Y-72.875
X73.77Y-61.085
X73.88Y-78.165
X73.99Y-64.625
X73.996Y-78.779
X74.12Y-74.985
X74.13Y-66.295
X74.17Y-67.685
X74.28Y-79.345
X74.35Y-56.625
X74.35Y-63.225
X74.35Y-90.315
X74.39Y-77.445
X74.46Y-68.955
X74.48Y-72.875
X74.5Y-71.625
X74.51Y-70.295
X74.53Y-65.794
X74.6Y-87.65
X74.672Y-79.832
X74.75Y-68.195
X74.8Y-60.325
X74.8Y-61.925
X74.81Y-59.535
X75.08Y-89.755
X75.099Y-76.865
X75.104Y-86.215
X75.125Y-84.13
X75.206Y-80.157
X75.278Y-70.293
X75.339Y-86.914
X75.5Y-71.625
X75.6Y-77.315
X75.61Y-84.615
X75.77Y-89.025
X75.81Y-80.405
X75.94Y-65.635
X76.06Y-85.105
X76.11Y-82.535
X76.21Y-72.995
X76.25Y-64.985
X76.41Y-70.435
X76.41Y-88.685
X76.45Y-58.725
X76.45Y-60.325
X76.45Y-61.925
X76.46Y-59.535
X76.59Y-69.235
X76.9Y-56.625
X76.95Y-63.275
X77.033Y-65.288
X77.1Y-89.065
X77.23Y-73.215
X77.346Y-60.875
X77.38Y-64.635
X77.43Y-57.965
X77.49Y-61.555
X77.5Y-75.495
X77.51Y-70.635
X77.78Y-72.695
X77.87Y-86.945
X77.88Y-89.685
X77.9Y-56.625
X77.9Y-63.225
X77.91Y-65.735
X78.04Y-70.055
X78.24Y-81.125
X78.35Y-61.925
X78.35Y-57.724
X78.35Y-60.375
X78.37Y-59.535
X78.37Y-76.295
X78.493Y-79.458
X78.5Y-64.545
X78.54Y-75.495
X78.549Y-78.695
X78.61Y-84.527
X78.68Y-87.685
X78.73Y-86.945
X78.75Y-82.705
X78.78Y-85.175
X78.81Y-81.475
X78.99Y-66.945
X79.15Y-62.475
X79.251Y-71.375
X79.43Y-68.555
X79.47Y-81.345
X79.53Y-78.955
X79.68Y-72.605
X79.72Y-65.175
X79.74Y-84.485
X79.8Y-77.715
X79.82Y-90.915
X79.84Y-75.915
X79.99Y-60.375
X80.0Y-57.925
X80.02Y-59.535
X80.153Y-80.486
X80.24Y-67.105
X80.248Y-71.098
X80.27Y-64.555
X80.45Y-56.625
X80.45Y-63.225
X80.78Y-87.345
X80.96Y-57.975
X80.99Y-61.165
X81.0Y-61.895
X81.01Y-71.385
X81.03Y-75.075
X81.3Y-81.925
X81.45Y-56.625
X81.52Y-87.455
X81.53Y-63.305
X81.57Y-65.805
X81.644Y-70.061
X81.85Y-77.925
X81.85Y-79.525
X81.88Y-64.035
X81.88Y-89.685
X81.9Y-57.925
X81.9Y-59.525
X81.9Y-60.325
X82.13Y-62.155
X82.48Y-62.855
X82.54Y-81.925
X82.66Y-80.325
X82.67Y-85.335
X82.74Y-71.065
X82.76Y-65.165
X82.86Y-64.155
X82.92Y-61.115
X82.96Y-68.445
X83.425Y-77.105
X83.425Y-78.685
X83.425Y-80.295
X83.43Y-63.535
X83.438Y-73.885
X83.438Y-75.515
X83.45Y-59.525
X83.47Y-60.545
X83.55Y-68.435
X83.7Y-57.165
X83.76Y-56.205
X84.0Y-70.285
X84.22Y-57.665
X84.38Y-85.225
X84.52Y-66.895
X84.92Y-64.235
X85.07Y-85.195
X85.1Y-70.75
X85.1Y-71.75
X85.1Y-72.75
X85.1Y-73.75
X85.1Y-74.75
X85.1Y-77.35
X85.1Y-78.35
X85.1Y-79.35
X85.1Y-80.35
X85.1Y-81.35
X85.24Y-66.445
X85.24Y-95.715
X85.39Y-82.952
X85.5Y-65.615
X85.643Y-68.355
X85.84Y-90.305
X86.0Y-64.635
X86.07Y-59.285
X86.07Y-60.255
X86.07Y-61.115
X86.09Y-62.085
X86.09Y-62.975
X86.18Y-84.545
X86.441Y-71.745
X86.49Y-65.095
X86.603Y-70.082
X86.66Y-67.405
X86.76Y-69.365
X86.763Y-80.315
X86.78Y-93.205
X86.82Y-90.415
X86.9Y-64.325
X86.92Y-77.135
X86.94Y-78.995
X86.98Y-75.515
X87.01Y-74.215
X87.161Y-95.505
X87.17Y-65.025
X87.23Y-67.091
X87.25Y-58.865
X87.29Y-61.565
X87.31Y-71.585
X87.49Y-66.485
X87.6Y-69.045
X87.74Y-60.445
X87.76Y-80.535
X87.92Y-67.105
X88.004Y-93.904
X88.25Y-88.675
X88.337Y-74.725
X88.337Y-76.325
X88.337Y-77.925
X88.337Y-79.525
X88.85Y-88.075
X89.23Y-67.125
X89.29Y-63.935
X89.41Y-65.555
X89.44Y-89.305
X89.55Y-87.525
X89.81Y-62.595
X89.83Y-93.205
X89.93Y-64.625
X90.0Y-88.865
X90.07Y-74.445
X90.08Y-76.415
X90.12Y-71.355
X90.16Y-91.725
X90.2Y-78.235
X90.24Y-68.925
X90.24Y-78.925
X90.31Y-65.095
X90.39Y-81.905
X90.48Y-88.445
X90.66Y-79.665
X90.79Y-71.345
X90.865Y-83.452
X91.016Y-65.825
X91.04Y-69.795
X91.325Y-82.82
X91.38Y-85.635
X91.525Y-67.825
X91.54Y-71.215
X92.08Y-78.145
X92.13Y-66.945
X92.16Y-63.945
X92.216Y-75.975
X92.57Y-74.465
X92.64Y-82.475
X92.67Y-72.485
X92.87Y-87.815
X92.91Y-84.405
X93.07Y-85.655
X93.17Y-79.985
X93.46Y-76.355
X93.72Y-67.825
X95.09Y-69.865
X95.15Y-74.215
X95.34Y-68.865
X95.64Y-76.615
X95.64Y-82.175
X95.71Y-65.475
X97.05Y-79.935
X97.88Y-87.435
X98.28Y-68.265
X98.59Y-74.905
X99.23Y-84.925
T2
X59.422Y-88.632
X60.836Y-90.046
X62.25Y-91.46
X63.665Y-92.875
X65.079Y-94.289
X66.493Y-95.703
X88.772Y-95.318
X90.186Y-93.904
X91.6Y-92.49
X93.015Y-91.075
X94.225Y-75.35
X94.225Y-77.35
X94.225Y-79.35
X94.429Y-89.661
X95.843Y-88.247
T3
X56.785Y-78.605
X56.785Y-80.605
X56.785Y-82.605
X56.785Y-84.605
X89.896Y-60.536
X91.31Y-61.95
X92.725Y-63.365
X94.139Y-64.779
T4
X69.25Y-57.225
X69.25Y-97.825
X85.85Y-57.225
X85.85Y-97.825
T5
X72.85Y-97.55
X75.01Y-110.25
X77.55Y-97.55
X80.09Y-110.25
X82.25Y-97.55
X97.82Y-72.745
X97.82Y-77.445
X97.82Y-82.145
X110.52Y-74.905
X110.52Y-79.985
T6
X77.25Y-92.55
X82.25Y-92.55
M30
