%TF.GenerationSoftware,KiCad,Pcbnew,9.0.0*%
%TF.CreationDate,2025-12-02T09:04:21+01:00*%
%TF.ProjectId,PCB_Projet_ESE_v2,5043425f-5072-46f6-9a65-745f4553455f,rev?*%
%TF.SameCoordinates,Original*%
%TF.FileFunction,Soldermask,Top*%
%TF.FilePolarity,Negative*%
%FSLAX46Y46*%
G04 Gerber Fmt 4.6, Leading zero omitted, Abs format (unit mm)*
G04 Created by KiCad (PCBNEW 9.0.0) date 2025-12-02 09:04:21*
%MOMM*%
%LPD*%
G01*
G04 APERTURE LIST*
G04 Aperture macros list*
%AMRoundRect*
0 Rectangle with rounded corners*
0 $1 Rounding radius*
0 $2 $3 $4 $5 $6 $7 $8 $9 X,Y pos of 4 corners*
0 Add a 4 corners polygon primitive as box body*
4,1,4,$2,$3,$4,$5,$6,$7,$8,$9,$2,$3,0*
0 Add four circle primitives for the rounded corners*
1,1,$1+$1,$2,$3*
1,1,$1+$1,$4,$5*
1,1,$1+$1,$6,$7*
1,1,$1+$1,$8,$9*
0 Add four rect primitives between the rounded corners*
20,1,$1+$1,$2,$3,$4,$5,0*
20,1,$1+$1,$4,$5,$6,$7,0*
20,1,$1+$1,$6,$7,$8,$9,0*
20,1,$1+$1,$8,$9,$2,$3,0*%
%AMHorizOval*
0 Thick line with rounded ends*
0 $1 width*
0 $2 $3 position (X,Y) of the first rounded end (center of the circle)*
0 $4 $5 position (X,Y) of the second rounded end (center of the circle)*
0 Add line between two ends*
20,1,$1,$2,$3,$4,$5,0*
0 Add two circle primitives to create the rounded ends*
1,1,$1,$2,$3*
1,1,$1,$4,$5*%
%AMRotRect*
0 Rectangle, with rotation*
0 The origin of the aperture is its center*
0 $1 length*
0 $2 width*
0 $3 Rotation angle, in degrees counterclockwise*
0 Add horizontal line*
21,1,$1,$2,0,0,$3*%
G04 Aperture macros list end*
%ADD10RoundRect,0.135000X-0.135000X-0.185000X0.135000X-0.185000X0.135000X0.185000X-0.135000X0.185000X0*%
%ADD11RoundRect,0.052500X0.123744X-0.296985X0.296985X-0.123744X-0.123744X0.296985X-0.296985X0.123744X0*%
%ADD12RoundRect,0.090000X-0.017678X-0.314663X0.314663X0.017678X0.017678X0.314663X-0.314663X-0.017678X0*%
%ADD13RoundRect,0.140000X-0.021213X0.219203X-0.219203X0.021213X0.021213X-0.219203X0.219203X-0.021213X0*%
%ADD14RoundRect,0.135000X-0.185000X0.135000X-0.185000X-0.135000X0.185000X-0.135000X0.185000X0.135000X0*%
%ADD15RoundRect,0.135000X0.135000X0.185000X-0.135000X0.185000X-0.135000X-0.185000X0.135000X-0.185000X0*%
%ADD16RoundRect,0.135000X-0.035355X0.226274X-0.226274X0.035355X0.035355X-0.226274X0.226274X-0.035355X0*%
%ADD17RoundRect,0.100000X-0.100000X0.130000X-0.100000X-0.130000X0.100000X-0.130000X0.100000X0.130000X0*%
%ADD18RoundRect,0.140000X0.170000X-0.140000X0.170000X0.140000X-0.170000X0.140000X-0.170000X-0.140000X0*%
%ADD19RoundRect,0.135000X0.185000X-0.135000X0.185000X0.135000X-0.185000X0.135000X-0.185000X-0.135000X0*%
%ADD20RoundRect,0.140000X-0.219203X-0.021213X-0.021213X-0.219203X0.219203X0.021213X0.021213X0.219203X0*%
%ADD21RotRect,2.400000X0.740000X135.000000*%
%ADD22RoundRect,0.100000X-0.021213X-0.162635X0.162635X0.021213X0.021213X0.162635X-0.162635X-0.021213X0*%
%ADD23RoundRect,0.100000X0.021213X0.162635X-0.162635X-0.021213X-0.021213X-0.162635X0.162635X0.021213X0*%
%ADD24RoundRect,0.075000X0.424264X-0.176777X-0.176777X0.424264X-0.424264X0.176777X0.176777X-0.424264X0*%
%ADD25RoundRect,0.180000X0.770746X-0.176777X-0.176777X0.770746X-0.770746X0.176777X0.176777X-0.770746X0*%
%ADD26RoundRect,0.135000X0.226274X0.035355X0.035355X0.226274X-0.226274X-0.035355X-0.035355X-0.226274X0*%
%ADD27RoundRect,0.218750X-0.218750X-0.256250X0.218750X-0.256250X0.218750X0.256250X-0.218750X0.256250X0*%
%ADD28RoundRect,0.100000X-0.162635X0.021213X0.021213X-0.162635X0.162635X-0.021213X-0.021213X0.162635X0*%
%ADD29RoundRect,0.218750X0.218750X0.256250X-0.218750X0.256250X-0.218750X-0.256250X0.218750X-0.256250X0*%
%ADD30RoundRect,0.140000X0.219203X0.021213X0.021213X0.219203X-0.219203X-0.021213X-0.021213X-0.219203X0*%
%ADD31RoundRect,0.100000X-0.130000X-0.100000X0.130000X-0.100000X0.130000X0.100000X-0.130000X0.100000X0*%
%ADD32RoundRect,0.062500X0.206829X0.295217X-0.295217X-0.206829X-0.206829X-0.295217X0.295217X0.206829X0*%
%ADD33RoundRect,0.062500X-0.206829X0.295217X-0.295217X0.206829X0.206829X-0.295217X0.295217X-0.206829X0*%
%ADD34RotRect,1.680000X1.680000X225.000000*%
%ADD35RoundRect,0.075000X0.425000X0.175000X-0.425000X0.175000X-0.425000X-0.175000X0.425000X-0.175000X0*%
%ADD36RoundRect,0.180000X0.670000X0.420000X-0.670000X0.420000X-0.670000X-0.420000X0.670000X-0.420000X0*%
%ADD37R,1.300000X1.300000*%
%ADD38C,1.300000*%
%ADD39RoundRect,0.140000X0.021213X-0.219203X0.219203X-0.021213X-0.021213X0.219203X-0.219203X0.021213X0*%
%ADD40RoundRect,0.140000X-0.170000X0.140000X-0.170000X-0.140000X0.170000X-0.140000X0.170000X0.140000X0*%
%ADD41RoundRect,0.100000X0.130000X0.100000X-0.130000X0.100000X-0.130000X-0.100000X0.130000X-0.100000X0*%
%ADD42RoundRect,0.140000X0.140000X0.170000X-0.140000X0.170000X-0.140000X-0.170000X0.140000X-0.170000X0*%
%ADD43RoundRect,0.147500X-0.147500X-0.172500X0.147500X-0.172500X0.147500X0.172500X-0.147500X0.172500X0*%
%ADD44RoundRect,0.100000X0.100000X-0.130000X0.100000X0.130000X-0.100000X0.130000X-0.100000X-0.130000X0*%
%ADD45RoundRect,0.135000X0.035355X-0.226274X0.226274X-0.035355X-0.035355X0.226274X-0.226274X0.035355X0*%
%ADD46RoundRect,0.150000X-0.325000X-0.150000X0.325000X-0.150000X0.325000X0.150000X-0.325000X0.150000X0*%
%ADD47RoundRect,0.150000X-0.150000X-0.325000X0.150000X-0.325000X0.150000X0.325000X-0.150000X0.325000X0*%
%ADD48RoundRect,0.140000X-0.140000X-0.170000X0.140000X-0.170000X0.140000X0.170000X-0.140000X0.170000X0*%
%ADD49RoundRect,0.090000X-0.210000X0.210000X-0.210000X-0.210000X0.210000X-0.210000X0.210000X0.210000X0*%
%ADD50RotRect,1.400000X1.200000X135.000000*%
%ADD51RoundRect,0.062500X0.355000X0.062500X-0.355000X0.062500X-0.355000X-0.062500X0.355000X-0.062500X0*%
%ADD52RoundRect,0.062500X0.062500X0.355000X-0.062500X0.355000X-0.062500X-0.355000X0.062500X-0.355000X0*%
%ADD53R,1.680000X1.680000*%
%ADD54C,1.900000*%
%ADD55RoundRect,0.218750X0.335876X0.026517X0.026517X0.335876X-0.335876X-0.026517X-0.026517X-0.335876X0*%
%ADD56RoundRect,0.225000X-0.335876X-0.017678X-0.017678X-0.335876X0.335876X0.017678X0.017678X0.335876X0*%
%ADD57RoundRect,0.225000X0.335876X0.017678X0.017678X0.335876X-0.335876X-0.017678X-0.017678X-0.335876X0*%
%ADD58RoundRect,0.225000X0.017678X-0.335876X0.335876X-0.017678X-0.017678X0.335876X-0.335876X0.017678X0*%
%ADD59RotRect,1.300000X1.300000X135.000000*%
%ADD60RoundRect,0.100000X0.162635X-0.021213X-0.021213X0.162635X-0.162635X0.021213X0.021213X-0.162635X0*%
%ADD61R,2.775000X2.775000*%
%ADD62C,2.775000*%
%ADD63RoundRect,0.062500X0.295217X-0.206829X-0.206829X0.295217X-0.295217X0.206829X0.206829X-0.295217X0*%
%ADD64RoundRect,0.062500X0.295217X0.206829X0.206829X0.295217X-0.295217X-0.206829X-0.206829X-0.295217X0*%
%ADD65RotRect,1.680000X1.680000X135.000000*%
%ADD66C,1.000000*%
%ADD67RoundRect,0.090000X0.017678X0.314663X-0.314663X-0.017678X-0.017678X-0.314663X0.314663X0.017678X0*%
%ADD68RoundRect,0.052500X-0.123744X0.296985X-0.296985X0.123744X0.123744X-0.296985X0.296985X-0.123744X0*%
%ADD69RoundRect,0.250000X-0.194454X0.689429X-0.689429X0.194454X0.194454X-0.689429X0.689429X-0.194454X0*%
%ADD70HorizOval,1.200000X-0.194454X0.194454X0.194454X-0.194454X0*%
%ADD71RoundRect,0.250000X0.689429X0.194454X0.194454X0.689429X-0.689429X-0.194454X-0.194454X-0.689429X0*%
%ADD72HorizOval,1.200000X0.194454X0.194454X-0.194454X-0.194454X0*%
%ADD73RoundRect,0.250000X0.625000X-0.350000X0.625000X0.350000X-0.625000X0.350000X-0.625000X-0.350000X0*%
%ADD74O,1.750000X1.200000*%
%ADD75RoundRect,0.760000X1.140000X1.140000X-1.140000X1.140000X-1.140000X-1.140000X1.140000X-1.140000X0*%
%ADD76C,3.800000*%
%ADD77RoundRect,0.075000X-0.548008X0.441942X0.441942X-0.548008X0.548008X-0.441942X-0.441942X0.548008X0*%
%ADD78RoundRect,0.075000X-0.548008X-0.441942X-0.441942X-0.548008X0.548008X0.441942X0.441942X0.548008X0*%
G04 APERTURE END LIST*
D10*
%TO.C,R31*%
X80619998Y-72745000D03*
X79600000Y-72745000D03*
%TD*%
D11*
%TO.C,SW2*%
X65652082Y-66272918D03*
X63212564Y-68712437D03*
D12*
X66147057Y-66980025D03*
X63919671Y-69207412D03*
X64944975Y-65777944D03*
X62717589Y-68005330D03*
%TD*%
D13*
%TO.C,C61*%
X66980589Y-72294411D03*
X67659411Y-71615589D03*
%TD*%
D14*
%TO.C,R13*%
X82250000Y-83975000D03*
X82250000Y-82955000D03*
%TD*%
D15*
%TO.C,R46*%
X89640001Y-80375000D03*
X90659999Y-80375000D03*
%TD*%
D16*
%TO.C,R9*%
X60885624Y-77864377D03*
X60164376Y-78585623D03*
%TD*%
D17*
%TO.C,R61*%
X82781434Y-65867876D03*
X82781434Y-66507876D03*
%TD*%
D18*
%TO.C,C66*%
X79716429Y-66450577D03*
X79716429Y-65490577D03*
%TD*%
D19*
%TO.C,R35*%
X80550000Y-80584999D03*
X80550000Y-79565001D03*
%TD*%
D20*
%TO.C,C71*%
X87160589Y-95885589D03*
X87839411Y-96564411D03*
%TD*%
D21*
%TO.C,J10*%
X88234781Y-91597935D03*
X85477065Y-88840219D03*
X89132807Y-90699909D03*
X86375091Y-87942193D03*
X90030833Y-89801884D03*
X87273116Y-87044167D03*
X90928858Y-88903858D03*
X88171142Y-86146142D03*
X91826884Y-88005833D03*
X89069167Y-85248116D03*
X92724909Y-87107807D03*
X89967193Y-84350091D03*
X93622935Y-86209781D03*
X90865219Y-83452065D03*
%TD*%
D22*
%TO.C,R52*%
X71673726Y-68101274D03*
X72126274Y-67648726D03*
%TD*%
D23*
%TO.C,R51*%
X71576274Y-67098726D03*
X71123726Y-67551274D03*
%TD*%
D24*
%TO.C,U7*%
X64343934Y-61080457D03*
X64909619Y-60514771D03*
X65475304Y-59949086D03*
X66040990Y-59383400D03*
D25*
X64450000Y-63025000D03*
X67985533Y-59489467D03*
%TD*%
D26*
%TO.C,R7*%
X75321248Y-88371248D03*
X74600000Y-87650000D03*
%TD*%
D27*
%TO.C,D13*%
X86762500Y-74725000D03*
X88337500Y-74725000D03*
%TD*%
D28*
%TO.C,R55*%
X66323726Y-69598726D03*
X66776274Y-70051274D03*
%TD*%
D17*
%TO.C,R59*%
X84450000Y-68654897D03*
X84450000Y-69294897D03*
%TD*%
D29*
%TO.C,D3*%
X81887501Y-85250000D03*
X80312499Y-85250000D03*
%TD*%
D24*
%TO.C,U8*%
X59593934Y-65830457D03*
X60159619Y-65264771D03*
X60725304Y-64699086D03*
X61290990Y-64133400D03*
D25*
X59700000Y-67775000D03*
X63235533Y-64239467D03*
%TD*%
D27*
%TO.C,D4*%
X80300000Y-86925000D03*
X81875000Y-86925000D03*
%TD*%
D30*
%TO.C,C21*%
X61039411Y-82739411D03*
X60360589Y-82060589D03*
%TD*%
D31*
%TO.C,R65*%
X76511434Y-66537876D03*
X77151434Y-66537876D03*
%TD*%
D14*
%TO.C,R14*%
X78975000Y-87915000D03*
X78975000Y-88935000D03*
%TD*%
D19*
%TO.C,R23*%
X97660000Y-69905000D03*
X97660000Y-68885000D03*
%TD*%
D27*
%TO.C,D19*%
X86762500Y-77925000D03*
X88337500Y-77925000D03*
%TD*%
D32*
%TO.C,LM1*%
X71718323Y-69870891D03*
X71364770Y-69517338D03*
X71011216Y-69163784D03*
X70657663Y-68810231D03*
D33*
X69657107Y-68810231D03*
X69303554Y-69163784D03*
X68950000Y-69517338D03*
X68596447Y-69870891D03*
D32*
X68596447Y-70871447D03*
X68950000Y-71225000D03*
X69303554Y-71578554D03*
X69657107Y-71932107D03*
D33*
X70657663Y-71932107D03*
X71011216Y-71578554D03*
X71364770Y-71225000D03*
X71718323Y-70871447D03*
D34*
X70157385Y-70371169D03*
%TD*%
D35*
%TO.C,U12*%
X80000002Y-61924998D03*
X80000002Y-61124998D03*
X80000002Y-60324998D03*
X80000002Y-59524998D03*
X80000002Y-58724998D03*
X80000002Y-57924998D03*
D36*
X81450002Y-63224998D03*
X81450002Y-56624998D03*
%TD*%
D20*
%TO.C,C72*%
X96710589Y-87235589D03*
X97389411Y-87914411D03*
%TD*%
D37*
%TO.C,J6*%
X56785000Y-78605000D03*
D38*
X56785000Y-80605000D03*
X56785000Y-82605000D03*
X56785000Y-84605000D03*
%TD*%
D26*
%TO.C,R8*%
X76060624Y-87635624D03*
X75339376Y-86914376D03*
%TD*%
%TO.C,R73*%
X73160624Y-90610624D03*
X72439376Y-89889376D03*
%TD*%
D39*
%TO.C,C22*%
X68471178Y-75378822D03*
X69150000Y-74700000D03*
%TD*%
D19*
%TO.C,R33*%
X80550000Y-76684999D03*
X80550000Y-75665001D03*
%TD*%
D40*
%TO.C,C31*%
X75140000Y-77980000D03*
X75140000Y-78940000D03*
%TD*%
D31*
%TO.C,R27*%
X85430000Y-60725000D03*
X86070000Y-60725000D03*
%TD*%
D29*
%TO.C,D10*%
X83437500Y-76325000D03*
X81862500Y-76325000D03*
%TD*%
D23*
%TO.C,R58*%
X67026274Y-70998726D03*
X66573726Y-71451274D03*
%TD*%
D15*
%TO.C,R29*%
X92215183Y-77575818D03*
X91195185Y-77575818D03*
%TD*%
D39*
%TO.C,C24*%
X69250000Y-76075000D03*
X69928822Y-75396178D03*
%TD*%
D41*
%TO.C,R66*%
X77351434Y-67337876D03*
X76711434Y-67337876D03*
%TD*%
D42*
%TO.C,C52*%
X83668324Y-70488988D03*
X82708324Y-70488988D03*
%TD*%
D10*
%TO.C,R30*%
X91196067Y-76501016D03*
X92216065Y-76501016D03*
%TD*%
D43*
%TO.C,D24*%
X83450000Y-62525000D03*
X84420000Y-62525000D03*
%TD*%
D44*
%TO.C,R64*%
X78800000Y-66155000D03*
X78800000Y-65515000D03*
%TD*%
D19*
%TO.C,R12*%
X78970000Y-86975000D03*
X78970000Y-85955002D03*
%TD*%
D45*
%TO.C,R72*%
X88190139Y-64276884D03*
X88911387Y-63555636D03*
%TD*%
D39*
%TO.C,C63*%
X89957906Y-66044651D03*
X90636728Y-65365829D03*
%TD*%
D44*
%TO.C,R62*%
X81981434Y-66507876D03*
X81981434Y-65867876D03*
%TD*%
D46*
%TO.C,U6*%
X76500000Y-75495000D03*
X76500000Y-76295000D03*
X76500000Y-77095000D03*
X76500000Y-77895000D03*
X76500000Y-78695000D03*
X76500000Y-79495000D03*
D47*
X77500000Y-79495000D03*
D46*
X78500000Y-79495000D03*
X78500000Y-78695000D03*
X78500000Y-77895000D03*
X78500000Y-77095000D03*
X78500000Y-76295000D03*
X78500000Y-75495000D03*
D47*
X77500000Y-75495000D03*
%TD*%
D48*
%TO.C,C43*%
X80920000Y-64545000D03*
X81880000Y-64545000D03*
%TD*%
D49*
%TO.C,D8*%
X98740000Y-84855000D03*
X98740000Y-86255000D03*
%TD*%
D19*
%TO.C,R38*%
X89650000Y-74434999D03*
X89650000Y-73415001D03*
%TD*%
%TO.C,R34*%
X80550000Y-78634999D03*
X80550000Y-77615001D03*
%TD*%
D28*
%TO.C,R57*%
X65773726Y-70148726D03*
X66226274Y-70601274D03*
%TD*%
D10*
%TO.C,R36*%
X79580002Y-81565000D03*
X80600000Y-81565000D03*
%TD*%
D50*
%TO.C,Y1*%
X65302081Y-75647919D03*
X63746446Y-74092284D03*
X62544365Y-75294365D03*
X64100000Y-76850000D03*
%TD*%
D23*
%TO.C,R71*%
X87926274Y-63148726D03*
X87473726Y-63601274D03*
%TD*%
D39*
%TO.C,C4*%
X60520000Y-87255000D03*
X61198822Y-86576178D03*
%TD*%
D17*
%TO.C,R63*%
X77981434Y-65867876D03*
X77981434Y-66507876D03*
%TD*%
D44*
%TO.C,R60*%
X83650000Y-69302850D03*
X83650000Y-68662850D03*
%TD*%
D51*
%TO.C,LM2*%
X81457500Y-69875000D03*
X81457500Y-69375000D03*
X81457500Y-68875000D03*
X81457500Y-68375000D03*
D52*
X80750000Y-67667500D03*
X80250000Y-67667500D03*
X79750000Y-67667500D03*
X79250000Y-67667500D03*
D51*
X78542500Y-68375000D03*
X78542500Y-68875000D03*
X78542500Y-69375000D03*
X78542500Y-69875000D03*
D52*
X79250000Y-70582500D03*
X79750000Y-70582500D03*
X80250000Y-70582500D03*
X80750000Y-70582500D03*
D53*
X80000000Y-69125000D03*
%TD*%
D29*
%TO.C,D15*%
X83437500Y-81125000D03*
X81862500Y-81125000D03*
%TD*%
D23*
%TO.C,R69*%
X91576274Y-66798726D03*
X91123726Y-67251274D03*
%TD*%
D54*
%TO.C,H2*%
X69250000Y-97825000D03*
%TD*%
D43*
%TO.C,D23*%
X83450000Y-63525000D03*
X84420000Y-63525000D03*
%TD*%
D31*
%TO.C,R25*%
X85430000Y-58925000D03*
X86070000Y-58925000D03*
%TD*%
D30*
%TO.C,C59*%
X69061370Y-67691232D03*
X68382548Y-67012410D03*
%TD*%
D19*
%TO.C,R43*%
X89650000Y-76384999D03*
X89650000Y-75365001D03*
%TD*%
D27*
%TO.C,D12*%
X86775000Y-73125000D03*
X88350000Y-73125000D03*
%TD*%
D39*
%TO.C,C64*%
X89151803Y-69000357D03*
X89830625Y-68321535D03*
%TD*%
D30*
%TO.C,C3*%
X87714411Y-93614412D03*
X87035589Y-92935588D03*
%TD*%
D54*
%TO.C,H4*%
X69250000Y-57225000D03*
%TD*%
%TO.C,H3*%
X85850000Y-97825000D03*
%TD*%
D19*
%TO.C,R32*%
X80550000Y-74734999D03*
X80550000Y-73715001D03*
%TD*%
D18*
%TO.C,C67*%
X81081434Y-66467876D03*
X81081434Y-65507876D03*
%TD*%
D29*
%TO.C,D2*%
X61937501Y-70375000D03*
X60362499Y-70375000D03*
%TD*%
D26*
%TO.C,R21*%
X74636624Y-89135624D03*
X73915376Y-88414376D03*
%TD*%
D10*
%TO.C,R11*%
X60232500Y-71740000D03*
X61252500Y-71740000D03*
%TD*%
D27*
%TO.C,D16*%
X86762500Y-79525000D03*
X88337500Y-79525000D03*
%TD*%
D29*
%TO.C,D6*%
X83437500Y-73125000D03*
X81862500Y-73125000D03*
%TD*%
D45*
%TO.C,R10*%
X60925000Y-79300000D03*
X61646248Y-78578752D03*
%TD*%
D29*
%TO.C,D11*%
X83425000Y-77925000D03*
X81850000Y-77925000D03*
%TD*%
D31*
%TO.C,R39*%
X85450000Y-62525000D03*
X86090000Y-62525000D03*
%TD*%
D48*
%TO.C,C8*%
X93920000Y-73925000D03*
X94880000Y-73925000D03*
%TD*%
D40*
%TO.C,C47*%
X71570000Y-61955000D03*
X71570000Y-62915000D03*
%TD*%
D55*
%TO.C,L1*%
X62710000Y-89035000D03*
X61596306Y-87921306D03*
%TD*%
D13*
%TO.C,C51*%
X73728275Y-68709466D03*
X73049453Y-69388288D03*
%TD*%
D31*
%TO.C,R28*%
X85450000Y-63425000D03*
X86090000Y-63425000D03*
%TD*%
D42*
%TO.C,C65*%
X77290000Y-68225000D03*
X76330000Y-68225000D03*
%TD*%
D39*
%TO.C,C58*%
X72328204Y-68695324D03*
X73007026Y-68016502D03*
%TD*%
D56*
%TO.C,C23*%
X61301992Y-76426992D03*
X62398008Y-77523008D03*
%TD*%
D39*
%TO.C,C32*%
X61460589Y-80239411D03*
X62139411Y-79560589D03*
%TD*%
D29*
%TO.C,D5*%
X81837500Y-88550000D03*
X80262500Y-88550000D03*
%TD*%
D18*
%TO.C,C62*%
X82721633Y-69484064D03*
X82721633Y-68524064D03*
%TD*%
D30*
%TO.C,C30*%
X66328822Y-91613822D03*
X65650000Y-90935000D03*
%TD*%
D43*
%TO.C,D21*%
X83450000Y-59525000D03*
X84420000Y-59525000D03*
%TD*%
D39*
%TO.C,C70*%
X67310589Y-96964411D03*
X67989411Y-96285589D03*
%TD*%
D35*
%TO.C,U10*%
X72900000Y-61925000D03*
X72900000Y-61125000D03*
X72900000Y-60325000D03*
X72900000Y-59525000D03*
X72900000Y-58725000D03*
X72900000Y-57925000D03*
D36*
X74350000Y-63225000D03*
X74350000Y-56625000D03*
%TD*%
D57*
%TO.C,C19*%
X65936016Y-73941016D03*
X64840000Y-72845000D03*
%TD*%
D30*
%TO.C,C25*%
X67753822Y-76078822D03*
X67075000Y-75400000D03*
%TD*%
D43*
%TO.C,D25*%
X83450000Y-61525000D03*
X84420000Y-61525000D03*
%TD*%
D22*
%TO.C,R70*%
X90563726Y-66711274D03*
X91016274Y-66258726D03*
%TD*%
D14*
%TO.C,R37*%
X89650000Y-71465001D03*
X89650000Y-72484999D03*
%TD*%
D39*
%TO.C,C27*%
X75935589Y-84289411D03*
X76614411Y-83610589D03*
%TD*%
D58*
%TO.C,C20*%
X76476992Y-86248008D03*
X77573008Y-85151992D03*
%TD*%
D29*
%TO.C,D9*%
X83437500Y-74725000D03*
X81862500Y-74725000D03*
%TD*%
D40*
%TO.C,C33*%
X75130000Y-75440000D03*
X75130000Y-76400000D03*
%TD*%
D13*
%TO.C,C26*%
X63514411Y-78210589D03*
X62835589Y-78889411D03*
%TD*%
D28*
%TO.C,R53*%
X69273726Y-66648726D03*
X69726274Y-67101274D03*
%TD*%
D59*
%TO.C,J5*%
X94138909Y-64778732D03*
D38*
X92724695Y-63364518D03*
X91310482Y-61950305D03*
X89896268Y-60536091D03*
%TD*%
D19*
%TO.C,R44*%
X89650000Y-78334999D03*
X89650000Y-77315001D03*
%TD*%
D60*
%TO.C,R56*%
X67326274Y-69501274D03*
X66873726Y-69048726D03*
%TD*%
D14*
%TO.C,R24*%
X97690000Y-85045000D03*
X97690000Y-86065000D03*
%TD*%
D48*
%TO.C,C45*%
X76170000Y-64625000D03*
X77130000Y-64625000D03*
%TD*%
D30*
%TO.C,C60*%
X67930000Y-68822603D03*
X67251178Y-68143781D03*
%TD*%
D26*
%TO.C,R22*%
X73910624Y-89885624D03*
X73189376Y-89164376D03*
%TD*%
D13*
%TO.C,C29*%
X64848822Y-90136178D03*
X64170000Y-90815000D03*
%TD*%
D27*
%TO.C,D17*%
X86762500Y-81125000D03*
X88337500Y-81125000D03*
%TD*%
D61*
%TO.C,SW4*%
X97820000Y-72745000D03*
D62*
X97820000Y-77445000D03*
X97820000Y-82145000D03*
X110520000Y-74905000D03*
X110520000Y-79985000D03*
%TD*%
D20*
%TO.C,C28*%
X67685589Y-90935589D03*
X68364411Y-91614411D03*
%TD*%
D61*
%TO.C,SW5*%
X82250000Y-97550000D03*
D62*
X77550000Y-97550000D03*
X72850000Y-97550000D03*
X80090000Y-110250000D03*
X75010000Y-110250000D03*
%TD*%
D23*
%TO.C,R67*%
X90826274Y-69798726D03*
X90373726Y-70251274D03*
%TD*%
D63*
%TO.C,LM3*%
X87742893Y-68652107D03*
X88096446Y-68298554D03*
X88450000Y-67945000D03*
X88803553Y-67591447D03*
D64*
X88803553Y-66590891D03*
X88450000Y-66237338D03*
X88096446Y-65883784D03*
X87742893Y-65530231D03*
D63*
X86742337Y-65530231D03*
X86388784Y-65883784D03*
X86035230Y-66237338D03*
X85681677Y-66590891D03*
D64*
X85681677Y-67591447D03*
X86035230Y-67945000D03*
X86388784Y-68298554D03*
X86742337Y-68652107D03*
D65*
X87242615Y-67091169D03*
%TD*%
D30*
%TO.C,C53*%
X89095235Y-70386287D03*
X88416413Y-69707465D03*
%TD*%
D15*
%TO.C,R45*%
X90609999Y-79325000D03*
X89590001Y-79325000D03*
%TD*%
D13*
%TO.C,C69*%
X60089411Y-86250589D03*
X59410589Y-86929411D03*
%TD*%
D31*
%TO.C,R26*%
X85430000Y-59825000D03*
X86070000Y-59825000D03*
%TD*%
D66*
%TO.C,TP6*%
X85650000Y-94255000D03*
%TD*%
D22*
%TO.C,R68*%
X89773726Y-69701274D03*
X90226274Y-69248726D03*
%TD*%
D31*
%TO.C,R40*%
X85430000Y-61625000D03*
X86070000Y-61625000D03*
%TD*%
D49*
%TO.C,D7*%
X98630000Y-68705000D03*
X98630000Y-70105000D03*
%TD*%
D26*
%TO.C,R74*%
X72435624Y-91335624D03*
X71714376Y-90614376D03*
%TD*%
D60*
%TO.C,R54*%
X70276274Y-66551274D03*
X69823726Y-66098726D03*
%TD*%
D43*
%TO.C,D22*%
X83450000Y-60525000D03*
X84420000Y-60525000D03*
%TD*%
D29*
%TO.C,D14*%
X83425000Y-79525000D03*
X81850000Y-79525000D03*
%TD*%
D54*
%TO.C,H1*%
X85850000Y-57225000D03*
%TD*%
D39*
%TO.C,C68*%
X88911388Y-64998133D03*
X89590210Y-64319311D03*
%TD*%
D35*
%TO.C,U9*%
X56500000Y-73875000D03*
X56500000Y-73075000D03*
X56500000Y-72275000D03*
X56500000Y-71475000D03*
D36*
X57950000Y-75174999D03*
X57950000Y-70175001D03*
%TD*%
D48*
%TO.C,C50*%
X91220000Y-75475000D03*
X92180000Y-75475000D03*
%TD*%
D43*
%TO.C,D1*%
X83450000Y-58525000D03*
X84420000Y-58525000D03*
%TD*%
D27*
%TO.C,D18*%
X86762500Y-76325000D03*
X88337500Y-76325000D03*
%TD*%
D67*
%TO.C,SW1*%
X69382412Y-63744670D03*
X67155026Y-65972056D03*
X68180330Y-62542588D03*
X65952944Y-64769975D03*
D68*
X68887437Y-63037563D03*
X66447919Y-65477082D03*
%TD*%
D35*
%TO.C,U11*%
X76450002Y-61924998D03*
X76450002Y-61124998D03*
X76450002Y-60324998D03*
X76450002Y-59524998D03*
X76450002Y-58724998D03*
X76450002Y-57924998D03*
D36*
X77900002Y-63224998D03*
X77900002Y-56624998D03*
%TD*%
D69*
%TO.C,J2*%
X95843123Y-88247055D03*
D70*
X94428909Y-89661269D03*
X93014696Y-91075482D03*
X91600482Y-92489696D03*
X90186269Y-93903909D03*
X88772055Y-95318123D03*
%TD*%
D71*
%TO.C,J1*%
X66492946Y-95703123D03*
D72*
X65078732Y-94288909D03*
X63664519Y-92874696D03*
X62250305Y-91460482D03*
X60836092Y-90046269D03*
X59421878Y-88632055D03*
%TD*%
D73*
%TO.C,J4*%
X94225000Y-79350000D03*
D74*
X94225000Y-77349999D03*
X94225000Y-75350000D03*
%TD*%
D75*
%TO.C,J9*%
X82250000Y-92550000D03*
D76*
X77250000Y-92550000D03*
%TD*%
D77*
%TO.C,U5*%
X67138819Y-76835519D03*
X66785266Y-77189072D03*
X66431713Y-77542625D03*
X66078159Y-77896179D03*
X65724606Y-78249732D03*
X65371052Y-78603286D03*
X65017499Y-78956839D03*
X64663946Y-79310392D03*
X64310392Y-79663946D03*
X63956839Y-80017499D03*
X63603286Y-80371052D03*
X63249732Y-80724606D03*
X62896179Y-81078159D03*
X62542625Y-81431713D03*
X62189072Y-81785266D03*
X61835519Y-82138819D03*
D78*
X61835519Y-84861181D03*
X62189072Y-85214734D03*
X62542625Y-85568287D03*
X62896179Y-85921841D03*
X63249732Y-86275394D03*
X63603286Y-86628948D03*
X63956839Y-86982501D03*
X64310392Y-87336054D03*
X64663946Y-87689608D03*
X65017499Y-88043161D03*
X65371052Y-88396714D03*
X65724606Y-88750268D03*
X66078159Y-89103821D03*
X66431713Y-89457375D03*
X66785266Y-89810928D03*
X67138819Y-90164481D03*
D77*
X69861181Y-90164481D03*
X70214734Y-89810928D03*
X70568287Y-89457375D03*
X70921841Y-89103821D03*
X71275394Y-88750268D03*
X71628948Y-88396714D03*
X71982501Y-88043161D03*
X72336054Y-87689608D03*
X72689608Y-87336054D03*
X73043161Y-86982501D03*
X73396714Y-86628948D03*
X73750268Y-86275394D03*
X74103821Y-85921841D03*
X74457375Y-85568287D03*
X74810928Y-85214734D03*
X75164481Y-84861181D03*
D78*
X75164481Y-82138819D03*
X74810928Y-81785266D03*
X74457375Y-81431713D03*
X74103821Y-81078159D03*
X73750268Y-80724606D03*
X73396714Y-80371052D03*
X73043161Y-80017499D03*
X72689608Y-79663946D03*
X72336054Y-79310392D03*
X71982501Y-78956839D03*
X71628948Y-78603286D03*
X71275394Y-78249732D03*
X70921841Y-77896179D03*
X70568287Y-77542625D03*
X70214734Y-77189072D03*
X69861181Y-76835519D03*
%TD*%
M02*
