%TF.GenerationSoftware,KiCad,Pcbnew,9.0.0*%
%TF.CreationDate,2025-11-09T16:07:43+01:00*%
%TF.ProjectId,PCB_AMPLI,5043425f-414d-4504-9c49-2e6b69636164,rev?*%
%TF.SameCoordinates,Original*%
%TF.FileFunction,Copper,L1,Top*%
%TF.FilePolarity,Positive*%
%FSLAX46Y46*%
G04 Gerber Fmt 4.6, Leading zero omitted, Abs format (unit mm)*
G04 Created by KiCad (PCBNEW 9.0.0) date 2025-11-09 16:07:43*
%MOMM*%
%LPD*%
G01*
G04 APERTURE LIST*
G04 Aperture macros list*
%AMRoundRect*
0 Rectangle with rounded corners*
0 $1 Rounding radius*
0 $2 $3 $4 $5 $6 $7 $8 $9 X,Y pos of 4 corners*
0 Add a 4 corners polygon primitive as box body*
4,1,4,$2,$3,$4,$5,$6,$7,$8,$9,$2,$3,0*
0 Add four circle primitives for the rounded corners*
1,1,$1+$1,$2,$3*
1,1,$1+$1,$4,$5*
1,1,$1+$1,$6,$7*
1,1,$1+$1,$8,$9*
0 Add four rect primitives between the rounded corners*
20,1,$1+$1,$2,$3,$4,$5,0*
20,1,$1+$1,$4,$5,$6,$7,0*
20,1,$1+$1,$6,$7,$8,$9,0*
20,1,$1+$1,$8,$9,$2,$3,0*%
G04 Aperture macros list end*
%TA.AperFunction,ComponentPad*%
%ADD10R,1.700000X1.700000*%
%TD*%
%TA.AperFunction,ComponentPad*%
%ADD11O,1.700000X1.700000*%
%TD*%
%TA.AperFunction,SMDPad,CuDef*%
%ADD12RoundRect,0.180000X-0.420000X-1.070000X0.420000X-1.070000X0.420000X1.070000X-0.420000X1.070000X0*%
%TD*%
%TA.AperFunction,SMDPad,CuDef*%
%ADD13RoundRect,0.140000X-0.140000X-0.170000X0.140000X-0.170000X0.140000X0.170000X-0.140000X0.170000X0*%
%TD*%
%TA.AperFunction,SMDPad,CuDef*%
%ADD14RoundRect,0.135000X0.135000X0.185000X-0.135000X0.185000X-0.135000X-0.185000X0.135000X-0.185000X0*%
%TD*%
%TA.AperFunction,SMDPad,CuDef*%
%ADD15RoundRect,0.225000X-0.225000X-0.250000X0.225000X-0.250000X0.225000X0.250000X-0.225000X0.250000X0*%
%TD*%
%TA.AperFunction,SMDPad,CuDef*%
%ADD16RoundRect,0.100000X-0.687500X-0.100000X0.687500X-0.100000X0.687500X0.100000X-0.687500X0.100000X0*%
%TD*%
%TA.AperFunction,HeatsinkPad*%
%ADD17R,3.400000X5.000000*%
%TD*%
%TA.AperFunction,SMDPad,CuDef*%
%ADD18RoundRect,0.218750X-0.256250X0.218750X-0.256250X-0.218750X0.256250X-0.218750X0.256250X0.218750X0*%
%TD*%
%TA.AperFunction,SMDPad,CuDef*%
%ADD19RoundRect,0.135000X0.185000X-0.135000X0.185000X0.135000X-0.185000X0.135000X-0.185000X-0.135000X0*%
%TD*%
%TA.AperFunction,SMDPad,CuDef*%
%ADD20RoundRect,0.225000X-0.250000X0.225000X-0.250000X-0.225000X0.250000X-0.225000X0.250000X0.225000X0*%
%TD*%
%TA.AperFunction,ComponentPad*%
%ADD21C,6.400000*%
%TD*%
%TA.AperFunction,SMDPad,CuDef*%
%ADD22RoundRect,0.135000X-0.135000X-0.185000X0.135000X-0.185000X0.135000X0.185000X-0.135000X0.185000X0*%
%TD*%
%TA.AperFunction,ViaPad*%
%ADD23C,0.450000*%
%TD*%
%TA.AperFunction,Conductor*%
%ADD24C,0.600000*%
%TD*%
%TA.AperFunction,Conductor*%
%ADD25C,0.200000*%
%TD*%
G04 APERTURE END LIST*
D10*
%TO.P,J2,1,Pin_1*%
%TO.N,OUTA*%
X170000000Y-105000000D03*
D11*
%TO.P,J2,2,Pin_2*%
%TO.N,OUTB*%
X170000000Y-107540000D03*
%TD*%
D10*
%TO.P,J3,1,Pin_1*%
%TO.N,IN1*%
X167000000Y-120950000D03*
D11*
%TO.P,J3,2,Pin_2*%
%TO.N,GND*%
X169540000Y-120950000D03*
%TO.P,J3,3,Pin_3*%
%TO.N,IN2*%
X172080000Y-120950000D03*
%TO.P,J3,4,Pin_4*%
%TO.N,GND*%
X174620000Y-120950000D03*
%TD*%
D12*
%TO.P,SW1,1,A*%
%TO.N,I2C_VDD_SW*%
X166300000Y-117150000D03*
%TO.P,SW1,2,B*%
%TO.N,ADR*%
X168800000Y-111650000D03*
%TO.P,SW1,3,C*%
%TO.N,GND*%
X171300000Y-117150000D03*
%TD*%
%TO.P,SW2,1,A*%
%TO.N,I2C_VDD*%
X156800000Y-117150000D03*
%TO.P,SW2,2,B*%
%TO.N,I2C_VDD_SW*%
X159300000Y-111650000D03*
%TO.P,SW2,3,C*%
%TO.N,VDD*%
X161800000Y-117150000D03*
%TD*%
%TO.P,SW3,1,A*%
%TO.N,PVDD*%
X147300000Y-117150000D03*
%TO.P,SW3,2,B*%
%TO.N,PVDD_SW*%
X149800000Y-111650000D03*
%TO.P,SW3,3,C*%
%TO.N,VDD*%
X152300000Y-117150000D03*
%TD*%
D13*
%TO.P,C7,1*%
%TO.N,VDD*%
X161570000Y-103650000D03*
%TO.P,C7,2*%
%TO.N,GND*%
X162530000Y-103650000D03*
%TD*%
D14*
%TO.P,R6,1*%
%TO.N,VDD*%
X156590000Y-103650000D03*
%TO.P,R6,2*%
%TO.N,FAULT*%
X155570000Y-103650000D03*
%TD*%
D15*
%TO.P,C5,1*%
%TO.N,Net-(U1-BIAS)*%
X163870000Y-104850000D03*
%TO.P,C5,2*%
%TO.N,GND*%
X165420000Y-104850000D03*
%TD*%
D16*
%TO.P,U1,1,FAULT*%
%TO.N,FAULT*%
X156207500Y-105000000D03*
%TO.P,U1,2,SCL*%
%TO.N,SCL*%
X156207500Y-105650000D03*
%TO.P,U1,3,SDA*%
%TO.N,SDA*%
X156207500Y-106300000D03*
%TO.P,U1,4,I2C_VDD*%
%TO.N,I2C_VDD_SW*%
X156207500Y-106950000D03*
%TO.P,U1,5,GND*%
%TO.N,GND*%
X156207500Y-107600000D03*
%TO.P,U1,6,ADR*%
%TO.N,ADR*%
X156207500Y-108250000D03*
%TO.P,U1,7,OUTA*%
%TO.N,OUTA*%
X156207500Y-108900000D03*
%TO.P,U1,8,PGND*%
%TO.N,GND*%
X161932500Y-108900000D03*
%TO.P,U1,9,OUTB*%
%TO.N,OUTB*%
X161932500Y-108250000D03*
%TO.P,U1,10,PVDD*%
%TO.N,PVDD_SW*%
X161932500Y-107600000D03*
%TO.P,U1,11,IN2*%
%TO.N,Net-(U1-IN2)*%
X161932500Y-106950000D03*
%TO.P,U1,12,IN1*%
%TO.N,Net-(U1-IN1)*%
X161932500Y-106300000D03*
%TO.P,U1,13,BIAS*%
%TO.N,Net-(U1-BIAS)*%
X161932500Y-105650000D03*
%TO.P,U1,14,VDD*%
%TO.N,VDD*%
X161932500Y-105000000D03*
D17*
%TO.P,U1,15,EP*%
%TO.N,GND*%
X159070000Y-106950000D03*
%TD*%
D13*
%TO.P,C3,1*%
%TO.N,Net-(U1-IN1)*%
X163570000Y-106150000D03*
%TO.P,C3,2*%
%TO.N,IN1*%
X164530000Y-106150000D03*
%TD*%
%TO.P,C2,1*%
%TO.N,Net-(U1-IN2)*%
X163570000Y-107250000D03*
%TO.P,C2,2*%
%TO.N,IN2*%
X164530000Y-107250000D03*
%TD*%
D18*
%TO.P,D2,2,A*%
%TO.N,Net-(D2-A)*%
X151150000Y-106437500D03*
%TO.P,D2,1,K*%
%TO.N,GND*%
X151150000Y-104862500D03*
%TD*%
D19*
%TO.P,R2,2*%
%TO.N,Net-(D2-A)*%
X151150000Y-107675000D03*
%TO.P,R2,1*%
%TO.N,I2C_VDD*%
X151150000Y-108695000D03*
%TD*%
%TO.P,R1,2*%
%TO.N,Net-(D1-A)*%
X149350000Y-107675000D03*
%TO.P,R1,1*%
%TO.N,PVDD*%
X149350000Y-108695000D03*
%TD*%
D18*
%TO.P,D1,2,A*%
%TO.N,Net-(D1-A)*%
X149350000Y-106437500D03*
%TO.P,D1,1,K*%
%TO.N,GND*%
X149350000Y-104862500D03*
%TD*%
D20*
%TO.P,C6,2*%
%TO.N,GND*%
X165470000Y-110100000D03*
%TO.P,C6,1*%
%TO.N,PVDD_SW*%
X165470000Y-108550000D03*
%TD*%
%TO.P,C4,2*%
%TO.N,GND*%
X163870000Y-110100000D03*
%TO.P,C4,1*%
%TO.N,PVDD_SW*%
X163870000Y-108550000D03*
%TD*%
D11*
%TO.P,J4,4,Pin_4*%
%TO.N,GND*%
X151420000Y-120950000D03*
%TO.P,J4,3,Pin_3*%
%TO.N,FAULT*%
X148880000Y-120950000D03*
%TO.P,J4,2,Pin_2*%
%TO.N,SDA*%
X146340000Y-120950000D03*
D10*
%TO.P,J4,1,Pin_1*%
%TO.N,SCL*%
X143800000Y-120950000D03*
%TD*%
D21*
%TO.P,H1,1,1*%
%TO.N,GND*%
X177500000Y-112500000D03*
%TD*%
%TO.P,H2,1,1*%
%TO.N,GND*%
X141000000Y-112500000D03*
%TD*%
D19*
%TO.P,R3,1*%
%TO.N,VDD*%
X147560000Y-108685000D03*
%TO.P,R3,2*%
%TO.N,Net-(D3-A)*%
X147560000Y-107665000D03*
%TD*%
D18*
%TO.P,D3,1,K*%
%TO.N,GND*%
X147550000Y-104862500D03*
%TO.P,D3,2,A*%
%TO.N,Net-(D3-A)*%
X147550000Y-106437500D03*
%TD*%
D14*
%TO.P,R4,1*%
%TO.N,SCL*%
X154650000Y-104850000D03*
%TO.P,R4,2*%
%TO.N,I2C_VDD_SW*%
X153630000Y-104850000D03*
%TD*%
D13*
%TO.P,C1,2*%
%TO.N,I2C_VDD_SW*%
X154620000Y-106960000D03*
%TO.P,C1,1*%
%TO.N,GND*%
X153660000Y-106960000D03*
%TD*%
D22*
%TO.P,R5,2*%
%TO.N,SDA*%
X154650000Y-105910000D03*
%TO.P,R5,1*%
%TO.N,I2C_VDD_SW*%
X153630000Y-105910000D03*
%TD*%
D10*
%TO.P,J10,1,Pin_1*%
%TO.N,I2C_VDD*%
X163000000Y-120950000D03*
D11*
%TO.P,J10,2,Pin_2*%
%TO.N,VDD*%
X160460000Y-120950000D03*
%TO.P,J10,3,Pin_3*%
%TO.N,PVDD*%
X157920000Y-120950000D03*
%TO.P,J10,4,Pin_4*%
%TO.N,GND*%
X155380000Y-120950000D03*
%TD*%
D23*
%TO.N,I2C_VDD_SW*%
X159260000Y-113540000D03*
X166290000Y-115380000D03*
%TO.N,PVDD_SW*%
X161932500Y-107600000D03*
%TO.N,VDD*%
X161800000Y-118890000D03*
X162990000Y-117160000D03*
X153580000Y-117140000D03*
%TO.N,GND*%
X155740000Y-114590000D03*
X146290000Y-107910000D03*
X144240000Y-115340000D03*
X143600000Y-118010000D03*
X162290000Y-110700000D03*
X158490000Y-103950000D03*
X156390000Y-110550000D03*
X153440000Y-109500000D03*
X165740000Y-103250000D03*
X167510000Y-108530000D03*
X167770000Y-105560000D03*
X173920000Y-115720000D03*
X164000000Y-117730000D03*
X165020000Y-121350000D03*
X153410000Y-121880000D03*
X151070000Y-114400000D03*
X162075000Y-112800000D03*
X160300000Y-116000000D03*
X179780000Y-108950000D03*
X136860000Y-112580000D03*
X144360000Y-109040000D03*
X175820000Y-117810000D03*
X167630000Y-115230000D03*
X174060000Y-109130000D03*
X166390000Y-110110000D03*
X164660000Y-110100000D03*
X162816250Y-109783750D03*
%TO.N,IN1*%
X171175000Y-112465000D03*
%TO.N,GND*%
X170260000Y-117160000D03*
%TO.N,IN1*%
X165340000Y-106150000D03*
%TO.N,GND*%
X174620000Y-119630000D03*
X169540000Y-119630000D03*
X154090000Y-120950000D03*
X152710000Y-120950000D03*
%TO.N,SDA*%
X154650000Y-105910000D03*
%TO.N,FAULT*%
X156207500Y-105000000D03*
%TO.N,SCL*%
X153304030Y-104135963D03*
%TO.N,OUTA*%
X160540000Y-109875002D03*
%TO.N,PVDD_SW*%
X164650000Y-108550000D03*
X166200000Y-107800000D03*
X149800000Y-113500000D03*
%TO.N,I2C_VDD_SW*%
X155140000Y-106950000D03*
X153630000Y-105400000D03*
X158000000Y-111750000D03*
%TO.N,GND*%
X159070000Y-108950000D03*
X158070000Y-108950000D03*
X160070000Y-107950000D03*
X159070000Y-107950000D03*
X158070000Y-107950000D03*
X160070000Y-106950000D03*
X159070000Y-106950000D03*
X158070000Y-106950000D03*
X160070000Y-105950000D03*
X159070000Y-105950000D03*
X158070000Y-105950000D03*
X160070000Y-104950000D03*
X159070000Y-104950000D03*
X158070000Y-104950000D03*
X160070000Y-108950000D03*
%TO.N,VDD*%
X147550000Y-109400000D03*
%TO.N,GND*%
X151150000Y-104000000D03*
X149350000Y-104000000D03*
X147550000Y-104000000D03*
%TO.N,I2C_VDD*%
X158230000Y-117150000D03*
%TO.N,OUTB*%
X163113052Y-109185783D03*
%TO.N,GND*%
X163250000Y-103650000D03*
X166350000Y-104850000D03*
X154900000Y-107700000D03*
X152950000Y-106950000D03*
%TO.N,VDD*%
X157290000Y-103650000D03*
X160860000Y-103650000D03*
X161570000Y-104400000D03*
%TD*%
D24*
%TO.N,I2C_VDD_SW*%
X159260000Y-111690000D02*
X159300000Y-111650000D01*
X159260000Y-113540000D02*
X159260000Y-111690000D01*
X166300000Y-117150000D02*
X166300000Y-115390000D01*
X166300000Y-115390000D02*
X166290000Y-115380000D01*
D25*
%TO.N,IN2*%
X172080000Y-120950000D02*
X172080000Y-120530000D01*
X172080000Y-120530000D02*
X173120000Y-119490000D01*
X173120000Y-113010000D02*
X167360000Y-107250000D01*
X173120000Y-119490000D02*
X173120000Y-113010000D01*
X167360000Y-107250000D02*
X164530000Y-107250000D01*
%TO.N,IN1*%
X169000000Y-117410000D02*
X167000000Y-119410000D01*
X171175000Y-112465000D02*
X169000000Y-114640000D01*
X169000000Y-114640000D02*
X169000000Y-117410000D01*
X167000000Y-119410000D02*
X167000000Y-120950000D01*
D24*
%TO.N,PVDD*%
X149340000Y-119190000D02*
X156010000Y-119190000D01*
X147300000Y-117150000D02*
X149340000Y-119190000D01*
X156010000Y-119190000D02*
X157770000Y-120950000D01*
X157770000Y-120950000D02*
X157920000Y-120950000D01*
D25*
X147300000Y-117150000D02*
X147300000Y-111220000D01*
X149350000Y-109170000D02*
X149350000Y-108695000D01*
X147300000Y-111220000D02*
X149350000Y-109170000D01*
%TO.N,PVDD_SW*%
X162020000Y-107600000D02*
X162800000Y-107600000D01*
X161932500Y-107600000D02*
X162020000Y-107600000D01*
X163750000Y-108550000D02*
X163870000Y-108550000D01*
X162800000Y-107600000D02*
X163750000Y-108550000D01*
D24*
%TO.N,I2C_VDD*%
X158230000Y-117150000D02*
X156800000Y-117150000D01*
%TO.N,VDD*%
X161800000Y-118890000D02*
X161800000Y-117150000D01*
D25*
X162980000Y-117150000D02*
X162990000Y-117160000D01*
X161800000Y-117150000D02*
X162980000Y-117150000D01*
X153570000Y-117150000D02*
X153580000Y-117140000D01*
X152300000Y-117150000D02*
X153570000Y-117150000D01*
%TO.N,GND*%
X166380000Y-110100000D02*
X166390000Y-110110000D01*
X165470000Y-110100000D02*
X166380000Y-110100000D01*
X164660000Y-110100000D02*
X165470000Y-110100000D01*
X162816250Y-109783750D02*
X163132500Y-110100000D01*
%TO.N,IN1*%
X165340000Y-106150000D02*
X164530000Y-106150000D01*
%TO.N,GND*%
X174620000Y-120950000D02*
X174620000Y-119630000D01*
X169540000Y-120950000D02*
X169540000Y-119630000D01*
X155380000Y-120950000D02*
X154090000Y-120950000D01*
X151420000Y-120950000D02*
X152710000Y-120950000D01*
%TO.N,OUTA*%
X156207500Y-109167500D02*
X156207500Y-108900000D01*
X160540000Y-109875002D02*
X156915002Y-109875002D01*
X156915002Y-109875002D02*
X156207500Y-109167500D01*
%TO.N,SDA*%
X155040000Y-106300000D02*
X156207500Y-106300000D01*
%TO.N,SCL*%
X153304030Y-104135963D02*
X153935963Y-104135963D01*
X153935963Y-104135963D02*
X154650000Y-104850000D01*
%TO.N,ADR*%
X156207500Y-108250000D02*
X155500130Y-108250000D01*
X155500130Y-108250000D02*
X154220000Y-109530130D01*
X154220000Y-109530130D02*
X154220000Y-111670000D01*
X154220000Y-111670000D02*
X156700000Y-114150000D01*
X156700000Y-114150000D02*
X168130000Y-114150000D01*
X168130000Y-114150000D02*
X168800000Y-113480000D01*
X168800000Y-113480000D02*
X168800000Y-111650000D01*
%TO.N,OUTB*%
X162719999Y-108250000D02*
X161932500Y-108250000D01*
X163113052Y-109185783D02*
X163094000Y-109166731D01*
X163094000Y-109166731D02*
X163094000Y-108624001D01*
X163094000Y-108624001D02*
X162719999Y-108250000D01*
%TO.N,PVDD_SW*%
X164650000Y-108550000D02*
X165470000Y-108550000D01*
X165470000Y-108530000D02*
X166200000Y-107800000D01*
X165470000Y-108550000D02*
X165470000Y-108530000D01*
X149800000Y-111650000D02*
X149800000Y-113500000D01*
%TO.N,I2C_VDD_SW*%
X155140000Y-106950000D02*
X154630000Y-106950000D01*
X153630000Y-105400000D02*
X153630000Y-105910000D01*
X158100000Y-111650000D02*
X158000000Y-111750000D01*
X159300000Y-111650000D02*
X158100000Y-111650000D01*
%TO.N,I2C_VDD*%
X151150000Y-108695000D02*
X151150000Y-111500000D01*
X151150000Y-111500000D02*
X156800000Y-117150000D01*
%TO.N,VDD*%
X147560000Y-109390000D02*
X147550000Y-109400000D01*
X147560000Y-108685000D02*
X147560000Y-109390000D01*
%TO.N,GND*%
X151150000Y-104862500D02*
X151150000Y-104000000D01*
X149350000Y-104862500D02*
X149350000Y-104000000D01*
X147550000Y-104862500D02*
X147550000Y-104000000D01*
%TO.N,Net-(D3-A)*%
X147560000Y-107665000D02*
X147560000Y-106447500D01*
X147560000Y-106447500D02*
X147550000Y-106437500D01*
%TO.N,Net-(D1-A)*%
X149350000Y-106437500D02*
X149350000Y-107675000D01*
%TO.N,Net-(D2-A)*%
X151150000Y-107675000D02*
X151150000Y-106437500D01*
D24*
%TO.N,VDD*%
X160460000Y-120950000D02*
X161800000Y-119610000D01*
X161800000Y-119610000D02*
X161800000Y-118890000D01*
D25*
%TO.N,GND*%
X162530000Y-103650000D02*
X163250000Y-103650000D01*
X165420000Y-104850000D02*
X166350000Y-104850000D01*
X155000000Y-107600000D02*
X154900000Y-107700000D01*
X156207500Y-107600000D02*
X155000000Y-107600000D01*
X152960000Y-106960000D02*
X152950000Y-106950000D01*
X153660000Y-106960000D02*
X152960000Y-106960000D01*
%TO.N,I2C_VDD_SW*%
X156207500Y-106950000D02*
X155140000Y-106950000D01*
X154630000Y-106950000D02*
X154620000Y-106960000D01*
X153630000Y-104850000D02*
X153630000Y-105400000D01*
%TO.N,SDA*%
X154650000Y-105910000D02*
X155040000Y-106300000D01*
%TO.N,SCL*%
X156207500Y-105650000D02*
X155450000Y-105650000D01*
X155450000Y-105650000D02*
X154650000Y-104850000D01*
%TO.N,GND*%
X163870000Y-110100000D02*
X164660000Y-110100000D01*
X161932500Y-108900000D02*
X162816250Y-109783750D01*
X163132500Y-110100000D02*
X163870000Y-110100000D01*
%TO.N,PVDD_SW*%
X163870000Y-108550000D02*
X164650000Y-108550000D01*
%TO.N,Net-(U1-IN2)*%
X161932500Y-106950000D02*
X163270000Y-106950000D01*
X163270000Y-106950000D02*
X163570000Y-107250000D01*
%TO.N,Net-(U1-IN1)*%
X163570000Y-106150000D02*
X162082500Y-106150000D01*
X162082500Y-106150000D02*
X161932500Y-106300000D01*
%TO.N,Net-(U1-BIAS)*%
X163870000Y-104850000D02*
X163070000Y-105650000D01*
X163070000Y-105650000D02*
X161932500Y-105650000D01*
%TO.N,FAULT*%
X155570000Y-103650000D02*
X155570000Y-104362500D01*
X155570000Y-104362500D02*
X156207500Y-105000000D01*
%TO.N,VDD*%
X156590000Y-103650000D02*
X157290000Y-103650000D01*
X161570000Y-103650000D02*
X160860000Y-103650000D01*
X161570000Y-104400000D02*
X161570000Y-104637500D01*
X161570000Y-103650000D02*
X161570000Y-104400000D01*
X161570000Y-104637500D02*
X161932500Y-105000000D01*
X161932500Y-105000000D02*
X161500000Y-105000000D01*
%TO.N,I2C_VDD_SW*%
X153630000Y-105910000D02*
X153630000Y-105970000D01*
X153630000Y-105970000D02*
X154620000Y-106960000D01*
%TO.N,GND*%
X170270000Y-117150000D02*
X170260000Y-117160000D01*
X171300000Y-117150000D02*
X170270000Y-117150000D01*
%TD*%
%TA.AperFunction,Conductor*%
%TO.N,GND*%
G36*
X150293334Y-105513146D02*
G01*
X150337681Y-105541647D01*
X150444919Y-105648885D01*
X150574793Y-105728992D01*
X150621517Y-105780940D01*
X150632740Y-105849903D01*
X150604896Y-105913985D01*
X150597378Y-105922211D01*
X150550346Y-105969243D01*
X150550343Y-105969248D01*
X150550342Y-105969249D01*
X150530244Y-106008692D01*
X150490047Y-106087582D01*
X150474500Y-106185748D01*
X150474500Y-106689251D01*
X150490047Y-106787417D01*
X150490049Y-106787420D01*
X150550342Y-106905751D01*
X150550343Y-106905752D01*
X150550657Y-106906066D01*
X150568205Y-106928148D01*
X150719912Y-107171479D01*
X150723503Y-107184360D01*
X150731387Y-107195163D01*
X150732703Y-107217361D01*
X150738675Y-107238781D01*
X150734823Y-107253096D01*
X150735524Y-107264910D01*
X150722789Y-107297826D01*
X150718429Y-107305585D01*
X150698013Y-107332517D01*
X150691651Y-107338880D01*
X150685935Y-107344596D01*
X150675477Y-107367023D01*
X150635931Y-107451828D01*
X150629500Y-107500683D01*
X150629500Y-107849316D01*
X150635931Y-107898171D01*
X150685935Y-108005404D01*
X150777267Y-108096736D01*
X150774443Y-108099559D01*
X150805183Y-108138042D01*
X150812352Y-108207542D01*
X150780808Y-108269886D01*
X150777101Y-108273098D01*
X150777267Y-108273264D01*
X150685935Y-108364595D01*
X150635931Y-108471828D01*
X150629500Y-108520683D01*
X150629500Y-108869316D01*
X150635931Y-108918171D01*
X150685935Y-109025404D01*
X150698012Y-109037481D01*
X150718435Y-109064420D01*
X150770245Y-109156627D01*
X150823949Y-109252205D01*
X150833604Y-109269387D01*
X150849500Y-109330129D01*
X150849500Y-111539562D01*
X150851099Y-111545529D01*
X150869979Y-111615989D01*
X150880383Y-111634008D01*
X150880384Y-111634012D01*
X150880385Y-111634012D01*
X150909539Y-111684509D01*
X150909541Y-111684512D01*
X155508167Y-116283138D01*
X155535146Y-116323606D01*
X155805226Y-116979513D01*
X155978887Y-117401263D01*
X155990160Y-117428639D01*
X155999500Y-117475852D01*
X155999500Y-118256110D01*
X156007582Y-118311581D01*
X156010276Y-118330074D01*
X156066049Y-118444158D01*
X156099710Y-118477819D01*
X156133195Y-118539142D01*
X156128211Y-118608834D01*
X156086339Y-118664767D01*
X156020875Y-118689184D01*
X156012029Y-118689500D01*
X153087971Y-118689500D01*
X153020932Y-118669815D01*
X152975177Y-118617011D01*
X152965233Y-118547853D01*
X152994258Y-118484297D01*
X153000290Y-118477819D01*
X153033950Y-118444158D01*
X153033951Y-118444157D01*
X153089724Y-118330072D01*
X153100500Y-118256110D01*
X153100500Y-117908495D01*
X153120185Y-117841456D01*
X153145117Y-117813236D01*
X153412866Y-117590111D01*
X153476968Y-117562316D01*
X153515850Y-117565008D01*
X153515925Y-117564439D01*
X153523981Y-117565499D01*
X153523982Y-117565500D01*
X153523983Y-117565500D01*
X153636016Y-117565500D01*
X153636018Y-117565500D01*
X153744237Y-117536503D01*
X153841263Y-117480485D01*
X153920485Y-117401263D01*
X153976503Y-117304237D01*
X154005500Y-117196018D01*
X154005500Y-117083982D01*
X153976503Y-116975763D01*
X153920485Y-116878737D01*
X153841263Y-116799515D01*
X153754638Y-116749502D01*
X153744239Y-116743498D01*
X153744238Y-116743497D01*
X153744237Y-116743497D01*
X153636018Y-116714500D01*
X153523982Y-116714500D01*
X153523977Y-116714500D01*
X153506176Y-116719270D01*
X153436327Y-116717604D01*
X153394705Y-116694753D01*
X153145117Y-116486762D01*
X153106218Y-116428722D01*
X153100500Y-116391503D01*
X153100500Y-116043895D01*
X153100500Y-116043890D01*
X153089724Y-115969928D01*
X153089722Y-115969924D01*
X153033950Y-115855841D01*
X152944158Y-115766049D01*
X152830074Y-115710276D01*
X152811581Y-115707582D01*
X152756110Y-115699500D01*
X151843890Y-115699500D01*
X151794582Y-115706684D01*
X151769925Y-115710276D01*
X151655841Y-115766049D01*
X151566049Y-115855841D01*
X151510276Y-115969925D01*
X151506235Y-115997663D01*
X151499500Y-116043890D01*
X151499500Y-118256110D01*
X151507582Y-118311581D01*
X151510276Y-118330074D01*
X151566049Y-118444158D01*
X151599710Y-118477819D01*
X151633195Y-118539142D01*
X151628211Y-118608834D01*
X151586339Y-118664767D01*
X151520875Y-118689184D01*
X151512029Y-118689500D01*
X149598676Y-118689500D01*
X149531637Y-118669815D01*
X149510995Y-118653181D01*
X148720997Y-117863183D01*
X148702349Y-117839299D01*
X148118171Y-116865668D01*
X148100500Y-116801871D01*
X148100500Y-116043895D01*
X148100500Y-116043890D01*
X148089724Y-115969928D01*
X148089722Y-115969924D01*
X148033950Y-115855841D01*
X148029551Y-115851442D01*
X148014944Y-115833854D01*
X147622212Y-115260733D01*
X147600554Y-115194305D01*
X147600500Y-115190640D01*
X147600500Y-111395833D01*
X147620185Y-111328794D01*
X147636819Y-111308152D01*
X148401081Y-110543890D01*
X148999500Y-110543890D01*
X148999500Y-112756110D01*
X149001457Y-112769540D01*
X149010276Y-112830074D01*
X149066049Y-112944158D01*
X149070448Y-112948557D01*
X149085056Y-112966145D01*
X149353772Y-113358289D01*
X149375429Y-113424717D01*
X149374500Y-113443052D01*
X149374500Y-113443982D01*
X149374500Y-113556018D01*
X149403497Y-113664237D01*
X149459515Y-113761263D01*
X149538737Y-113840485D01*
X149635763Y-113896503D01*
X149743982Y-113925500D01*
X149743984Y-113925500D01*
X149856016Y-113925500D01*
X149856018Y-113925500D01*
X149964237Y-113896503D01*
X150061263Y-113840485D01*
X150140485Y-113761263D01*
X150196503Y-113664237D01*
X150225500Y-113556018D01*
X150225500Y-113443982D01*
X150225500Y-113435854D01*
X150226936Y-113435854D01*
X150236336Y-113375539D01*
X150246217Y-113358301D01*
X150513056Y-112968899D01*
X150513056Y-112968898D01*
X150514127Y-112967336D01*
X150514310Y-112967461D01*
X150529403Y-112948703D01*
X150533951Y-112944157D01*
X150589724Y-112830072D01*
X150600500Y-112756110D01*
X150600500Y-110543890D01*
X150589724Y-110469928D01*
X150533951Y-110355843D01*
X150533950Y-110355842D01*
X150533950Y-110355841D01*
X150444158Y-110266049D01*
X150330074Y-110210276D01*
X150311581Y-110207582D01*
X150256110Y-110199500D01*
X149343890Y-110199500D01*
X149294582Y-110206684D01*
X149269925Y-110210276D01*
X149155841Y-110266049D01*
X149066049Y-110355841D01*
X149010276Y-110469925D01*
X149006235Y-110497663D01*
X148999500Y-110543890D01*
X148401081Y-110543890D01*
X149590457Y-109354514D01*
X149590460Y-109354511D01*
X149597489Y-109342337D01*
X149630021Y-109285989D01*
X149630736Y-109283321D01*
X149631940Y-109280641D01*
X149631959Y-109279059D01*
X149647002Y-109247131D01*
X149710272Y-109151207D01*
X149745990Y-109097054D01*
X149761813Y-109077654D01*
X149814065Y-109025404D01*
X149864068Y-108918173D01*
X149870500Y-108869316D01*
X149870500Y-108520684D01*
X149864068Y-108471827D01*
X149814065Y-108364596D01*
X149730404Y-108280935D01*
X149722733Y-108273264D01*
X149725561Y-108270435D01*
X149694843Y-108232023D01*
X149687635Y-108162526D01*
X149719143Y-108100165D01*
X149722903Y-108096906D01*
X149722733Y-108096736D01*
X149758210Y-108061259D01*
X149814065Y-108005404D01*
X149864068Y-107898173D01*
X149870500Y-107849316D01*
X149870500Y-107500684D01*
X149864068Y-107451827D01*
X149814065Y-107344596D01*
X149801984Y-107332515D01*
X149781564Y-107305580D01*
X149777204Y-107297820D01*
X149761528Y-107229735D01*
X149780084Y-107171482D01*
X149931793Y-106928147D01*
X149949340Y-106906068D01*
X149949658Y-106905751D01*
X150009951Y-106787420D01*
X150009951Y-106787418D01*
X150009952Y-106787417D01*
X150025500Y-106689251D01*
X150025500Y-106185748D01*
X150009952Y-106087582D01*
X150009951Y-106087580D01*
X149949658Y-105969249D01*
X149949654Y-105969245D01*
X149949653Y-105969243D01*
X149902622Y-105922212D01*
X149869137Y-105860889D01*
X149874121Y-105791197D01*
X149915993Y-105735264D01*
X149925207Y-105728992D01*
X150055078Y-105648887D01*
X150055079Y-105648886D01*
X150162319Y-105541647D01*
X150223642Y-105508162D01*
X150293334Y-105513146D01*
G37*
%TD.AperFunction*%
%TA.AperFunction,Conductor*%
G36*
X155151165Y-109085371D02*
G01*
X155182595Y-109085767D01*
X155185739Y-109087844D01*
X155189499Y-109088113D01*
X155214668Y-109106954D01*
X155240893Y-109124278D01*
X155243603Y-109128614D01*
X155245433Y-109129984D01*
X155259599Y-109154207D01*
X155267792Y-109172762D01*
X155267794Y-109172765D01*
X155347235Y-109252206D01*
X155450009Y-109297585D01*
X155475135Y-109300500D01*
X155866363Y-109300499D01*
X155896484Y-109309343D01*
X155927063Y-109316372D01*
X155930467Y-109319321D01*
X155933402Y-109320183D01*
X155955067Y-109337853D01*
X155964357Y-109347363D01*
X155967040Y-109352011D01*
X156047071Y-109432042D01*
X156047577Y-109432560D01*
X156047753Y-109432892D01*
X156057228Y-109443693D01*
X156059350Y-109446457D01*
X156066258Y-109454867D01*
X156067930Y-109456903D01*
X156068992Y-109458113D01*
X156070133Y-109459400D01*
X156076399Y-109463846D01*
X156092323Y-109477294D01*
X156674542Y-110059513D01*
X156730491Y-110115462D01*
X156730493Y-110115463D01*
X156730497Y-110115466D01*
X156799006Y-110155019D01*
X156799013Y-110155023D01*
X156875440Y-110175502D01*
X156954564Y-110175502D01*
X158455568Y-110175502D01*
X158522607Y-110195187D01*
X158568362Y-110247991D01*
X158578306Y-110317149D01*
X158566968Y-110353963D01*
X158510276Y-110469925D01*
X158506235Y-110497663D01*
X158499500Y-110543890D01*
X158499500Y-110543895D01*
X158499500Y-110891502D01*
X158479815Y-110958541D01*
X158454883Y-110986761D01*
X158084087Y-111295759D01*
X158019984Y-111323555D01*
X158004704Y-111324500D01*
X157943982Y-111324500D01*
X157835763Y-111353497D01*
X157835760Y-111353498D01*
X157738740Y-111409513D01*
X157738734Y-111409517D01*
X157659517Y-111488734D01*
X157659513Y-111488740D01*
X157603498Y-111585760D01*
X157603497Y-111585763D01*
X157574500Y-111693982D01*
X157574500Y-111806018D01*
X157603497Y-111914237D01*
X157659515Y-112011263D01*
X157738737Y-112090485D01*
X157835763Y-112146503D01*
X157943982Y-112175500D01*
X157943984Y-112175500D01*
X158056015Y-112175500D01*
X158056018Y-112175500D01*
X158164237Y-112146503D01*
X158164240Y-112146501D01*
X158170675Y-112144777D01*
X158177031Y-112144928D01*
X158182762Y-112142177D01*
X158211533Y-112145749D01*
X158240525Y-112146440D01*
X158247374Y-112150200D01*
X158252099Y-112150787D01*
X158282150Y-112169292D01*
X158439912Y-112300760D01*
X158454883Y-112313236D01*
X158493782Y-112371275D01*
X158499500Y-112408495D01*
X158499500Y-112756110D01*
X158501457Y-112769540D01*
X158510276Y-112830075D01*
X158511144Y-112831849D01*
X158520324Y-112857396D01*
X158521154Y-112860859D01*
X158521155Y-112860864D01*
X158521156Y-112860865D01*
X158578263Y-113025746D01*
X158752671Y-113529299D01*
X158757584Y-113548171D01*
X158759500Y-113558944D01*
X158759500Y-113605892D01*
X158784327Y-113698548D01*
X158785259Y-113703789D01*
X158781997Y-113733433D01*
X158781287Y-113763256D01*
X158778216Y-113767793D01*
X158777617Y-113773239D01*
X158758844Y-113796415D01*
X158742125Y-113821119D01*
X158737088Y-113823275D01*
X158733640Y-113827533D01*
X158705313Y-113836882D01*
X158677896Y-113848623D01*
X158667946Y-113849215D01*
X158667291Y-113849432D01*
X158666732Y-113849288D01*
X158663175Y-113849500D01*
X156875833Y-113849500D01*
X156808794Y-113829815D01*
X156788152Y-113813181D01*
X154556819Y-111581848D01*
X154523334Y-111520525D01*
X154520500Y-111494167D01*
X154520500Y-109705962D01*
X154540185Y-109638923D01*
X154556815Y-109618285D01*
X155058487Y-109116612D01*
X155086074Y-109101549D01*
X155112731Y-109084888D01*
X155116499Y-109084935D01*
X155119808Y-109083129D01*
X155151165Y-109085371D01*
G37*
%TD.AperFunction*%
%TA.AperFunction,Conductor*%
G36*
X155192708Y-103020185D02*
G01*
X155238463Y-103072989D01*
X155248407Y-103142147D01*
X155219382Y-103205703D01*
X155213350Y-103212181D01*
X155155935Y-103269595D01*
X155105931Y-103376828D01*
X155099500Y-103425683D01*
X155099500Y-103874316D01*
X155105931Y-103923167D01*
X155105934Y-103923179D01*
X155115613Y-103943937D01*
X155124012Y-103968276D01*
X155126511Y-103979035D01*
X155190306Y-104120160D01*
X155258232Y-104270424D01*
X155258492Y-104270998D01*
X155260706Y-104281272D01*
X155264477Y-104287140D01*
X155269500Y-104322075D01*
X155269500Y-104375669D01*
X155249815Y-104442708D01*
X155197011Y-104488463D01*
X155127853Y-104498407D01*
X155064297Y-104469382D01*
X155057819Y-104463350D01*
X154980404Y-104385935D01*
X154971333Y-104381705D01*
X154873173Y-104335932D01*
X154873171Y-104335931D01*
X154873172Y-104335931D01*
X154824317Y-104329500D01*
X154824316Y-104329500D01*
X154792979Y-104329500D01*
X154742644Y-104318824D01*
X154405949Y-104169274D01*
X154368603Y-104143631D01*
X154120477Y-103895505D01*
X154120474Y-103895503D01*
X154114370Y-103891979D01*
X154075085Y-103869298D01*
X154051953Y-103855942D01*
X154026476Y-103849115D01*
X153975525Y-103835463D01*
X153975523Y-103835463D01*
X153814770Y-103835463D01*
X153779100Y-103830222D01*
X153419318Y-103722160D01*
X153410298Y-103719673D01*
X153409278Y-103719416D01*
X153406279Y-103719335D01*
X153377571Y-103715157D01*
X153360053Y-103710463D01*
X153360048Y-103710463D01*
X153248012Y-103710463D01*
X153139793Y-103739460D01*
X153139790Y-103739461D01*
X153042770Y-103795476D01*
X153042764Y-103795480D01*
X152963547Y-103874697D01*
X152963543Y-103874703D01*
X152907528Y-103971723D01*
X152907527Y-103971726D01*
X152878530Y-104079945D01*
X152878530Y-104191981D01*
X152906253Y-104295443D01*
X152907527Y-104300199D01*
X152907528Y-104300202D01*
X152922378Y-104325922D01*
X152963545Y-104397226D01*
X153042767Y-104476448D01*
X153097890Y-104508273D01*
X153146105Y-104558840D01*
X153159183Y-104621625D01*
X153159500Y-104621625D01*
X153159500Y-104623145D01*
X153159626Y-104623750D01*
X153159500Y-104625677D01*
X153159500Y-105074316D01*
X153165931Y-105123167D01*
X153165934Y-105123179D01*
X153175613Y-105143937D01*
X153178956Y-105151804D01*
X153182060Y-105159871D01*
X153186512Y-105179036D01*
X153206166Y-105222515D01*
X153207448Y-105225846D01*
X153210022Y-105257268D01*
X153214320Y-105288001D01*
X153214381Y-105288010D01*
X153214351Y-105288224D01*
X153214390Y-105288500D01*
X153214140Y-105289754D01*
X153213453Y-105294747D01*
X153213372Y-105297750D01*
X153209195Y-105326455D01*
X153204500Y-105343977D01*
X153204500Y-105456020D01*
X153207358Y-105466686D01*
X153206847Y-105488089D01*
X153211155Y-105509060D01*
X153205861Y-105529468D01*
X153205693Y-105536536D01*
X153203252Y-105543458D01*
X153202000Y-105546697D01*
X153186510Y-105580966D01*
X153176119Y-105613695D01*
X153174747Y-105617250D01*
X153174185Y-105617981D01*
X153171461Y-105624969D01*
X153165933Y-105636823D01*
X153165931Y-105636832D01*
X153159500Y-105685683D01*
X153159500Y-106134319D01*
X153164441Y-106171854D01*
X153153675Y-106240889D01*
X153129184Y-106275718D01*
X153010282Y-106394620D01*
X153010278Y-106394625D01*
X152927968Y-106533804D01*
X152927966Y-106533809D01*
X152882855Y-106689081D01*
X152882854Y-106689087D01*
X152881209Y-106709999D01*
X152881210Y-106710000D01*
X153536000Y-106710000D01*
X153603039Y-106729685D01*
X153648794Y-106782489D01*
X153660000Y-106834000D01*
X153660000Y-106960000D01*
X153786000Y-106960000D01*
X153853039Y-106979685D01*
X153898794Y-107032489D01*
X153910000Y-107084000D01*
X153910000Y-107764503D01*
X154056195Y-107722031D01*
X154195374Y-107639721D01*
X154195383Y-107639714D01*
X154309714Y-107525383D01*
X154314499Y-107519215D01*
X154316459Y-107520735D01*
X154358583Y-107481382D01*
X154427321Y-107468858D01*
X154430443Y-107469228D01*
X154440099Y-107470500D01*
X154799900Y-107470499D01*
X154849487Y-107463972D01*
X154958316Y-107413224D01*
X154958316Y-107413223D01*
X154961759Y-107411618D01*
X155014164Y-107400000D01*
X157487010Y-107400000D01*
X157487011Y-107399998D01*
X157479557Y-107343372D01*
X157479555Y-107343366D01*
X157419100Y-107197414D01*
X157322922Y-107072073D01*
X157244012Y-107011522D01*
X157202810Y-106955094D01*
X157195499Y-106913147D01*
X157195499Y-106805143D01*
X157195499Y-106805136D01*
X157195497Y-106805117D01*
X157192586Y-106780012D01*
X157192585Y-106780008D01*
X157152439Y-106689087D01*
X157147206Y-106677235D01*
X157147205Y-106677234D01*
X157146257Y-106675086D01*
X157137185Y-106605808D01*
X157146257Y-106574913D01*
X157147204Y-106572766D01*
X157147206Y-106572765D01*
X157192585Y-106469991D01*
X157195500Y-106444865D01*
X157195499Y-106155136D01*
X157193085Y-106134319D01*
X157192586Y-106130012D01*
X157192585Y-106130008D01*
X157146257Y-106025086D01*
X157137185Y-105955808D01*
X157146257Y-105924913D01*
X157147204Y-105922766D01*
X157147206Y-105922765D01*
X157192585Y-105819991D01*
X157195500Y-105794865D01*
X157195499Y-105505136D01*
X157195497Y-105505117D01*
X157192586Y-105480012D01*
X157192585Y-105480008D01*
X157156607Y-105398527D01*
X157147206Y-105377235D01*
X157147205Y-105377234D01*
X157146257Y-105375086D01*
X157137185Y-105305808D01*
X157146257Y-105274913D01*
X157147204Y-105272766D01*
X157147206Y-105272765D01*
X157192585Y-105169991D01*
X157195500Y-105144865D01*
X157195499Y-104855136D01*
X157195497Y-104855117D01*
X157192586Y-104830012D01*
X157192585Y-104830010D01*
X157192585Y-104830009D01*
X157147206Y-104727235D01*
X157067765Y-104647794D01*
X157035752Y-104633659D01*
X156964992Y-104602415D01*
X156939868Y-104599500D01*
X156939865Y-104599500D01*
X156400802Y-104599500D01*
X156386656Y-104595935D01*
X156375193Y-104596827D01*
X156342049Y-104584697D01*
X156236889Y-104528116D01*
X156231856Y-104525255D01*
X156109143Y-104451627D01*
X156059618Y-104421912D01*
X156035735Y-104403264D01*
X155948973Y-104316502D01*
X155915488Y-104255179D01*
X155920472Y-104185487D01*
X155923644Y-104177784D01*
X155974202Y-104065941D01*
X156019752Y-104012966D01*
X156086715Y-103993024D01*
X156153830Y-104012451D01*
X156174873Y-104029342D01*
X156175935Y-104030404D01*
X156259596Y-104114065D01*
X156366827Y-104164068D01*
X156415683Y-104170500D01*
X156415684Y-104170500D01*
X156764317Y-104170500D01*
X156780601Y-104168356D01*
X156813173Y-104164068D01*
X156920404Y-104114065D01*
X156932485Y-104101983D01*
X156959420Y-104081562D01*
X157009072Y-104053663D01*
X157077160Y-104037986D01*
X157105483Y-104043008D01*
X157174715Y-104063803D01*
X157180320Y-104065348D01*
X157183712Y-104066284D01*
X157184745Y-104066544D01*
X157184746Y-104066544D01*
X157184750Y-104066545D01*
X157187733Y-104066626D01*
X157216455Y-104070803D01*
X157233982Y-104075500D01*
X157233985Y-104075500D01*
X157346016Y-104075500D01*
X157346018Y-104075500D01*
X157454237Y-104046503D01*
X157551263Y-103990485D01*
X157630485Y-103911263D01*
X157686503Y-103814237D01*
X157715500Y-103706018D01*
X157715500Y-103593982D01*
X157686503Y-103485763D01*
X157630485Y-103388737D01*
X157551263Y-103309515D01*
X157454237Y-103253497D01*
X157419816Y-103244274D01*
X157360157Y-103207910D01*
X157329628Y-103145063D01*
X157337922Y-103075688D01*
X157382408Y-103021810D01*
X157448960Y-103000535D01*
X157451911Y-103000500D01*
X160698089Y-103000500D01*
X160765128Y-103020185D01*
X160810883Y-103072989D01*
X160820827Y-103142147D01*
X160791802Y-103205703D01*
X160733024Y-103243477D01*
X160730219Y-103244264D01*
X160695763Y-103253497D01*
X160695760Y-103253498D01*
X160598740Y-103309513D01*
X160598734Y-103309517D01*
X160519517Y-103388734D01*
X160519513Y-103388740D01*
X160463498Y-103485760D01*
X160463497Y-103485763D01*
X160434500Y-103593982D01*
X160434500Y-103706018D01*
X160463497Y-103814237D01*
X160519515Y-103911263D01*
X160598737Y-103990485D01*
X160695763Y-104046503D01*
X160803982Y-104075500D01*
X160803984Y-104075500D01*
X160916018Y-104075500D01*
X160941040Y-104068794D01*
X160944144Y-104068006D01*
X160952608Y-104065973D01*
X160975284Y-104063803D01*
X161029681Y-104047464D01*
X161033056Y-104046654D01*
X161064611Y-104048230D01*
X161096209Y-104048035D01*
X161099246Y-104049960D01*
X161102839Y-104050140D01*
X161128537Y-104068529D01*
X161155220Y-104085445D01*
X161156734Y-104088706D01*
X161159659Y-104090800D01*
X161171333Y-104120160D01*
X161184637Y-104148820D01*
X161184346Y-104152884D01*
X161185476Y-104155725D01*
X161183372Y-104166506D01*
X161180770Y-104202894D01*
X161156204Y-104284684D01*
X161153710Y-104293730D01*
X161153453Y-104294750D01*
X161153372Y-104297750D01*
X161149195Y-104326455D01*
X161144500Y-104343977D01*
X161144500Y-104343982D01*
X161144500Y-104456018D01*
X161155308Y-104496357D01*
X161153646Y-104566205D01*
X161114484Y-104624068D01*
X161085624Y-104641882D01*
X161072234Y-104647794D01*
X160992794Y-104727234D01*
X160947415Y-104830006D01*
X160947415Y-104830008D01*
X160944500Y-104855131D01*
X160944500Y-105144856D01*
X160944502Y-105144882D01*
X160947413Y-105169986D01*
X160947414Y-105169990D01*
X160947415Y-105169991D01*
X160992794Y-105272765D01*
X160992795Y-105272766D01*
X160993743Y-105274913D01*
X161002814Y-105344191D01*
X160993743Y-105375085D01*
X160947415Y-105480009D01*
X160944500Y-105505131D01*
X160944500Y-105794856D01*
X160944502Y-105794882D01*
X160947413Y-105819986D01*
X160947414Y-105819990D01*
X160947415Y-105819991D01*
X160992794Y-105922765D01*
X160992795Y-105922766D01*
X160993743Y-105924913D01*
X161002814Y-105994191D01*
X160993743Y-106025085D01*
X160947415Y-106130009D01*
X160944500Y-106155131D01*
X160944500Y-106444856D01*
X160944502Y-106444882D01*
X160947413Y-106469986D01*
X160947414Y-106469990D01*
X160947415Y-106469991D01*
X160992794Y-106572765D01*
X160992795Y-106572766D01*
X160993743Y-106574913D01*
X161002814Y-106644191D01*
X160993743Y-106675085D01*
X160947415Y-106780009D01*
X160944500Y-106805131D01*
X160944500Y-107094856D01*
X160944502Y-107094882D01*
X160947413Y-107119986D01*
X160947414Y-107119990D01*
X160947415Y-107119991D01*
X160992794Y-107222765D01*
X160992795Y-107222766D01*
X160993743Y-107224913D01*
X161002814Y-107294191D01*
X160993743Y-107325085D01*
X160947415Y-107430009D01*
X160944500Y-107455131D01*
X160944500Y-107744856D01*
X160944502Y-107744882D01*
X160947413Y-107769986D01*
X160947414Y-107769990D01*
X160947415Y-107769991D01*
X160992794Y-107872765D01*
X160992795Y-107872766D01*
X160993743Y-107874913D01*
X161002814Y-107944191D01*
X160993743Y-107975085D01*
X160947415Y-108080009D01*
X160944500Y-108105131D01*
X160944500Y-108213148D01*
X160924815Y-108280187D01*
X160895987Y-108311523D01*
X160817077Y-108372073D01*
X160720899Y-108497413D01*
X160660444Y-108643368D01*
X160652987Y-108700000D01*
X161808500Y-108700000D01*
X161875539Y-108719685D01*
X161921294Y-108772489D01*
X161932500Y-108824000D01*
X161932500Y-108900000D01*
X162008500Y-108900000D01*
X162075539Y-108919685D01*
X162121294Y-108972489D01*
X162132500Y-109024000D01*
X162132500Y-109599999D01*
X162659323Y-109599999D01*
X162766206Y-109585928D01*
X162835241Y-109596694D01*
X162887497Y-109643074D01*
X162906382Y-109710343D01*
X162905749Y-109721470D01*
X162895000Y-109826677D01*
X162895000Y-109850000D01*
X166444999Y-109850000D01*
X166444999Y-109826692D01*
X166444998Y-109826677D01*
X166434855Y-109727392D01*
X166381547Y-109566518D01*
X166381542Y-109566507D01*
X166292575Y-109422271D01*
X166292572Y-109422267D01*
X166172732Y-109302427D01*
X166172728Y-109302424D01*
X166072159Y-109240392D01*
X166025434Y-109188444D01*
X166014213Y-109119482D01*
X166042056Y-109055400D01*
X166049565Y-109047182D01*
X166068528Y-109028220D01*
X166129719Y-108908126D01*
X166129969Y-108906550D01*
X166145500Y-108808493D01*
X166145500Y-108779144D01*
X166153093Y-108736420D01*
X166155446Y-108730009D01*
X166330555Y-108252900D01*
X166344023Y-108234709D01*
X166353491Y-108214143D01*
X166367579Y-108202896D01*
X166372130Y-108196751D01*
X166380234Y-108191111D01*
X166384126Y-108188626D01*
X166411084Y-108174122D01*
X166419246Y-108169487D01*
X166420160Y-108168940D01*
X166430902Y-108158763D01*
X166440866Y-108152402D01*
X166442305Y-108151983D01*
X166445592Y-108149531D01*
X166461263Y-108140485D01*
X166540485Y-108061263D01*
X166596503Y-107964237D01*
X166625500Y-107856018D01*
X166625500Y-107743982D01*
X166615481Y-107706590D01*
X166617144Y-107636744D01*
X166656306Y-107578882D01*
X166720534Y-107551377D01*
X166735256Y-107550500D01*
X167184167Y-107550500D01*
X167251206Y-107570185D01*
X167271848Y-107586819D01*
X172783181Y-113098152D01*
X172816666Y-113159475D01*
X172819500Y-113185833D01*
X172819500Y-119280925D01*
X172799815Y-119347964D01*
X172754451Y-119390016D01*
X171622183Y-120001872D01*
X171622182Y-120001871D01*
X171616560Y-120004908D01*
X171582402Y-120019059D01*
X171548669Y-120041597D01*
X171543548Y-120044365D01*
X171543546Y-120044367D01*
X171521363Y-120056355D01*
X171521343Y-120056366D01*
X171516950Y-120058872D01*
X171513153Y-120061038D01*
X171512255Y-120061578D01*
X171512254Y-120061579D01*
X171504665Y-120068804D01*
X171488062Y-120082091D01*
X171410347Y-120134020D01*
X171410338Y-120134029D01*
X171264025Y-120280341D01*
X171264024Y-120280342D01*
X171149057Y-120452403D01*
X171080835Y-120617108D01*
X171036994Y-120671511D01*
X170970700Y-120693576D01*
X170903000Y-120676297D01*
X170855390Y-120625159D01*
X170848343Y-120607973D01*
X170791095Y-120431782D01*
X170694620Y-120242442D01*
X170569727Y-120070540D01*
X170569723Y-120070535D01*
X170419464Y-119920276D01*
X170419459Y-119920272D01*
X170247557Y-119795379D01*
X170058215Y-119698903D01*
X169856124Y-119633241D01*
X169790000Y-119622768D01*
X169790000Y-120516988D01*
X169732993Y-120484075D01*
X169605826Y-120450000D01*
X169474174Y-120450000D01*
X169347007Y-120484075D01*
X169290000Y-120516988D01*
X169290000Y-119622768D01*
X169289999Y-119622768D01*
X169223875Y-119633241D01*
X169021784Y-119698903D01*
X168832442Y-119795379D01*
X168660540Y-119920272D01*
X168660535Y-119920276D01*
X168510276Y-120070535D01*
X168510272Y-120070540D01*
X168385379Y-120242442D01*
X168286694Y-120436121D01*
X168285678Y-120435603D01*
X168245212Y-120485813D01*
X168178916Y-120507872D01*
X168111218Y-120490588D01*
X168063612Y-120439447D01*
X168050500Y-120383951D01*
X168050500Y-120080249D01*
X168050499Y-120080247D01*
X168038868Y-120021770D01*
X168038867Y-120021768D01*
X168007773Y-119975234D01*
X168004627Y-119970276D01*
X167994516Y-119953473D01*
X167994515Y-119953472D01*
X167740795Y-119674511D01*
X167543948Y-119458080D01*
X167513404Y-119395243D01*
X167521682Y-119325865D01*
X167547998Y-119286971D01*
X168304507Y-118530463D01*
X170273087Y-118530463D01*
X170273087Y-118530464D01*
X170340782Y-118642447D01*
X170457551Y-118759216D01*
X170457555Y-118759219D01*
X170598868Y-118844645D01*
X170598876Y-118844648D01*
X170756525Y-118893773D01*
X170756524Y-118893773D01*
X170825045Y-118900000D01*
X171774955Y-118900000D01*
X171843475Y-118893773D01*
X172001123Y-118844648D01*
X172001131Y-118844645D01*
X172142444Y-118759219D01*
X172142448Y-118759216D01*
X172259218Y-118642446D01*
X172326912Y-118530464D01*
X172326911Y-118530462D01*
X171300000Y-117503552D01*
X170273087Y-118530463D01*
X168304507Y-118530463D01*
X168938523Y-117896448D01*
X170200000Y-117896448D01*
X170946448Y-117150000D01*
X170946448Y-117149999D01*
X171653552Y-117149999D01*
X171653552Y-117150000D01*
X172399999Y-117896448D01*
X172400000Y-117896447D01*
X172400000Y-116403552D01*
X172399999Y-116403551D01*
X171653552Y-117149999D01*
X170946448Y-117149999D01*
X170200000Y-116403551D01*
X170200000Y-117896448D01*
X168938523Y-117896448D01*
X169240460Y-117594511D01*
X169251436Y-117575500D01*
X169280021Y-117525989D01*
X169300500Y-117449562D01*
X169300500Y-115769535D01*
X170273087Y-115769535D01*
X171300000Y-116796448D01*
X171300001Y-116796448D01*
X172326911Y-115769535D01*
X172326911Y-115769534D01*
X172259215Y-115657550D01*
X172142448Y-115540783D01*
X172142444Y-115540780D01*
X172001131Y-115455354D01*
X172001123Y-115455351D01*
X171843474Y-115406226D01*
X171843475Y-115406226D01*
X171774955Y-115400000D01*
X170825045Y-115400000D01*
X170756524Y-115406226D01*
X170598876Y-115455351D01*
X170598868Y-115455354D01*
X170457555Y-115540780D01*
X170340785Y-115657549D01*
X170273087Y-115769535D01*
X169300500Y-115769535D01*
X169300500Y-114815832D01*
X169320185Y-114748793D01*
X169336814Y-114728156D01*
X171026341Y-113038628D01*
X171055262Y-113017116D01*
X171386084Y-112839122D01*
X171394246Y-112834487D01*
X171395160Y-112833940D01*
X171397314Y-112831899D01*
X171420592Y-112814531D01*
X171436263Y-112805485D01*
X171515485Y-112726263D01*
X171571503Y-112629237D01*
X171600500Y-112521018D01*
X171600500Y-112408982D01*
X171571503Y-112300763D01*
X171515485Y-112203737D01*
X171436263Y-112124515D01*
X171339237Y-112068497D01*
X171231018Y-112039500D01*
X171118982Y-112039500D01*
X171010763Y-112068497D01*
X171010760Y-112068498D01*
X170913740Y-112124513D01*
X170913738Y-112124514D01*
X170834514Y-112203737D01*
X170821579Y-112226141D01*
X170809833Y-112243063D01*
X170800881Y-112253909D01*
X170800875Y-112253918D01*
X170622882Y-112584733D01*
X170601366Y-112613661D01*
X168815489Y-114399540D01*
X168759541Y-114455487D01*
X168759535Y-114455495D01*
X168719982Y-114524004D01*
X168719979Y-114524009D01*
X168699500Y-114600439D01*
X168699500Y-117234166D01*
X168679815Y-117301205D01*
X168663181Y-117321847D01*
X166915512Y-119069515D01*
X166898951Y-119083411D01*
X166885716Y-119092677D01*
X166136343Y-119875426D01*
X166082913Y-119906129D01*
X166083051Y-119906460D01*
X166080498Y-119907517D01*
X166075764Y-119910238D01*
X166071860Y-119911095D01*
X166071766Y-119911134D01*
X166005447Y-119955447D01*
X165961132Y-120021769D01*
X165961131Y-120021770D01*
X165949500Y-120080247D01*
X165949500Y-121819752D01*
X165961131Y-121878229D01*
X165961132Y-121878230D01*
X166005447Y-121944552D01*
X166071769Y-121988867D01*
X166071770Y-121988868D01*
X166130247Y-122000499D01*
X166130250Y-122000500D01*
X166130252Y-122000500D01*
X167869750Y-122000500D01*
X167869751Y-122000499D01*
X167884568Y-121997552D01*
X167928229Y-121988868D01*
X167928229Y-121988867D01*
X167928231Y-121988867D01*
X167994552Y-121944552D01*
X168038867Y-121878231D01*
X168038867Y-121878229D01*
X168038868Y-121878229D01*
X168050499Y-121819752D01*
X168050500Y-121819750D01*
X168050500Y-121516048D01*
X168070185Y-121449009D01*
X168122989Y-121403254D01*
X168192147Y-121393310D01*
X168255703Y-121422335D01*
X168285938Y-121464264D01*
X168286694Y-121463879D01*
X168385379Y-121657557D01*
X168510272Y-121829459D01*
X168510276Y-121829464D01*
X168660535Y-121979723D01*
X168660540Y-121979727D01*
X168832442Y-122104620D01*
X169021782Y-122201095D01*
X169223871Y-122266757D01*
X169290000Y-122277231D01*
X169290000Y-121383012D01*
X169347007Y-121415925D01*
X169474174Y-121450000D01*
X169605826Y-121450000D01*
X169732993Y-121415925D01*
X169790000Y-121383012D01*
X169790000Y-122277231D01*
X169856126Y-122266757D01*
X169856129Y-122266757D01*
X170058217Y-122201095D01*
X170247557Y-122104620D01*
X170419459Y-121979727D01*
X170419464Y-121979723D01*
X170569723Y-121829464D01*
X170569727Y-121829459D01*
X170694620Y-121657557D01*
X170791095Y-121468217D01*
X170848343Y-121292026D01*
X170887780Y-121234351D01*
X170952139Y-121207152D01*
X171020985Y-121219066D01*
X171072461Y-121266310D01*
X171080835Y-121282891D01*
X171135939Y-121415925D01*
X171149059Y-121447598D01*
X171191856Y-121511649D01*
X171264024Y-121619657D01*
X171410342Y-121765975D01*
X171410345Y-121765977D01*
X171582402Y-121880941D01*
X171773580Y-121960130D01*
X171918052Y-121988867D01*
X171976530Y-122000499D01*
X171976534Y-122000500D01*
X171976535Y-122000500D01*
X172183466Y-122000500D01*
X172183467Y-122000499D01*
X172386420Y-121960130D01*
X172577598Y-121880941D01*
X172749655Y-121765977D01*
X172895977Y-121619655D01*
X173010941Y-121447598D01*
X173079165Y-121282889D01*
X173123004Y-121228488D01*
X173189298Y-121206423D01*
X173256998Y-121223702D01*
X173304609Y-121274839D01*
X173311656Y-121292026D01*
X173368904Y-121468216D01*
X173465379Y-121657557D01*
X173590272Y-121829459D01*
X173590276Y-121829464D01*
X173740535Y-121979723D01*
X173740540Y-121979727D01*
X173912442Y-122104620D01*
X174101782Y-122201095D01*
X174303871Y-122266757D01*
X174370000Y-122277231D01*
X174370000Y-121383012D01*
X174427007Y-121415925D01*
X174554174Y-121450000D01*
X174685826Y-121450000D01*
X174812993Y-121415925D01*
X174870000Y-121383012D01*
X174870000Y-122277231D01*
X174936126Y-122266757D01*
X174936129Y-122266757D01*
X175138217Y-122201095D01*
X175327557Y-122104620D01*
X175499459Y-121979727D01*
X175499464Y-121979723D01*
X175649723Y-121829464D01*
X175649727Y-121829459D01*
X175774620Y-121657557D01*
X175871095Y-121468217D01*
X175936757Y-121266129D01*
X175936757Y-121266126D01*
X175947231Y-121200000D01*
X175053012Y-121200000D01*
X175085925Y-121142993D01*
X175120000Y-121015826D01*
X175120000Y-120884174D01*
X175085925Y-120757007D01*
X175053012Y-120700000D01*
X175947231Y-120700000D01*
X175936757Y-120633873D01*
X175936757Y-120633870D01*
X175871095Y-120431782D01*
X175774620Y-120242442D01*
X175649727Y-120070540D01*
X175649723Y-120070535D01*
X175499464Y-119920276D01*
X175499459Y-119920272D01*
X175327557Y-119795379D01*
X175138215Y-119698903D01*
X174936124Y-119633241D01*
X174870000Y-119622768D01*
X174870000Y-120516988D01*
X174812993Y-120484075D01*
X174685826Y-120450000D01*
X174554174Y-120450000D01*
X174427007Y-120484075D01*
X174370000Y-120516988D01*
X174370000Y-119622768D01*
X174369999Y-119622768D01*
X174303875Y-119633241D01*
X174101784Y-119698903D01*
X173912442Y-119795379D01*
X173740540Y-119920272D01*
X173740535Y-119920276D01*
X173590276Y-120070535D01*
X173590272Y-120070540D01*
X173462513Y-120246387D01*
X173460944Y-120245247D01*
X173415204Y-120286602D01*
X173346270Y-120298002D01*
X173282117Y-120270323D01*
X173243112Y-120212354D01*
X173238253Y-120159790D01*
X173283940Y-119788185D01*
X173311657Y-119724052D01*
X173319333Y-119715637D01*
X173324785Y-119710185D01*
X173360460Y-119674511D01*
X173374346Y-119650460D01*
X173400021Y-119605989D01*
X173420500Y-119529562D01*
X173420500Y-112970438D01*
X173400021Y-112894011D01*
X173391054Y-112878480D01*
X173360464Y-112825495D01*
X173360458Y-112825487D01*
X172937839Y-112402868D01*
X172853205Y-112318234D01*
X173800000Y-112318234D01*
X173800000Y-112681765D01*
X173835632Y-113043556D01*
X173906550Y-113400090D01*
X173906553Y-113400101D01*
X174012086Y-113747997D01*
X174151207Y-114083864D01*
X174151209Y-114083869D01*
X174322570Y-114404462D01*
X174322581Y-114404480D01*
X174524551Y-114706750D01*
X174711678Y-114934765D01*
X174711679Y-114934766D01*
X176205747Y-113440697D01*
X176279588Y-113542330D01*
X176457670Y-113720412D01*
X176559301Y-113794251D01*
X175065232Y-115288319D01*
X175065233Y-115288320D01*
X175293249Y-115475448D01*
X175595519Y-115677418D01*
X175595537Y-115677429D01*
X175916130Y-115848790D01*
X175916135Y-115848792D01*
X176252002Y-115987913D01*
X176599898Y-116093446D01*
X176599909Y-116093449D01*
X176956443Y-116164367D01*
X177318234Y-116200000D01*
X177681766Y-116200000D01*
X178043556Y-116164367D01*
X178400090Y-116093449D01*
X178400101Y-116093446D01*
X178747997Y-115987913D01*
X179083864Y-115848792D01*
X179083869Y-115848790D01*
X179404462Y-115677429D01*
X179404480Y-115677418D01*
X179706736Y-115475457D01*
X179706750Y-115475447D01*
X179934765Y-115288320D01*
X179934766Y-115288319D01*
X178440698Y-113794251D01*
X178542330Y-113720412D01*
X178720412Y-113542330D01*
X178794251Y-113440698D01*
X180288319Y-114934766D01*
X180288320Y-114934765D01*
X180475447Y-114706750D01*
X180475457Y-114706736D01*
X180677418Y-114404480D01*
X180677429Y-114404462D01*
X180848790Y-114083869D01*
X180848792Y-114083864D01*
X180987913Y-113747997D01*
X181093446Y-113400101D01*
X181093449Y-113400090D01*
X181164367Y-113043556D01*
X181200000Y-112681765D01*
X181200000Y-112318234D01*
X181164367Y-111956443D01*
X181093449Y-111599909D01*
X181093446Y-111599898D01*
X180987913Y-111252002D01*
X180848792Y-110916135D01*
X180848790Y-110916130D01*
X180677429Y-110595537D01*
X180677418Y-110595519D01*
X180475448Y-110293249D01*
X180288320Y-110065233D01*
X180288319Y-110065232D01*
X178794251Y-111559300D01*
X178720412Y-111457670D01*
X178542330Y-111279588D01*
X178440698Y-111205748D01*
X179934766Y-109711679D01*
X179934765Y-109711678D01*
X179706750Y-109524551D01*
X179404480Y-109322581D01*
X179404462Y-109322570D01*
X179083869Y-109151209D01*
X179083864Y-109151207D01*
X178747997Y-109012086D01*
X178400101Y-108906553D01*
X178400090Y-108906550D01*
X178043556Y-108835632D01*
X177681766Y-108800000D01*
X177318234Y-108800000D01*
X176956443Y-108835632D01*
X176599909Y-108906550D01*
X176599898Y-108906553D01*
X176252002Y-109012086D01*
X175916135Y-109151207D01*
X175916130Y-109151209D01*
X175595537Y-109322570D01*
X175595519Y-109322581D01*
X175293258Y-109524545D01*
X175293254Y-109524548D01*
X175065233Y-109711679D01*
X175065233Y-109711680D01*
X176559301Y-111205748D01*
X176457670Y-111279588D01*
X176279588Y-111457670D01*
X176205748Y-111559301D01*
X174711680Y-110065233D01*
X174711679Y-110065233D01*
X174524548Y-110293254D01*
X174524545Y-110293258D01*
X174322581Y-110595519D01*
X174322570Y-110595537D01*
X174151209Y-110916130D01*
X174151207Y-110916135D01*
X174012086Y-111252002D01*
X173906553Y-111599898D01*
X173906550Y-111599909D01*
X173835632Y-111956443D01*
X173800000Y-112318234D01*
X172853205Y-112318234D01*
X170383147Y-109848175D01*
X167971502Y-107436530D01*
X168949500Y-107436530D01*
X168949500Y-107643469D01*
X168989868Y-107846412D01*
X168989870Y-107846420D01*
X169051581Y-107995404D01*
X169069059Y-108037598D01*
X169114186Y-108105136D01*
X169184024Y-108209657D01*
X169330342Y-108355975D01*
X169330345Y-108355977D01*
X169502402Y-108470941D01*
X169693580Y-108550130D01*
X169896530Y-108590499D01*
X169896534Y-108590500D01*
X169896535Y-108590500D01*
X170103466Y-108590500D01*
X170103467Y-108590499D01*
X170306420Y-108550130D01*
X170497598Y-108470941D01*
X170669655Y-108355977D01*
X170815977Y-108209655D01*
X170930941Y-108037598D01*
X171010130Y-107846420D01*
X171050500Y-107643465D01*
X171050500Y-107436535D01*
X171010130Y-107233580D01*
X170930941Y-107042402D01*
X170815977Y-106870345D01*
X170815975Y-106870342D01*
X170669657Y-106724024D01*
X170574584Y-106660499D01*
X170497598Y-106609059D01*
X170489749Y-106605808D01*
X170306420Y-106529870D01*
X170306412Y-106529868D01*
X170103469Y-106489500D01*
X170103465Y-106489500D01*
X169896535Y-106489500D01*
X169896530Y-106489500D01*
X169693587Y-106529868D01*
X169693579Y-106529870D01*
X169502403Y-106609058D01*
X169330342Y-106724024D01*
X169184024Y-106870342D01*
X169069058Y-107042403D01*
X168989870Y-107233579D01*
X168989868Y-107233587D01*
X168949500Y-107436530D01*
X167971502Y-107436530D01*
X167544512Y-107009540D01*
X167538413Y-107006018D01*
X167538413Y-107006019D01*
X167475989Y-106969979D01*
X167475990Y-106969979D01*
X167450513Y-106963152D01*
X167399562Y-106949500D01*
X167399560Y-106949500D01*
X165181756Y-106949500D01*
X165158046Y-106942538D01*
X165123400Y-106934910D01*
X164888102Y-106809409D01*
X164838214Y-106760491D01*
X164822693Y-106692367D01*
X164846466Y-106626666D01*
X164888099Y-106590590D01*
X164996413Y-106532819D01*
X165064825Y-106518639D01*
X165090427Y-106523469D01*
X165224715Y-106563803D01*
X165233716Y-106566285D01*
X165233738Y-106566290D01*
X165233747Y-106566293D01*
X165234745Y-106566544D01*
X165234746Y-106566544D01*
X165234750Y-106566545D01*
X165237733Y-106566626D01*
X165266455Y-106570803D01*
X165283982Y-106575500D01*
X165283985Y-106575500D01*
X165396016Y-106575500D01*
X165396018Y-106575500D01*
X165504237Y-106546503D01*
X165601263Y-106490485D01*
X165680485Y-106411263D01*
X165736503Y-106314237D01*
X165765500Y-106206018D01*
X165765500Y-106093982D01*
X165736503Y-105985763D01*
X165736499Y-105985756D01*
X165733392Y-105978253D01*
X165735771Y-105977267D01*
X165722322Y-105921836D01*
X165745173Y-105855809D01*
X165800093Y-105812617D01*
X165807178Y-105810027D01*
X165953481Y-105761547D01*
X165953492Y-105761542D01*
X166097728Y-105672575D01*
X166097732Y-105672572D01*
X166217572Y-105552732D01*
X166217575Y-105552728D01*
X166306542Y-105408492D01*
X166306547Y-105408481D01*
X166359855Y-105247606D01*
X166369999Y-105148322D01*
X166370000Y-105148309D01*
X166370000Y-105100000D01*
X165544000Y-105100000D01*
X165476961Y-105080315D01*
X165431206Y-105027511D01*
X165420000Y-104976000D01*
X165420000Y-104850000D01*
X165294000Y-104850000D01*
X165226961Y-104830315D01*
X165181206Y-104777511D01*
X165170000Y-104726000D01*
X165170000Y-104600000D01*
X165670000Y-104600000D01*
X166369999Y-104600000D01*
X166369999Y-104551692D01*
X166369998Y-104551677D01*
X166359855Y-104452392D01*
X166306547Y-104291518D01*
X166306542Y-104291507D01*
X166243474Y-104189259D01*
X166243473Y-104189258D01*
X166217573Y-104147268D01*
X166200552Y-104130247D01*
X168949500Y-104130247D01*
X168949500Y-105869752D01*
X168961131Y-105928229D01*
X168961132Y-105928230D01*
X169005447Y-105994552D01*
X169071769Y-106038867D01*
X169071770Y-106038868D01*
X169130247Y-106050499D01*
X169130250Y-106050500D01*
X169130252Y-106050500D01*
X170869750Y-106050500D01*
X170869751Y-106050499D01*
X170884568Y-106047552D01*
X170928229Y-106038868D01*
X170928229Y-106038867D01*
X170928231Y-106038867D01*
X170994552Y-105994552D01*
X171038867Y-105928231D01*
X171038867Y-105928229D01*
X171038868Y-105928229D01*
X171050499Y-105869752D01*
X171050500Y-105869750D01*
X171050500Y-104130249D01*
X171050499Y-104130247D01*
X171038868Y-104071770D01*
X171038867Y-104071769D01*
X170994552Y-104005447D01*
X170928230Y-103961132D01*
X170928229Y-103961131D01*
X170869752Y-103949500D01*
X170869748Y-103949500D01*
X169130252Y-103949500D01*
X169130247Y-103949500D01*
X169071770Y-103961131D01*
X169071769Y-103961132D01*
X169005447Y-104005447D01*
X168961132Y-104071769D01*
X168961131Y-104071770D01*
X168949500Y-104130247D01*
X166200552Y-104130247D01*
X166097732Y-104027427D01*
X166097728Y-104027424D01*
X165953492Y-103938457D01*
X165953481Y-103938452D01*
X165792606Y-103885144D01*
X165693322Y-103875000D01*
X165670000Y-103875000D01*
X165670000Y-104600000D01*
X165170000Y-104600000D01*
X165170000Y-103874999D01*
X165146693Y-103875000D01*
X165146674Y-103875001D01*
X165047392Y-103885144D01*
X164886518Y-103938452D01*
X164886507Y-103938457D01*
X164742271Y-104027424D01*
X164742267Y-104027427D01*
X164622426Y-104147268D01*
X164560392Y-104247841D01*
X164508444Y-104294565D01*
X164439481Y-104305786D01*
X164375399Y-104277943D01*
X164367173Y-104270424D01*
X164348225Y-104251476D01*
X164348221Y-104251473D01*
X164348220Y-104251472D01*
X164228126Y-104190281D01*
X164228124Y-104190280D01*
X164228121Y-104190279D01*
X164128493Y-104174500D01*
X164128488Y-104174500D01*
X163611512Y-104174500D01*
X163611507Y-104174500D01*
X163511876Y-104190279D01*
X163434909Y-104229496D01*
X163366240Y-104242392D01*
X163301499Y-104216115D01*
X163261243Y-104159008D01*
X163258251Y-104089203D01*
X163260094Y-104083755D01*
X163259856Y-104083686D01*
X163307144Y-103920918D01*
X163307145Y-103920912D01*
X163308790Y-103900000D01*
X162654000Y-103900000D01*
X162586961Y-103880315D01*
X162541206Y-103827511D01*
X162530000Y-103776000D01*
X162530000Y-103524000D01*
X162549685Y-103456961D01*
X162602489Y-103411206D01*
X162654000Y-103400000D01*
X163308790Y-103400000D01*
X163307145Y-103379089D01*
X163262031Y-103223804D01*
X163262029Y-103223800D01*
X163240633Y-103187620D01*
X163223450Y-103119896D01*
X163245610Y-103053634D01*
X163300077Y-103009871D01*
X163347365Y-103000500D01*
X171184108Y-103000500D01*
X171245572Y-103000500D01*
X171254418Y-103000816D01*
X171454561Y-103015130D01*
X171472063Y-103017647D01*
X171663797Y-103059355D01*
X171680755Y-103064334D01*
X171829720Y-103119896D01*
X171864609Y-103132909D01*
X171880701Y-103140259D01*
X172052904Y-103234288D01*
X172067784Y-103243849D01*
X172155505Y-103309517D01*
X172224867Y-103361441D01*
X172238237Y-103373027D01*
X172376972Y-103511762D01*
X172388558Y-103525132D01*
X172506146Y-103682210D01*
X172515711Y-103697095D01*
X172609740Y-103869298D01*
X172617090Y-103885390D01*
X172685662Y-104069236D01*
X172690646Y-104086212D01*
X172732351Y-104277931D01*
X172734869Y-104295442D01*
X172744787Y-104434108D01*
X172747961Y-104478489D01*
X172749184Y-104495580D01*
X172749500Y-104504427D01*
X172749500Y-107434108D01*
X172749500Y-107565892D01*
X172763547Y-107618316D01*
X172783608Y-107693187D01*
X172812935Y-107743982D01*
X172849500Y-107807314D01*
X172942686Y-107900500D01*
X173056814Y-107966392D01*
X173184108Y-108000500D01*
X177434108Y-108000500D01*
X177497128Y-108000500D01*
X177502855Y-108000632D01*
X177909440Y-108019429D01*
X177920837Y-108020485D01*
X178321117Y-108076322D01*
X178332353Y-108078423D01*
X178725776Y-108170955D01*
X178736766Y-108174082D01*
X179119989Y-108302525D01*
X179130643Y-108306653D01*
X179500365Y-108469901D01*
X179510592Y-108474993D01*
X179738983Y-108602206D01*
X179863669Y-108671656D01*
X179873407Y-108677685D01*
X180021520Y-108779144D01*
X180087001Y-108824000D01*
X180206830Y-108906084D01*
X180215967Y-108912985D01*
X180518670Y-109164346D01*
X180526883Y-109171166D01*
X180535347Y-109178882D01*
X180821117Y-109464652D01*
X180828833Y-109473116D01*
X181087012Y-109784029D01*
X181093915Y-109793169D01*
X181322314Y-110126592D01*
X181328343Y-110136330D01*
X181419786Y-110300501D01*
X181515648Y-110472607D01*
X181524999Y-110489394D01*
X181530102Y-110499643D01*
X181688988Y-110859485D01*
X181693341Y-110869343D01*
X181697479Y-110880023D01*
X181825913Y-111263220D01*
X181829047Y-111274236D01*
X181921573Y-111667633D01*
X181923678Y-111678892D01*
X181979513Y-112079160D01*
X181980570Y-112090564D01*
X181999235Y-112494273D01*
X181999235Y-112505727D01*
X181980570Y-112909435D01*
X181979513Y-112920839D01*
X181923678Y-113321107D01*
X181921573Y-113332366D01*
X181829047Y-113725763D01*
X181825913Y-113736779D01*
X181697479Y-114119976D01*
X181693341Y-114130656D01*
X181530104Y-114500352D01*
X181524999Y-114510605D01*
X181328343Y-114863669D01*
X181322314Y-114873407D01*
X181093915Y-115206830D01*
X181087012Y-115215970D01*
X180828833Y-115526883D01*
X180821117Y-115535347D01*
X180535347Y-115821117D01*
X180526883Y-115828833D01*
X180215970Y-116087012D01*
X180206830Y-116093915D01*
X179873407Y-116322314D01*
X179863669Y-116328343D01*
X179510605Y-116524999D01*
X179500352Y-116530104D01*
X179130656Y-116693341D01*
X179119976Y-116697479D01*
X178736779Y-116825913D01*
X178725763Y-116829047D01*
X178332366Y-116921573D01*
X178321107Y-116923678D01*
X177920839Y-116979513D01*
X177909435Y-116980570D01*
X177502855Y-116999368D01*
X177497128Y-116999500D01*
X177434108Y-116999500D01*
X177306812Y-117033608D01*
X177192686Y-117099500D01*
X177192683Y-117099502D01*
X177099502Y-117192683D01*
X177099500Y-117192686D01*
X177033608Y-117306812D01*
X176999500Y-117434108D01*
X176999500Y-121245572D01*
X176999184Y-121254418D01*
X176999184Y-121254419D01*
X176984869Y-121454557D01*
X176982351Y-121472068D01*
X176940646Y-121663787D01*
X176935662Y-121680763D01*
X176867090Y-121864609D01*
X176859740Y-121880701D01*
X176765711Y-122052904D01*
X176756146Y-122067789D01*
X176638558Y-122224867D01*
X176626972Y-122238237D01*
X176488237Y-122376972D01*
X176474867Y-122388558D01*
X176317789Y-122506146D01*
X176302904Y-122515711D01*
X176130701Y-122609740D01*
X176114609Y-122617090D01*
X175930763Y-122685662D01*
X175913787Y-122690646D01*
X175722068Y-122732351D01*
X175704557Y-122734869D01*
X175523779Y-122747799D01*
X175504417Y-122749184D01*
X175495572Y-122749500D01*
X143004428Y-122749500D01*
X142995582Y-122749184D01*
X142973622Y-122747613D01*
X142795442Y-122734869D01*
X142777931Y-122732351D01*
X142586212Y-122690646D01*
X142569236Y-122685662D01*
X142385390Y-122617090D01*
X142369298Y-122609740D01*
X142197095Y-122515711D01*
X142182210Y-122506146D01*
X142025132Y-122388558D01*
X142011762Y-122376972D01*
X141873027Y-122238237D01*
X141861441Y-122224867D01*
X141743849Y-122067784D01*
X141734288Y-122052904D01*
X141640259Y-121880701D01*
X141632909Y-121864609D01*
X141564334Y-121680755D01*
X141559355Y-121663797D01*
X141517647Y-121472063D01*
X141515130Y-121454556D01*
X141514804Y-121450000D01*
X141500816Y-121254418D01*
X141500500Y-121245572D01*
X141500500Y-120080247D01*
X142749500Y-120080247D01*
X142749500Y-121819752D01*
X142761131Y-121878229D01*
X142761132Y-121878230D01*
X142805447Y-121944552D01*
X142871769Y-121988867D01*
X142871770Y-121988868D01*
X142930247Y-122000499D01*
X142930250Y-122000500D01*
X142930252Y-122000500D01*
X144669750Y-122000500D01*
X144669751Y-122000499D01*
X144684568Y-121997552D01*
X144728229Y-121988868D01*
X144728229Y-121988867D01*
X144728231Y-121988867D01*
X144794552Y-121944552D01*
X144838867Y-121878231D01*
X144838867Y-121878229D01*
X144838868Y-121878229D01*
X144850499Y-121819752D01*
X144850500Y-121819750D01*
X144850500Y-120846530D01*
X145289500Y-120846530D01*
X145289500Y-121053469D01*
X145329868Y-121256412D01*
X145329870Y-121256420D01*
X145401023Y-121428199D01*
X145409059Y-121447598D01*
X145451856Y-121511649D01*
X145524024Y-121619657D01*
X145670342Y-121765975D01*
X145670345Y-121765977D01*
X145842402Y-121880941D01*
X146033580Y-121960130D01*
X146178052Y-121988867D01*
X146236530Y-122000499D01*
X146236534Y-122000500D01*
X146236535Y-122000500D01*
X146443466Y-122000500D01*
X146443467Y-122000499D01*
X146646420Y-121960130D01*
X146837598Y-121880941D01*
X147009655Y-121765977D01*
X147155977Y-121619655D01*
X147270941Y-121447598D01*
X147350130Y-121256420D01*
X147390500Y-121053465D01*
X147390500Y-120846535D01*
X147350130Y-120643580D01*
X147270941Y-120452402D01*
X147155977Y-120280345D01*
X147155975Y-120280342D01*
X147009657Y-120134024D01*
X146901234Y-120061579D01*
X146837598Y-120019059D01*
X146803420Y-120004902D01*
X146646420Y-119939870D01*
X146646412Y-119939868D01*
X146443469Y-119899500D01*
X146443465Y-119899500D01*
X146236535Y-119899500D01*
X146236530Y-119899500D01*
X146033587Y-119939868D01*
X146033579Y-119939870D01*
X145842403Y-120019058D01*
X145670342Y-120134024D01*
X145524024Y-120280342D01*
X145409058Y-120452403D01*
X145329870Y-120643579D01*
X145329868Y-120643587D01*
X145289500Y-120846530D01*
X144850500Y-120846530D01*
X144850500Y-120080249D01*
X144850499Y-120080247D01*
X144838868Y-120021770D01*
X144838867Y-120021769D01*
X144794552Y-119955447D01*
X144728230Y-119911132D01*
X144728229Y-119911131D01*
X144669752Y-119899500D01*
X144669748Y-119899500D01*
X142930252Y-119899500D01*
X142930247Y-119899500D01*
X142871770Y-119911131D01*
X142871769Y-119911132D01*
X142805447Y-119955447D01*
X142761132Y-120021769D01*
X142761131Y-120021770D01*
X142749500Y-120080247D01*
X141500500Y-120080247D01*
X141500500Y-117434110D01*
X141500500Y-117434108D01*
X141466392Y-117306814D01*
X141400500Y-117192686D01*
X141307314Y-117099500D01*
X141250250Y-117066554D01*
X141193187Y-117033608D01*
X141129539Y-117016554D01*
X141065892Y-116999500D01*
X141065891Y-116999500D01*
X141002872Y-116999500D01*
X140997145Y-116999368D01*
X140590564Y-116980570D01*
X140579160Y-116979513D01*
X140178892Y-116923678D01*
X140167633Y-116921573D01*
X139774236Y-116829047D01*
X139763220Y-116825913D01*
X139408120Y-116706896D01*
X139380021Y-116697478D01*
X139369343Y-116693341D01*
X138999647Y-116530104D01*
X138989399Y-116525001D01*
X138853995Y-116449582D01*
X138636330Y-116328343D01*
X138626592Y-116322314D01*
X138293169Y-116093915D01*
X138284029Y-116087012D01*
X137973116Y-115828833D01*
X137964652Y-115821117D01*
X137678882Y-115535347D01*
X137671166Y-115526883D01*
X137634902Y-115483212D01*
X137412985Y-115215967D01*
X137406084Y-115206830D01*
X137392371Y-115186812D01*
X137205223Y-114913608D01*
X137177685Y-114873407D01*
X137171656Y-114863669D01*
X137096173Y-114728151D01*
X136974993Y-114510592D01*
X136969901Y-114500365D01*
X136806653Y-114130643D01*
X136802525Y-114119989D01*
X136674082Y-113736766D01*
X136670955Y-113725776D01*
X136578423Y-113332353D01*
X136576322Y-113321117D01*
X136520485Y-112920837D01*
X136519429Y-112909435D01*
X136518788Y-112895560D01*
X136500764Y-112505710D01*
X136500764Y-112494289D01*
X136508903Y-112318234D01*
X137300000Y-112318234D01*
X137300000Y-112681765D01*
X137335632Y-113043556D01*
X137406550Y-113400090D01*
X137406553Y-113400101D01*
X137512086Y-113747997D01*
X137651207Y-114083864D01*
X137651209Y-114083869D01*
X137822570Y-114404462D01*
X137822581Y-114404480D01*
X138024551Y-114706750D01*
X138211678Y-114934765D01*
X138211679Y-114934766D01*
X139705747Y-113440697D01*
X139779588Y-113542330D01*
X139957670Y-113720412D01*
X140059301Y-113794251D01*
X138565232Y-115288319D01*
X138565233Y-115288320D01*
X138793249Y-115475448D01*
X139095519Y-115677418D01*
X139095537Y-115677429D01*
X139416130Y-115848790D01*
X139416135Y-115848792D01*
X139752002Y-115987913D01*
X140099898Y-116093446D01*
X140099909Y-116093449D01*
X140456443Y-116164367D01*
X140818234Y-116200000D01*
X141181766Y-116200000D01*
X141543556Y-116164367D01*
X141900090Y-116093449D01*
X141900101Y-116093446D01*
X142063465Y-116043890D01*
X146499500Y-116043890D01*
X146499500Y-118256110D01*
X146507582Y-118311581D01*
X146510276Y-118330074D01*
X146566049Y-118444158D01*
X146655841Y-118533950D01*
X146769925Y-118589723D01*
X146769926Y-118589723D01*
X146769928Y-118589724D01*
X146843890Y-118600500D01*
X147697754Y-118600500D01*
X147717713Y-118602116D01*
X147735839Y-118605073D01*
X147982951Y-118596499D01*
X148050630Y-118613846D01*
X148074929Y-118632743D01*
X149032686Y-119590500D01*
X149131521Y-119647563D01*
X149136539Y-119650460D01*
X149146814Y-119656392D01*
X149274108Y-119690500D01*
X149405893Y-119690500D01*
X150475163Y-119690500D01*
X150542202Y-119710185D01*
X150587957Y-119762989D01*
X150597901Y-119832147D01*
X150568876Y-119895703D01*
X150548047Y-119914819D01*
X150540537Y-119920274D01*
X150390276Y-120070535D01*
X150390272Y-120070540D01*
X150265379Y-120242442D01*
X150168905Y-120431781D01*
X150111656Y-120607974D01*
X150072218Y-120665649D01*
X150007859Y-120692847D01*
X149939013Y-120680932D01*
X149887537Y-120633688D01*
X149879164Y-120617107D01*
X149810943Y-120452405D01*
X149695975Y-120280342D01*
X149549657Y-120134024D01*
X149441234Y-120061579D01*
X149377598Y-120019059D01*
X149343420Y-120004902D01*
X149186420Y-119939870D01*
X149186412Y-119939868D01*
X148983469Y-119899500D01*
X148983465Y-119899500D01*
X148776535Y-119899500D01*
X148776530Y-119899500D01*
X148573587Y-119939868D01*
X148573579Y-119939870D01*
X148382403Y-120019058D01*
X148210342Y-120134024D01*
X148064024Y-120280342D01*
X147949058Y-120452403D01*
X147869870Y-120643579D01*
X147869868Y-120643587D01*
X147829500Y-120846530D01*
X147829500Y-121053469D01*
X147869868Y-121256412D01*
X147869870Y-121256420D01*
X147941023Y-121428199D01*
X147949059Y-121447598D01*
X147991856Y-121511649D01*
X148064024Y-121619657D01*
X148210342Y-121765975D01*
X148210345Y-121765977D01*
X148382402Y-121880941D01*
X148573580Y-121960130D01*
X148718052Y-121988867D01*
X148776530Y-122000499D01*
X148776534Y-122000500D01*
X148776535Y-122000500D01*
X148983466Y-122000500D01*
X148983467Y-122000499D01*
X149186420Y-121960130D01*
X149377598Y-121880941D01*
X149549655Y-121765977D01*
X149695977Y-121619655D01*
X149810941Y-121447598D01*
X149879165Y-121282889D01*
X149923004Y-121228488D01*
X149989298Y-121206423D01*
X150056998Y-121223702D01*
X150104609Y-121274839D01*
X150111656Y-121292026D01*
X150168904Y-121468216D01*
X150265379Y-121657557D01*
X150390272Y-121829459D01*
X150390276Y-121829464D01*
X150540535Y-121979723D01*
X150540540Y-121979727D01*
X150712442Y-122104620D01*
X150901782Y-122201095D01*
X151103871Y-122266757D01*
X151170000Y-122277231D01*
X151170000Y-121383012D01*
X151227007Y-121415925D01*
X151354174Y-121450000D01*
X151485826Y-121450000D01*
X151612993Y-121415925D01*
X151670000Y-121383012D01*
X151670000Y-122277230D01*
X151736126Y-122266757D01*
X151736129Y-122266757D01*
X151938217Y-122201095D01*
X152127557Y-122104620D01*
X152299459Y-121979727D01*
X152299464Y-121979723D01*
X152449723Y-121829464D01*
X152449727Y-121829459D01*
X152574620Y-121657557D01*
X152671095Y-121468217D01*
X152736757Y-121266129D01*
X152736757Y-121266126D01*
X152747231Y-121200000D01*
X151853012Y-121200000D01*
X151885925Y-121142993D01*
X151920000Y-121015826D01*
X151920000Y-120884174D01*
X151885925Y-120757007D01*
X151853012Y-120700000D01*
X152747231Y-120700000D01*
X152736757Y-120633873D01*
X152736757Y-120633870D01*
X152671095Y-120431782D01*
X152574620Y-120242442D01*
X152449727Y-120070540D01*
X152449723Y-120070535D01*
X152299462Y-119920274D01*
X152291953Y-119914819D01*
X152249287Y-119859490D01*
X152243306Y-119789877D01*
X152275911Y-119728081D01*
X152336750Y-119693723D01*
X152364837Y-119690500D01*
X154435163Y-119690500D01*
X154502202Y-119710185D01*
X154547957Y-119762989D01*
X154557901Y-119832147D01*
X154528876Y-119895703D01*
X154508047Y-119914819D01*
X154500537Y-119920274D01*
X154350276Y-120070535D01*
X154350272Y-120070540D01*
X154225379Y-120242442D01*
X154128904Y-120431782D01*
X154063242Y-120633870D01*
X154063242Y-120633873D01*
X154052769Y-120700000D01*
X154946988Y-120700000D01*
X154914075Y-120757007D01*
X154880000Y-120884174D01*
X154880000Y-121015826D01*
X154914075Y-121142993D01*
X154946988Y-121200000D01*
X154052769Y-121200000D01*
X154063242Y-121266126D01*
X154063242Y-121266129D01*
X154128904Y-121468217D01*
X154225379Y-121657557D01*
X154350272Y-121829459D01*
X154350276Y-121829464D01*
X154500535Y-121979723D01*
X154500540Y-121979727D01*
X154672442Y-122104620D01*
X154861782Y-122201095D01*
X155063871Y-122266757D01*
X155130000Y-122277231D01*
X155130000Y-121383012D01*
X155187007Y-121415925D01*
X155314174Y-121450000D01*
X155445826Y-121450000D01*
X155572993Y-121415925D01*
X155630000Y-121383012D01*
X155630000Y-122277230D01*
X155696126Y-122266757D01*
X155696129Y-122266757D01*
X155898217Y-122201095D01*
X156087557Y-122104620D01*
X156259459Y-121979727D01*
X156259464Y-121979723D01*
X156409723Y-121829464D01*
X156409727Y-121829459D01*
X156534620Y-121657557D01*
X156631095Y-121468217D01*
X156680183Y-121317139D01*
X156691335Y-121300829D01*
X156698036Y-121282243D01*
X156710650Y-121272581D01*
X156719620Y-121259464D01*
X156737821Y-121251771D01*
X156753506Y-121239759D01*
X156769340Y-121238451D01*
X156783978Y-121232265D01*
X156803447Y-121235634D01*
X156823138Y-121234008D01*
X156837166Y-121241469D01*
X156852825Y-121244179D01*
X156867382Y-121257539D01*
X156884826Y-121266817D01*
X156902181Y-121289477D01*
X156904301Y-121291423D01*
X156906286Y-121294837D01*
X156977438Y-121421803D01*
X156983824Y-121434963D01*
X156989055Y-121447591D01*
X156989057Y-121447594D01*
X156989059Y-121447598D01*
X157003957Y-121469895D01*
X157009012Y-121478142D01*
X157027789Y-121511649D01*
X157027801Y-121511670D01*
X157027803Y-121511673D01*
X157030898Y-121516953D01*
X157031849Y-121518574D01*
X157032151Y-121519067D01*
X157032301Y-121519311D01*
X157032305Y-121519315D01*
X157040093Y-121527426D01*
X157053752Y-121544419D01*
X157104021Y-121619653D01*
X157104027Y-121619660D01*
X157250342Y-121765975D01*
X157250345Y-121765977D01*
X157422402Y-121880941D01*
X157613580Y-121960130D01*
X157758052Y-121988867D01*
X157816530Y-122000499D01*
X157816534Y-122000500D01*
X157816535Y-122000500D01*
X158023466Y-122000500D01*
X158023467Y-122000499D01*
X158226420Y-121960130D01*
X158417598Y-121880941D01*
X158589655Y-121765977D01*
X158735977Y-121619655D01*
X158850941Y-121447598D01*
X158930130Y-121256420D01*
X158970500Y-121053465D01*
X158970500Y-120846535D01*
X158970499Y-120846530D01*
X159409500Y-120846530D01*
X159409500Y-121053469D01*
X159449868Y-121256412D01*
X159449870Y-121256420D01*
X159521023Y-121428199D01*
X159529059Y-121447598D01*
X159571856Y-121511649D01*
X159644024Y-121619657D01*
X159790342Y-121765975D01*
X159790345Y-121765977D01*
X159962402Y-121880941D01*
X160153580Y-121960130D01*
X160298052Y-121988867D01*
X160356530Y-122000499D01*
X160356534Y-122000500D01*
X160356535Y-122000500D01*
X160563466Y-122000500D01*
X160563467Y-122000499D01*
X160766420Y-121960130D01*
X160957598Y-121880941D01*
X161129655Y-121765977D01*
X161275977Y-121619655D01*
X161346479Y-121514140D01*
X161357858Y-121498973D01*
X161361026Y-121492369D01*
X161390941Y-121447598D01*
X161443004Y-121321903D01*
X161445729Y-121315801D01*
X161713699Y-120757219D01*
X161760444Y-120705290D01*
X161827844Y-120686876D01*
X161894499Y-120707824D01*
X161939248Y-120761484D01*
X161949500Y-120810854D01*
X161949500Y-121819752D01*
X161961131Y-121878229D01*
X161961132Y-121878230D01*
X162005447Y-121944552D01*
X162071769Y-121988867D01*
X162071770Y-121988868D01*
X162130247Y-122000499D01*
X162130250Y-122000500D01*
X162130252Y-122000500D01*
X163869750Y-122000500D01*
X163869751Y-122000499D01*
X163884568Y-121997552D01*
X163928229Y-121988868D01*
X163928229Y-121988867D01*
X163928231Y-121988867D01*
X163994552Y-121944552D01*
X164038867Y-121878231D01*
X164038867Y-121878229D01*
X164038868Y-121878229D01*
X164050499Y-121819752D01*
X164050500Y-121819750D01*
X164050500Y-120080249D01*
X164050499Y-120080247D01*
X164038868Y-120021770D01*
X164038867Y-120021769D01*
X163994552Y-119955447D01*
X163928230Y-119911132D01*
X163928229Y-119911131D01*
X163869752Y-119899500D01*
X163869748Y-119899500D01*
X162402184Y-119899500D01*
X162335145Y-119879815D01*
X162289390Y-119827011D01*
X162279446Y-119757853D01*
X162282405Y-119743421D01*
X162300500Y-119675893D01*
X162300500Y-119544108D01*
X162300500Y-119076256D01*
X162309472Y-119029946D01*
X162384074Y-118844648D01*
X162574929Y-118370594D01*
X162577568Y-118363685D01*
X162577856Y-118362888D01*
X162577857Y-118362878D01*
X162578841Y-118358852D01*
X162587907Y-118333788D01*
X162589724Y-118330072D01*
X162600500Y-118256110D01*
X162600500Y-117895373D01*
X162620185Y-117828334D01*
X162636420Y-117808092D01*
X162822603Y-117620217D01*
X162883774Y-117586456D01*
X162926868Y-117584563D01*
X162933980Y-117585499D01*
X162933982Y-117585500D01*
X162933984Y-117585500D01*
X163046016Y-117585500D01*
X163046018Y-117585500D01*
X163154237Y-117556503D01*
X163251263Y-117500485D01*
X163330485Y-117421263D01*
X163386503Y-117324237D01*
X163415500Y-117216018D01*
X163415500Y-117103982D01*
X163386503Y-116995763D01*
X163330485Y-116898737D01*
X163251263Y-116819515D01*
X163154237Y-116763497D01*
X163046018Y-116734500D01*
X163046017Y-116734500D01*
X162992823Y-116734500D01*
X162925784Y-116714815D01*
X162914824Y-116706896D01*
X162646501Y-116489780D01*
X162606767Y-116432307D01*
X162600500Y-116393384D01*
X162600500Y-116043895D01*
X162600500Y-116043890D01*
X165499500Y-116043890D01*
X165499500Y-118256110D01*
X165507582Y-118311581D01*
X165510276Y-118330074D01*
X165566049Y-118444158D01*
X165655841Y-118533950D01*
X165769925Y-118589723D01*
X165769926Y-118589723D01*
X165769928Y-118589724D01*
X165843890Y-118600500D01*
X165843896Y-118600500D01*
X166756104Y-118600500D01*
X166756110Y-118600500D01*
X166830072Y-118589724D01*
X166944157Y-118533951D01*
X167033951Y-118444157D01*
X167089724Y-118330072D01*
X167100500Y-118256110D01*
X167100500Y-116043890D01*
X167089724Y-115969928D01*
X167089723Y-115969925D01*
X167089723Y-115969924D01*
X167081958Y-115954042D01*
X167072653Y-115927980D01*
X167070955Y-115920763D01*
X167041379Y-115855844D01*
X166806723Y-115340770D01*
X166799789Y-115321455D01*
X166796851Y-115310493D01*
X166766392Y-115196814D01*
X166700500Y-115082686D01*
X166597314Y-114979500D01*
X166519831Y-114934765D01*
X166483187Y-114913608D01*
X166419539Y-114896554D01*
X166355892Y-114879500D01*
X166224108Y-114879500D01*
X166096812Y-114913608D01*
X165982686Y-114979500D01*
X165982683Y-114979502D01*
X165889502Y-115072683D01*
X165889500Y-115072686D01*
X165823608Y-115186812D01*
X165803801Y-115260734D01*
X165789500Y-115314108D01*
X165789500Y-115445892D01*
X165795275Y-115467444D01*
X165799500Y-115499537D01*
X165799500Y-115546321D01*
X165779815Y-115613360D01*
X165767590Y-115629359D01*
X165605255Y-115809389D01*
X165589646Y-115830379D01*
X165577833Y-115844056D01*
X165566052Y-115855838D01*
X165566047Y-115855844D01*
X165510276Y-115969925D01*
X165506235Y-115997663D01*
X165499500Y-116043890D01*
X162600500Y-116043890D01*
X162589724Y-115969928D01*
X162589722Y-115969924D01*
X162533950Y-115855841D01*
X162444158Y-115766049D01*
X162330074Y-115710276D01*
X162311581Y-115707582D01*
X162256110Y-115699500D01*
X161343890Y-115699500D01*
X161294582Y-115706684D01*
X161269925Y-115710276D01*
X161155841Y-115766049D01*
X161066049Y-115855841D01*
X161010276Y-115969925D01*
X161006235Y-115997663D01*
X160999500Y-116043890D01*
X160999500Y-118256110D01*
X161008736Y-118319506D01*
X161010276Y-118330073D01*
X161014570Y-118338856D01*
X161023181Y-118364791D01*
X161023357Y-118364740D01*
X161024782Y-118369610D01*
X161025018Y-118370321D01*
X161025068Y-118370588D01*
X161025069Y-118370592D01*
X161025070Y-118370594D01*
X161153336Y-118689184D01*
X161290528Y-119029947D01*
X161291978Y-119037434D01*
X161294477Y-119041322D01*
X161299500Y-119076257D01*
X161299500Y-119308001D01*
X161279815Y-119375040D01*
X161229134Y-119419802D01*
X160094205Y-119964263D01*
X160088025Y-119967023D01*
X159962400Y-120019059D01*
X159924955Y-120044077D01*
X159924956Y-120044078D01*
X159917633Y-120048970D01*
X159911018Y-120052145D01*
X159898178Y-120058872D01*
X159896758Y-120059681D01*
X159894284Y-120061113D01*
X159881701Y-120072979D01*
X159873064Y-120078751D01*
X159790345Y-120134022D01*
X159790341Y-120134025D01*
X159644024Y-120280342D01*
X159529058Y-120452403D01*
X159449870Y-120643579D01*
X159449868Y-120643587D01*
X159409500Y-120846530D01*
X158970499Y-120846530D01*
X158930130Y-120643580D01*
X158850941Y-120452402D01*
X158735977Y-120280345D01*
X158735975Y-120280342D01*
X158589657Y-120134024D01*
X158481234Y-120061579D01*
X158417598Y-120019059D01*
X158383420Y-120004902D01*
X158226420Y-119939870D01*
X158226412Y-119939868D01*
X158181196Y-119930874D01*
X158158822Y-119924182D01*
X158154037Y-119922243D01*
X157497893Y-119656391D01*
X157310420Y-119580432D01*
X157310420Y-119580431D01*
X156993855Y-119452168D01*
X156952738Y-119424924D01*
X156339995Y-118812181D01*
X156306510Y-118750858D01*
X156311494Y-118681166D01*
X156353366Y-118625233D01*
X156418830Y-118600816D01*
X156427676Y-118600500D01*
X157256104Y-118600500D01*
X157256110Y-118600500D01*
X157330072Y-118589724D01*
X157444157Y-118533951D01*
X157533951Y-118444157D01*
X157589724Y-118330072D01*
X157600500Y-118256110D01*
X157600500Y-117956141D01*
X157620185Y-117889102D01*
X157669046Y-117845232D01*
X157733039Y-117813236D01*
X158032330Y-117663591D01*
X158087784Y-117650500D01*
X158295890Y-117650500D01*
X158295892Y-117650500D01*
X158423186Y-117616392D01*
X158537314Y-117550500D01*
X158630500Y-117457314D01*
X158696392Y-117343186D01*
X158730500Y-117215892D01*
X158730500Y-117084108D01*
X158696392Y-116956814D01*
X158630500Y-116842686D01*
X158537314Y-116749500D01*
X158453194Y-116700933D01*
X158423187Y-116683608D01*
X158359539Y-116666554D01*
X158295892Y-116649500D01*
X158295891Y-116649500D01*
X158087786Y-116649500D01*
X158032331Y-116636409D01*
X157669045Y-116454765D01*
X157617887Y-116407177D01*
X157600500Y-116343856D01*
X157600500Y-116043895D01*
X157600500Y-116043890D01*
X157589724Y-115969928D01*
X157589722Y-115969924D01*
X157533950Y-115855841D01*
X157444158Y-115766049D01*
X157330074Y-115710276D01*
X157311581Y-115707582D01*
X157256110Y-115699500D01*
X156343890Y-115699500D01*
X156269928Y-115710276D01*
X156269926Y-115710276D01*
X156269924Y-115710277D01*
X156269923Y-115710277D01*
X156269888Y-115710295D01*
X156246731Y-115718120D01*
X156246834Y-115718459D01*
X156241008Y-115720230D01*
X156241006Y-115720231D01*
X156147508Y-115748666D01*
X155970330Y-115802552D01*
X155900464Y-115803225D01*
X155846569Y-115771598D01*
X151486819Y-111411848D01*
X151453334Y-111350525D01*
X151450500Y-111324167D01*
X151450500Y-109490568D01*
X153919500Y-109490568D01*
X153919500Y-111709562D01*
X153939979Y-111785989D01*
X153939980Y-111785990D01*
X153951543Y-111806019D01*
X153979537Y-111854507D01*
X153979539Y-111854510D01*
X153979540Y-111854511D01*
X156515489Y-114390460D01*
X156574829Y-114424720D01*
X156584008Y-114430020D01*
X156584012Y-114430022D01*
X156660438Y-114450500D01*
X156660440Y-114450500D01*
X168169560Y-114450500D01*
X168169562Y-114450500D01*
X168245989Y-114430021D01*
X168314511Y-114390460D01*
X168370460Y-114334511D01*
X169040460Y-113664511D01*
X169043044Y-113660035D01*
X169054860Y-113639566D01*
X169059863Y-113631618D01*
X169424675Y-113098152D01*
X169514242Y-112967178D01*
X169514448Y-112967319D01*
X169529451Y-112948656D01*
X169533951Y-112944157D01*
X169589724Y-112830072D01*
X169600500Y-112756110D01*
X169600500Y-110543890D01*
X169589724Y-110469928D01*
X169533951Y-110355843D01*
X169533950Y-110355842D01*
X169533950Y-110355841D01*
X169444158Y-110266049D01*
X169330074Y-110210276D01*
X169311581Y-110207582D01*
X169256110Y-110199500D01*
X168343890Y-110199500D01*
X168294582Y-110206684D01*
X168269925Y-110210276D01*
X168155841Y-110266049D01*
X168066049Y-110355841D01*
X168010276Y-110469925D01*
X168006235Y-110497663D01*
X167999500Y-110543890D01*
X167999500Y-112756110D01*
X168001457Y-112769540D01*
X168010276Y-112830074D01*
X168066049Y-112944158D01*
X168076468Y-112954577D01*
X168092868Y-112976937D01*
X168093643Y-112976432D01*
X168096975Y-112981539D01*
X168373137Y-113325617D01*
X168399748Y-113390220D01*
X168387208Y-113458955D01*
X168364114Y-113490914D01*
X168041848Y-113813181D01*
X167980525Y-113846666D01*
X167954167Y-113849500D01*
X159856825Y-113849500D01*
X159836926Y-113843657D01*
X159816211Y-113842660D01*
X159804079Y-113834011D01*
X159789786Y-113829815D01*
X159776206Y-113814143D01*
X159759317Y-113802104D01*
X159753786Y-113788269D01*
X159744031Y-113777011D01*
X159741079Y-113756484D01*
X159733381Y-113737227D01*
X159735195Y-113715559D01*
X159734087Y-113707853D01*
X159735077Y-113701974D01*
X159735909Y-113697665D01*
X159760500Y-113605892D01*
X159760500Y-113570411D01*
X159762752Y-113558758D01*
X159767634Y-113549297D01*
X159771584Y-113531040D01*
X159825449Y-113412349D01*
X159968038Y-113098152D01*
X160059981Y-112895554D01*
X160064019Y-112886022D01*
X160064026Y-112886006D01*
X160064464Y-112884895D01*
X160064464Y-112884892D01*
X160066993Y-112878480D01*
X160067290Y-112878597D01*
X160071572Y-112867199D01*
X160089724Y-112830072D01*
X160100500Y-112756110D01*
X160100500Y-110543890D01*
X160089724Y-110469928D01*
X160052852Y-110394507D01*
X160049235Y-110373322D01*
X162895001Y-110373322D01*
X162905144Y-110472607D01*
X162958452Y-110633481D01*
X162958457Y-110633492D01*
X163047424Y-110777728D01*
X163047427Y-110777732D01*
X163167267Y-110897572D01*
X163167271Y-110897575D01*
X163311507Y-110986542D01*
X163311518Y-110986547D01*
X163472393Y-111039855D01*
X163571683Y-111049999D01*
X164120000Y-111049999D01*
X164168308Y-111049999D01*
X164168322Y-111049998D01*
X164267607Y-111039855D01*
X164428481Y-110986547D01*
X164428492Y-110986542D01*
X164572728Y-110897575D01*
X164572732Y-110897572D01*
X164582319Y-110887986D01*
X164643642Y-110854501D01*
X164713334Y-110859485D01*
X164757681Y-110887986D01*
X164767267Y-110897572D01*
X164767271Y-110897575D01*
X164911507Y-110986542D01*
X164911518Y-110986547D01*
X165072393Y-111039855D01*
X165171683Y-111049999D01*
X165720000Y-111049999D01*
X165768308Y-111049999D01*
X165768322Y-111049998D01*
X165867607Y-111039855D01*
X166028481Y-110986547D01*
X166028492Y-110986542D01*
X166172728Y-110897575D01*
X166172732Y-110897572D01*
X166292572Y-110777732D01*
X166292575Y-110777728D01*
X166381542Y-110633492D01*
X166381547Y-110633481D01*
X166434855Y-110472606D01*
X166444999Y-110373322D01*
X166445000Y-110373309D01*
X166445000Y-110350000D01*
X165720000Y-110350000D01*
X165720000Y-111049999D01*
X165171683Y-111049999D01*
X165219999Y-111049998D01*
X165220000Y-111049998D01*
X165220000Y-110350000D01*
X164120000Y-110350000D01*
X164120000Y-111049999D01*
X163571683Y-111049999D01*
X163619999Y-111049998D01*
X163620000Y-111049998D01*
X163620000Y-110350000D01*
X162895001Y-110350000D01*
X162895001Y-110373322D01*
X160049235Y-110373322D01*
X160041093Y-110325635D01*
X160068436Y-110261338D01*
X160126200Y-110222030D01*
X160196046Y-110220192D01*
X160199922Y-110221288D01*
X160259528Y-110239190D01*
X160424715Y-110288805D01*
X160433716Y-110291287D01*
X160433738Y-110291292D01*
X160433747Y-110291295D01*
X160434745Y-110291546D01*
X160434746Y-110291546D01*
X160434750Y-110291547D01*
X160437733Y-110291628D01*
X160466455Y-110295805D01*
X160483982Y-110300502D01*
X160483985Y-110300502D01*
X160596016Y-110300502D01*
X160596018Y-110300502D01*
X160704237Y-110271505D01*
X160801263Y-110215487D01*
X160880485Y-110136265D01*
X160936503Y-110039239D01*
X160965500Y-109931020D01*
X160965500Y-109818984D01*
X160943909Y-109738405D01*
X160945572Y-109668559D01*
X160984734Y-109610696D01*
X161048962Y-109583192D01*
X161080056Y-109585434D01*
X161080312Y-109583495D01*
X161205676Y-109599999D01*
X161732499Y-109599999D01*
X161732500Y-109599998D01*
X161732500Y-109100000D01*
X160652990Y-109100000D01*
X160652988Y-109100001D01*
X160660442Y-109156627D01*
X160660444Y-109156633D01*
X160710736Y-109278050D01*
X160713833Y-109306857D01*
X160719794Y-109335212D01*
X160717522Y-109341173D01*
X160718205Y-109347519D01*
X160705235Y-109373429D01*
X160694921Y-109400504D01*
X160689786Y-109404292D01*
X160686930Y-109409998D01*
X160662015Y-109424779D01*
X160638696Y-109441984D01*
X160630608Y-109443413D01*
X160626840Y-109445650D01*
X160604157Y-109449245D01*
X160596824Y-109449717D01*
X160596018Y-109449502D01*
X160483982Y-109449502D01*
X160449013Y-109458871D01*
X160436840Y-109460036D01*
X160436790Y-109460040D01*
X160424717Y-109461197D01*
X160064928Y-109569261D01*
X160029258Y-109574502D01*
X157090835Y-109574502D01*
X157061394Y-109565857D01*
X157031408Y-109559334D01*
X157026392Y-109555579D01*
X157023796Y-109554817D01*
X157003154Y-109538183D01*
X156952560Y-109487589D01*
X156919075Y-109426266D01*
X156924059Y-109356574D01*
X156965931Y-109300641D01*
X156990147Y-109286477D01*
X157067765Y-109252206D01*
X157147206Y-109172765D01*
X157192585Y-109069991D01*
X157195500Y-109044865D01*
X157195499Y-108755136D01*
X157195497Y-108755117D01*
X157192586Y-108730012D01*
X157192585Y-108730008D01*
X157146257Y-108625086D01*
X157137185Y-108555808D01*
X157146257Y-108524913D01*
X157147204Y-108522766D01*
X157147206Y-108522765D01*
X157192585Y-108419991D01*
X157195500Y-108394865D01*
X157195499Y-108286850D01*
X157215183Y-108219813D01*
X157244013Y-108188476D01*
X157322923Y-108127926D01*
X157419100Y-108002586D01*
X157479555Y-107856631D01*
X157487012Y-107800000D01*
X154927990Y-107800000D01*
X154927988Y-107800001D01*
X154935442Y-107856627D01*
X154935444Y-107856633D01*
X154995899Y-108002586D01*
X155071532Y-108101152D01*
X155096726Y-108166322D01*
X155082688Y-108234766D01*
X155060837Y-108264320D01*
X154035489Y-109289670D01*
X153979541Y-109345617D01*
X153979535Y-109345625D01*
X153939982Y-109414134D01*
X153939979Y-109414139D01*
X153932518Y-109441984D01*
X153919500Y-109490568D01*
X151450500Y-109490568D01*
X151450500Y-109330127D01*
X151466396Y-109269386D01*
X151478901Y-109247131D01*
X151581559Y-109064424D01*
X151601980Y-109037488D01*
X151614065Y-109025404D01*
X151664068Y-108918173D01*
X151670500Y-108869316D01*
X151670500Y-108520684D01*
X151664068Y-108471827D01*
X151614065Y-108364596D01*
X151530404Y-108280935D01*
X151522733Y-108273264D01*
X151525561Y-108270435D01*
X151494843Y-108232023D01*
X151487635Y-108162526D01*
X151519143Y-108100165D01*
X151522903Y-108096906D01*
X151522733Y-108096736D01*
X151558210Y-108061259D01*
X151614065Y-108005404D01*
X151664068Y-107898173D01*
X151670500Y-107849316D01*
X151670500Y-107500684D01*
X151664068Y-107451827D01*
X151614065Y-107344596D01*
X151601984Y-107332515D01*
X151581564Y-107305580D01*
X151577204Y-107297820D01*
X151561528Y-107229735D01*
X151567814Y-107210000D01*
X152881210Y-107210000D01*
X152882854Y-107230910D01*
X152927968Y-107386195D01*
X153010278Y-107525374D01*
X153010285Y-107525383D01*
X153124616Y-107639714D01*
X153124625Y-107639721D01*
X153263804Y-107722031D01*
X153410000Y-107764504D01*
X153410000Y-107210000D01*
X152881210Y-107210000D01*
X151567814Y-107210000D01*
X151580084Y-107171482D01*
X151731793Y-106928147D01*
X151749340Y-106906068D01*
X151749658Y-106905751D01*
X151809951Y-106787420D01*
X151809951Y-106787418D01*
X151809952Y-106787417D01*
X151825500Y-106689251D01*
X151825500Y-106185748D01*
X151809952Y-106087582D01*
X151809951Y-106087580D01*
X151749658Y-105969249D01*
X151749654Y-105969245D01*
X151749653Y-105969243D01*
X151702622Y-105922212D01*
X151669137Y-105860889D01*
X151674121Y-105791197D01*
X151715993Y-105735264D01*
X151725207Y-105728992D01*
X151855078Y-105648887D01*
X151973885Y-105530080D01*
X152062091Y-105387077D01*
X152062093Y-105387072D01*
X152114942Y-105227583D01*
X152124999Y-105129150D01*
X152125000Y-105129137D01*
X152125000Y-105112500D01*
X146575001Y-105112500D01*
X146575001Y-105129152D01*
X146585056Y-105227583D01*
X146637906Y-105387072D01*
X146637908Y-105387077D01*
X146726114Y-105530080D01*
X146844919Y-105648885D01*
X146974793Y-105728992D01*
X147021517Y-105780940D01*
X147032740Y-105849903D01*
X147004896Y-105913985D01*
X146997378Y-105922211D01*
X146950346Y-105969243D01*
X146950343Y-105969248D01*
X146950342Y-105969249D01*
X146930244Y-106008692D01*
X146890047Y-106087582D01*
X146874500Y-106185748D01*
X146874500Y-106689251D01*
X146890047Y-106787417D01*
X146890049Y-106787420D01*
X146950342Y-106905751D01*
X146950344Y-106905753D01*
X146950346Y-106905756D01*
X146953446Y-106908856D01*
X146970128Y-106929572D01*
X147123682Y-107168883D01*
X147143319Y-107235937D01*
X147123586Y-107302962D01*
X147107005Y-107323525D01*
X147098016Y-107332515D01*
X147095935Y-107334596D01*
X147081231Y-107366128D01*
X147045931Y-107441828D01*
X147039500Y-107490683D01*
X147039500Y-107839316D01*
X147045931Y-107888171D01*
X147095935Y-107995404D01*
X147187267Y-108086736D01*
X147184443Y-108089559D01*
X147215183Y-108128042D01*
X147222352Y-108197542D01*
X147190808Y-108259886D01*
X147187101Y-108263098D01*
X147187267Y-108263264D01*
X147095935Y-108354595D01*
X147045931Y-108461828D01*
X147039500Y-108510683D01*
X147039500Y-108859316D01*
X147045931Y-108908171D01*
X147095935Y-109015404D01*
X147108012Y-109027481D01*
X147128434Y-109054419D01*
X147154318Y-109100484D01*
X147169997Y-109168571D01*
X147164135Y-109199580D01*
X147137945Y-109280103D01*
X147136077Y-109286461D01*
X147136075Y-109286468D01*
X147134620Y-109291425D01*
X147134285Y-109292700D01*
X147134276Y-109292734D01*
X147133985Y-109301697D01*
X147133107Y-109308099D01*
X147131887Y-109310813D01*
X147130034Y-109323327D01*
X147124500Y-109343978D01*
X147124500Y-109343982D01*
X147124500Y-109456018D01*
X147152184Y-109559334D01*
X147153497Y-109564236D01*
X147153498Y-109564239D01*
X147163918Y-109582286D01*
X147209515Y-109661263D01*
X147288737Y-109740485D01*
X147385763Y-109796503D01*
X147493982Y-109825500D01*
X147493984Y-109825500D01*
X147606016Y-109825500D01*
X147606018Y-109825500D01*
X147714237Y-109796503D01*
X147811263Y-109740485D01*
X147890485Y-109661263D01*
X147946503Y-109564237D01*
X147975500Y-109456018D01*
X147975500Y-109343982D01*
X147970209Y-109324236D01*
X147969218Y-109320273D01*
X147967021Y-109310830D01*
X147965471Y-109289455D01*
X147943493Y-109209674D01*
X147942930Y-109207250D01*
X147944785Y-109174766D01*
X147945332Y-109142231D01*
X147946844Y-109138723D01*
X147946915Y-109137494D01*
X147948047Y-109135935D01*
X147955599Y-109118422D01*
X147991560Y-109054423D01*
X148011981Y-109027487D01*
X148024065Y-109015404D01*
X148074068Y-108908173D01*
X148080500Y-108859316D01*
X148080500Y-108510684D01*
X148074068Y-108461827D01*
X148024065Y-108354596D01*
X147940404Y-108270935D01*
X147932733Y-108263264D01*
X147935561Y-108260435D01*
X147904843Y-108222023D01*
X147897635Y-108152526D01*
X147929143Y-108090165D01*
X147932903Y-108086906D01*
X147932733Y-108086736D01*
X147958210Y-108061259D01*
X148024065Y-107995404D01*
X148074068Y-107888173D01*
X148080500Y-107839316D01*
X148080500Y-107490684D01*
X148074068Y-107441827D01*
X148024065Y-107334596D01*
X148011986Y-107322517D01*
X147991565Y-107295581D01*
X147987994Y-107289226D01*
X147972317Y-107221140D01*
X147990032Y-107164254D01*
X148134116Y-106926350D01*
X148144021Y-106913721D01*
X148143920Y-106913648D01*
X148149656Y-106905753D01*
X148149656Y-106905752D01*
X148149658Y-106905751D01*
X148209951Y-106787420D01*
X148209951Y-106787418D01*
X148209952Y-106787417D01*
X148225500Y-106689251D01*
X148225500Y-106185748D01*
X148209952Y-106087582D01*
X148209951Y-106087580D01*
X148149658Y-105969249D01*
X148149654Y-105969245D01*
X148149653Y-105969243D01*
X148102622Y-105922212D01*
X148069137Y-105860889D01*
X148074121Y-105791197D01*
X148115993Y-105735264D01*
X148125207Y-105728992D01*
X148255078Y-105648887D01*
X148255079Y-105648886D01*
X148362319Y-105541647D01*
X148423642Y-105508162D01*
X148493334Y-105513146D01*
X148537681Y-105541647D01*
X148644919Y-105648885D01*
X148774793Y-105728992D01*
X148821517Y-105780940D01*
X148832740Y-105849903D01*
X148804896Y-105913985D01*
X148797378Y-105922211D01*
X148750346Y-105969243D01*
X148750343Y-105969248D01*
X148750342Y-105969249D01*
X148730244Y-106008692D01*
X148690047Y-106087582D01*
X148674500Y-106185748D01*
X148674500Y-106689251D01*
X148690047Y-106787417D01*
X148690049Y-106787420D01*
X148750342Y-106905751D01*
X148750343Y-106905752D01*
X148750657Y-106906066D01*
X148768205Y-106928148D01*
X148919912Y-107171479D01*
X148923503Y-107184360D01*
X148931387Y-107195163D01*
X148932703Y-107217361D01*
X148938675Y-107238781D01*
X148934823Y-107253096D01*
X148935524Y-107264910D01*
X148922789Y-107297826D01*
X148918429Y-107305585D01*
X148898013Y-107332517D01*
X148891651Y-107338880D01*
X148885935Y-107344596D01*
X148875477Y-107367023D01*
X148835931Y-107451828D01*
X148829500Y-107500683D01*
X148829500Y-107849316D01*
X148835931Y-107898171D01*
X148885935Y-108005404D01*
X148977267Y-108096736D01*
X148974443Y-108099559D01*
X149005183Y-108138042D01*
X149012352Y-108207542D01*
X148980808Y-108269886D01*
X148977101Y-108273098D01*
X148977267Y-108273264D01*
X148885935Y-108364595D01*
X148835931Y-108471828D01*
X148829500Y-108520683D01*
X148829500Y-108869316D01*
X148835931Y-108918171D01*
X148885935Y-109025404D01*
X148890098Y-109029567D01*
X148923583Y-109090890D01*
X148918599Y-109160582D01*
X148890098Y-109204929D01*
X147115489Y-110979540D01*
X147059541Y-111035487D01*
X147059535Y-111035495D01*
X147019982Y-111104004D01*
X147019979Y-111104009D01*
X146999500Y-111180439D01*
X146999500Y-115190640D01*
X146979815Y-115257679D01*
X146977794Y-115260723D01*
X146941213Y-115314108D01*
X146585874Y-115832659D01*
X146585703Y-115832541D01*
X146570598Y-115851293D01*
X146566051Y-115855840D01*
X146566048Y-115855844D01*
X146510276Y-115969925D01*
X146506235Y-115997663D01*
X146499500Y-116043890D01*
X142063465Y-116043890D01*
X142247997Y-115987913D01*
X142400265Y-115924842D01*
X142583864Y-115848792D01*
X142583869Y-115848790D01*
X142904462Y-115677429D01*
X142904480Y-115677418D01*
X143206736Y-115475457D01*
X143206750Y-115475447D01*
X143434765Y-115288320D01*
X143434766Y-115288319D01*
X141940698Y-113794251D01*
X142042330Y-113720412D01*
X142220412Y-113542330D01*
X142294251Y-113440698D01*
X143788319Y-114934766D01*
X143788320Y-114934765D01*
X143975447Y-114706750D01*
X143975457Y-114706736D01*
X144177418Y-114404480D01*
X144177429Y-114404462D01*
X144348790Y-114083869D01*
X144348792Y-114083864D01*
X144487913Y-113747997D01*
X144593446Y-113400101D01*
X144593449Y-113400090D01*
X144664367Y-113043556D01*
X144700000Y-112681765D01*
X144700000Y-112318234D01*
X144664367Y-111956443D01*
X144593449Y-111599909D01*
X144593446Y-111599898D01*
X144487913Y-111252002D01*
X144348792Y-110916135D01*
X144348790Y-110916130D01*
X144177429Y-110595537D01*
X144177418Y-110595519D01*
X143975448Y-110293249D01*
X143788320Y-110065233D01*
X143788319Y-110065232D01*
X142294251Y-111559300D01*
X142220412Y-111457670D01*
X142042330Y-111279588D01*
X141940698Y-111205748D01*
X143434766Y-109711679D01*
X143434765Y-109711678D01*
X143206750Y-109524551D01*
X142904480Y-109322581D01*
X142904462Y-109322570D01*
X142583869Y-109151209D01*
X142583864Y-109151207D01*
X142247997Y-109012086D01*
X141900101Y-108906553D01*
X141900090Y-108906550D01*
X141543556Y-108835632D01*
X141181766Y-108800000D01*
X140818234Y-108800000D01*
X140456443Y-108835632D01*
X140099909Y-108906550D01*
X140099898Y-108906553D01*
X139752002Y-109012086D01*
X139416135Y-109151207D01*
X139416130Y-109151209D01*
X139095537Y-109322570D01*
X139095519Y-109322581D01*
X138793258Y-109524545D01*
X138793254Y-109524548D01*
X138565233Y-109711679D01*
X138565233Y-109711680D01*
X140059301Y-111205748D01*
X139957670Y-111279588D01*
X139779588Y-111457670D01*
X139705748Y-111559301D01*
X138211680Y-110065233D01*
X138211679Y-110065233D01*
X138024548Y-110293254D01*
X138024545Y-110293258D01*
X137822581Y-110595519D01*
X137822570Y-110595537D01*
X137651209Y-110916130D01*
X137651207Y-110916135D01*
X137512086Y-111252002D01*
X137406553Y-111599898D01*
X137406550Y-111599909D01*
X137335632Y-111956443D01*
X137300000Y-112318234D01*
X136508903Y-112318234D01*
X136519429Y-112090557D01*
X136520486Y-112079160D01*
X136521973Y-112068498D01*
X136576323Y-111678878D01*
X136578422Y-111667649D01*
X136670957Y-111274217D01*
X136674080Y-111263238D01*
X136802527Y-110880002D01*
X136806650Y-110869363D01*
X136969905Y-110499625D01*
X136974988Y-110489416D01*
X137171659Y-110136324D01*
X137177685Y-110126592D01*
X137406094Y-109793154D01*
X137412976Y-109784042D01*
X137671177Y-109473103D01*
X137678871Y-109464663D01*
X137964663Y-109178871D01*
X137973103Y-109171177D01*
X138284042Y-108912976D01*
X138293154Y-108906094D01*
X138626597Y-108677681D01*
X138636324Y-108671659D01*
X138989416Y-108474988D01*
X138999625Y-108469905D01*
X139369363Y-108306650D01*
X139380002Y-108302527D01*
X139763238Y-108174080D01*
X139774217Y-108170957D01*
X140167649Y-108078422D01*
X140178878Y-108076323D01*
X140579164Y-108020485D01*
X140590557Y-108019429D01*
X140997145Y-108000632D01*
X141002872Y-108000500D01*
X145565890Y-108000500D01*
X145565892Y-108000500D01*
X145693186Y-107966392D01*
X145807314Y-107900500D01*
X145900500Y-107807314D01*
X145966392Y-107693186D01*
X146000500Y-107565892D01*
X146000500Y-104595849D01*
X146575000Y-104595849D01*
X146575000Y-104612500D01*
X147300000Y-104612500D01*
X147300000Y-103925000D01*
X147800000Y-103925000D01*
X147800000Y-104612500D01*
X149100000Y-104612500D01*
X149100000Y-103925000D01*
X149600000Y-103925000D01*
X149600000Y-104612500D01*
X150900000Y-104612500D01*
X151400000Y-104612500D01*
X152124999Y-104612500D01*
X152124999Y-104595864D01*
X152124998Y-104595847D01*
X152114943Y-104497416D01*
X152062093Y-104337927D01*
X152062091Y-104337922D01*
X151973885Y-104194919D01*
X151855080Y-104076114D01*
X151712077Y-103987908D01*
X151712072Y-103987906D01*
X151552583Y-103935057D01*
X151454150Y-103925000D01*
X151400000Y-103925000D01*
X151400000Y-104612500D01*
X150900000Y-104612500D01*
X150900000Y-103925000D01*
X150899999Y-103924999D01*
X150845864Y-103925000D01*
X150845847Y-103925001D01*
X150747415Y-103935057D01*
X150587927Y-103987906D01*
X150587922Y-103987908D01*
X150444919Y-104076114D01*
X150337681Y-104183353D01*
X150276358Y-104216838D01*
X150206666Y-104211854D01*
X150162319Y-104183353D01*
X150055080Y-104076114D01*
X149912077Y-103987908D01*
X149912072Y-103987906D01*
X149752583Y-103935057D01*
X149654150Y-103925000D01*
X149600000Y-103925000D01*
X149100000Y-103925000D01*
X149099999Y-103924999D01*
X149045864Y-103925000D01*
X149045847Y-103925001D01*
X148947415Y-103935057D01*
X148787927Y-103987906D01*
X148787922Y-103987908D01*
X148644919Y-104076114D01*
X148537681Y-104183353D01*
X148476358Y-104216838D01*
X148406666Y-104211854D01*
X148362319Y-104183353D01*
X148255080Y-104076114D01*
X148112077Y-103987908D01*
X148112072Y-103987906D01*
X147952583Y-103935057D01*
X147854150Y-103925000D01*
X147800000Y-103925000D01*
X147300000Y-103925000D01*
X147299999Y-103924999D01*
X147245864Y-103925000D01*
X147245847Y-103925001D01*
X147147415Y-103935057D01*
X146987927Y-103987906D01*
X146987922Y-103987908D01*
X146844919Y-104076114D01*
X146726114Y-104194919D01*
X146637908Y-104337922D01*
X146637906Y-104337927D01*
X146585057Y-104497416D01*
X146575000Y-104595849D01*
X146000500Y-104595849D01*
X146000500Y-104504427D01*
X146000816Y-104495581D01*
X146001325Y-104488463D01*
X146015130Y-104295436D01*
X146017646Y-104277938D01*
X146059356Y-104086199D01*
X146064333Y-104069248D01*
X146132911Y-103885385D01*
X146140259Y-103869298D01*
X146170325Y-103814236D01*
X146234291Y-103697089D01*
X146243845Y-103682221D01*
X146361448Y-103525123D01*
X146373020Y-103511769D01*
X146511769Y-103373020D01*
X146525123Y-103361448D01*
X146682221Y-103243845D01*
X146697089Y-103234291D01*
X146869298Y-103140258D01*
X146885385Y-103132911D01*
X147069248Y-103064333D01*
X147086199Y-103059356D01*
X147277938Y-103017646D01*
X147295436Y-103015130D01*
X147495582Y-103000816D01*
X147504428Y-103000500D01*
X147565892Y-103000500D01*
X155125669Y-103000500D01*
X155192708Y-103020185D01*
G37*
%TD.AperFunction*%
%TD*%
%TA.AperFunction,Conductor*%
%TO.N,I2C_VDD_SW*%
G36*
X159305174Y-111664517D02*
G01*
X159310299Y-111669711D01*
X159872669Y-112800591D01*
X159873285Y-112809525D01*
X159872847Y-112810636D01*
X159563115Y-113493135D01*
X159556576Y-113499253D01*
X159552461Y-113500000D01*
X158968330Y-113500000D01*
X158960057Y-113496573D01*
X158957274Y-113492129D01*
X158717757Y-112800591D01*
X158715339Y-112793609D01*
X158715870Y-112784672D01*
X158715954Y-112784502D01*
X159289420Y-111669568D01*
X159296250Y-111663780D01*
X159305174Y-111664517D01*
G37*
%TD.AperFunction*%
%TD*%
%TA.AperFunction,Conductor*%
%TO.N,I2C_VDD_SW*%
G36*
X166506750Y-115179796D02*
G01*
X166509124Y-115183218D01*
X166883948Y-116005960D01*
X166884260Y-116014910D01*
X166883707Y-116016158D01*
X166311725Y-117129264D01*
X166304896Y-117135057D01*
X166295972Y-117134323D01*
X166290679Y-117128784D01*
X165755919Y-115959712D01*
X165755594Y-115950763D01*
X165757868Y-115947012D01*
X166077685Y-115592335D01*
X166078064Y-115591936D01*
X166490205Y-115179795D01*
X166498477Y-115176369D01*
X166506750Y-115179796D01*
G37*
%TD.AperFunction*%
%TD*%
%TA.AperFunction,Conductor*%
%TO.N,IN2*%
G36*
X172957570Y-119523337D02*
G01*
X173088790Y-119654557D01*
X173092217Y-119662830D01*
X173092130Y-119664258D01*
X172915202Y-121103334D01*
X172910791Y-121111127D01*
X172902161Y-121113519D01*
X172901318Y-121113383D01*
X172084062Y-120951650D01*
X172076611Y-120946683D01*
X172076597Y-120946662D01*
X171614883Y-120253930D01*
X171613146Y-120245145D01*
X171618130Y-120237705D01*
X171619040Y-120237158D01*
X172943737Y-119521316D01*
X172952642Y-119520398D01*
X172957570Y-119523337D01*
G37*
%TD.AperFunction*%
%TD*%
%TA.AperFunction,Conductor*%
%TO.N,IN2*%
G36*
X164761106Y-106974577D02*
G01*
X165083806Y-107146696D01*
X165089493Y-107153613D01*
X165090000Y-107157019D01*
X165090000Y-107342980D01*
X165086573Y-107351253D01*
X165083806Y-107353303D01*
X164761106Y-107525422D01*
X164752194Y-107526292D01*
X164746456Y-107522398D01*
X164611467Y-107353303D01*
X164534825Y-107257297D01*
X164532343Y-107248696D01*
X164534825Y-107242703D01*
X164746457Y-106977599D01*
X164754296Y-106973273D01*
X164761106Y-106974577D01*
G37*
%TD.AperFunction*%
%TD*%
%TA.AperFunction,Conductor*%
%TO.N,IN1*%
G36*
X170997693Y-112346524D02*
G01*
X170998601Y-112347067D01*
X171173722Y-112462979D01*
X171177020Y-112466277D01*
X171292928Y-112641392D01*
X171294637Y-112650183D01*
X171289630Y-112657606D01*
X171288716Y-112658153D01*
X170938233Y-112846727D01*
X170929323Y-112847629D01*
X170924416Y-112844697D01*
X170795302Y-112715583D01*
X170791875Y-112707310D01*
X170793271Y-112701767D01*
X170981847Y-112351282D01*
X170988783Y-112345622D01*
X170997693Y-112346524D01*
G37*
%TD.AperFunction*%
%TD*%
%TA.AperFunction,Conductor*%
%TO.N,IN1*%
G36*
X167050699Y-119234430D02*
G01*
X167050881Y-119234608D01*
X167183655Y-119367382D01*
X167184037Y-119367783D01*
X167842491Y-120091745D01*
X167845523Y-120100171D01*
X167842109Y-120107890D01*
X167007859Y-120942140D01*
X166999586Y-120945567D01*
X166991313Y-120942140D01*
X166991030Y-120941847D01*
X166213381Y-120108084D01*
X166210244Y-120099697D01*
X166213484Y-120092015D01*
X167034157Y-119234789D01*
X167042353Y-119231184D01*
X167050699Y-119234430D01*
G37*
%TD.AperFunction*%
%TD*%
%TA.AperFunction,Conductor*%
%TO.N,PVDD*%
G36*
X147899642Y-116905326D02*
G01*
X147905182Y-116910109D01*
X148531696Y-117954298D01*
X148533014Y-117963156D01*
X148529936Y-117968591D01*
X148115392Y-118383135D01*
X148107525Y-118386555D01*
X147728714Y-118399697D01*
X147720327Y-118396559D01*
X147717220Y-118391735D01*
X147302782Y-117159665D01*
X147303392Y-117150731D01*
X147309407Y-117145120D01*
X147890689Y-116905313D01*
X147899642Y-116905326D01*
G37*
%TD.AperFunction*%
%TD*%
%TA.AperFunction,Conductor*%
%TO.N,PVDD*%
G36*
X156873784Y-119625247D02*
G01*
X157198147Y-119756669D01*
X158076868Y-120112703D01*
X158083247Y-120118985D01*
X158083950Y-120125817D01*
X157921650Y-120945937D01*
X157916683Y-120953388D01*
X157916662Y-120953402D01*
X157223768Y-121415225D01*
X157214983Y-121416962D01*
X157207543Y-121411978D01*
X157207072Y-121411209D01*
X156950506Y-120953388D01*
X156446665Y-120054326D01*
X156445611Y-120045435D01*
X156448598Y-120040337D01*
X156861118Y-119627817D01*
X156869390Y-119624391D01*
X156873784Y-119625247D01*
G37*
%TD.AperFunction*%
%TD*%
%TA.AperFunction,Conductor*%
%TO.N,PVDD*%
G36*
X147402107Y-115303427D02*
G01*
X147403485Y-115305086D01*
X147843538Y-115947263D01*
X147845388Y-115956025D01*
X147844530Y-115958738D01*
X147310643Y-117127696D01*
X147304088Y-117133797D01*
X147295139Y-117133478D01*
X147289357Y-117127696D01*
X146755469Y-115958738D01*
X146755150Y-115949789D01*
X146756461Y-115947263D01*
X147196515Y-115305086D01*
X147204018Y-115300199D01*
X147206166Y-115300000D01*
X147393834Y-115300000D01*
X147402107Y-115303427D01*
G37*
%TD.AperFunction*%
%TD*%
%TA.AperFunction,Conductor*%
%TO.N,PVDD*%
G36*
X149358210Y-108701902D02*
G01*
X149472465Y-108817763D01*
X149592584Y-108939573D01*
X149595953Y-108947870D01*
X149594020Y-108954230D01*
X149382645Y-109274698D01*
X149375229Y-109279717D01*
X149366436Y-109278023D01*
X149364605Y-109276529D01*
X149233931Y-109145855D01*
X149232822Y-109144573D01*
X149076206Y-108934403D01*
X149074011Y-108925722D01*
X149078158Y-108918374D01*
X149342452Y-108701079D01*
X149351017Y-108698473D01*
X149358210Y-108701902D01*
G37*
%TD.AperFunction*%
%TD*%
%TA.AperFunction,Conductor*%
%TO.N,PVDD_SW*%
G36*
X162717470Y-107470913D02*
G01*
X162942737Y-107606426D01*
X162948060Y-107613627D01*
X162946732Y-107622483D01*
X162944979Y-107624725D01*
X162816492Y-107753212D01*
X162810909Y-107756326D01*
X162661123Y-107791713D01*
X162655428Y-107791633D01*
X161984164Y-107613213D01*
X161977048Y-107607776D01*
X161975862Y-107598901D01*
X161981299Y-107591785D01*
X161985241Y-107590366D01*
X162709513Y-107469400D01*
X162717470Y-107470913D01*
G37*
%TD.AperFunction*%
%TD*%
%TA.AperFunction,Conductor*%
%TO.N,PVDD_SW*%
G36*
X161988670Y-107383010D02*
G01*
X162018212Y-107391883D01*
X162369844Y-107497497D01*
X162376780Y-107503157D01*
X162378177Y-107508701D01*
X162378177Y-107691298D01*
X162374750Y-107699571D01*
X162369843Y-107702503D01*
X161988670Y-107816989D01*
X161979760Y-107816087D01*
X161974099Y-107809150D01*
X161973841Y-107808127D01*
X161931974Y-107602329D01*
X161931974Y-107597668D01*
X161973840Y-107391881D01*
X161978846Y-107384459D01*
X161987636Y-107382750D01*
X161988670Y-107383010D01*
G37*
%TD.AperFunction*%
%TD*%
%TA.AperFunction,Conductor*%
%TO.N,PVDD_SW*%
G36*
X163182100Y-107836028D02*
G01*
X164022567Y-108096368D01*
X164029456Y-108102089D01*
X164030281Y-108111006D01*
X164030103Y-108111536D01*
X163872506Y-108545748D01*
X163866462Y-108552355D01*
X163865798Y-108552641D01*
X163410490Y-108732078D01*
X163401536Y-108731923D01*
X163395315Y-108725483D01*
X163394500Y-108721193D01*
X163394500Y-108584436D01*
X163374022Y-108508013D01*
X163374020Y-108508009D01*
X163334462Y-108439493D01*
X163334458Y-108439488D01*
X163182407Y-108287437D01*
X163180107Y-108284172D01*
X163037467Y-107982811D01*
X163037025Y-107973868D01*
X163039767Y-107969535D01*
X163170371Y-107838931D01*
X163178643Y-107835505D01*
X163182100Y-107836028D01*
G37*
%TD.AperFunction*%
%TD*%
%TA.AperFunction,Conductor*%
%TO.N,I2C_VDD*%
G36*
X157407533Y-116553766D02*
G01*
X157993532Y-116846766D01*
X157999400Y-116853531D01*
X158000000Y-116857231D01*
X158000000Y-117442769D01*
X157996573Y-117451042D01*
X157993532Y-117453234D01*
X157407535Y-117746232D01*
X157398603Y-117746867D01*
X157394037Y-117744047D01*
X157102739Y-117453234D01*
X156807292Y-117158278D01*
X156803859Y-117150010D01*
X156807278Y-117141735D01*
X157394038Y-116555951D01*
X157402313Y-116552532D01*
X157407533Y-116553766D01*
G37*
%TD.AperFunction*%
%TD*%
%TA.AperFunction,Conductor*%
%TO.N,VDD*%
G36*
X161805351Y-117164174D02*
G01*
X161810404Y-117169227D01*
X162383850Y-118284125D01*
X162384587Y-118293049D01*
X162384299Y-118293846D01*
X162102951Y-118992670D01*
X162096683Y-118999064D01*
X162092098Y-119000000D01*
X161507902Y-119000000D01*
X161499629Y-118996573D01*
X161497049Y-118992670D01*
X161215700Y-118293846D01*
X161215789Y-118284891D01*
X161216149Y-118284125D01*
X161789596Y-117169227D01*
X161796427Y-117163437D01*
X161805351Y-117164174D01*
G37*
%TD.AperFunction*%
%TD*%
%TA.AperFunction,Conductor*%
%TO.N,VDD*%
G36*
X162408144Y-116561260D02*
G01*
X163050605Y-117081113D01*
X163054880Y-117088981D01*
X163052340Y-117097568D01*
X163051518Y-117098481D01*
X162919307Y-117230691D01*
X162919308Y-117230692D01*
X162408304Y-117746338D01*
X162400047Y-117749802D01*
X162391758Y-117746412D01*
X162391689Y-117746343D01*
X161880057Y-117230692D01*
X161807542Y-117157607D01*
X161804148Y-117149321D01*
X161807606Y-117141064D01*
X162392555Y-116562038D01*
X162400844Y-116558655D01*
X162408144Y-116561260D01*
G37*
%TD.AperFunction*%
%TD*%
%TA.AperFunction,Conductor*%
%TO.N,VDD*%
G36*
X162942916Y-116943756D02*
G01*
X162948417Y-116950822D01*
X162948602Y-116951597D01*
X162990525Y-117157668D01*
X162990525Y-117162332D01*
X162948719Y-117367827D01*
X162943712Y-117375251D01*
X162934922Y-117376960D01*
X162933635Y-117376621D01*
X162552404Y-117252628D01*
X162545597Y-117246811D01*
X162544323Y-117241502D01*
X162544323Y-117058912D01*
X162547750Y-117050639D01*
X162552912Y-117047633D01*
X162934030Y-116942649D01*
X162942916Y-116943756D01*
G37*
%TD.AperFunction*%
%TD*%
%TA.AperFunction,Conductor*%
%TO.N,VDD*%
G36*
X152908200Y-116556833D02*
G01*
X153495790Y-117046492D01*
X153499952Y-117054420D01*
X153500000Y-117055479D01*
X153500000Y-117244520D01*
X153496573Y-117252793D01*
X153495790Y-117253508D01*
X152908201Y-117743165D01*
X152899652Y-117745829D01*
X152892445Y-117742457D01*
X152648572Y-117498990D01*
X152307292Y-117158278D01*
X152303859Y-117150010D01*
X152307278Y-117141735D01*
X152892445Y-116557541D01*
X152900721Y-116554122D01*
X152908200Y-116556833D01*
G37*
%TD.AperFunction*%
%TD*%
%TA.AperFunction,Conductor*%
%TO.N,VDD*%
G36*
X153532563Y-116924078D02*
G01*
X153538380Y-116930885D01*
X153538719Y-116932172D01*
X153580525Y-117137668D01*
X153580525Y-117142332D01*
X153538602Y-117348402D01*
X153533595Y-117355826D01*
X153524805Y-117357535D01*
X153524030Y-117357350D01*
X153142916Y-117252367D01*
X153135850Y-117246866D01*
X153134323Y-117241087D01*
X153134323Y-117058497D01*
X153137750Y-117050224D01*
X153142401Y-117047372D01*
X153523636Y-116923378D01*
X153532563Y-116924078D01*
G37*
%TD.AperFunction*%
%TD*%
%TA.AperFunction,Conductor*%
%TO.N,GND*%
G36*
X166391000Y-110110000D02*
G01*
X166346105Y-110330677D01*
X165944323Y-110200000D01*
X165944323Y-110000000D01*
X166346105Y-109889323D01*
X166391000Y-110110000D01*
G37*
%TD.AperFunction*%
%TD*%
%TA.AperFunction,Conductor*%
%TO.N,GND*%
G36*
X165105677Y-110000000D02*
G01*
X165105677Y-110200000D01*
X164703895Y-110320677D01*
X164659000Y-110100000D01*
X164703895Y-109879323D01*
X165105677Y-110000000D01*
G37*
%TD.AperFunction*%
%TD*%
%TA.AperFunction,Conductor*%
%TO.N,GND*%
G36*
X163202101Y-110028180D02*
G01*
X163060680Y-110169601D01*
X162691247Y-109970831D01*
X162815543Y-109783043D01*
X163003331Y-109658747D01*
X163202101Y-110028180D01*
G37*
%TD.AperFunction*%
%TD*%
%TA.AperFunction,Conductor*%
%TO.N,IN1*%
G36*
X164761106Y-105874577D02*
G01*
X165083806Y-106046696D01*
X165089493Y-106053613D01*
X165090000Y-106057019D01*
X165090000Y-106242980D01*
X165086573Y-106251253D01*
X165083806Y-106253303D01*
X164761106Y-106425422D01*
X164752194Y-106426292D01*
X164746456Y-106422398D01*
X164611467Y-106253303D01*
X164534825Y-106157297D01*
X164532343Y-106148696D01*
X164534825Y-106142703D01*
X164746457Y-105877599D01*
X164754296Y-105873273D01*
X164761106Y-105874577D01*
G37*
%TD.AperFunction*%
%TD*%
%TA.AperFunction,Conductor*%
%TO.N,IN1*%
G36*
X165292739Y-105933912D02*
G01*
X165298400Y-105940849D01*
X165298660Y-105941883D01*
X165340525Y-106147668D01*
X165340525Y-106152332D01*
X165298660Y-106358116D01*
X165293653Y-106365540D01*
X165284863Y-106367249D01*
X165283829Y-106366989D01*
X164902657Y-106252503D01*
X164895720Y-106246842D01*
X164894323Y-106241298D01*
X164894323Y-106058701D01*
X164897750Y-106050428D01*
X164902654Y-106047497D01*
X165283829Y-105933010D01*
X165292739Y-105933912D01*
G37*
%TD.AperFunction*%
%TD*%
%TA.AperFunction,Conductor*%
%TO.N,GND*%
G36*
X174840677Y-119673895D02*
G01*
X174720000Y-120075677D01*
X174520000Y-120075677D01*
X174399323Y-119673895D01*
X174620000Y-119629000D01*
X174840677Y-119673895D01*
G37*
%TD.AperFunction*%
%TD*%
%TA.AperFunction,Conductor*%
%TO.N,GND*%
G36*
X169760677Y-119673895D02*
G01*
X169640000Y-120075677D01*
X169440000Y-120075677D01*
X169319323Y-119673895D01*
X169540000Y-119629000D01*
X169760677Y-119673895D01*
G37*
%TD.AperFunction*%
%TD*%
%TA.AperFunction,Conductor*%
%TO.N,GND*%
G36*
X154535677Y-120850000D02*
G01*
X154535677Y-121050000D01*
X154133895Y-121170677D01*
X154089000Y-120950000D01*
X154133895Y-120729323D01*
X154535677Y-120850000D01*
G37*
%TD.AperFunction*%
%TD*%
%TA.AperFunction,Conductor*%
%TO.N,GND*%
G36*
X152711000Y-120950000D02*
G01*
X152666105Y-121170677D01*
X152264323Y-121050000D01*
X152264323Y-120850000D01*
X152666105Y-120729323D01*
X152711000Y-120950000D01*
G37*
%TD.AperFunction*%
%TD*%
%TA.AperFunction,Conductor*%
%TO.N,OUTA*%
G36*
X156216041Y-108906459D02*
G01*
X156216075Y-108906485D01*
X156455140Y-109091711D01*
X156459581Y-109099487D01*
X156457223Y-109108126D01*
X156456091Y-109109387D01*
X156371877Y-109190503D01*
X156239911Y-109322469D01*
X156231638Y-109325896D01*
X156223365Y-109322469D01*
X156222357Y-109321321D01*
X156057928Y-109107130D01*
X156055609Y-109098480D01*
X156057934Y-109092873D01*
X156058828Y-109091711D01*
X156199635Y-108908601D01*
X156207394Y-108904133D01*
X156216041Y-108906459D01*
G37*
%TD.AperFunction*%
%TD*%
%TA.AperFunction,Conductor*%
%TO.N,OUTA*%
G36*
X160492739Y-109658914D02*
G01*
X160498400Y-109665851D01*
X160498660Y-109666885D01*
X160540525Y-109872670D01*
X160540525Y-109877334D01*
X160498660Y-110083118D01*
X160493653Y-110090542D01*
X160484863Y-110092251D01*
X160483829Y-110091991D01*
X160102657Y-109977505D01*
X160095720Y-109971844D01*
X160094323Y-109966300D01*
X160094323Y-109783703D01*
X160097750Y-109775430D01*
X160102654Y-109772499D01*
X160483829Y-109658012D01*
X160492739Y-109658914D01*
G37*
%TD.AperFunction*%
%TD*%
%TA.AperFunction,Conductor*%
%TO.N,SDA*%
G36*
X156165775Y-106288690D02*
G01*
X156172896Y-106294119D01*
X156174091Y-106302994D01*
X156168662Y-106310115D01*
X156165775Y-106311310D01*
X155485219Y-106491464D01*
X155478331Y-106491187D01*
X155227806Y-106402755D01*
X155221145Y-106396770D01*
X155220000Y-106391722D01*
X155220000Y-106208277D01*
X155223427Y-106200004D01*
X155227803Y-106197245D01*
X155478332Y-106108811D01*
X155485219Y-106108535D01*
X156165775Y-106288690D01*
G37*
%TD.AperFunction*%
%TD*%
%TA.AperFunction,Conductor*%
%TO.N,SCL*%
G36*
X153360200Y-103918973D02*
G01*
X153389742Y-103927846D01*
X153741374Y-104033460D01*
X153748310Y-104039120D01*
X153749707Y-104044664D01*
X153749707Y-104227261D01*
X153746280Y-104235534D01*
X153741373Y-104238466D01*
X153425613Y-104333305D01*
X153423775Y-104333700D01*
X153406826Y-104335932D01*
X153389415Y-104344050D01*
X153387837Y-104344651D01*
X153360200Y-104352952D01*
X153351290Y-104352050D01*
X153345629Y-104345113D01*
X153345371Y-104344090D01*
X153303504Y-104138292D01*
X153303504Y-104133631D01*
X153345370Y-103927844D01*
X153350376Y-103920422D01*
X153359166Y-103918713D01*
X153360200Y-103918973D01*
G37*
%TD.AperFunction*%
%TD*%
%TA.AperFunction,Conductor*%
%TO.N,SCL*%
G36*
X154286643Y-104341143D02*
G01*
X154703356Y-104526233D01*
X154709526Y-104532722D01*
X154710100Y-104539116D01*
X154651893Y-104844482D01*
X154646978Y-104851967D01*
X154644843Y-104853114D01*
X154390035Y-104957718D01*
X154381081Y-104957690D01*
X154375135Y-104952142D01*
X154167895Y-104539116D01*
X154141670Y-104486852D01*
X154141023Y-104477922D01*
X154143853Y-104473335D01*
X154273625Y-104343563D01*
X154281897Y-104340137D01*
X154286643Y-104341143D01*
G37*
%TD.AperFunction*%
%TD*%
%TA.AperFunction,Conductor*%
%TO.N,ADR*%
G36*
X156197879Y-108249067D02*
G01*
X156206075Y-108252673D01*
X156209262Y-108259568D01*
X156227633Y-108438385D01*
X156225069Y-108446965D01*
X156217215Y-108451217D01*
X155757544Y-108499436D01*
X155756323Y-108499500D01*
X155475135Y-108499500D01*
X155450008Y-108502414D01*
X155364705Y-108540078D01*
X155361201Y-108541011D01*
X155354839Y-108541679D01*
X155346253Y-108539135D01*
X155345344Y-108538316D01*
X155217137Y-108410109D01*
X155213710Y-108401836D01*
X155217137Y-108393563D01*
X155218127Y-108392680D01*
X155416690Y-108234735D01*
X155424227Y-108232194D01*
X156197879Y-108249067D01*
G37*
%TD.AperFunction*%
%TD*%
%TA.AperFunction,Conductor*%
%TO.N,ADR*%
G36*
X168805560Y-111666809D02*
G01*
X168811337Y-111672593D01*
X169344537Y-112841269D01*
X169344854Y-112850218D01*
X169343551Y-112852729D01*
X168864527Y-113553211D01*
X168857028Y-113558106D01*
X168848265Y-113556265D01*
X168846596Y-113554880D01*
X168715601Y-113423885D01*
X168714749Y-113422935D01*
X168257237Y-112852906D01*
X168254732Y-112844309D01*
X168255720Y-112840721D01*
X168790054Y-111672580D01*
X168796611Y-111666484D01*
X168805560Y-111666809D01*
G37*
%TD.AperFunction*%
%TD*%
%TA.AperFunction,Conductor*%
%TO.N,OUTB*%
G36*
X163191073Y-108743533D02*
G01*
X163194500Y-108751806D01*
X163194500Y-108808488D01*
X163210280Y-108908124D01*
X163271472Y-109028220D01*
X163304418Y-109061166D01*
X163307196Y-109065596D01*
X163329333Y-109129248D01*
X163328814Y-109138187D01*
X163322125Y-109144142D01*
X163320614Y-109144556D01*
X163115384Y-109186308D01*
X163110719Y-109186308D01*
X162904391Y-109144332D01*
X162904146Y-109144167D01*
X162903855Y-109144210D01*
X162900468Y-109141686D01*
X162896968Y-109139325D01*
X162896911Y-109139035D01*
X162896675Y-109138859D01*
X162896063Y-109134674D01*
X162895259Y-109130534D01*
X162895368Y-109130053D01*
X162900902Y-109108174D01*
X162901531Y-109106348D01*
X162917585Y-109069991D01*
X162920500Y-109044865D01*
X162920499Y-109032143D01*
X162920854Y-109029291D01*
X162991766Y-108748936D01*
X162997117Y-108741757D01*
X163003109Y-108740106D01*
X163182800Y-108740106D01*
X163191073Y-108743533D01*
G37*
%TD.AperFunction*%
%TD*%
%TA.AperFunction,Conductor*%
%TO.N,OUTB*%
G36*
X162723616Y-108170088D02*
G01*
X162831834Y-108248260D01*
X162920996Y-108312667D01*
X162925696Y-108320289D01*
X162923629Y-108329002D01*
X162922418Y-108330424D01*
X162794204Y-108458638D01*
X162785931Y-108462065D01*
X162785768Y-108462064D01*
X161933376Y-108450169D01*
X161925151Y-108446627D01*
X161921840Y-108438307D01*
X161921855Y-108437854D01*
X161928051Y-108320289D01*
X161931266Y-108259279D01*
X161935124Y-108251200D01*
X161941741Y-108248260D01*
X162715561Y-108167936D01*
X162723616Y-108170088D01*
G37*
%TD.AperFunction*%
%TD*%
%TA.AperFunction,Conductor*%
%TO.N,PVDD_SW*%
G36*
X165140095Y-108125088D02*
G01*
X165305772Y-108337832D01*
X165465401Y-108542811D01*
X165467781Y-108551444D01*
X165465401Y-108557189D01*
X165140097Y-108974910D01*
X165132310Y-108979332D01*
X165125109Y-108977906D01*
X164550943Y-108653359D01*
X164545427Y-108646305D01*
X164545000Y-108643174D01*
X164545000Y-108456825D01*
X164548427Y-108448552D01*
X164550939Y-108446642D01*
X165125110Y-108122092D01*
X165133997Y-108121005D01*
X165140095Y-108125088D01*
G37*
%TD.AperFunction*%
%TD*%
%TA.AperFunction,Conductor*%
%TO.N,PVDD_SW*%
G36*
X164706170Y-108333010D02*
G01*
X164735712Y-108341883D01*
X165087344Y-108447497D01*
X165094280Y-108453157D01*
X165095677Y-108458701D01*
X165095677Y-108641298D01*
X165092250Y-108649571D01*
X165087343Y-108652503D01*
X164706170Y-108766989D01*
X164697260Y-108766087D01*
X164691599Y-108759150D01*
X164691341Y-108758127D01*
X164649474Y-108552329D01*
X164649474Y-108547668D01*
X164691340Y-108341881D01*
X164696346Y-108334459D01*
X164705136Y-108332750D01*
X164706170Y-108333010D01*
G37*
%TD.AperFunction*%
%TD*%
%TA.AperFunction,Conductor*%
%TO.N,PVDD_SW*%
G36*
X166105147Y-107764504D02*
G01*
X166235745Y-107895102D01*
X166239172Y-107903375D01*
X166238456Y-107907406D01*
X165948895Y-108696353D01*
X165942827Y-108702939D01*
X165934260Y-108703438D01*
X165474360Y-108552371D01*
X165467569Y-108546533D01*
X165467231Y-108545802D01*
X165284415Y-108110823D01*
X165284370Y-108101870D01*
X165290667Y-108095506D01*
X166092383Y-107761974D01*
X166101335Y-107761961D01*
X166105147Y-107764504D01*
G37*
%TD.AperFunction*%
%TD*%
%TA.AperFunction,Conductor*%
%TO.N,PVDD_SW*%
G36*
X166022693Y-107681524D02*
G01*
X166023601Y-107682067D01*
X166198722Y-107797979D01*
X166202020Y-107801277D01*
X166317928Y-107976392D01*
X166319637Y-107985183D01*
X166314630Y-107992606D01*
X166313716Y-107993153D01*
X165963233Y-108181727D01*
X165954323Y-108182629D01*
X165949416Y-108179697D01*
X165820302Y-108050583D01*
X165816875Y-108042310D01*
X165818271Y-108036767D01*
X166006847Y-107686282D01*
X166013783Y-107680622D01*
X166022693Y-107681524D01*
G37*
%TD.AperFunction*%
%TD*%
%TA.AperFunction,Conductor*%
%TO.N,PVDD_SW*%
G36*
X149804861Y-111666521D02*
G01*
X149810643Y-111672303D01*
X150344530Y-112841261D01*
X150344849Y-112850210D01*
X150343538Y-112852736D01*
X149903485Y-113494914D01*
X149895982Y-113499801D01*
X149893834Y-113500000D01*
X149706166Y-113500000D01*
X149697893Y-113496573D01*
X149696515Y-113494914D01*
X149256461Y-112852736D01*
X149254611Y-112843974D01*
X149255467Y-112841264D01*
X149789357Y-111672302D01*
X149795912Y-111666202D01*
X149804861Y-111666521D01*
G37*
%TD.AperFunction*%
%TD*%
%TA.AperFunction,Conductor*%
%TO.N,PVDD_SW*%
G36*
X149899571Y-113057750D02*
G01*
X149902503Y-113062657D01*
X150016989Y-113443829D01*
X150016087Y-113452739D01*
X150009150Y-113458400D01*
X150008116Y-113458660D01*
X149802332Y-113500525D01*
X149797668Y-113500525D01*
X149591883Y-113458660D01*
X149584459Y-113453653D01*
X149582750Y-113444863D01*
X149583010Y-113443829D01*
X149697497Y-113062657D01*
X149703158Y-113055720D01*
X149708702Y-113054323D01*
X149891298Y-113054323D01*
X149899571Y-113057750D01*
G37*
%TD.AperFunction*%
%TD*%
%TA.AperFunction,Conductor*%
%TO.N,I2C_VDD_SW*%
G36*
X154845312Y-106680462D02*
G01*
X155173587Y-106846751D01*
X155179419Y-106853546D01*
X155180000Y-106857188D01*
X155180000Y-107043148D01*
X155176573Y-107051421D01*
X155174025Y-107053352D01*
X154857073Y-107231187D01*
X154848181Y-107232246D01*
X154842354Y-107228466D01*
X154624977Y-106967184D01*
X154622320Y-106958632D01*
X154624684Y-106952584D01*
X154830743Y-106683780D01*
X154838495Y-106679301D01*
X154845312Y-106680462D01*
G37*
%TD.AperFunction*%
%TD*%
%TA.AperFunction,Conductor*%
%TO.N,I2C_VDD_SW*%
G36*
X155092739Y-106733912D02*
G01*
X155098400Y-106740849D01*
X155098660Y-106741883D01*
X155140525Y-106947668D01*
X155140525Y-106952332D01*
X155098660Y-107158116D01*
X155093653Y-107165540D01*
X155084863Y-107167249D01*
X155083829Y-107166989D01*
X154702657Y-107052503D01*
X154695720Y-107046842D01*
X154694323Y-107041298D01*
X154694323Y-106858701D01*
X154697750Y-106850428D01*
X154702654Y-106847497D01*
X155083829Y-106733010D01*
X155092739Y-106733912D01*
G37*
%TD.AperFunction*%
%TD*%
%TA.AperFunction,Conductor*%
%TO.N,I2C_VDD_SW*%
G36*
X153730723Y-105323427D02*
G01*
X153733111Y-105326881D01*
X153886231Y-105665611D01*
X153886516Y-105674561D01*
X153883468Y-105679062D01*
X153637898Y-105903772D01*
X153629482Y-105906829D01*
X153622102Y-105903772D01*
X153376531Y-105679062D01*
X153372740Y-105670948D01*
X153373767Y-105665614D01*
X153526889Y-105326880D01*
X153533419Y-105320753D01*
X153537550Y-105320000D01*
X153722450Y-105320000D01*
X153730723Y-105323427D01*
G37*
%TD.AperFunction*%
%TD*%
%TA.AperFunction,Conductor*%
%TO.N,I2C_VDD_SW*%
G36*
X153838117Y-105441339D02*
G01*
X153845540Y-105446346D01*
X153847249Y-105455136D01*
X153846989Y-105456170D01*
X153732503Y-105837343D01*
X153726842Y-105844280D01*
X153721298Y-105845677D01*
X153538702Y-105845677D01*
X153530429Y-105842250D01*
X153527497Y-105837343D01*
X153413010Y-105456170D01*
X153413912Y-105447260D01*
X153420849Y-105441599D01*
X153421867Y-105441343D01*
X153627670Y-105399474D01*
X153632330Y-105399474D01*
X153838117Y-105441339D01*
G37*
%TD.AperFunction*%
%TD*%
%TA.AperFunction,Conductor*%
%TO.N,I2C_VDD_SW*%
G36*
X158707554Y-111057542D02*
G01*
X159292706Y-111641720D01*
X159296140Y-111649990D01*
X159292720Y-111658266D01*
X159292706Y-111658280D01*
X158707554Y-112242457D01*
X158699278Y-112245877D01*
X158691798Y-112243165D01*
X158104210Y-111753508D01*
X158100048Y-111745579D01*
X158100000Y-111744520D01*
X158100000Y-111555479D01*
X158103427Y-111547206D01*
X158104201Y-111546498D01*
X158691799Y-111056833D01*
X158700347Y-111054170D01*
X158707554Y-111057542D01*
G37*
%TD.AperFunction*%
%TD*%
%TA.AperFunction,Conductor*%
%TO.N,I2C_VDD_SW*%
G36*
X158411377Y-111549395D02*
G01*
X158419450Y-111553268D01*
X158422438Y-111561078D01*
X158422438Y-111743537D01*
X158419011Y-111751810D01*
X158416967Y-111753441D01*
X158134601Y-111931043D01*
X158125774Y-111932547D01*
X158118668Y-111927675D01*
X158001738Y-111754065D01*
X157999958Y-111745289D01*
X157999977Y-111745197D01*
X158000315Y-111743537D01*
X158041880Y-111539223D01*
X158046887Y-111531801D01*
X158053982Y-111529874D01*
X158411377Y-111549395D01*
G37*
%TD.AperFunction*%
%TD*%
%TA.AperFunction,Conductor*%
%TO.N,I2C_VDD*%
G36*
X151157743Y-108700838D02*
G01*
X151412913Y-108926188D01*
X151416846Y-108934233D01*
X151415368Y-108940689D01*
X151253354Y-109229031D01*
X151246314Y-109234565D01*
X151243154Y-109235000D01*
X151056846Y-109235000D01*
X151048573Y-109231573D01*
X151046646Y-109229031D01*
X150884631Y-108940689D01*
X150883566Y-108931798D01*
X150887084Y-108926190D01*
X151142256Y-108700838D01*
X151150725Y-108697931D01*
X151157743Y-108700838D01*
G37*
%TD.AperFunction*%
%TD*%
%TA.AperFunction,Conductor*%
%TO.N,I2C_VDD*%
G36*
X156309713Y-115917711D02*
G01*
X156315084Y-115923727D01*
X156796462Y-117139983D01*
X156796320Y-117148937D01*
X156790045Y-117155105D01*
X156210823Y-117394062D01*
X156201868Y-117394049D01*
X156195545Y-117387708D01*
X156195542Y-117387701D01*
X156092900Y-117138428D01*
X155707995Y-116203657D01*
X155708014Y-116194704D01*
X155710538Y-116190934D01*
X155844379Y-116057093D01*
X155849243Y-116054175D01*
X156300802Y-115916839D01*
X156309713Y-115917711D01*
G37*
%TD.AperFunction*%
%TD*%
%TA.AperFunction,Conductor*%
%TO.N,VDD*%
G36*
X147567743Y-108690838D02*
G01*
X147822913Y-108916188D01*
X147826846Y-108924233D01*
X147825368Y-108930689D01*
X147663354Y-109219031D01*
X147656314Y-109224565D01*
X147653154Y-109225000D01*
X147466846Y-109225000D01*
X147458573Y-109221573D01*
X147456646Y-109219031D01*
X147294631Y-108930689D01*
X147293566Y-108921798D01*
X147297084Y-108916190D01*
X147552256Y-108690838D01*
X147560725Y-108687931D01*
X147567743Y-108690838D01*
G37*
%TD.AperFunction*%
%TD*%
%TA.AperFunction,Conductor*%
%TO.N,VDD*%
G36*
X147659360Y-108957750D02*
G01*
X147662367Y-108962916D01*
X147767350Y-109344030D01*
X147766243Y-109352916D01*
X147759177Y-109358417D01*
X147758402Y-109358602D01*
X147552332Y-109400525D01*
X147547668Y-109400525D01*
X147342172Y-109358719D01*
X147334748Y-109353712D01*
X147333039Y-109344922D01*
X147333374Y-109343647D01*
X147457372Y-108962404D01*
X147463189Y-108955597D01*
X147468498Y-108954323D01*
X147651087Y-108954323D01*
X147659360Y-108957750D01*
G37*
%TD.AperFunction*%
%TD*%
%TA.AperFunction,Conductor*%
%TO.N,GND*%
G36*
X151370677Y-104043895D02*
G01*
X151250000Y-104445677D01*
X151050000Y-104445677D01*
X150929323Y-104043895D01*
X151150000Y-103999000D01*
X151370677Y-104043895D01*
G37*
%TD.AperFunction*%
%TD*%
%TA.AperFunction,Conductor*%
%TO.N,GND*%
G36*
X149570677Y-104043895D02*
G01*
X149450000Y-104445677D01*
X149250000Y-104445677D01*
X149129323Y-104043895D01*
X149350000Y-103999000D01*
X149570677Y-104043895D01*
G37*
%TD.AperFunction*%
%TD*%
%TA.AperFunction,Conductor*%
%TO.N,GND*%
G36*
X147770677Y-104043895D02*
G01*
X147650000Y-104445677D01*
X147450000Y-104445677D01*
X147329323Y-104043895D01*
X147550000Y-103999000D01*
X147770677Y-104043895D01*
G37*
%TD.AperFunction*%
%TD*%
%TA.AperFunction,Conductor*%
%TO.N,Net-(D3-A)*%
G36*
X147557176Y-106441850D02*
G01*
X147982763Y-106759150D01*
X147987348Y-106766842D01*
X147985778Y-106774591D01*
X147663415Y-107306861D01*
X147656198Y-107312162D01*
X147653407Y-107312500D01*
X147466394Y-107312500D01*
X147458121Y-107309073D01*
X147456547Y-107307118D01*
X147122102Y-106785891D01*
X147120518Y-106777078D01*
X147124722Y-106770372D01*
X147542960Y-106442026D01*
X147551582Y-106439614D01*
X147557176Y-106441850D01*
G37*
%TD.AperFunction*%
%TD*%
%TA.AperFunction,Conductor*%
%TO.N,Net-(D3-A)*%
G36*
X147661427Y-107128427D02*
G01*
X147663354Y-107130969D01*
X147825368Y-107419309D01*
X147826433Y-107428200D01*
X147822913Y-107433810D01*
X147567745Y-107659160D01*
X147559275Y-107662068D01*
X147552255Y-107659160D01*
X147297086Y-107433810D01*
X147293153Y-107425765D01*
X147294630Y-107419310D01*
X147456646Y-107130968D01*
X147463686Y-107125435D01*
X147466846Y-107125000D01*
X147653154Y-107125000D01*
X147661427Y-107128427D01*
G37*
%TD.AperFunction*%
%TD*%
%TA.AperFunction,Conductor*%
%TO.N,Net-(D1-A)*%
G36*
X149451427Y-107138427D02*
G01*
X149453354Y-107140969D01*
X149615368Y-107429309D01*
X149616433Y-107438200D01*
X149612913Y-107443810D01*
X149357745Y-107669160D01*
X149349275Y-107672068D01*
X149342255Y-107669160D01*
X149087086Y-107443810D01*
X149083153Y-107435765D01*
X149084630Y-107429310D01*
X149246646Y-107140968D01*
X149253686Y-107135435D01*
X149256846Y-107135000D01*
X149443154Y-107135000D01*
X149451427Y-107138427D01*
G37*
%TD.AperFunction*%
%TD*%
%TA.AperFunction,Conductor*%
%TO.N,Net-(D1-A)*%
G36*
X149357109Y-106441938D02*
G01*
X149779055Y-106764704D01*
X149783544Y-106772452D01*
X149781874Y-106780187D01*
X149453435Y-107306990D01*
X149446151Y-107312197D01*
X149443507Y-107312500D01*
X149256493Y-107312500D01*
X149248220Y-107309073D01*
X149246565Y-107306990D01*
X148918125Y-106780187D01*
X148916656Y-106771354D01*
X148920942Y-106764705D01*
X149342891Y-106441937D01*
X149351545Y-106439633D01*
X149357109Y-106441938D01*
G37*
%TD.AperFunction*%
%TD*%
%TA.AperFunction,Conductor*%
%TO.N,Net-(D2-A)*%
G36*
X151157109Y-106441938D02*
G01*
X151579055Y-106764704D01*
X151583544Y-106772452D01*
X151581874Y-106780187D01*
X151253435Y-107306990D01*
X151246151Y-107312197D01*
X151243507Y-107312500D01*
X151056493Y-107312500D01*
X151048220Y-107309073D01*
X151046565Y-107306990D01*
X150718125Y-106780187D01*
X150716656Y-106771354D01*
X150720942Y-106764705D01*
X151142891Y-106441937D01*
X151151545Y-106439633D01*
X151157109Y-106441938D01*
G37*
%TD.AperFunction*%
%TD*%
%TA.AperFunction,Conductor*%
%TO.N,Net-(D2-A)*%
G36*
X151251427Y-107138427D02*
G01*
X151253354Y-107140969D01*
X151415368Y-107429309D01*
X151416433Y-107438200D01*
X151412913Y-107443810D01*
X151157745Y-107669160D01*
X151149275Y-107672068D01*
X151142255Y-107669160D01*
X150887086Y-107443810D01*
X150883153Y-107435765D01*
X150884630Y-107429310D01*
X151046646Y-107140968D01*
X151053686Y-107135435D01*
X151056846Y-107135000D01*
X151243154Y-107135000D01*
X151251427Y-107138427D01*
G37*
%TD.AperFunction*%
%TD*%
%TA.AperFunction,Conductor*%
%TO.N,VDD*%
G36*
X161444261Y-119553197D02*
G01*
X161856802Y-119965738D01*
X161860229Y-119974011D01*
X161859078Y-119979072D01*
X161172576Y-121410087D01*
X161165908Y-121416064D01*
X161156966Y-121415575D01*
X161155538Y-121414762D01*
X160461241Y-120952005D01*
X160457994Y-120948758D01*
X159995237Y-120254461D01*
X159993500Y-120245676D01*
X159998484Y-120238236D01*
X159999904Y-120237427D01*
X161430927Y-119550920D01*
X161439869Y-119550432D01*
X161444261Y-119553197D01*
G37*
%TD.AperFunction*%
%TD*%
%TA.AperFunction,Conductor*%
%TO.N,GND*%
G36*
X163251000Y-103650000D02*
G01*
X163206105Y-103870677D01*
X162804323Y-103750000D01*
X162804323Y-103550000D01*
X163206105Y-103429323D01*
X163251000Y-103650000D01*
G37*
%TD.AperFunction*%
%TD*%
%TA.AperFunction,Conductor*%
%TO.N,GND*%
G36*
X166351000Y-104850000D02*
G01*
X166306105Y-105070677D01*
X165904323Y-104950000D01*
X165904323Y-104750000D01*
X166306105Y-104629323D01*
X166351000Y-104850000D01*
G37*
%TD.AperFunction*%
%TD*%
%TA.AperFunction,Conductor*%
%TO.N,GND*%
G36*
X155322438Y-107500000D02*
G01*
X155322438Y-107700000D01*
X155025003Y-107887081D01*
X154899000Y-107700000D01*
X154943895Y-107479323D01*
X155322438Y-107500000D01*
G37*
%TD.AperFunction*%
%TD*%
%TA.AperFunction,Conductor*%
%TO.N,GND*%
G36*
X153395677Y-106860000D02*
G01*
X153395677Y-107060000D01*
X152993895Y-107170677D01*
X152949000Y-106950000D01*
X152993895Y-106729323D01*
X153395677Y-106860000D01*
G37*
%TD.AperFunction*%
%TD*%
%TA.AperFunction,Conductor*%
%TO.N,I2C_VDD_SW*%
G36*
X156165775Y-106938690D02*
G01*
X156172896Y-106944119D01*
X156174091Y-106952994D01*
X156168662Y-106960115D01*
X156165775Y-106961310D01*
X155485219Y-107141464D01*
X155478331Y-107141187D01*
X155227806Y-107052755D01*
X155221145Y-107046770D01*
X155220000Y-107041722D01*
X155220000Y-106858277D01*
X155223427Y-106850004D01*
X155227803Y-106847245D01*
X155478332Y-106758811D01*
X155485219Y-106758535D01*
X156165775Y-106938690D01*
G37*
%TD.AperFunction*%
%TD*%
%TA.AperFunction,Conductor*%
%TO.N,I2C_VDD_SW*%
G36*
X155196170Y-106733010D02*
G01*
X155225712Y-106741883D01*
X155577344Y-106847497D01*
X155584280Y-106853157D01*
X155585677Y-106858701D01*
X155585677Y-107041298D01*
X155582250Y-107049571D01*
X155577343Y-107052503D01*
X155196170Y-107166989D01*
X155187260Y-107166087D01*
X155181599Y-107159150D01*
X155181341Y-107158127D01*
X155139474Y-106952329D01*
X155139474Y-106947668D01*
X155181340Y-106741881D01*
X155186346Y-106734459D01*
X155195136Y-106732750D01*
X155196170Y-106733010D01*
G37*
%TD.AperFunction*%
%TD*%
%TA.AperFunction,Conductor*%
%TO.N,I2C_VDD_SW*%
G36*
X153637898Y-104856227D02*
G01*
X153883468Y-105080937D01*
X153887259Y-105089051D01*
X153886231Y-105094388D01*
X153733111Y-105433119D01*
X153726581Y-105439246D01*
X153722450Y-105440000D01*
X153537550Y-105440000D01*
X153529277Y-105436573D01*
X153526889Y-105433119D01*
X153373768Y-105094388D01*
X153373483Y-105085438D01*
X153376528Y-105080940D01*
X153622102Y-104856226D01*
X153630518Y-104853170D01*
X153637898Y-104856227D01*
G37*
%TD.AperFunction*%
%TD*%
%TA.AperFunction,Conductor*%
%TO.N,I2C_VDD_SW*%
G36*
X153729571Y-104957750D02*
G01*
X153732503Y-104962657D01*
X153846989Y-105343829D01*
X153846087Y-105352739D01*
X153839150Y-105358400D01*
X153838116Y-105358660D01*
X153632332Y-105400525D01*
X153627668Y-105400525D01*
X153421883Y-105358660D01*
X153414459Y-105353653D01*
X153412750Y-105344863D01*
X153413010Y-105343829D01*
X153527497Y-104962657D01*
X153533158Y-104955720D01*
X153538702Y-104954323D01*
X153721298Y-104954323D01*
X153729571Y-104957750D01*
G37*
%TD.AperFunction*%
%TD*%
%TA.AperFunction,Conductor*%
%TO.N,SDA*%
G36*
X154924913Y-105795705D02*
G01*
X155111610Y-106197655D01*
X155112699Y-106202584D01*
X155112699Y-106383692D01*
X155109272Y-106391965D01*
X155100999Y-106395392D01*
X155097251Y-106394775D01*
X154619017Y-106233049D01*
X154612278Y-106227153D01*
X154611151Y-106220553D01*
X154648210Y-105916478D01*
X154652613Y-105908681D01*
X154654924Y-105907269D01*
X154909407Y-105790007D01*
X154918354Y-105789658D01*
X154924913Y-105795705D01*
G37*
%TD.AperFunction*%
%TD*%
%TA.AperFunction,Conductor*%
%TO.N,SDA*%
G36*
X154842606Y-105795369D02*
G01*
X154843153Y-105796283D01*
X155031727Y-106146766D01*
X155032629Y-106155676D01*
X155029697Y-106160583D01*
X154900583Y-106289697D01*
X154892310Y-106293124D01*
X154886766Y-106291727D01*
X154536283Y-106103153D01*
X154530622Y-106096216D01*
X154531524Y-106087306D01*
X154532061Y-106086407D01*
X154647981Y-105911274D01*
X154651274Y-105907981D01*
X154826394Y-105792070D01*
X154835183Y-105790362D01*
X154842606Y-105795369D01*
G37*
%TD.AperFunction*%
%TD*%
%TA.AperFunction,Conductor*%
%TO.N,SCL*%
G36*
X155354439Y-105408116D02*
G01*
X156210777Y-105449422D01*
X156218874Y-105453243D01*
X156221898Y-105461672D01*
X156221881Y-105461953D01*
X156208937Y-105640618D01*
X156204922Y-105648622D01*
X156198119Y-105651442D01*
X155424363Y-105707844D01*
X155416498Y-105705540D01*
X155329812Y-105640618D01*
X155218671Y-105557381D01*
X155214105Y-105549680D01*
X155216321Y-105541003D01*
X155217406Y-105539751D01*
X155345628Y-105411529D01*
X155353900Y-105408103D01*
X155354439Y-105408116D01*
G37*
%TD.AperFunction*%
%TD*%
%TA.AperFunction,Conductor*%
%TO.N,SCL*%
G36*
X154918918Y-104742309D02*
G01*
X154924864Y-104747857D01*
X155158328Y-105213146D01*
X155158976Y-105222077D01*
X155156144Y-105226666D01*
X155026375Y-105356435D01*
X155018102Y-105359862D01*
X155013353Y-105358855D01*
X154702297Y-105220695D01*
X154596642Y-105173766D01*
X154590473Y-105167277D01*
X154589899Y-105160885D01*
X154648106Y-104855515D01*
X154653021Y-104848032D01*
X154655147Y-104846889D01*
X154909966Y-104742281D01*
X154918918Y-104742309D01*
G37*
%TD.AperFunction*%
%TD*%
%TA.AperFunction,Conductor*%
%TO.N,GND*%
G36*
X164661000Y-110100000D02*
G01*
X164616105Y-110320677D01*
X164214323Y-110200000D01*
X164214323Y-110000000D01*
X164616105Y-109879323D01*
X164661000Y-110100000D01*
G37*
%TD.AperFunction*%
%TD*%
%TA.AperFunction,Conductor*%
%TO.N,GND*%
G36*
X162941253Y-109596669D02*
G01*
X162816957Y-109784457D01*
X162629169Y-109908753D01*
X162430399Y-109539320D01*
X162571820Y-109397899D01*
X162941253Y-109596669D01*
G37*
%TD.AperFunction*%
%TD*%
%TA.AperFunction,Conductor*%
%TO.N,PVDD_SW*%
G36*
X164214889Y-108122092D02*
G01*
X164789058Y-108446641D01*
X164794573Y-108453694D01*
X164795000Y-108456825D01*
X164795000Y-108643174D01*
X164791573Y-108651447D01*
X164789057Y-108653359D01*
X164214890Y-108977906D01*
X164206002Y-108978994D01*
X164199903Y-108974911D01*
X163874597Y-108557188D01*
X163872218Y-108548556D01*
X163874597Y-108542812D01*
X164199904Y-108125087D01*
X164207689Y-108120667D01*
X164214889Y-108122092D01*
G37*
%TD.AperFunction*%
%TD*%
%TA.AperFunction,Conductor*%
%TO.N,PVDD_SW*%
G36*
X164602739Y-108333912D02*
G01*
X164608400Y-108340849D01*
X164608660Y-108341883D01*
X164650525Y-108547668D01*
X164650525Y-108552332D01*
X164608660Y-108758116D01*
X164603653Y-108765540D01*
X164594863Y-108767249D01*
X164593829Y-108766989D01*
X164212657Y-108652503D01*
X164205720Y-108646842D01*
X164204323Y-108641298D01*
X164204323Y-108458701D01*
X164207750Y-108450428D01*
X164212654Y-108447497D01*
X164593829Y-108333010D01*
X164602739Y-108333912D01*
G37*
%TD.AperFunction*%
%TD*%
%TA.AperFunction,Conductor*%
%TO.N,Net-(U1-IN2)*%
G36*
X162661667Y-106758811D02*
G01*
X162912195Y-106847244D01*
X162918855Y-106853229D01*
X162920000Y-106858277D01*
X162920000Y-107041722D01*
X162916573Y-107049995D01*
X162912194Y-107052755D01*
X162661668Y-107141187D01*
X162654780Y-107141464D01*
X162144156Y-107006293D01*
X161974223Y-106961309D01*
X161967103Y-106955881D01*
X161965908Y-106947006D01*
X161971337Y-106939885D01*
X161974222Y-106938690D01*
X162654781Y-106758535D01*
X162661667Y-106758811D01*
G37*
%TD.AperFunction*%
%TD*%
%TA.AperFunction,Conductor*%
%TO.N,Net-(U1-IN2)*%
G36*
X163072915Y-106852286D02*
G01*
X163585268Y-106938224D01*
X163592861Y-106942972D01*
X163594996Y-106950698D01*
X163571494Y-107243826D01*
X163567416Y-107251799D01*
X163565616Y-107253061D01*
X163299644Y-107404345D01*
X163290758Y-107405457D01*
X163284011Y-107400490D01*
X163159885Y-107206903D01*
X163061132Y-107052886D01*
X163059281Y-107046571D01*
X163059281Y-106863826D01*
X163062708Y-106855553D01*
X163070981Y-106852126D01*
X163072915Y-106852286D01*
G37*
%TD.AperFunction*%
%TD*%
%TA.AperFunction,Conductor*%
%TO.N,Net-(U1-IN1)*%
G36*
X162900694Y-106053625D02*
G01*
X162904534Y-106061715D01*
X162904549Y-106062306D01*
X162904549Y-106243952D01*
X162901122Y-106252225D01*
X162899615Y-106253497D01*
X162723586Y-106378268D01*
X162715627Y-106380362D01*
X161941226Y-106300996D01*
X161933345Y-106296744D01*
X161930753Y-106290251D01*
X161917093Y-106111972D01*
X161919878Y-106103461D01*
X161927865Y-106099412D01*
X161928139Y-106099394D01*
X162892259Y-106050621D01*
X162900694Y-106053625D01*
G37*
%TD.AperFunction*%
%TD*%
%TA.AperFunction,Conductor*%
%TO.N,Net-(U1-IN1)*%
G36*
X163353543Y-105877601D02*
G01*
X163565173Y-106142701D01*
X163567656Y-106151304D01*
X163565173Y-106157299D01*
X163353543Y-106422398D01*
X163345703Y-106426726D01*
X163338893Y-106425422D01*
X163016194Y-106253303D01*
X163010507Y-106246386D01*
X163010000Y-106242980D01*
X163010000Y-106057019D01*
X163013427Y-106048746D01*
X163016192Y-106046697D01*
X163338893Y-105874576D01*
X163347805Y-105873707D01*
X163353543Y-105877601D01*
G37*
%TD.AperFunction*%
%TD*%
%TA.AperFunction,Conductor*%
%TO.N,Net-(U1-BIAS)*%
G36*
X163865783Y-104847264D02*
G01*
X163872127Y-104853584D01*
X163872411Y-104854338D01*
X164027800Y-105314356D01*
X164027201Y-105323290D01*
X164020905Y-105329024D01*
X163235491Y-105630300D01*
X163226540Y-105630063D01*
X163223028Y-105627649D01*
X163092445Y-105497066D01*
X163089018Y-105488793D01*
X163089862Y-105484431D01*
X163415597Y-104674549D01*
X163421864Y-104668153D01*
X163430818Y-104668061D01*
X163865783Y-104847264D01*
G37*
%TD.AperFunction*%
%TD*%
%TA.AperFunction,Conductor*%
%TO.N,Net-(U1-BIAS)*%
G36*
X162661667Y-105458811D02*
G01*
X162912195Y-105547244D01*
X162918855Y-105553229D01*
X162920000Y-105558277D01*
X162920000Y-105741722D01*
X162916573Y-105749995D01*
X162912194Y-105752755D01*
X162661668Y-105841187D01*
X162654780Y-105841464D01*
X162144156Y-105706293D01*
X161974223Y-105661309D01*
X161967103Y-105655881D01*
X161965908Y-105647006D01*
X161971337Y-105639885D01*
X161974222Y-105638690D01*
X162654781Y-105458535D01*
X162661667Y-105458811D01*
G37*
%TD.AperFunction*%
%TD*%
%TA.AperFunction,Conductor*%
%TO.N,FAULT*%
G36*
X155577898Y-103656227D02*
G01*
X155823468Y-103880937D01*
X155827259Y-103889051D01*
X155826231Y-103894388D01*
X155673111Y-104233119D01*
X155666581Y-104239246D01*
X155662450Y-104240000D01*
X155477550Y-104240000D01*
X155469277Y-104236573D01*
X155466889Y-104233119D01*
X155313768Y-103894388D01*
X155313483Y-103885438D01*
X155316528Y-103880940D01*
X155562102Y-103656226D01*
X155570518Y-103653170D01*
X155577898Y-103656227D01*
G37*
%TD.AperFunction*%
%TD*%
%TA.AperFunction,Conductor*%
%TO.N,FAULT*%
G36*
X155944620Y-104592566D02*
G01*
X156281729Y-104794832D01*
X156287060Y-104802027D01*
X156286537Y-104809296D01*
X156212660Y-104989824D01*
X156206355Y-104996183D01*
X156197401Y-104996221D01*
X156197347Y-104996199D01*
X155740817Y-104806707D01*
X155734489Y-104800370D01*
X155734496Y-104791416D01*
X155737026Y-104787631D01*
X155795368Y-104729290D01*
X155930331Y-104594326D01*
X155938603Y-104590900D01*
X155944620Y-104592566D01*
G37*
%TD.AperFunction*%
%TD*%
%TA.AperFunction,Conductor*%
%TO.N,FAULT*%
G36*
X155970732Y-104618271D02*
G01*
X156225914Y-104755570D01*
X156321216Y-104806846D01*
X156326877Y-104813783D01*
X156325975Y-104822693D01*
X156325428Y-104823607D01*
X156209520Y-104998722D01*
X156206222Y-105002020D01*
X156031107Y-105117928D01*
X156022316Y-105119637D01*
X156014893Y-105114630D01*
X156014346Y-105113716D01*
X155825772Y-104763233D01*
X155824870Y-104754323D01*
X155827800Y-104749418D01*
X155956917Y-104620301D01*
X155965189Y-104616875D01*
X155970732Y-104618271D01*
G37*
%TD.AperFunction*%
%TD*%
%TA.AperFunction,Conductor*%
%TO.N,VDD*%
G36*
X156835690Y-103384631D02*
G01*
X157124031Y-103546646D01*
X157129565Y-103553686D01*
X157130000Y-103556846D01*
X157130000Y-103743153D01*
X157126573Y-103751426D01*
X157124031Y-103753353D01*
X156835690Y-103915368D01*
X156826799Y-103916433D01*
X156821189Y-103912913D01*
X156678573Y-103751426D01*
X156595838Y-103657743D01*
X156592931Y-103649275D01*
X156595838Y-103642256D01*
X156821190Y-103387085D01*
X156829234Y-103383153D01*
X156835690Y-103384631D01*
G37*
%TD.AperFunction*%
%TD*%
%TA.AperFunction,Conductor*%
%TO.N,VDD*%
G36*
X157242739Y-103433912D02*
G01*
X157248400Y-103440849D01*
X157248660Y-103441883D01*
X157290525Y-103647668D01*
X157290525Y-103652332D01*
X157248660Y-103858116D01*
X157243653Y-103865540D01*
X157234863Y-103867249D01*
X157233829Y-103866989D01*
X156852657Y-103752503D01*
X156845720Y-103746842D01*
X156844323Y-103741298D01*
X156844323Y-103558701D01*
X156847750Y-103550428D01*
X156852654Y-103547497D01*
X157233829Y-103433010D01*
X157242739Y-103433912D01*
G37*
%TD.AperFunction*%
%TD*%
%TA.AperFunction,Conductor*%
%TO.N,VDD*%
G36*
X161353543Y-103377601D02*
G01*
X161565173Y-103642701D01*
X161567656Y-103651304D01*
X161565173Y-103657299D01*
X161353543Y-103922398D01*
X161345703Y-103926726D01*
X161338893Y-103925422D01*
X161016194Y-103753303D01*
X161010507Y-103746386D01*
X161010000Y-103742980D01*
X161010000Y-103557019D01*
X161013427Y-103548746D01*
X161016192Y-103546697D01*
X161338893Y-103374576D01*
X161347805Y-103373707D01*
X161353543Y-103377601D01*
G37*
%TD.AperFunction*%
%TD*%
%TA.AperFunction,Conductor*%
%TO.N,VDD*%
G36*
X160916170Y-103433010D02*
G01*
X160945712Y-103441883D01*
X161297344Y-103547497D01*
X161304280Y-103553157D01*
X161305677Y-103558701D01*
X161305677Y-103741298D01*
X161302250Y-103749571D01*
X161297343Y-103752503D01*
X160916170Y-103866989D01*
X160907260Y-103866087D01*
X160901599Y-103859150D01*
X160901341Y-103858127D01*
X160859474Y-103652329D01*
X160859474Y-103647668D01*
X160901340Y-103441881D01*
X160906346Y-103434459D01*
X160915136Y-103432750D01*
X160916170Y-103433010D01*
G37*
%TD.AperFunction*%
%TD*%
%TA.AperFunction,Conductor*%
%TO.N,VDD*%
G36*
X161574041Y-104400249D02*
G01*
X161781189Y-104441983D01*
X161788622Y-104446977D01*
X161790577Y-104453573D01*
X161787962Y-104709216D01*
X161784536Y-104717369D01*
X161655748Y-104846157D01*
X161647475Y-104849584D01*
X161639202Y-104846157D01*
X161638329Y-104845180D01*
X161390823Y-104534911D01*
X161388342Y-104526307D01*
X161392673Y-104518469D01*
X161393409Y-104517926D01*
X161565236Y-104402028D01*
X161574012Y-104400244D01*
X161574041Y-104400249D01*
G37*
%TD.AperFunction*%
%TD*%
%TA.AperFunction,Conductor*%
%TO.N,VDD*%
G36*
X161577491Y-103655246D02*
G01*
X161832450Y-103867829D01*
X161836609Y-103875758D01*
X161835578Y-103881722D01*
X161673139Y-104233208D01*
X161666557Y-104239281D01*
X161662518Y-104240000D01*
X161477482Y-104240000D01*
X161469209Y-104236573D01*
X161466861Y-104233208D01*
X161304420Y-103881720D01*
X161304061Y-103872775D01*
X161307546Y-103867831D01*
X161562508Y-103655246D01*
X161571056Y-103652581D01*
X161577491Y-103655246D01*
G37*
%TD.AperFunction*%
%TD*%
%TA.AperFunction,Conductor*%
%TO.N,VDD*%
G36*
X161669571Y-103957750D02*
G01*
X161672503Y-103962657D01*
X161786989Y-104343829D01*
X161786087Y-104352739D01*
X161779150Y-104358400D01*
X161778116Y-104358660D01*
X161572332Y-104400525D01*
X161567668Y-104400525D01*
X161361883Y-104358660D01*
X161354459Y-104353653D01*
X161352750Y-104344863D01*
X161353010Y-104343829D01*
X161467497Y-103962657D01*
X161473158Y-103955720D01*
X161478702Y-103954323D01*
X161661298Y-103954323D01*
X161669571Y-103957750D01*
G37*
%TD.AperFunction*%
%TD*%
%TA.AperFunction,Conductor*%
%TO.N,VDD*%
G36*
X161669620Y-104592566D02*
G01*
X162006729Y-104794832D01*
X162012060Y-104802027D01*
X162011537Y-104809296D01*
X161937660Y-104989824D01*
X161931355Y-104996183D01*
X161922401Y-104996221D01*
X161922347Y-104996199D01*
X161465817Y-104806707D01*
X161459489Y-104800370D01*
X161459496Y-104791416D01*
X161462026Y-104787631D01*
X161520368Y-104729290D01*
X161655331Y-104594326D01*
X161663603Y-104590900D01*
X161669620Y-104592566D01*
G37*
%TD.AperFunction*%
%TD*%
%TA.AperFunction,Conductor*%
%TO.N,I2C_VDD_SW*%
G36*
X153898495Y-105812957D02*
G01*
X153904380Y-105818997D01*
X154112986Y-106307398D01*
X154113084Y-106316353D01*
X154110499Y-106320267D01*
X153980804Y-106449962D01*
X153972531Y-106453389D01*
X153967023Y-106452011D01*
X153559009Y-106234275D01*
X153553323Y-106227357D01*
X153553151Y-106221180D01*
X153627820Y-105915322D01*
X153633111Y-105908100D01*
X153635106Y-105907133D01*
X153889548Y-105812625D01*
X153898495Y-105812957D01*
G37*
%TD.AperFunction*%
%TD*%
%TA.AperFunction,Conductor*%
%TO.N,I2C_VDD_SW*%
G36*
X154249079Y-106443618D02*
G01*
X154696866Y-106645883D01*
X154702995Y-106652412D01*
X154703333Y-106659643D01*
X154622228Y-106955164D01*
X154616734Y-106962235D01*
X154615389Y-106962890D01*
X154350172Y-107071802D01*
X154341218Y-107071775D01*
X154335201Y-107066085D01*
X154103922Y-106589201D01*
X154103395Y-106580261D01*
X154106174Y-106575824D01*
X154235991Y-106446007D01*
X154244263Y-106442581D01*
X154249079Y-106443618D01*
G37*
%TD.AperFunction*%
%TD*%
%TA.AperFunction,Conductor*%
%TO.N,GND*%
G36*
X170705677Y-117050000D02*
G01*
X170705677Y-117250000D01*
X170303895Y-117380677D01*
X170259000Y-117160000D01*
X170303895Y-116939323D01*
X170705677Y-117050000D01*
G37*
%TD.AperFunction*%
%TD*%
M02*
