M48
; DRILL file {KiCad 9.0.0} date 2025-11-09T16:08:13+0100
; FORMAT={-:-/ absolute / metric / decimal}
; #@! TF.CreationDate,2025-11-09T16:08:13+01:00
; #@! TF.GenerationSoftware,Kicad,Pcbnew,9.0.0
; #@! TF.FileFunction,Plated,1,4,PTH
FMAT,2
METRIC
; #@! TA.AperFunction,Plated,PTH,ViaDrill
T1C0.300
; #@! TA.AperFunction,Plated,PTH,ComponentDrill
T2C1.000
; #@! TA.AperFunction,Plated,PTH,ComponentDrill
T3C3.200
%
G90
G05
T1
X136.86Y-112.58
X143.6Y-118.01
X144.24Y-115.34
X144.36Y-109.04
X146.29Y-107.91
X147.55Y-104.0
X147.55Y-109.4
X149.35Y-104.0
X149.8Y-113.5
X151.07Y-114.4
X151.15Y-104.0
X152.71Y-120.95
X152.95Y-106.95
X153.304Y-104.136
X153.41Y-121.88
X153.44Y-109.5
X153.58Y-117.14
X153.63Y-105.4
X154.09Y-120.95
X154.65Y-105.91
X154.9Y-107.7
X155.14Y-106.95
X155.74Y-114.59
X156.207Y-105.0
X156.39Y-110.55
X157.29Y-103.65
X158.0Y-111.75
X158.07Y-104.95
X158.07Y-105.95
X158.07Y-106.95
X158.07Y-107.95
X158.07Y-108.95
X158.23Y-117.15
X158.49Y-103.95
X159.07Y-104.95
X159.07Y-105.95
X159.07Y-106.95
X159.07Y-107.95
X159.07Y-108.95
X159.26Y-113.54
X160.07Y-104.95
X160.07Y-105.95
X160.07Y-106.95
X160.07Y-107.95
X160.07Y-108.95
X160.3Y-116.0
X160.54Y-109.875
X160.86Y-103.65
X161.57Y-104.4
X161.8Y-118.89
X161.933Y-107.6
X162.075Y-112.8
X162.29Y-110.7
X162.816Y-109.784
X162.99Y-117.16
X163.113Y-109.186
X163.25Y-103.65
X164.0Y-117.73
X164.65Y-108.55
X164.66Y-110.1
X165.02Y-121.35
X165.34Y-106.15
X165.74Y-103.25
X166.2Y-107.8
X166.29Y-115.38
X166.35Y-104.85
X166.39Y-110.11
X167.51Y-108.53
X167.63Y-115.23
X167.77Y-105.56
X169.54Y-119.63
X170.26Y-117.16
X171.175Y-112.465
X173.92Y-115.72
X174.06Y-109.13
X174.62Y-119.63
X175.82Y-117.81
X179.78Y-108.95
T2
X143.8Y-120.95
X146.34Y-120.95
X148.88Y-120.95
X151.42Y-120.95
X155.38Y-120.95
X157.92Y-120.95
X160.46Y-120.95
X163.0Y-120.95
X167.0Y-120.95
X169.54Y-120.95
X170.0Y-105.0
X170.0Y-107.54
X172.08Y-120.95
X174.62Y-120.95
T3
X141.0Y-112.5
X177.5Y-112.5
M30
