%TF.GenerationSoftware,KiCad,Pcbnew,9.0.0*%
%TF.CreationDate,2025-11-09T16:07:43+01:00*%
%TF.ProjectId,PCB_AMPLI,5043425f-414d-4504-9c49-2e6b69636164,rev?*%
%TF.SameCoordinates,Original*%
%TF.FileFunction,Copper,L4,Bot*%
%TF.FilePolarity,Positive*%
%FSLAX46Y46*%
G04 Gerber Fmt 4.6, Leading zero omitted, Abs format (unit mm)*
G04 Created by KiCad (PCBNEW 9.0.0) date 2025-11-09 16:07:43*
%MOMM*%
%LPD*%
G01*
G04 APERTURE LIST*
%TA.AperFunction,ComponentPad*%
%ADD10R,1.700000X1.700000*%
%TD*%
%TA.AperFunction,ComponentPad*%
%ADD11O,1.700000X1.700000*%
%TD*%
%TA.AperFunction,ComponentPad*%
%ADD12C,6.400000*%
%TD*%
%TA.AperFunction,ViaPad*%
%ADD13C,0.450000*%
%TD*%
%TA.AperFunction,Conductor*%
%ADD14C,0.600000*%
%TD*%
%TA.AperFunction,Conductor*%
%ADD15C,0.200000*%
%TD*%
G04 APERTURE END LIST*
D10*
%TO.P,J2,1,Pin_1*%
%TO.N,OUTA*%
X170000000Y-105000000D03*
D11*
%TO.P,J2,2,Pin_2*%
%TO.N,OUTB*%
X170000000Y-107540000D03*
%TD*%
D10*
%TO.P,J3,1,Pin_1*%
%TO.N,IN1*%
X167000000Y-120950000D03*
D11*
%TO.P,J3,2,Pin_2*%
%TO.N,GND*%
X169540000Y-120950000D03*
%TO.P,J3,3,Pin_3*%
%TO.N,IN2*%
X172080000Y-120950000D03*
%TO.P,J3,4,Pin_4*%
%TO.N,GND*%
X174620000Y-120950000D03*
%TD*%
%TO.P,J4,4,Pin_4*%
%TO.N,GND*%
X151420000Y-120950000D03*
%TO.P,J4,3,Pin_3*%
%TO.N,FAULT*%
X148880000Y-120950000D03*
%TO.P,J4,2,Pin_2*%
%TO.N,SDA*%
X146340000Y-120950000D03*
D10*
%TO.P,J4,1,Pin_1*%
%TO.N,SCL*%
X143800000Y-120950000D03*
%TD*%
D12*
%TO.P,H1,1,1*%
%TO.N,GND*%
X177500000Y-112500000D03*
%TD*%
%TO.P,H2,1,1*%
%TO.N,GND*%
X141000000Y-112500000D03*
%TD*%
D10*
%TO.P,J10,1,Pin_1*%
%TO.N,I2C_VDD*%
X163000000Y-120950000D03*
D11*
%TO.P,J10,2,Pin_2*%
%TO.N,VDD*%
X160460000Y-120950000D03*
%TO.P,J10,3,Pin_3*%
%TO.N,PVDD*%
X157920000Y-120950000D03*
%TO.P,J10,4,Pin_4*%
%TO.N,GND*%
X155380000Y-120950000D03*
%TD*%
D13*
%TO.N,I2C_VDD_SW*%
X159260000Y-113540000D03*
X166290000Y-115380000D03*
%TO.N,PVDD_SW*%
X161932500Y-107600000D03*
%TO.N,VDD*%
X161800000Y-118890000D03*
X162990000Y-117160000D03*
X153580000Y-117140000D03*
%TO.N,GND*%
X155740000Y-114590000D03*
X146290000Y-107910000D03*
X144240000Y-115340000D03*
X143600000Y-118010000D03*
X162290000Y-110700000D03*
X158490000Y-103950000D03*
X156390000Y-110550000D03*
X153440000Y-109500000D03*
X165740000Y-103250000D03*
X167510000Y-108530000D03*
X167770000Y-105560000D03*
X173920000Y-115720000D03*
X164000000Y-117730000D03*
X165020000Y-121350000D03*
X153410000Y-121880000D03*
X151070000Y-114400000D03*
X162075000Y-112800000D03*
X160300000Y-116000000D03*
X179780000Y-108950000D03*
X136860000Y-112580000D03*
X144360000Y-109040000D03*
X175820000Y-117810000D03*
X167630000Y-115230000D03*
X174060000Y-109130000D03*
X166390000Y-110110000D03*
X164660000Y-110100000D03*
X162816250Y-109783750D03*
%TO.N,IN1*%
X171175000Y-112465000D03*
%TO.N,GND*%
X170260000Y-117160000D03*
%TO.N,IN1*%
X165340000Y-106150000D03*
%TO.N,GND*%
X174620000Y-119630000D03*
X169540000Y-119630000D03*
X154090000Y-120950000D03*
X152710000Y-120950000D03*
%TO.N,SDA*%
X154650000Y-105910000D03*
%TO.N,FAULT*%
X156207500Y-105000000D03*
%TO.N,SCL*%
X153304030Y-104135963D03*
%TO.N,OUTA*%
X160540000Y-109875002D03*
%TO.N,PVDD_SW*%
X164650000Y-108550000D03*
X166200000Y-107800000D03*
X149800000Y-113500000D03*
%TO.N,I2C_VDD_SW*%
X155140000Y-106950000D03*
X153630000Y-105400000D03*
X158000000Y-111750000D03*
%TO.N,GND*%
X159070000Y-108950000D03*
X158070000Y-108950000D03*
X160070000Y-107950000D03*
X159070000Y-107950000D03*
X158070000Y-107950000D03*
X160070000Y-106950000D03*
X159070000Y-106950000D03*
X158070000Y-106950000D03*
X160070000Y-105950000D03*
X159070000Y-105950000D03*
X158070000Y-105950000D03*
X160070000Y-104950000D03*
X159070000Y-104950000D03*
X158070000Y-104950000D03*
X160070000Y-108950000D03*
%TO.N,VDD*%
X147550000Y-109400000D03*
%TO.N,GND*%
X151150000Y-104000000D03*
X149350000Y-104000000D03*
X147550000Y-104000000D03*
%TO.N,I2C_VDD*%
X158230000Y-117150000D03*
%TO.N,OUTB*%
X163113052Y-109185783D03*
%TO.N,GND*%
X163250000Y-103650000D03*
X166350000Y-104850000D03*
X154900000Y-107700000D03*
X152950000Y-106950000D03*
%TO.N,VDD*%
X157290000Y-103650000D03*
X160860000Y-103650000D03*
X161570000Y-104400000D03*
%TD*%
D14*
%TO.N,I2C_VDD_SW*%
X159260000Y-113540000D02*
X160500000Y-114780000D01*
X160500000Y-114780000D02*
X165690000Y-114780000D01*
X165690000Y-114780000D02*
X166290000Y-115380000D01*
D15*
%TO.N,IN1*%
X171670000Y-107582240D02*
X170237760Y-106150000D01*
X171175000Y-112465000D02*
X171670000Y-111970000D01*
X171670000Y-111970000D02*
X171670000Y-107582240D01*
X170237760Y-106150000D02*
X165340000Y-106150000D01*
D14*
%TO.N,I2C_VDD*%
X158230000Y-117150000D02*
X158760000Y-117150000D01*
X158760000Y-117150000D02*
X160710000Y-119100000D01*
X160710000Y-119100000D02*
X160710000Y-119110000D01*
X160710000Y-119110000D02*
X162550000Y-120950000D01*
X162550000Y-120950000D02*
X163000000Y-120950000D01*
D15*
%TO.N,SDA*%
X146340000Y-120950000D02*
X154374000Y-112916000D01*
X154374000Y-112916000D02*
X154374000Y-106186000D01*
X154374000Y-106186000D02*
X154650000Y-105910000D01*
%TO.N,FAULT*%
X148880000Y-120950000D02*
X148880000Y-120100000D01*
X148880000Y-120100000D02*
X157130000Y-111850000D01*
X157130000Y-111850000D02*
X157130000Y-105922500D01*
X157130000Y-105922500D02*
X156207500Y-105000000D01*
%TO.N,OUTA*%
X160540000Y-109875002D02*
X166232878Y-104182123D01*
X166232878Y-104182123D02*
X169182123Y-104182123D01*
X169182123Y-104182123D02*
X170000000Y-105000000D01*
%TO.N,SCL*%
X153304030Y-104135963D02*
X148076000Y-109363993D01*
X148076000Y-109363993D02*
X148076000Y-116674000D01*
X148076000Y-116674000D02*
X143800000Y-120950000D01*
%TO.N,OUTB*%
X163113052Y-109185783D02*
X163277269Y-109350000D01*
X163277269Y-109350000D02*
X168190000Y-109350000D01*
X168190000Y-109350000D02*
X170000000Y-107540000D01*
%TD*%
%TA.AperFunction,Conductor*%
%TO.N,GND*%
G36*
X168189095Y-104502308D02*
G01*
X168224643Y-104536967D01*
X168427525Y-104835763D01*
X168925739Y-105569515D01*
X168928087Y-105572972D01*
X168934009Y-105591405D01*
X168944477Y-105607693D01*
X168948716Y-105637177D01*
X168949460Y-105639492D01*
X168949500Y-105642628D01*
X168949500Y-105725500D01*
X168929815Y-105792539D01*
X168877011Y-105838294D01*
X168825500Y-105849500D01*
X165850740Y-105849500D01*
X165815070Y-105844259D01*
X165455288Y-105736197D01*
X165446268Y-105733710D01*
X165445248Y-105733453D01*
X165442249Y-105733372D01*
X165416744Y-105730006D01*
X165415087Y-105729609D01*
X165396018Y-105724500D01*
X165393759Y-105724500D01*
X165384704Y-105722331D01*
X165359782Y-105708038D01*
X165333508Y-105696415D01*
X165329852Y-105690873D01*
X165324094Y-105687571D01*
X165310855Y-105662072D01*
X165295037Y-105638091D01*
X165294958Y-105631452D01*
X165291899Y-105625561D01*
X165294547Y-105596951D01*
X165294206Y-105568226D01*
X165297770Y-105562135D01*
X165298340Y-105555989D01*
X165310392Y-105540572D01*
X165325907Y-105514064D01*
X166321030Y-104518942D01*
X166382353Y-104485457D01*
X166408711Y-104482623D01*
X168122056Y-104482623D01*
X168189095Y-104502308D01*
G37*
%TD.AperFunction*%
%TA.AperFunction,Conductor*%
G36*
X157195128Y-103020185D02*
G01*
X157240883Y-103072989D01*
X157250827Y-103142147D01*
X157221802Y-103205703D01*
X157163024Y-103243477D01*
X157160219Y-103244264D01*
X157125763Y-103253497D01*
X157125760Y-103253498D01*
X157028740Y-103309513D01*
X157028734Y-103309517D01*
X156949517Y-103388734D01*
X156949513Y-103388740D01*
X156893498Y-103485760D01*
X156893497Y-103485763D01*
X156864500Y-103593982D01*
X156864500Y-103706018D01*
X156893497Y-103814237D01*
X156949515Y-103911263D01*
X157028737Y-103990485D01*
X157125763Y-104046503D01*
X157233982Y-104075500D01*
X157233984Y-104075500D01*
X157346016Y-104075500D01*
X157346018Y-104075500D01*
X157454237Y-104046503D01*
X157551263Y-103990485D01*
X157630485Y-103911263D01*
X157686503Y-103814237D01*
X157715500Y-103706018D01*
X157715500Y-103593982D01*
X157686503Y-103485763D01*
X157630485Y-103388737D01*
X157551263Y-103309515D01*
X157454237Y-103253497D01*
X157419816Y-103244274D01*
X157360157Y-103207910D01*
X157329628Y-103145063D01*
X157337922Y-103075688D01*
X157382408Y-103021810D01*
X157448960Y-103000535D01*
X157451911Y-103000500D01*
X160698089Y-103000500D01*
X160765128Y-103020185D01*
X160810883Y-103072989D01*
X160820827Y-103142147D01*
X160791802Y-103205703D01*
X160733024Y-103243477D01*
X160730219Y-103244264D01*
X160695763Y-103253497D01*
X160695760Y-103253498D01*
X160598740Y-103309513D01*
X160598734Y-103309517D01*
X160519517Y-103388734D01*
X160519513Y-103388740D01*
X160463498Y-103485760D01*
X160463497Y-103485763D01*
X160434500Y-103593982D01*
X160434500Y-103706018D01*
X160463497Y-103814237D01*
X160519515Y-103911263D01*
X160598737Y-103990485D01*
X160695763Y-104046503D01*
X160803982Y-104075500D01*
X160803984Y-104075500D01*
X160916016Y-104075500D01*
X160916018Y-104075500D01*
X161024237Y-104046503D01*
X161024241Y-104046500D01*
X161026538Y-104045550D01*
X161028633Y-104045324D01*
X161032088Y-104044399D01*
X161032232Y-104044937D01*
X161096007Y-104038080D01*
X161158487Y-104069354D01*
X161194140Y-104129442D01*
X161191647Y-104199268D01*
X161181380Y-104222108D01*
X161173499Y-104235758D01*
X161173497Y-104235763D01*
X161144500Y-104343982D01*
X161144500Y-104456018D01*
X161173497Y-104564237D01*
X161229515Y-104661263D01*
X161308737Y-104740485D01*
X161405763Y-104796503D01*
X161513982Y-104825500D01*
X161513984Y-104825500D01*
X161626016Y-104825500D01*
X161626018Y-104825500D01*
X161734237Y-104796503D01*
X161831263Y-104740485D01*
X161910485Y-104661263D01*
X161966503Y-104564237D01*
X161995500Y-104456018D01*
X161995500Y-104343982D01*
X161966503Y-104235763D01*
X161910485Y-104138737D01*
X161831263Y-104059515D01*
X161737616Y-104005448D01*
X161734239Y-104003498D01*
X161734238Y-104003497D01*
X161734237Y-104003497D01*
X161626018Y-103974500D01*
X161513982Y-103974500D01*
X161405753Y-104003499D01*
X161403447Y-104004455D01*
X161401347Y-104004680D01*
X161397912Y-104005601D01*
X161397768Y-104005064D01*
X161333977Y-104011916D01*
X161271501Y-103980635D01*
X161235855Y-103920542D01*
X161238357Y-103850717D01*
X161248617Y-103827895D01*
X161256503Y-103814237D01*
X161285500Y-103706018D01*
X161285500Y-103593982D01*
X161256503Y-103485763D01*
X161200485Y-103388737D01*
X161121263Y-103309515D01*
X161024237Y-103253497D01*
X160989816Y-103244274D01*
X160930157Y-103207910D01*
X160899628Y-103145063D01*
X160907922Y-103075688D01*
X160952408Y-103021810D01*
X161018960Y-103000535D01*
X161021911Y-103000500D01*
X171184108Y-103000500D01*
X171245572Y-103000500D01*
X171254418Y-103000816D01*
X171454561Y-103015130D01*
X171472063Y-103017647D01*
X171663797Y-103059355D01*
X171680755Y-103064334D01*
X171864609Y-103132909D01*
X171880701Y-103140259D01*
X172052904Y-103234288D01*
X172067784Y-103243849D01*
X172155505Y-103309517D01*
X172224867Y-103361441D01*
X172238237Y-103373027D01*
X172376972Y-103511762D01*
X172388558Y-103525132D01*
X172506146Y-103682210D01*
X172515711Y-103697095D01*
X172609740Y-103869298D01*
X172617090Y-103885390D01*
X172685662Y-104069236D01*
X172690646Y-104086212D01*
X172732351Y-104277931D01*
X172734869Y-104295442D01*
X172738341Y-104343982D01*
X172748985Y-104492805D01*
X172749184Y-104495580D01*
X172749500Y-104504427D01*
X172749500Y-107434108D01*
X172749500Y-107565892D01*
X172757504Y-107595762D01*
X172783608Y-107693187D01*
X172805853Y-107731715D01*
X172849500Y-107807314D01*
X172942686Y-107900500D01*
X173056814Y-107966392D01*
X173184108Y-108000500D01*
X177434108Y-108000500D01*
X177497128Y-108000500D01*
X177502855Y-108000632D01*
X177909440Y-108019429D01*
X177920837Y-108020485D01*
X178321117Y-108076322D01*
X178332353Y-108078423D01*
X178725776Y-108170955D01*
X178736766Y-108174082D01*
X179119989Y-108302525D01*
X179130643Y-108306653D01*
X179500365Y-108469901D01*
X179510592Y-108474993D01*
X179748010Y-108607234D01*
X179863669Y-108671656D01*
X179873407Y-108677685D01*
X180196695Y-108899142D01*
X180206830Y-108906084D01*
X180215967Y-108912985D01*
X180487830Y-109138737D01*
X180526883Y-109171166D01*
X180535347Y-109178882D01*
X180821117Y-109464652D01*
X180828833Y-109473116D01*
X181087012Y-109784029D01*
X181093915Y-109793169D01*
X181322314Y-110126592D01*
X181328343Y-110136330D01*
X181524999Y-110489394D01*
X181530102Y-110499643D01*
X181693341Y-110869343D01*
X181697479Y-110880023D01*
X181825913Y-111263220D01*
X181829047Y-111274236D01*
X181921573Y-111667633D01*
X181923678Y-111678892D01*
X181979513Y-112079160D01*
X181980570Y-112090564D01*
X181999235Y-112494273D01*
X181999235Y-112505727D01*
X181980570Y-112909435D01*
X181979513Y-112920839D01*
X181923678Y-113321107D01*
X181921573Y-113332366D01*
X181829047Y-113725763D01*
X181825913Y-113736779D01*
X181697479Y-114119976D01*
X181693341Y-114130656D01*
X181530104Y-114500352D01*
X181524999Y-114510605D01*
X181328343Y-114863669D01*
X181322314Y-114873407D01*
X181093915Y-115206830D01*
X181087012Y-115215970D01*
X180828833Y-115526883D01*
X180821117Y-115535347D01*
X180535347Y-115821117D01*
X180526883Y-115828833D01*
X180215970Y-116087012D01*
X180206830Y-116093915D01*
X179873407Y-116322314D01*
X179863669Y-116328343D01*
X179510605Y-116524999D01*
X179500352Y-116530104D01*
X179130656Y-116693341D01*
X179119976Y-116697479D01*
X178736779Y-116825913D01*
X178725763Y-116829047D01*
X178332366Y-116921573D01*
X178321107Y-116923678D01*
X177920839Y-116979513D01*
X177909435Y-116980570D01*
X177502855Y-116999368D01*
X177497128Y-116999500D01*
X177434108Y-116999500D01*
X177306812Y-117033608D01*
X177192686Y-117099500D01*
X177192683Y-117099502D01*
X177099502Y-117192683D01*
X177099500Y-117192686D01*
X177033608Y-117306812D01*
X176999500Y-117434108D01*
X176999500Y-121245572D01*
X176999184Y-121254418D01*
X176999184Y-121254419D01*
X176984869Y-121454557D01*
X176982351Y-121472068D01*
X176940646Y-121663787D01*
X176935662Y-121680763D01*
X176867090Y-121864609D01*
X176859740Y-121880701D01*
X176765711Y-122052904D01*
X176756146Y-122067789D01*
X176638558Y-122224867D01*
X176626972Y-122238237D01*
X176488237Y-122376972D01*
X176474867Y-122388558D01*
X176317789Y-122506146D01*
X176302904Y-122515711D01*
X176130701Y-122609740D01*
X176114609Y-122617090D01*
X175930763Y-122685662D01*
X175913787Y-122690646D01*
X175722068Y-122732351D01*
X175704557Y-122734869D01*
X175523779Y-122747799D01*
X175504417Y-122749184D01*
X175495572Y-122749500D01*
X143004428Y-122749500D01*
X142995582Y-122749184D01*
X142973622Y-122747613D01*
X142795442Y-122734869D01*
X142777931Y-122732351D01*
X142586212Y-122690646D01*
X142569236Y-122685662D01*
X142385390Y-122617090D01*
X142369298Y-122609740D01*
X142197095Y-122515711D01*
X142182210Y-122506146D01*
X142025132Y-122388558D01*
X142011762Y-122376972D01*
X141873027Y-122238237D01*
X141861441Y-122224867D01*
X141743849Y-122067784D01*
X141734288Y-122052904D01*
X141640259Y-121880701D01*
X141632909Y-121864609D01*
X141564334Y-121680755D01*
X141559355Y-121663797D01*
X141517647Y-121472063D01*
X141515130Y-121454556D01*
X141514804Y-121450000D01*
X141500816Y-121254418D01*
X141500500Y-121245572D01*
X141500500Y-120080247D01*
X142749500Y-120080247D01*
X142749500Y-121819752D01*
X142761131Y-121878229D01*
X142761132Y-121878230D01*
X142805447Y-121944552D01*
X142871769Y-121988867D01*
X142871770Y-121988868D01*
X142930247Y-122000499D01*
X142930250Y-122000500D01*
X142930252Y-122000500D01*
X144669750Y-122000500D01*
X144669751Y-122000499D01*
X144684568Y-121997552D01*
X144728229Y-121988868D01*
X144728229Y-121988867D01*
X144728231Y-121988867D01*
X144794552Y-121944552D01*
X144838867Y-121878231D01*
X144838867Y-121878229D01*
X144838868Y-121878229D01*
X144850499Y-121819752D01*
X144850500Y-121819750D01*
X144850500Y-121376621D01*
X144858887Y-121331792D01*
X145049887Y-120839211D01*
X145092477Y-120783823D01*
X145158251Y-120760253D01*
X145226326Y-120775985D01*
X145275090Y-120826024D01*
X145289500Y-120884041D01*
X145289500Y-121053469D01*
X145329868Y-121256412D01*
X145329870Y-121256420D01*
X145395939Y-121415925D01*
X145409059Y-121447598D01*
X145445894Y-121502726D01*
X145524024Y-121619657D01*
X145670342Y-121765975D01*
X145670345Y-121765977D01*
X145842402Y-121880941D01*
X146033580Y-121960130D01*
X146178052Y-121988867D01*
X146236530Y-122000499D01*
X146236534Y-122000500D01*
X146236535Y-122000500D01*
X146443466Y-122000500D01*
X146443467Y-122000499D01*
X146646420Y-121960130D01*
X146837598Y-121880941D01*
X147009655Y-121765977D01*
X147155977Y-121619655D01*
X147270941Y-121447598D01*
X147350130Y-121256420D01*
X147360075Y-121206423D01*
X147360659Y-121203489D01*
X147370558Y-121176947D01*
X147369443Y-121176450D01*
X147371920Y-121170892D01*
X147371921Y-121170891D01*
X147479795Y-120846530D01*
X147829500Y-120846530D01*
X147829500Y-121053469D01*
X147869868Y-121256412D01*
X147869870Y-121256420D01*
X147935939Y-121415925D01*
X147949059Y-121447598D01*
X147985894Y-121502726D01*
X148064024Y-121619657D01*
X148210342Y-121765975D01*
X148210345Y-121765977D01*
X148382402Y-121880941D01*
X148573580Y-121960130D01*
X148718052Y-121988867D01*
X148776530Y-122000499D01*
X148776534Y-122000500D01*
X148776535Y-122000500D01*
X148983466Y-122000500D01*
X148983467Y-122000499D01*
X149186420Y-121960130D01*
X149377598Y-121880941D01*
X149549655Y-121765977D01*
X149695977Y-121619655D01*
X149810941Y-121447598D01*
X149879165Y-121282889D01*
X149923004Y-121228488D01*
X149989298Y-121206423D01*
X150056998Y-121223702D01*
X150104609Y-121274839D01*
X150111656Y-121292026D01*
X150168904Y-121468216D01*
X150265379Y-121657557D01*
X150390272Y-121829459D01*
X150390276Y-121829464D01*
X150540535Y-121979723D01*
X150540540Y-121979727D01*
X150712442Y-122104620D01*
X150901782Y-122201095D01*
X151103871Y-122266757D01*
X151170000Y-122277231D01*
X151170000Y-121383012D01*
X151227007Y-121415925D01*
X151354174Y-121450000D01*
X151485826Y-121450000D01*
X151612993Y-121415925D01*
X151670000Y-121383012D01*
X151670000Y-122277230D01*
X151736126Y-122266757D01*
X151736129Y-122266757D01*
X151938217Y-122201095D01*
X152127557Y-122104620D01*
X152299459Y-121979727D01*
X152299464Y-121979723D01*
X152449723Y-121829464D01*
X152449727Y-121829459D01*
X152574620Y-121657557D01*
X152671095Y-121468217D01*
X152736757Y-121266129D01*
X152736757Y-121266126D01*
X152747231Y-121200000D01*
X151853012Y-121200000D01*
X151885925Y-121142993D01*
X151920000Y-121015826D01*
X151920000Y-120884174D01*
X151885925Y-120757007D01*
X151853012Y-120700000D01*
X152747231Y-120700000D01*
X154052769Y-120700000D01*
X154946988Y-120700000D01*
X154914075Y-120757007D01*
X154880000Y-120884174D01*
X154880000Y-121015826D01*
X154914075Y-121142993D01*
X154946988Y-121200000D01*
X154052769Y-121200000D01*
X154063242Y-121266126D01*
X154063242Y-121266129D01*
X154128904Y-121468217D01*
X154225379Y-121657557D01*
X154350272Y-121829459D01*
X154350276Y-121829464D01*
X154500535Y-121979723D01*
X154500540Y-121979727D01*
X154672442Y-122104620D01*
X154861782Y-122201095D01*
X155063871Y-122266757D01*
X155130000Y-122277231D01*
X155130000Y-121383012D01*
X155187007Y-121415925D01*
X155314174Y-121450000D01*
X155445826Y-121450000D01*
X155572993Y-121415925D01*
X155630000Y-121383012D01*
X155630000Y-122277230D01*
X155696126Y-122266757D01*
X155696129Y-122266757D01*
X155898217Y-122201095D01*
X156087557Y-122104620D01*
X156259459Y-121979727D01*
X156259464Y-121979723D01*
X156409723Y-121829464D01*
X156409727Y-121829459D01*
X156534620Y-121657557D01*
X156631095Y-121468217D01*
X156688343Y-121292026D01*
X156727780Y-121234351D01*
X156792139Y-121207152D01*
X156860985Y-121219066D01*
X156912461Y-121266310D01*
X156920835Y-121282891D01*
X156975939Y-121415925D01*
X156989059Y-121447598D01*
X157025894Y-121502726D01*
X157104024Y-121619657D01*
X157250342Y-121765975D01*
X157250345Y-121765977D01*
X157422402Y-121880941D01*
X157613580Y-121960130D01*
X157758052Y-121988867D01*
X157816530Y-122000499D01*
X157816534Y-122000500D01*
X157816535Y-122000500D01*
X158023466Y-122000500D01*
X158023467Y-122000499D01*
X158226420Y-121960130D01*
X158417598Y-121880941D01*
X158589655Y-121765977D01*
X158735977Y-121619655D01*
X158850941Y-121447598D01*
X158930130Y-121256420D01*
X158970500Y-121053465D01*
X158970500Y-120846535D01*
X158930130Y-120643580D01*
X158850941Y-120452402D01*
X158735977Y-120280345D01*
X158735976Y-120280344D01*
X158735975Y-120280342D01*
X158589657Y-120134024D01*
X158421655Y-120021770D01*
X158417598Y-120019059D01*
X158226420Y-119939870D01*
X158226412Y-119939868D01*
X158023469Y-119899500D01*
X158023465Y-119899500D01*
X157816535Y-119899500D01*
X157816530Y-119899500D01*
X157613587Y-119939868D01*
X157613579Y-119939870D01*
X157422403Y-120019058D01*
X157250342Y-120134024D01*
X157104024Y-120280342D01*
X156989057Y-120452403D01*
X156920835Y-120617108D01*
X156876994Y-120671511D01*
X156810700Y-120693576D01*
X156743000Y-120676297D01*
X156695390Y-120625159D01*
X156688343Y-120607973D01*
X156631095Y-120431782D01*
X156534620Y-120242442D01*
X156409727Y-120070540D01*
X156409723Y-120070535D01*
X156259464Y-119920276D01*
X156259459Y-119920272D01*
X156087557Y-119795379D01*
X155898215Y-119698903D01*
X155696124Y-119633241D01*
X155630000Y-119622768D01*
X155630000Y-120516988D01*
X155572993Y-120484075D01*
X155445826Y-120450000D01*
X155314174Y-120450000D01*
X155187007Y-120484075D01*
X155130000Y-120516988D01*
X155130000Y-119622768D01*
X155129999Y-119622768D01*
X155063875Y-119633241D01*
X154861784Y-119698903D01*
X154672442Y-119795379D01*
X154500540Y-119920272D01*
X154500535Y-119920276D01*
X154350276Y-120070535D01*
X154350272Y-120070540D01*
X154225379Y-120242442D01*
X154128904Y-120431782D01*
X154063242Y-120633870D01*
X154063242Y-120633873D01*
X154052769Y-120700000D01*
X152747231Y-120700000D01*
X152736757Y-120633873D01*
X152736757Y-120633870D01*
X152671095Y-120431782D01*
X152574620Y-120242442D01*
X152449727Y-120070540D01*
X152449723Y-120070535D01*
X152299464Y-119920276D01*
X152299459Y-119920272D01*
X152127557Y-119795379D01*
X151938215Y-119698903D01*
X151736124Y-119633241D01*
X151670000Y-119622768D01*
X151670000Y-120516988D01*
X151612993Y-120484075D01*
X151485826Y-120450000D01*
X151354174Y-120450000D01*
X151227007Y-120484075D01*
X151170000Y-120516988D01*
X151170000Y-119622768D01*
X151169999Y-119622768D01*
X151103875Y-119633241D01*
X150901784Y-119698903D01*
X150712442Y-119795379D01*
X150540540Y-119920272D01*
X150540535Y-119920276D01*
X150390276Y-120070535D01*
X150390272Y-120070540D01*
X150265379Y-120242442D01*
X150168905Y-120431781D01*
X150126835Y-120561258D01*
X150087397Y-120618933D01*
X150023038Y-120646131D01*
X149954192Y-120634216D01*
X149902716Y-120586972D01*
X149886174Y-120540641D01*
X149766258Y-119709039D01*
X149776173Y-119639877D01*
X149801305Y-119603664D01*
X152320988Y-117083982D01*
X153154500Y-117083982D01*
X153154500Y-117196018D01*
X153183497Y-117304237D01*
X153239515Y-117401263D01*
X153318737Y-117480485D01*
X153415763Y-117536503D01*
X153523982Y-117565500D01*
X153523984Y-117565500D01*
X153636016Y-117565500D01*
X153636018Y-117565500D01*
X153744237Y-117536503D01*
X153841263Y-117480485D01*
X153920485Y-117401263D01*
X153976503Y-117304237D01*
X154005500Y-117196018D01*
X154005500Y-117084108D01*
X157729500Y-117084108D01*
X157729500Y-117215892D01*
X157729534Y-117216018D01*
X157763608Y-117343187D01*
X157796554Y-117400250D01*
X157829500Y-117457314D01*
X157922686Y-117550500D01*
X158036814Y-117616392D01*
X158164108Y-117650500D01*
X158501324Y-117650500D01*
X158568363Y-117670185D01*
X158589005Y-117686819D01*
X160284294Y-119382108D01*
X160303998Y-119407785D01*
X160309501Y-119417316D01*
X160580004Y-119687819D01*
X160613489Y-119749142D01*
X160608505Y-119818834D01*
X160566633Y-119874767D01*
X160501169Y-119899184D01*
X160492323Y-119899500D01*
X160356530Y-119899500D01*
X160153587Y-119939868D01*
X160153579Y-119939870D01*
X159962403Y-120019058D01*
X159790342Y-120134024D01*
X159644024Y-120280342D01*
X159529058Y-120452403D01*
X159449870Y-120643579D01*
X159449868Y-120643587D01*
X159409500Y-120846530D01*
X159409500Y-121053469D01*
X159449868Y-121256412D01*
X159449870Y-121256420D01*
X159515939Y-121415925D01*
X159529059Y-121447598D01*
X159565894Y-121502726D01*
X159644024Y-121619657D01*
X159790342Y-121765975D01*
X159790345Y-121765977D01*
X159962402Y-121880941D01*
X160153580Y-121960130D01*
X160298052Y-121988867D01*
X160356530Y-122000499D01*
X160356534Y-122000500D01*
X160356535Y-122000500D01*
X160563466Y-122000500D01*
X160563467Y-122000499D01*
X160766420Y-121960130D01*
X160957598Y-121880941D01*
X161129655Y-121765977D01*
X161275977Y-121619655D01*
X161390941Y-121447598D01*
X161470130Y-121256420D01*
X161490444Y-121154289D01*
X161522828Y-121092382D01*
X161583543Y-121057807D01*
X161653313Y-121061546D01*
X161709985Y-121102412D01*
X161715635Y-121110304D01*
X161929074Y-121434547D01*
X161949493Y-121501366D01*
X161949500Y-121502726D01*
X161949500Y-121819752D01*
X161961131Y-121878229D01*
X161961132Y-121878230D01*
X162005447Y-121944552D01*
X162071769Y-121988867D01*
X162071770Y-121988868D01*
X162130247Y-122000499D01*
X162130250Y-122000500D01*
X162130252Y-122000500D01*
X163869750Y-122000500D01*
X163869751Y-122000499D01*
X163884568Y-121997552D01*
X163928229Y-121988868D01*
X163928229Y-121988867D01*
X163928231Y-121988867D01*
X163994552Y-121944552D01*
X164038867Y-121878231D01*
X164038867Y-121878229D01*
X164038868Y-121878229D01*
X164050499Y-121819752D01*
X164050500Y-121819750D01*
X164050500Y-120080249D01*
X164050499Y-120080247D01*
X165949500Y-120080247D01*
X165949500Y-121819752D01*
X165961131Y-121878229D01*
X165961132Y-121878230D01*
X166005447Y-121944552D01*
X166071769Y-121988867D01*
X166071770Y-121988868D01*
X166130247Y-122000499D01*
X166130250Y-122000500D01*
X166130252Y-122000500D01*
X167869750Y-122000500D01*
X167869751Y-122000499D01*
X167884568Y-121997552D01*
X167928229Y-121988868D01*
X167928229Y-121988867D01*
X167928231Y-121988867D01*
X167994552Y-121944552D01*
X168038867Y-121878231D01*
X168038867Y-121878229D01*
X168038868Y-121878229D01*
X168050499Y-121819752D01*
X168050500Y-121819750D01*
X168050500Y-121516048D01*
X168070185Y-121449009D01*
X168122989Y-121403254D01*
X168192147Y-121393310D01*
X168255703Y-121422335D01*
X168285938Y-121464264D01*
X168286694Y-121463879D01*
X168385379Y-121657557D01*
X168510272Y-121829459D01*
X168510276Y-121829464D01*
X168660535Y-121979723D01*
X168660540Y-121979727D01*
X168832442Y-122104620D01*
X169021782Y-122201095D01*
X169223871Y-122266757D01*
X169290000Y-122277231D01*
X169290000Y-121383012D01*
X169347007Y-121415925D01*
X169474174Y-121450000D01*
X169605826Y-121450000D01*
X169732993Y-121415925D01*
X169790000Y-121383012D01*
X169790000Y-122277231D01*
X169856126Y-122266757D01*
X169856129Y-122266757D01*
X170058217Y-122201095D01*
X170247557Y-122104620D01*
X170419459Y-121979727D01*
X170419464Y-121979723D01*
X170569723Y-121829464D01*
X170569727Y-121829459D01*
X170694620Y-121657557D01*
X170791095Y-121468217D01*
X170848343Y-121292026D01*
X170887780Y-121234351D01*
X170952139Y-121207152D01*
X171020985Y-121219066D01*
X171072461Y-121266310D01*
X171080835Y-121282891D01*
X171135939Y-121415925D01*
X171149059Y-121447598D01*
X171185894Y-121502726D01*
X171264024Y-121619657D01*
X171410342Y-121765975D01*
X171410345Y-121765977D01*
X171582402Y-121880941D01*
X171773580Y-121960130D01*
X171918052Y-121988867D01*
X171976530Y-122000499D01*
X171976534Y-122000500D01*
X171976535Y-122000500D01*
X172183466Y-122000500D01*
X172183467Y-122000499D01*
X172386420Y-121960130D01*
X172577598Y-121880941D01*
X172749655Y-121765977D01*
X172895977Y-121619655D01*
X173010941Y-121447598D01*
X173079165Y-121282889D01*
X173123004Y-121228488D01*
X173189298Y-121206423D01*
X173256998Y-121223702D01*
X173304609Y-121274839D01*
X173311656Y-121292026D01*
X173368904Y-121468216D01*
X173465379Y-121657557D01*
X173590272Y-121829459D01*
X173590276Y-121829464D01*
X173740535Y-121979723D01*
X173740540Y-121979727D01*
X173912442Y-122104620D01*
X174101782Y-122201095D01*
X174303871Y-122266757D01*
X174370000Y-122277231D01*
X174370000Y-121383012D01*
X174427007Y-121415925D01*
X174554174Y-121450000D01*
X174685826Y-121450000D01*
X174812993Y-121415925D01*
X174870000Y-121383012D01*
X174870000Y-122277231D01*
X174936126Y-122266757D01*
X174936129Y-122266757D01*
X175138217Y-122201095D01*
X175327557Y-122104620D01*
X175499459Y-121979727D01*
X175499464Y-121979723D01*
X175649723Y-121829464D01*
X175649727Y-121829459D01*
X175774620Y-121657557D01*
X175871095Y-121468217D01*
X175936757Y-121266129D01*
X175936757Y-121266126D01*
X175947231Y-121200000D01*
X175053012Y-121200000D01*
X175085925Y-121142993D01*
X175120000Y-121015826D01*
X175120000Y-120884174D01*
X175085925Y-120757007D01*
X175053012Y-120700000D01*
X175947231Y-120700000D01*
X175936757Y-120633873D01*
X175936757Y-120633870D01*
X175871095Y-120431782D01*
X175774620Y-120242442D01*
X175649727Y-120070540D01*
X175649723Y-120070535D01*
X175499464Y-119920276D01*
X175499459Y-119920272D01*
X175327557Y-119795379D01*
X175138215Y-119698903D01*
X174936124Y-119633241D01*
X174870000Y-119622768D01*
X174870000Y-120516988D01*
X174812993Y-120484075D01*
X174685826Y-120450000D01*
X174554174Y-120450000D01*
X174427007Y-120484075D01*
X174370000Y-120516988D01*
X174370000Y-119622768D01*
X174369999Y-119622768D01*
X174303875Y-119633241D01*
X174101784Y-119698903D01*
X173912442Y-119795379D01*
X173740540Y-119920272D01*
X173740535Y-119920276D01*
X173590276Y-120070535D01*
X173590272Y-120070540D01*
X173465379Y-120242442D01*
X173368905Y-120431781D01*
X173311656Y-120607974D01*
X173272218Y-120665649D01*
X173207859Y-120692847D01*
X173139013Y-120680932D01*
X173087537Y-120633688D01*
X173079164Y-120617107D01*
X173010943Y-120452405D01*
X172895975Y-120280342D01*
X172749657Y-120134024D01*
X172581655Y-120021770D01*
X172577598Y-120019059D01*
X172386420Y-119939870D01*
X172386412Y-119939868D01*
X172183469Y-119899500D01*
X172183465Y-119899500D01*
X171976535Y-119899500D01*
X171976530Y-119899500D01*
X171773587Y-119939868D01*
X171773579Y-119939870D01*
X171582403Y-120019058D01*
X171410342Y-120134024D01*
X171264024Y-120280342D01*
X171149057Y-120452403D01*
X171080835Y-120617108D01*
X171036994Y-120671511D01*
X170970700Y-120693576D01*
X170903000Y-120676297D01*
X170855390Y-120625159D01*
X170848343Y-120607973D01*
X170791095Y-120431782D01*
X170694620Y-120242442D01*
X170569727Y-120070540D01*
X170569723Y-120070535D01*
X170419464Y-119920276D01*
X170419459Y-119920272D01*
X170247557Y-119795379D01*
X170058215Y-119698903D01*
X169856124Y-119633241D01*
X169790000Y-119622768D01*
X169790000Y-120516988D01*
X169732993Y-120484075D01*
X169605826Y-120450000D01*
X169474174Y-120450000D01*
X169347007Y-120484075D01*
X169290000Y-120516988D01*
X169290000Y-119622768D01*
X169289999Y-119622768D01*
X169223875Y-119633241D01*
X169021784Y-119698903D01*
X168832442Y-119795379D01*
X168660540Y-119920272D01*
X168660535Y-119920276D01*
X168510276Y-120070535D01*
X168510272Y-120070540D01*
X168385379Y-120242442D01*
X168286694Y-120436121D01*
X168285678Y-120435603D01*
X168245212Y-120485813D01*
X168178916Y-120507872D01*
X168111218Y-120490588D01*
X168063612Y-120439447D01*
X168050500Y-120383951D01*
X168050500Y-120080249D01*
X168050499Y-120080247D01*
X168038868Y-120021770D01*
X168038867Y-120021769D01*
X167994552Y-119955447D01*
X167928230Y-119911132D01*
X167928229Y-119911131D01*
X167869752Y-119899500D01*
X167869748Y-119899500D01*
X166130252Y-119899500D01*
X166130247Y-119899500D01*
X166071770Y-119911131D01*
X166071769Y-119911132D01*
X166005447Y-119955447D01*
X165961132Y-120021769D01*
X165961131Y-120021770D01*
X165949500Y-120080247D01*
X164050499Y-120080247D01*
X164038868Y-120021770D01*
X164038867Y-120021769D01*
X163994552Y-119955447D01*
X163928230Y-119911132D01*
X163928229Y-119911131D01*
X163869752Y-119899500D01*
X163869748Y-119899500D01*
X163324415Y-119899500D01*
X163295298Y-119896033D01*
X161890109Y-119556583D01*
X161875236Y-119548240D01*
X161859799Y-119544882D01*
X161831545Y-119523731D01*
X161824358Y-119516544D01*
X161790873Y-119455221D01*
X161795857Y-119385529D01*
X161837729Y-119329596D01*
X161879943Y-119309089D01*
X161964237Y-119286503D01*
X162061263Y-119230485D01*
X162140485Y-119151263D01*
X162196503Y-119054237D01*
X162225500Y-118946018D01*
X162225500Y-118833982D01*
X162196503Y-118725763D01*
X162140485Y-118628737D01*
X162061263Y-118549515D01*
X161964237Y-118493497D01*
X161856018Y-118464500D01*
X161743982Y-118464500D01*
X161635763Y-118493497D01*
X161635760Y-118493498D01*
X161538740Y-118549513D01*
X161538734Y-118549517D01*
X161459517Y-118628734D01*
X161459513Y-118628740D01*
X161403498Y-118725760D01*
X161380911Y-118810055D01*
X161377751Y-118815239D01*
X161377318Y-118821294D01*
X161359779Y-118844721D01*
X161344545Y-118869715D01*
X161339083Y-118872367D01*
X161335446Y-118877227D01*
X161308025Y-118887454D01*
X161281698Y-118900243D01*
X161275670Y-118899522D01*
X161269982Y-118901644D01*
X161241383Y-118895422D01*
X161212322Y-118891948D01*
X161206122Y-118887752D01*
X161201709Y-118886792D01*
X161173455Y-118865641D01*
X161135704Y-118827890D01*
X161115999Y-118802211D01*
X161110500Y-118792686D01*
X161017314Y-118699500D01*
X159421796Y-117103982D01*
X162564500Y-117103982D01*
X162564500Y-117216018D01*
X162593497Y-117324237D01*
X162649515Y-117421263D01*
X162728737Y-117500485D01*
X162825763Y-117556503D01*
X162933982Y-117585500D01*
X162933984Y-117585500D01*
X163046016Y-117585500D01*
X163046018Y-117585500D01*
X163154237Y-117556503D01*
X163251263Y-117500485D01*
X163330485Y-117421263D01*
X163386503Y-117324237D01*
X163415500Y-117216018D01*
X163415500Y-117103982D01*
X163386503Y-116995763D01*
X163330485Y-116898737D01*
X163251263Y-116819515D01*
X163154237Y-116763497D01*
X163046018Y-116734500D01*
X162933982Y-116734500D01*
X162825763Y-116763497D01*
X162825760Y-116763498D01*
X162728740Y-116819513D01*
X162728734Y-116819517D01*
X162649517Y-116898734D01*
X162649513Y-116898740D01*
X162593498Y-116995760D01*
X162593497Y-116995763D01*
X162564500Y-117103982D01*
X159421796Y-117103982D01*
X159067314Y-116749500D01*
X158983194Y-116700933D01*
X158953187Y-116683608D01*
X158889539Y-116666554D01*
X158825892Y-116649500D01*
X158164108Y-116649500D01*
X158036812Y-116683608D01*
X157922686Y-116749500D01*
X157922683Y-116749502D01*
X157829502Y-116842683D01*
X157829500Y-116842686D01*
X157763608Y-116956812D01*
X157752170Y-116999500D01*
X157729500Y-117084108D01*
X154005500Y-117084108D01*
X154005500Y-117083982D01*
X153976503Y-116975763D01*
X153920485Y-116878737D01*
X153841263Y-116799515D01*
X153754638Y-116749502D01*
X153744239Y-116743498D01*
X153744238Y-116743497D01*
X153744237Y-116743497D01*
X153636018Y-116714500D01*
X153523982Y-116714500D01*
X153415763Y-116743497D01*
X153415760Y-116743498D01*
X153318740Y-116799513D01*
X153318734Y-116799517D01*
X153239517Y-116878734D01*
X153239513Y-116878740D01*
X153183498Y-116975760D01*
X153183497Y-116975763D01*
X153154500Y-117083982D01*
X152320988Y-117083982D01*
X155930863Y-113474108D01*
X158759500Y-113474108D01*
X158759500Y-113605891D01*
X158793608Y-113733187D01*
X158795682Y-113736779D01*
X158859500Y-113847314D01*
X160099500Y-115087314D01*
X160192686Y-115180500D01*
X160306814Y-115246392D01*
X160434108Y-115280500D01*
X165431324Y-115280500D01*
X165498363Y-115300185D01*
X165519005Y-115316819D01*
X165982686Y-115780500D01*
X166096814Y-115846392D01*
X166224107Y-115880500D01*
X166224109Y-115880500D01*
X166355890Y-115880500D01*
X166355892Y-115880500D01*
X166483186Y-115846392D01*
X166597314Y-115780500D01*
X166690500Y-115687314D01*
X166756392Y-115573186D01*
X166790500Y-115445892D01*
X166790500Y-115314107D01*
X166756392Y-115186814D01*
X166690500Y-115072686D01*
X165997314Y-114379500D01*
X165940250Y-114346554D01*
X165883187Y-114313608D01*
X165819539Y-114296554D01*
X165755892Y-114279500D01*
X165755891Y-114279500D01*
X160758676Y-114279500D01*
X160691637Y-114259815D01*
X160670995Y-114243181D01*
X159567316Y-113139502D01*
X159567314Y-113139500D01*
X159499782Y-113100510D01*
X159453187Y-113073608D01*
X159341029Y-113043556D01*
X159325892Y-113039500D01*
X159194108Y-113039500D01*
X159066812Y-113073608D01*
X158952686Y-113139500D01*
X158952683Y-113139502D01*
X158859502Y-113232683D01*
X158859500Y-113232686D01*
X158793608Y-113346812D01*
X158759500Y-113474108D01*
X155930863Y-113474108D01*
X157370460Y-112034511D01*
X157392744Y-111995913D01*
X157410021Y-111965989D01*
X157410021Y-111965986D01*
X157414083Y-111958952D01*
X157417098Y-111960693D01*
X157450727Y-111918784D01*
X157516975Y-111896581D01*
X157584710Y-111913718D01*
X157629047Y-111958491D01*
X157659515Y-112011263D01*
X157738737Y-112090485D01*
X157835763Y-112146503D01*
X157943982Y-112175500D01*
X157943984Y-112175500D01*
X158056016Y-112175500D01*
X158056018Y-112175500D01*
X158164237Y-112146503D01*
X158261263Y-112090485D01*
X158340485Y-112011263D01*
X158396503Y-111914237D01*
X158425500Y-111806018D01*
X158425500Y-111693982D01*
X158396503Y-111585763D01*
X158340485Y-111488737D01*
X158261263Y-111409515D01*
X158164237Y-111353497D01*
X158056018Y-111324500D01*
X157943982Y-111324500D01*
X157835763Y-111353497D01*
X157835760Y-111353498D01*
X157738740Y-111409513D01*
X157738734Y-111409517D01*
X157659517Y-111488734D01*
X157654567Y-111495186D01*
X157652489Y-111493591D01*
X157611310Y-111532849D01*
X157542702Y-111546065D01*
X157477839Y-111520091D01*
X157437316Y-111463174D01*
X157430500Y-111422628D01*
X157430500Y-109818984D01*
X160114500Y-109818984D01*
X160114500Y-109931020D01*
X160143497Y-110039239D01*
X160199515Y-110136265D01*
X160278737Y-110215487D01*
X160375763Y-110271505D01*
X160483982Y-110300502D01*
X160483984Y-110300502D01*
X160596016Y-110300502D01*
X160596018Y-110300502D01*
X160704237Y-110271505D01*
X160801263Y-110215487D01*
X160880485Y-110136265D01*
X160893422Y-110113855D01*
X160905171Y-110096931D01*
X160914122Y-110086086D01*
X161092114Y-109755267D01*
X161113628Y-109726343D01*
X163095989Y-107743982D01*
X165774500Y-107743982D01*
X165774500Y-107856018D01*
X165775906Y-107861263D01*
X165803497Y-107964236D01*
X165803498Y-107964239D01*
X165804741Y-107966392D01*
X165859515Y-108061263D01*
X165938737Y-108140485D01*
X166035763Y-108196503D01*
X166143982Y-108225500D01*
X166143984Y-108225500D01*
X166256016Y-108225500D01*
X166256018Y-108225500D01*
X166364237Y-108196503D01*
X166461263Y-108140485D01*
X166540485Y-108061263D01*
X166596503Y-107964237D01*
X166625500Y-107856018D01*
X166625500Y-107743982D01*
X166596503Y-107635763D01*
X166540485Y-107538737D01*
X166461263Y-107459515D01*
X166364237Y-107403497D01*
X166256018Y-107374500D01*
X166143982Y-107374500D01*
X166035763Y-107403497D01*
X166035760Y-107403498D01*
X165938740Y-107459513D01*
X165938734Y-107459517D01*
X165859517Y-107538734D01*
X165859513Y-107538740D01*
X165803498Y-107635760D01*
X165803497Y-107635763D01*
X165774500Y-107743982D01*
X163095989Y-107743982D01*
X164704064Y-106135907D01*
X164765385Y-106102424D01*
X164835077Y-106107408D01*
X164891010Y-106149280D01*
X164911068Y-106198524D01*
X164912397Y-106198168D01*
X164914500Y-106206016D01*
X164914500Y-106206018D01*
X164943497Y-106314237D01*
X164999515Y-106411263D01*
X165078737Y-106490485D01*
X165175763Y-106546503D01*
X165283982Y-106575500D01*
X165283984Y-106575500D01*
X165396017Y-106575500D01*
X165396018Y-106575500D01*
X165421006Y-106568803D01*
X165441286Y-106565143D01*
X165455278Y-106563804D01*
X165455279Y-106563803D01*
X165455284Y-106563803D01*
X165815068Y-106455740D01*
X165850737Y-106450500D01*
X169330928Y-106450500D01*
X169397967Y-106470185D01*
X169443722Y-106522989D01*
X169453666Y-106592147D01*
X169424641Y-106655703D01*
X169399818Y-106677602D01*
X169330349Y-106724019D01*
X169330341Y-106724025D01*
X169184024Y-106870342D01*
X169069058Y-107042403D01*
X168989870Y-107233579D01*
X168989868Y-107233585D01*
X168979342Y-107286505D01*
X168969449Y-107313052D01*
X168970557Y-107313546D01*
X168968075Y-107319112D01*
X168564817Y-108531643D01*
X168534835Y-108580192D01*
X168101848Y-109013181D01*
X168040525Y-109046666D01*
X168014167Y-109049500D01*
X165051610Y-109049500D01*
X164984571Y-109029815D01*
X164938816Y-108977011D01*
X164928872Y-108907853D01*
X164957897Y-108844297D01*
X164963929Y-108837819D01*
X164966116Y-108835632D01*
X164990485Y-108811263D01*
X165046503Y-108714237D01*
X165075500Y-108606018D01*
X165075500Y-108493982D01*
X165046503Y-108385763D01*
X164990485Y-108288737D01*
X164911263Y-108209515D01*
X164814237Y-108153497D01*
X164706018Y-108124500D01*
X164593982Y-108124500D01*
X164485763Y-108153497D01*
X164485760Y-108153498D01*
X164388740Y-108209513D01*
X164388734Y-108209517D01*
X164309517Y-108288734D01*
X164309513Y-108288740D01*
X164253498Y-108385760D01*
X164253497Y-108385763D01*
X164224500Y-108493982D01*
X164224500Y-108606018D01*
X164253497Y-108714237D01*
X164309515Y-108811263D01*
X164309517Y-108811265D01*
X164336071Y-108837819D01*
X164369556Y-108899142D01*
X164364572Y-108968834D01*
X164322700Y-109024767D01*
X164257236Y-109049184D01*
X164248390Y-109049500D01*
X163631700Y-109049500D01*
X163602583Y-109040950D01*
X163572883Y-109034663D01*
X163567456Y-109030635D01*
X163564661Y-109029815D01*
X163544510Y-109013670D01*
X163544465Y-109013625D01*
X163393015Y-108862988D01*
X163382706Y-108853665D01*
X163380748Y-108851729D01*
X163380722Y-108851682D01*
X163380257Y-108851240D01*
X163374317Y-108845300D01*
X163374315Y-108845298D01*
X163277289Y-108789280D01*
X163169070Y-108760283D01*
X163057034Y-108760283D01*
X162948815Y-108789280D01*
X162948812Y-108789281D01*
X162851792Y-108845296D01*
X162851786Y-108845300D01*
X162772569Y-108924517D01*
X162772565Y-108924523D01*
X162716550Y-109021543D01*
X162716549Y-109021546D01*
X162687552Y-109129765D01*
X162687552Y-109241801D01*
X162716549Y-109350020D01*
X162772567Y-109447046D01*
X162851789Y-109526268D01*
X162948815Y-109582286D01*
X163057034Y-109611283D01*
X163057036Y-109611283D01*
X163059283Y-109611885D01*
X163059319Y-109611891D01*
X163060759Y-109612184D01*
X163060767Y-109612187D01*
X163119312Y-109618233D01*
X163154025Y-109627016D01*
X163161275Y-109630018D01*
X163161280Y-109630021D01*
X163237707Y-109650500D01*
X163431713Y-109650500D01*
X163456693Y-109653080D01*
X163467220Y-109653894D01*
X163468422Y-109653956D01*
X163488485Y-109650500D01*
X168150438Y-109650500D01*
X168229562Y-109650500D01*
X168305989Y-109630021D01*
X168374511Y-109590460D01*
X168430460Y-109534511D01*
X168959810Y-109005159D01*
X169008355Y-108975179D01*
X170220891Y-108571921D01*
X170220896Y-108571918D01*
X170225603Y-108569910D01*
X170225824Y-108570429D01*
X170253133Y-108560728D01*
X170306420Y-108550130D01*
X170497598Y-108470941D01*
X170669655Y-108355977D01*
X170815977Y-108209655D01*
X170930941Y-108037598D01*
X171010130Y-107846420D01*
X171047674Y-107657673D01*
X171052383Y-107648668D01*
X171053109Y-107638530D01*
X171068305Y-107618230D01*
X171080058Y-107595762D01*
X171088890Y-107590732D01*
X171094981Y-107582597D01*
X171118738Y-107573735D01*
X171140774Y-107561188D01*
X171150922Y-107561731D01*
X171160445Y-107558180D01*
X171185222Y-107563569D01*
X171210544Y-107564927D01*
X171220605Y-107571267D01*
X171228718Y-107573032D01*
X171256972Y-107594183D01*
X171333181Y-107670392D01*
X171366666Y-107731715D01*
X171369500Y-107758073D01*
X171369500Y-111794166D01*
X171349815Y-111861205D01*
X171333179Y-111881848D01*
X171326151Y-111888876D01*
X171323660Y-111891368D01*
X171294736Y-111912879D01*
X170963919Y-112090873D01*
X170955570Y-112095619D01*
X170954669Y-112096160D01*
X170954667Y-112096162D01*
X170952561Y-112098159D01*
X170929256Y-112115554D01*
X170913740Y-112124513D01*
X170913734Y-112124517D01*
X170834517Y-112203734D01*
X170834513Y-112203740D01*
X170778498Y-112300760D01*
X170778497Y-112300763D01*
X170749500Y-112408982D01*
X170749500Y-112521018D01*
X170778497Y-112629237D01*
X170834515Y-112726263D01*
X170913737Y-112805485D01*
X171010763Y-112861503D01*
X171118982Y-112890500D01*
X171118984Y-112890500D01*
X171231016Y-112890500D01*
X171231018Y-112890500D01*
X171339237Y-112861503D01*
X171436263Y-112805485D01*
X171515485Y-112726263D01*
X171528422Y-112703853D01*
X171540171Y-112686929D01*
X171544433Y-112681765D01*
X171549122Y-112676084D01*
X171727114Y-112345265D01*
X171727423Y-112344850D01*
X171727480Y-112344591D01*
X171747211Y-112318234D01*
X173800000Y-112318234D01*
X173800000Y-112681765D01*
X173835632Y-113043556D01*
X173906550Y-113400090D01*
X173906553Y-113400101D01*
X174012086Y-113747997D01*
X174151207Y-114083864D01*
X174151209Y-114083869D01*
X174322570Y-114404462D01*
X174322581Y-114404480D01*
X174524551Y-114706750D01*
X174711678Y-114934765D01*
X174711679Y-114934766D01*
X176205747Y-113440697D01*
X176279588Y-113542330D01*
X176457670Y-113720412D01*
X176559301Y-113794251D01*
X175065232Y-115288319D01*
X175065233Y-115288320D01*
X175293249Y-115475448D01*
X175595519Y-115677418D01*
X175595537Y-115677429D01*
X175916130Y-115848790D01*
X175916135Y-115848792D01*
X176252002Y-115987913D01*
X176599898Y-116093446D01*
X176599909Y-116093449D01*
X176956443Y-116164367D01*
X177318234Y-116200000D01*
X177681766Y-116200000D01*
X178043556Y-116164367D01*
X178400090Y-116093449D01*
X178400101Y-116093446D01*
X178747997Y-115987913D01*
X179083864Y-115848792D01*
X179083869Y-115848790D01*
X179404462Y-115677429D01*
X179404480Y-115677418D01*
X179706736Y-115475457D01*
X179706750Y-115475447D01*
X179934765Y-115288320D01*
X179934766Y-115288319D01*
X178440698Y-113794251D01*
X178542330Y-113720412D01*
X178720412Y-113542330D01*
X178794251Y-113440698D01*
X180288319Y-114934766D01*
X180288320Y-114934765D01*
X180475447Y-114706750D01*
X180475457Y-114706736D01*
X180677418Y-114404480D01*
X180677429Y-114404462D01*
X180848790Y-114083869D01*
X180848792Y-114083864D01*
X180987913Y-113747997D01*
X181093446Y-113400101D01*
X181093449Y-113400090D01*
X181164367Y-113043556D01*
X181200000Y-112681765D01*
X181200000Y-112318234D01*
X181164367Y-111956443D01*
X181093449Y-111599909D01*
X181093446Y-111599898D01*
X180987913Y-111252002D01*
X180848792Y-110916135D01*
X180848790Y-110916130D01*
X180677429Y-110595537D01*
X180677418Y-110595519D01*
X180475448Y-110293249D01*
X180288320Y-110065233D01*
X180288319Y-110065232D01*
X178794251Y-111559300D01*
X178720412Y-111457670D01*
X178542330Y-111279588D01*
X178440698Y-111205748D01*
X179934766Y-109711679D01*
X179934765Y-109711678D01*
X179706750Y-109524551D01*
X179404480Y-109322581D01*
X179404462Y-109322570D01*
X179083869Y-109151209D01*
X179083864Y-109151207D01*
X178747997Y-109012086D01*
X178400101Y-108906553D01*
X178400090Y-108906550D01*
X178043556Y-108835632D01*
X177681766Y-108800000D01*
X177318234Y-108800000D01*
X176956443Y-108835632D01*
X176599909Y-108906550D01*
X176599898Y-108906553D01*
X176252002Y-109012086D01*
X175916135Y-109151207D01*
X175916130Y-109151209D01*
X175595537Y-109322570D01*
X175595519Y-109322581D01*
X175293258Y-109524545D01*
X175293254Y-109524548D01*
X175065233Y-109711679D01*
X175065233Y-109711680D01*
X176559301Y-111205748D01*
X176457670Y-111279588D01*
X176279588Y-111457670D01*
X176205748Y-111559301D01*
X174711680Y-110065233D01*
X174711679Y-110065233D01*
X174524548Y-110293254D01*
X174524545Y-110293258D01*
X174322581Y-110595519D01*
X174322570Y-110595537D01*
X174151209Y-110916130D01*
X174151207Y-110916135D01*
X174012086Y-111252002D01*
X173906553Y-111599898D01*
X173906550Y-111599909D01*
X173835632Y-111956443D01*
X173800000Y-112318234D01*
X171747211Y-112318234D01*
X171748628Y-112316341D01*
X171910460Y-112154511D01*
X171950022Y-112085988D01*
X171970500Y-112009562D01*
X171970500Y-111930438D01*
X171970500Y-107542678D01*
X171950021Y-107466251D01*
X171932417Y-107435760D01*
X171910464Y-107397735D01*
X171910458Y-107397727D01*
X170774912Y-106262181D01*
X170741427Y-106200858D01*
X170746411Y-106131166D01*
X170788283Y-106075233D01*
X170853747Y-106050816D01*
X170862593Y-106050500D01*
X170869750Y-106050500D01*
X170869751Y-106050499D01*
X170884568Y-106047552D01*
X170928229Y-106038868D01*
X170928229Y-106038867D01*
X170928231Y-106038867D01*
X170994552Y-105994552D01*
X171038867Y-105928231D01*
X171038867Y-105928229D01*
X171038868Y-105928229D01*
X171050499Y-105869752D01*
X171050500Y-105869750D01*
X171050500Y-104130249D01*
X171050499Y-104130247D01*
X171038868Y-104071770D01*
X171038867Y-104071769D01*
X170994552Y-104005447D01*
X170928230Y-103961132D01*
X170928229Y-103961131D01*
X170869752Y-103949500D01*
X170869748Y-103949500D01*
X170225155Y-103949500D01*
X170196630Y-103946174D01*
X170187966Y-103944126D01*
X170187965Y-103944125D01*
X170187961Y-103944125D01*
X169347271Y-103914007D01*
X169304259Y-103904648D01*
X169298116Y-103902103D01*
X169289083Y-103899682D01*
X169221685Y-103881623D01*
X169221683Y-103881623D01*
X168443266Y-103881623D01*
X168319466Y-103877188D01*
X168315626Y-103877086D01*
X168315217Y-103877079D01*
X168291306Y-103881623D01*
X166193316Y-103881623D01*
X166155102Y-103891862D01*
X166116887Y-103902102D01*
X166116886Y-103902103D01*
X166063815Y-103932744D01*
X166048370Y-103941660D01*
X166048364Y-103941665D01*
X162525723Y-107464306D01*
X162464400Y-107497791D01*
X162394708Y-107492807D01*
X162338775Y-107450935D01*
X162330655Y-107438625D01*
X162328047Y-107434108D01*
X162272985Y-107338737D01*
X162193763Y-107259515D01*
X162096737Y-107203497D01*
X161988518Y-107174500D01*
X161876482Y-107174500D01*
X161768263Y-107203497D01*
X161768260Y-107203498D01*
X161671240Y-107259513D01*
X161671234Y-107259517D01*
X161592017Y-107338734D01*
X161592013Y-107338740D01*
X161535998Y-107435760D01*
X161535997Y-107435763D01*
X161507000Y-107543982D01*
X161507000Y-107656018D01*
X161535997Y-107764237D01*
X161592015Y-107861263D01*
X161671237Y-107940485D01*
X161768263Y-107996503D01*
X161768264Y-107996503D01*
X161771125Y-107998155D01*
X161819340Y-108048722D01*
X161832564Y-108117329D01*
X161806596Y-108182193D01*
X161796806Y-108193223D01*
X160688664Y-109301365D01*
X160659736Y-109322881D01*
X160328919Y-109500875D01*
X160320570Y-109505621D01*
X160319669Y-109506162D01*
X160319667Y-109506164D01*
X160317561Y-109508161D01*
X160294256Y-109525556D01*
X160278740Y-109534515D01*
X160278734Y-109534519D01*
X160199517Y-109613736D01*
X160199513Y-109613742D01*
X160143498Y-109710762D01*
X160143497Y-109710765D01*
X160114500Y-109818984D01*
X157430500Y-109818984D01*
X157430500Y-105882939D01*
X157430500Y-105882938D01*
X157410021Y-105806511D01*
X157396388Y-105782898D01*
X157370464Y-105737995D01*
X157370458Y-105737987D01*
X156781132Y-105148661D01*
X156759615Y-105119733D01*
X156581622Y-104788915D01*
X156576987Y-104780753D01*
X156576969Y-104780721D01*
X156576443Y-104779843D01*
X156576436Y-104779834D01*
X156574401Y-104777686D01*
X156557028Y-104754401D01*
X156547985Y-104738737D01*
X156468763Y-104659515D01*
X156371737Y-104603497D01*
X156263518Y-104574500D01*
X156151482Y-104574500D01*
X156043263Y-104603497D01*
X156043260Y-104603498D01*
X155946240Y-104659513D01*
X155946234Y-104659517D01*
X155867017Y-104738734D01*
X155867013Y-104738740D01*
X155810998Y-104835760D01*
X155810997Y-104835763D01*
X155782000Y-104943982D01*
X155782000Y-105056018D01*
X155810997Y-105164237D01*
X155867015Y-105261263D01*
X155946237Y-105340485D01*
X155946239Y-105340486D01*
X155946243Y-105340489D01*
X155968638Y-105353419D01*
X155985566Y-105365168D01*
X155996415Y-105374122D01*
X156305779Y-105540572D01*
X156327233Y-105552115D01*
X156356161Y-105573632D01*
X156793181Y-106010652D01*
X156826666Y-106071975D01*
X156829500Y-106098333D01*
X156829500Y-111674166D01*
X156809815Y-111741205D01*
X156793181Y-111761847D01*
X149289343Y-119265684D01*
X149265924Y-119282949D01*
X149266257Y-119283454D01*
X149261172Y-119286807D01*
X148286632Y-120076904D01*
X148286610Y-120076925D01*
X148284670Y-120079153D01*
X148260075Y-120100793D01*
X148210347Y-120134021D01*
X148064023Y-120280344D01*
X147949058Y-120452403D01*
X147869870Y-120643579D01*
X147869868Y-120643587D01*
X147829500Y-120846530D01*
X147479795Y-120846530D01*
X147775179Y-119958355D01*
X147805159Y-119909810D01*
X154614460Y-113100511D01*
X154654022Y-113031988D01*
X154674500Y-112955562D01*
X154674500Y-112876438D01*
X154674500Y-107385215D01*
X154694185Y-107318176D01*
X154746989Y-107272421D01*
X154816147Y-107262477D01*
X154873989Y-107286841D01*
X154878734Y-107290482D01*
X154878737Y-107290485D01*
X154975763Y-107346503D01*
X155083982Y-107375500D01*
X155083984Y-107375500D01*
X155196016Y-107375500D01*
X155196018Y-107375500D01*
X155304237Y-107346503D01*
X155401263Y-107290485D01*
X155480485Y-107211263D01*
X155536503Y-107114237D01*
X155565500Y-107006018D01*
X155565500Y-106893982D01*
X155536503Y-106785763D01*
X155480485Y-106688737D01*
X155401263Y-106609515D01*
X155326115Y-106566128D01*
X155304239Y-106553498D01*
X155304238Y-106553497D01*
X155304237Y-106553497D01*
X155196018Y-106524500D01*
X155083982Y-106524500D01*
X154975763Y-106553497D01*
X154975760Y-106553498D01*
X154878733Y-106609517D01*
X154873983Y-106613162D01*
X154860739Y-106618281D01*
X154850011Y-106627578D01*
X154828801Y-106630627D01*
X154808814Y-106638354D01*
X154794906Y-106635501D01*
X154780853Y-106637522D01*
X154761359Y-106628619D01*
X154740369Y-106624314D01*
X154730211Y-106614394D01*
X154717297Y-106608497D01*
X154705712Y-106590470D01*
X154690381Y-106575499D01*
X154686462Y-106560516D01*
X154679523Y-106549719D01*
X154674500Y-106514784D01*
X154674500Y-106451211D01*
X154694185Y-106384172D01*
X154744900Y-106339394D01*
X154805983Y-106310116D01*
X154812096Y-106307389D01*
X154814228Y-106306505D01*
X154814237Y-106306503D01*
X154814244Y-106306498D01*
X154814521Y-106306384D01*
X154822001Y-106302438D01*
X154851687Y-106288211D01*
X154864455Y-106281531D01*
X154865874Y-106280724D01*
X154868242Y-106279356D01*
X154868850Y-106278783D01*
X154891816Y-106261711D01*
X154911263Y-106250485D01*
X154990485Y-106171263D01*
X155046503Y-106074237D01*
X155075500Y-105966018D01*
X155075500Y-105853982D01*
X155046503Y-105745763D01*
X154990485Y-105648737D01*
X154911263Y-105569515D01*
X154814237Y-105513497D01*
X154706018Y-105484500D01*
X154593982Y-105484500D01*
X154485763Y-105513497D01*
X154485760Y-105513498D01*
X154388740Y-105569513D01*
X154388734Y-105569517D01*
X154309517Y-105648734D01*
X154309512Y-105648740D01*
X154253498Y-105745759D01*
X154253497Y-105745761D01*
X154247811Y-105766981D01*
X154242363Y-105782898D01*
X154238286Y-105792605D01*
X154235789Y-105796344D01*
X154172507Y-105949227D01*
X154172311Y-105949695D01*
X154171487Y-105950707D01*
X154145671Y-105989356D01*
X154133543Y-106001484D01*
X154133535Y-106001496D01*
X154093982Y-106070004D01*
X154093979Y-106070009D01*
X154073500Y-106146439D01*
X154073500Y-112740166D01*
X154053815Y-112807205D01*
X154037181Y-112827847D01*
X147380192Y-119484835D01*
X147331643Y-119514817D01*
X146119103Y-119918079D01*
X146114393Y-119920090D01*
X146114173Y-119919575D01*
X146086856Y-119929272D01*
X146033585Y-119939868D01*
X146033579Y-119939870D01*
X145842403Y-120019058D01*
X145670342Y-120134024D01*
X145670341Y-120134025D01*
X145519715Y-120284652D01*
X145517781Y-120282718D01*
X145469578Y-120315353D01*
X145399729Y-120317025D01*
X145340064Y-120280668D01*
X145309526Y-120217825D01*
X145316193Y-120152420D01*
X145492719Y-119697167D01*
X145520648Y-119654321D01*
X148316460Y-116858511D01*
X148356021Y-116789989D01*
X148376500Y-116713562D01*
X148376500Y-113443982D01*
X149374500Y-113443982D01*
X149374500Y-113556018D01*
X149403497Y-113664237D01*
X149459515Y-113761263D01*
X149538737Y-113840485D01*
X149635763Y-113896503D01*
X149743982Y-113925500D01*
X149743984Y-113925500D01*
X149856016Y-113925500D01*
X149856018Y-113925500D01*
X149964237Y-113896503D01*
X150061263Y-113840485D01*
X150140485Y-113761263D01*
X150196503Y-113664237D01*
X150225500Y-113556018D01*
X150225500Y-113443982D01*
X150196503Y-113335763D01*
X150140485Y-113238737D01*
X150061263Y-113159515D01*
X149964237Y-113103497D01*
X149856018Y-113074500D01*
X149743982Y-113074500D01*
X149635763Y-113103497D01*
X149635760Y-113103498D01*
X149538740Y-113159513D01*
X149538734Y-113159517D01*
X149459517Y-113238734D01*
X149459513Y-113238740D01*
X149403498Y-113335760D01*
X149403497Y-113335763D01*
X149374500Y-113443982D01*
X148376500Y-113443982D01*
X148376500Y-109539825D01*
X148396185Y-109472786D01*
X148412814Y-109452149D01*
X152520980Y-105343982D01*
X153204500Y-105343982D01*
X153204500Y-105456018D01*
X153233497Y-105564237D01*
X153289515Y-105661263D01*
X153368737Y-105740485D01*
X153465763Y-105796503D01*
X153573982Y-105825500D01*
X153573984Y-105825500D01*
X153686016Y-105825500D01*
X153686018Y-105825500D01*
X153794237Y-105796503D01*
X153891263Y-105740485D01*
X153970485Y-105661263D01*
X154026503Y-105564237D01*
X154055500Y-105456018D01*
X154055500Y-105343982D01*
X154026503Y-105235763D01*
X153970485Y-105138737D01*
X153891263Y-105059515D01*
X153794237Y-105003497D01*
X153686018Y-104974500D01*
X153573982Y-104974500D01*
X153465763Y-105003497D01*
X153465760Y-105003498D01*
X153368740Y-105059513D01*
X153368734Y-105059517D01*
X153289517Y-105138734D01*
X153289513Y-105138740D01*
X153233498Y-105235760D01*
X153233497Y-105235763D01*
X153204500Y-105343982D01*
X152520980Y-105343982D01*
X153155371Y-104709591D01*
X153184292Y-104688079D01*
X153515114Y-104510085D01*
X153523276Y-104505450D01*
X153524190Y-104504903D01*
X153526344Y-104502862D01*
X153549622Y-104485494D01*
X153565293Y-104476448D01*
X153644515Y-104397226D01*
X153700533Y-104300200D01*
X153729530Y-104191981D01*
X153729530Y-104079945D01*
X153700533Y-103971726D01*
X153644515Y-103874700D01*
X153565293Y-103795478D01*
X153468267Y-103739460D01*
X153360048Y-103710463D01*
X153248012Y-103710463D01*
X153139793Y-103739460D01*
X153139790Y-103739461D01*
X153042770Y-103795476D01*
X153042768Y-103795477D01*
X152963544Y-103874700D01*
X152950609Y-103897104D01*
X152938863Y-103914026D01*
X152929911Y-103924872D01*
X152929905Y-103924881D01*
X152751912Y-104255696D01*
X152730396Y-104284624D01*
X147969774Y-109045247D01*
X147908451Y-109078732D01*
X147838759Y-109073748D01*
X147818809Y-109062700D01*
X147818302Y-109063579D01*
X147714239Y-109003498D01*
X147714238Y-109003497D01*
X147714237Y-109003497D01*
X147606018Y-108974500D01*
X147493982Y-108974500D01*
X147385763Y-109003497D01*
X147385760Y-109003498D01*
X147288740Y-109059513D01*
X147288734Y-109059517D01*
X147209517Y-109138734D01*
X147209513Y-109138740D01*
X147153498Y-109235760D01*
X147153497Y-109235763D01*
X147124500Y-109343982D01*
X147124500Y-109456018D01*
X147153497Y-109564237D01*
X147209515Y-109661263D01*
X147288737Y-109740485D01*
X147385763Y-109796503D01*
X147493982Y-109825500D01*
X147493984Y-109825500D01*
X147606015Y-109825500D01*
X147606018Y-109825500D01*
X147619408Y-109821912D01*
X147689256Y-109823575D01*
X147747119Y-109862737D01*
X147774623Y-109926966D01*
X147775500Y-109941687D01*
X147775500Y-116498166D01*
X147755815Y-116565205D01*
X147739181Y-116585847D01*
X145095680Y-119229347D01*
X145052828Y-119257279D01*
X144159528Y-119603661D01*
X143604609Y-119818834D01*
X143418205Y-119891113D01*
X143373376Y-119899500D01*
X142930247Y-119899500D01*
X142871770Y-119911131D01*
X142871769Y-119911132D01*
X142805447Y-119955447D01*
X142761132Y-120021769D01*
X142761131Y-120021770D01*
X142749500Y-120080247D01*
X141500500Y-120080247D01*
X141500500Y-117434110D01*
X141500500Y-117434108D01*
X141466392Y-117306814D01*
X141400500Y-117192686D01*
X141307314Y-117099500D01*
X141250250Y-117066554D01*
X141193187Y-117033608D01*
X141129539Y-117016554D01*
X141065892Y-116999500D01*
X141065891Y-116999500D01*
X141002872Y-116999500D01*
X140997145Y-116999368D01*
X140590564Y-116980570D01*
X140579160Y-116979513D01*
X140178892Y-116923678D01*
X140167633Y-116921573D01*
X139774236Y-116829047D01*
X139763220Y-116825913D01*
X139430807Y-116714500D01*
X139380021Y-116697478D01*
X139369343Y-116693341D01*
X139125893Y-116585847D01*
X138999643Y-116530102D01*
X138989399Y-116525001D01*
X138874474Y-116460989D01*
X138636330Y-116328343D01*
X138626592Y-116322314D01*
X138293169Y-116093915D01*
X138284029Y-116087012D01*
X137973116Y-115828833D01*
X137964652Y-115821117D01*
X137678882Y-115535347D01*
X137671166Y-115526883D01*
X137412985Y-115215967D01*
X137406084Y-115206830D01*
X137392371Y-115186812D01*
X137177685Y-114873407D01*
X137171656Y-114863669D01*
X137127924Y-114785155D01*
X136974993Y-114510592D01*
X136969901Y-114500365D01*
X136806653Y-114130643D01*
X136802525Y-114119989D01*
X136674082Y-113736766D01*
X136670955Y-113725776D01*
X136578423Y-113332353D01*
X136576322Y-113321117D01*
X136520485Y-112920837D01*
X136519429Y-112909435D01*
X136518554Y-112890499D01*
X136500764Y-112505710D01*
X136500764Y-112494289D01*
X136508903Y-112318234D01*
X137300000Y-112318234D01*
X137300000Y-112681765D01*
X137335632Y-113043556D01*
X137406550Y-113400090D01*
X137406553Y-113400101D01*
X137512086Y-113747997D01*
X137651207Y-114083864D01*
X137651209Y-114083869D01*
X137822570Y-114404462D01*
X137822581Y-114404480D01*
X138024551Y-114706750D01*
X138211678Y-114934765D01*
X138211679Y-114934766D01*
X139705747Y-113440697D01*
X139779588Y-113542330D01*
X139957670Y-113720412D01*
X140059301Y-113794251D01*
X138565232Y-115288319D01*
X138565233Y-115288320D01*
X138793249Y-115475448D01*
X139095519Y-115677418D01*
X139095537Y-115677429D01*
X139416130Y-115848790D01*
X139416135Y-115848792D01*
X139752002Y-115987913D01*
X140099898Y-116093446D01*
X140099909Y-116093449D01*
X140456443Y-116164367D01*
X140818234Y-116200000D01*
X141181766Y-116200000D01*
X141543556Y-116164367D01*
X141900090Y-116093449D01*
X141900101Y-116093446D01*
X142247997Y-115987913D01*
X142583864Y-115848792D01*
X142583869Y-115848790D01*
X142904462Y-115677429D01*
X142904480Y-115677418D01*
X143206736Y-115475457D01*
X143206750Y-115475447D01*
X143434765Y-115288320D01*
X143434766Y-115288319D01*
X141940698Y-113794251D01*
X142042330Y-113720412D01*
X142220412Y-113542330D01*
X142294251Y-113440698D01*
X143788319Y-114934766D01*
X143788320Y-114934765D01*
X143975447Y-114706750D01*
X143975457Y-114706736D01*
X144177418Y-114404480D01*
X144177429Y-114404462D01*
X144348790Y-114083869D01*
X144348792Y-114083864D01*
X144487913Y-113747997D01*
X144593446Y-113400101D01*
X144593449Y-113400090D01*
X144664367Y-113043556D01*
X144700000Y-112681765D01*
X144700000Y-112318234D01*
X144664367Y-111956443D01*
X144593449Y-111599909D01*
X144593446Y-111599898D01*
X144487913Y-111252002D01*
X144348792Y-110916135D01*
X144348790Y-110916130D01*
X144177429Y-110595537D01*
X144177418Y-110595519D01*
X143975448Y-110293249D01*
X143788320Y-110065233D01*
X143788319Y-110065232D01*
X142294251Y-111559300D01*
X142220412Y-111457670D01*
X142042330Y-111279588D01*
X141940698Y-111205748D01*
X143434766Y-109711679D01*
X143434765Y-109711678D01*
X143206750Y-109524551D01*
X142904480Y-109322581D01*
X142904462Y-109322570D01*
X142583869Y-109151209D01*
X142583864Y-109151207D01*
X142247997Y-109012086D01*
X141900101Y-108906553D01*
X141900090Y-108906550D01*
X141543556Y-108835632D01*
X141181766Y-108800000D01*
X140818234Y-108800000D01*
X140456443Y-108835632D01*
X140099909Y-108906550D01*
X140099898Y-108906553D01*
X139752002Y-109012086D01*
X139416135Y-109151207D01*
X139416130Y-109151209D01*
X139095537Y-109322570D01*
X139095519Y-109322581D01*
X138793258Y-109524545D01*
X138793254Y-109524548D01*
X138565233Y-109711679D01*
X138565233Y-109711680D01*
X140059301Y-111205748D01*
X139957670Y-111279588D01*
X139779588Y-111457670D01*
X139705748Y-111559301D01*
X138211680Y-110065233D01*
X138211679Y-110065233D01*
X138024548Y-110293254D01*
X138024545Y-110293258D01*
X137822581Y-110595519D01*
X137822570Y-110595537D01*
X137651209Y-110916130D01*
X137651207Y-110916135D01*
X137512086Y-111252002D01*
X137406553Y-111599898D01*
X137406550Y-111599909D01*
X137335632Y-111956443D01*
X137300000Y-112318234D01*
X136508903Y-112318234D01*
X136519429Y-112090557D01*
X136520486Y-112079160D01*
X136526714Y-112034512D01*
X136576323Y-111678878D01*
X136578422Y-111667649D01*
X136670957Y-111274217D01*
X136674080Y-111263238D01*
X136802527Y-110880002D01*
X136806650Y-110869363D01*
X136969905Y-110499625D01*
X136974988Y-110489416D01*
X137171659Y-110136324D01*
X137177685Y-110126592D01*
X137406094Y-109793154D01*
X137412976Y-109784042D01*
X137671177Y-109473103D01*
X137678871Y-109464663D01*
X137964663Y-109178871D01*
X137973103Y-109171177D01*
X138284042Y-108912976D01*
X138293154Y-108906094D01*
X138626597Y-108677681D01*
X138636324Y-108671659D01*
X138989416Y-108474988D01*
X138999625Y-108469905D01*
X139369363Y-108306650D01*
X139380002Y-108302527D01*
X139763238Y-108174080D01*
X139774217Y-108170957D01*
X140167649Y-108078422D01*
X140178878Y-108076323D01*
X140579164Y-108020485D01*
X140590557Y-108019429D01*
X140997145Y-108000632D01*
X141002872Y-108000500D01*
X145565890Y-108000500D01*
X145565892Y-108000500D01*
X145693186Y-107966392D01*
X145807314Y-107900500D01*
X145900500Y-107807314D01*
X145966392Y-107693186D01*
X146000500Y-107565892D01*
X146000500Y-104504427D01*
X146000816Y-104495581D01*
X146001743Y-104482623D01*
X146015131Y-104295434D01*
X146017646Y-104277938D01*
X146059356Y-104086199D01*
X146064333Y-104069248D01*
X146132911Y-103885385D01*
X146140259Y-103869298D01*
X146170325Y-103814236D01*
X146234291Y-103697089D01*
X146243845Y-103682221D01*
X146361448Y-103525123D01*
X146373020Y-103511769D01*
X146511769Y-103373020D01*
X146525123Y-103361448D01*
X146682221Y-103243845D01*
X146697089Y-103234291D01*
X146869298Y-103140258D01*
X146885385Y-103132911D01*
X147069248Y-103064333D01*
X147086199Y-103059356D01*
X147277938Y-103017646D01*
X147295436Y-103015130D01*
X147495582Y-103000816D01*
X147504428Y-103000500D01*
X147565892Y-103000500D01*
X157128089Y-103000500D01*
X157195128Y-103020185D01*
G37*
%TD.AperFunction*%
%TD*%
%TA.AperFunction,Conductor*%
%TO.N,IN1*%
G36*
X171425583Y-112085302D02*
G01*
X171554697Y-112214416D01*
X171558124Y-112222689D01*
X171556727Y-112228233D01*
X171368153Y-112578716D01*
X171361216Y-112584377D01*
X171352306Y-112583475D01*
X171351392Y-112582928D01*
X171176277Y-112467020D01*
X171172979Y-112463722D01*
X171057071Y-112288607D01*
X171055362Y-112279816D01*
X171060369Y-112272393D01*
X171061271Y-112271852D01*
X171411767Y-112083271D01*
X171420676Y-112082370D01*
X171425583Y-112085302D01*
G37*
%TD.AperFunction*%
%TD*%
%TA.AperFunction,Conductor*%
%TO.N,IN1*%
G36*
X165396170Y-105933010D02*
G01*
X165425712Y-105941883D01*
X165777344Y-106047497D01*
X165784280Y-106053157D01*
X165785677Y-106058701D01*
X165785677Y-106241298D01*
X165782250Y-106249571D01*
X165777343Y-106252503D01*
X165396170Y-106366989D01*
X165387260Y-106366087D01*
X165381599Y-106359150D01*
X165381341Y-106358127D01*
X165339474Y-106152329D01*
X165339474Y-106147668D01*
X165381340Y-105941881D01*
X165386346Y-105934459D01*
X165395136Y-105932750D01*
X165396170Y-105933010D01*
G37*
%TD.AperFunction*%
%TD*%
%TA.AperFunction,Conductor*%
%TO.N,I2C_VDD*%
G36*
X161767463Y-119738367D02*
G01*
X163252362Y-120097072D01*
X163259598Y-120102345D01*
X163260987Y-120111191D01*
X163260789Y-120111909D01*
X163002146Y-120946063D01*
X162996423Y-120952950D01*
X162996401Y-120952962D01*
X162159380Y-121391500D01*
X162150461Y-121392304D01*
X162144177Y-121387569D01*
X161342070Y-120169055D01*
X161340384Y-120160261D01*
X161343568Y-120154351D01*
X161756452Y-119741467D01*
X161764724Y-119738041D01*
X161767463Y-119738367D01*
G37*
%TD.AperFunction*%
%TD*%
%TA.AperFunction,Conductor*%
%TO.N,SDA*%
G36*
X147461898Y-119691678D02*
G01*
X147464931Y-119693866D01*
X147596133Y-119825068D01*
X147599560Y-119833341D01*
X147598962Y-119837033D01*
X147176922Y-121106039D01*
X147171060Y-121112808D01*
X147163549Y-121113824D01*
X146346978Y-120952227D01*
X146339527Y-120947260D01*
X146337772Y-120943021D01*
X146176175Y-120126450D01*
X146177930Y-120117669D01*
X146183957Y-120113078D01*
X147452966Y-119691037D01*
X147461898Y-119691678D01*
G37*
%TD.AperFunction*%
%TD*%
%TA.AperFunction,Conductor*%
%TO.N,SDA*%
G36*
X154645196Y-105908066D02*
G01*
X154652664Y-105913008D01*
X154652708Y-105913075D01*
X154767552Y-106085871D01*
X154769278Y-106094658D01*
X154764284Y-106102091D01*
X154762865Y-106102898D01*
X154476397Y-106240205D01*
X154471340Y-106241354D01*
X154291506Y-106241354D01*
X154283233Y-106237927D01*
X154279806Y-106229654D01*
X154280695Y-106225179D01*
X154425666Y-105874938D01*
X154431997Y-105868606D01*
X154438707Y-105867929D01*
X154645196Y-105908066D01*
G37*
%TD.AperFunction*%
%TD*%
%TA.AperFunction,Conductor*%
%TO.N,FAULT*%
G36*
X149406233Y-119447251D02*
G01*
X149537450Y-119578468D01*
X149540757Y-119585071D01*
X149712084Y-120773199D01*
X149709873Y-120781877D01*
X149702794Y-120786343D01*
X148886974Y-120949173D01*
X148878190Y-120947431D01*
X148874948Y-120944188D01*
X148413674Y-120252117D01*
X148411937Y-120243332D01*
X148416041Y-120236541D01*
X149390592Y-119446435D01*
X149399176Y-119443887D01*
X149406233Y-119447251D01*
G37*
%TD.AperFunction*%
%TD*%
%TA.AperFunction,Conductor*%
%TO.N,FAULT*%
G36*
X156400106Y-104885369D02*
G01*
X156400653Y-104886283D01*
X156589227Y-105236766D01*
X156590129Y-105245676D01*
X156587197Y-105250583D01*
X156458083Y-105379697D01*
X156449810Y-105383124D01*
X156444266Y-105381727D01*
X156093783Y-105193153D01*
X156088122Y-105186216D01*
X156089024Y-105177306D01*
X156089561Y-105176407D01*
X156205481Y-105001274D01*
X156208774Y-104997981D01*
X156383894Y-104882070D01*
X156392683Y-104880362D01*
X156400106Y-104885369D01*
G37*
%TD.AperFunction*%
%TD*%
%TA.AperFunction,Conductor*%
%TO.N,OUTA*%
G36*
X160790583Y-109495304D02*
G01*
X160919697Y-109624418D01*
X160923124Y-109632691D01*
X160921727Y-109638235D01*
X160733153Y-109988718D01*
X160726216Y-109994379D01*
X160717306Y-109993477D01*
X160716392Y-109992930D01*
X160541277Y-109877022D01*
X160537979Y-109873724D01*
X160422071Y-109698609D01*
X160420362Y-109689818D01*
X160425369Y-109682395D01*
X160426271Y-109681854D01*
X160776767Y-109493273D01*
X160785676Y-109492372D01*
X160790583Y-109495304D01*
G37*
%TD.AperFunction*%
%TD*%
%TA.AperFunction,Conductor*%
%TO.N,OUTA*%
G36*
X168312109Y-104082556D02*
G01*
X170180604Y-104149493D01*
X170188748Y-104153213D01*
X170191876Y-104161604D01*
X170191591Y-104163785D01*
X170002078Y-104995267D01*
X169996899Y-105002572D01*
X169996890Y-105002578D01*
X169159559Y-105527973D01*
X169150729Y-105529467D01*
X169143660Y-105524634D01*
X168302020Y-104285097D01*
X168300000Y-104278525D01*
X168300000Y-104094249D01*
X168303427Y-104085976D01*
X168311700Y-104082549D01*
X168312109Y-104082556D01*
G37*
%TD.AperFunction*%
%TD*%
%TA.AperFunction,Conductor*%
%TO.N,SCL*%
G36*
X153126723Y-104017487D02*
G01*
X153127631Y-104018030D01*
X153302752Y-104133942D01*
X153306050Y-104137240D01*
X153421958Y-104312355D01*
X153423667Y-104321146D01*
X153418660Y-104328569D01*
X153417746Y-104329116D01*
X153067263Y-104517690D01*
X153058353Y-104518592D01*
X153053446Y-104515660D01*
X152924332Y-104386546D01*
X152920905Y-104378273D01*
X152922301Y-104372730D01*
X153110877Y-104022245D01*
X153117813Y-104016585D01*
X153126723Y-104017487D01*
G37*
%TD.AperFunction*%
%TD*%
%TA.AperFunction,Conductor*%
%TO.N,SCL*%
G36*
X145182172Y-119431209D02*
G01*
X145185722Y-119433641D01*
X145316358Y-119564277D01*
X145319785Y-119572550D01*
X145318994Y-119576780D01*
X144654323Y-121290932D01*
X144648137Y-121297407D01*
X144639184Y-121297611D01*
X144638947Y-121297516D01*
X143803784Y-120952562D01*
X143797446Y-120946236D01*
X143452483Y-120111052D01*
X143452492Y-120102097D01*
X143458830Y-120095771D01*
X143458996Y-120095704D01*
X145173222Y-119431005D01*
X145182172Y-119431209D01*
G37*
%TD.AperFunction*%
%TD*%
%TA.AperFunction,Conductor*%
%TO.N,OUTB*%
G36*
X163246382Y-109007281D02*
G01*
X163248096Y-109008689D01*
X163428489Y-109188115D01*
X163487259Y-109246569D01*
X163490708Y-109254833D01*
X163490708Y-109437029D01*
X163487281Y-109445302D01*
X163479008Y-109448729D01*
X163477806Y-109448667D01*
X163081880Y-109407774D01*
X163074003Y-109403515D01*
X163071444Y-109394934D01*
X163071594Y-109393917D01*
X163111599Y-109188111D01*
X163113377Y-109183815D01*
X163230144Y-109010447D01*
X163237606Y-109005501D01*
X163246382Y-109007281D01*
G37*
%TD.AperFunction*%
%TD*%
%TA.AperFunction,Conductor*%
%TO.N,OUTB*%
G36*
X169810405Y-107501632D02*
G01*
X169993021Y-107537772D01*
X170000472Y-107542739D01*
X170002227Y-107546978D01*
X170163824Y-108363549D01*
X170162069Y-108372330D01*
X170156039Y-108376922D01*
X168887033Y-108798962D01*
X168878101Y-108798321D01*
X168875068Y-108796133D01*
X168743866Y-108664931D01*
X168740439Y-108656658D01*
X168741037Y-108652966D01*
X169163078Y-107383957D01*
X169168939Y-107377191D01*
X169176449Y-107376175D01*
X169810405Y-107501632D01*
G37*
%TD.AperFunction*%
%TD*%
M02*
