%TF.GenerationSoftware,KiCad,Pcbnew,9.0.0*%
%TF.CreationDate,2025-11-09T16:07:43+01:00*%
%TF.ProjectId,PCB_AMPLI,5043425f-414d-4504-9c49-2e6b69636164,rev?*%
%TF.SameCoordinates,Original*%
%TF.FileFunction,Copper,L2,Inr*%
%TF.FilePolarity,Positive*%
%FSLAX46Y46*%
G04 Gerber Fmt 4.6, Leading zero omitted, Abs format (unit mm)*
G04 Created by KiCad (PCBNEW 9.0.0) date 2025-11-09 16:07:43*
%MOMM*%
%LPD*%
G01*
G04 APERTURE LIST*
%TA.AperFunction,ComponentPad*%
%ADD10R,1.700000X1.700000*%
%TD*%
%TA.AperFunction,ComponentPad*%
%ADD11O,1.700000X1.700000*%
%TD*%
%TA.AperFunction,ComponentPad*%
%ADD12C,6.400000*%
%TD*%
%TA.AperFunction,ViaPad*%
%ADD13C,0.450000*%
%TD*%
G04 APERTURE END LIST*
D10*
%TO.N,OUTA*%
%TO.C,J2*%
X170000000Y-105000000D03*
D11*
%TO.N,OUTB*%
X170000000Y-107540000D03*
%TD*%
D10*
%TO.N,IN1*%
%TO.C,J3*%
X167000000Y-120950000D03*
D11*
%TO.N,GND*%
X169540000Y-120950000D03*
%TO.N,IN2*%
X172080000Y-120950000D03*
%TO.N,GND*%
X174620000Y-120950000D03*
%TD*%
%TO.N,GND*%
%TO.C,J4*%
X151420000Y-120950000D03*
%TO.N,FAULT*%
X148880000Y-120950000D03*
%TO.N,SDA*%
X146340000Y-120950000D03*
D10*
%TO.N,SCL*%
X143800000Y-120950000D03*
%TD*%
D12*
%TO.N,GND*%
%TO.C,H1*%
X177500000Y-112500000D03*
%TD*%
%TO.N,GND*%
%TO.C,H2*%
X141000000Y-112500000D03*
%TD*%
D10*
%TO.N,I2C_VDD*%
%TO.C,J10*%
X163000000Y-120950000D03*
D11*
%TO.N,VDD*%
X160460000Y-120950000D03*
%TO.N,PVDD*%
X157920000Y-120950000D03*
%TO.N,GND*%
X155380000Y-120950000D03*
%TD*%
D13*
%TO.N,I2C_VDD_SW*%
X159260000Y-113540000D03*
X166290000Y-115380000D03*
%TO.N,PVDD_SW*%
X161932500Y-107600000D03*
%TO.N,VDD*%
X161800000Y-118890000D03*
X162990000Y-117160000D03*
X153580000Y-117140000D03*
%TO.N,GND*%
X155740000Y-114590000D03*
X146290000Y-107910000D03*
X144240000Y-115340000D03*
X143600000Y-118010000D03*
X162290000Y-110700000D03*
X158490000Y-103950000D03*
X156390000Y-110550000D03*
X153440000Y-109500000D03*
X165740000Y-103250000D03*
X167510000Y-108530000D03*
X167770000Y-105560000D03*
X173920000Y-115720000D03*
X164000000Y-117730000D03*
X165020000Y-121350000D03*
X153410000Y-121880000D03*
X151070000Y-114400000D03*
X162075000Y-112800000D03*
X160300000Y-116000000D03*
X179780000Y-108950000D03*
X136860000Y-112580000D03*
X144360000Y-109040000D03*
X175820000Y-117810000D03*
X167630000Y-115230000D03*
X174060000Y-109130000D03*
X166390000Y-110110000D03*
X164660000Y-110100000D03*
X162816250Y-109783750D03*
%TO.N,IN1*%
X171175000Y-112465000D03*
%TO.N,GND*%
X170260000Y-117160000D03*
%TO.N,IN1*%
X165340000Y-106150000D03*
%TO.N,GND*%
X174620000Y-119630000D03*
X169540000Y-119630000D03*
X154090000Y-120950000D03*
X152710000Y-120950000D03*
%TO.N,SDA*%
X154650000Y-105910000D03*
%TO.N,FAULT*%
X156207500Y-105000000D03*
%TO.N,SCL*%
X153304030Y-104135963D03*
%TO.N,OUTA*%
X160540000Y-109875002D03*
%TO.N,PVDD_SW*%
X164650000Y-108550000D03*
X166200000Y-107800000D03*
X149800000Y-113500000D03*
%TO.N,I2C_VDD_SW*%
X155140000Y-106950000D03*
X153630000Y-105400000D03*
X158000000Y-111750000D03*
%TO.N,GND*%
X159070000Y-108950000D03*
X158070000Y-108950000D03*
X160070000Y-107950000D03*
X159070000Y-107950000D03*
X158070000Y-107950000D03*
X160070000Y-106950000D03*
X159070000Y-106950000D03*
X158070000Y-106950000D03*
X160070000Y-105950000D03*
X159070000Y-105950000D03*
X158070000Y-105950000D03*
X160070000Y-104950000D03*
X159070000Y-104950000D03*
X158070000Y-104950000D03*
X160070000Y-108950000D03*
%TO.N,VDD*%
X147550000Y-109400000D03*
%TO.N,GND*%
X151150000Y-104000000D03*
X149350000Y-104000000D03*
X147550000Y-104000000D03*
%TO.N,I2C_VDD*%
X158230000Y-117150000D03*
%TO.N,OUTB*%
X163113052Y-109185783D03*
%TO.N,GND*%
X163250000Y-103650000D03*
X166350000Y-104850000D03*
X154900000Y-107700000D03*
X152950000Y-106950000D03*
%TO.N,VDD*%
X157290000Y-103650000D03*
X160860000Y-103650000D03*
X161570000Y-104400000D03*
%TD*%
%TA.AperFunction,Conductor*%
%TO.N,GND*%
G36*
X157195128Y-103020185D02*
G01*
X157240883Y-103072989D01*
X157250827Y-103142147D01*
X157221802Y-103205703D01*
X157163024Y-103243477D01*
X157160219Y-103244264D01*
X157125763Y-103253497D01*
X157125760Y-103253498D01*
X157028740Y-103309513D01*
X157028734Y-103309517D01*
X156949517Y-103388734D01*
X156949513Y-103388740D01*
X156893498Y-103485760D01*
X156893497Y-103485763D01*
X156864500Y-103593982D01*
X156864500Y-103706018D01*
X156893497Y-103814237D01*
X156949515Y-103911263D01*
X157028737Y-103990485D01*
X157125763Y-104046503D01*
X157233982Y-104075500D01*
X157233984Y-104075500D01*
X157346016Y-104075500D01*
X157346018Y-104075500D01*
X157454237Y-104046503D01*
X157551263Y-103990485D01*
X157630485Y-103911263D01*
X157686503Y-103814237D01*
X157715500Y-103706018D01*
X157715500Y-103593982D01*
X157686503Y-103485763D01*
X157630485Y-103388737D01*
X157551263Y-103309515D01*
X157454237Y-103253497D01*
X157419816Y-103244274D01*
X157360157Y-103207910D01*
X157329628Y-103145063D01*
X157337922Y-103075688D01*
X157382408Y-103021810D01*
X157448960Y-103000535D01*
X157451911Y-103000500D01*
X160698089Y-103000500D01*
X160765128Y-103020185D01*
X160810883Y-103072989D01*
X160820827Y-103142147D01*
X160791802Y-103205703D01*
X160733024Y-103243477D01*
X160730219Y-103244264D01*
X160695763Y-103253497D01*
X160695760Y-103253498D01*
X160598740Y-103309513D01*
X160598734Y-103309517D01*
X160519517Y-103388734D01*
X160519513Y-103388740D01*
X160463498Y-103485760D01*
X160463497Y-103485763D01*
X160434500Y-103593982D01*
X160434500Y-103706018D01*
X160463497Y-103814237D01*
X160519515Y-103911263D01*
X160598737Y-103990485D01*
X160695763Y-104046503D01*
X160803982Y-104075500D01*
X160803984Y-104075500D01*
X160916016Y-104075500D01*
X160916018Y-104075500D01*
X161024237Y-104046503D01*
X161024241Y-104046500D01*
X161026538Y-104045550D01*
X161028633Y-104045324D01*
X161032088Y-104044399D01*
X161032232Y-104044937D01*
X161096007Y-104038080D01*
X161158487Y-104069354D01*
X161194140Y-104129442D01*
X161191647Y-104199268D01*
X161181380Y-104222108D01*
X161173499Y-104235758D01*
X161173497Y-104235763D01*
X161144500Y-104343982D01*
X161144500Y-104456018D01*
X161173497Y-104564237D01*
X161229515Y-104661263D01*
X161308737Y-104740485D01*
X161405763Y-104796503D01*
X161513982Y-104825500D01*
X161513984Y-104825500D01*
X161626016Y-104825500D01*
X161626018Y-104825500D01*
X161734237Y-104796503D01*
X161831263Y-104740485D01*
X161910485Y-104661263D01*
X161966503Y-104564237D01*
X161995500Y-104456018D01*
X161995500Y-104343982D01*
X161966503Y-104235763D01*
X161945433Y-104199268D01*
X161937866Y-104186162D01*
X161937865Y-104186161D01*
X161910485Y-104138737D01*
X161901995Y-104130247D01*
X168949500Y-104130247D01*
X168949500Y-105869752D01*
X168961131Y-105928229D01*
X168961132Y-105928230D01*
X169005447Y-105994552D01*
X169071769Y-106038867D01*
X169071770Y-106038868D01*
X169130247Y-106050499D01*
X169130250Y-106050500D01*
X169130252Y-106050500D01*
X170869750Y-106050500D01*
X170869751Y-106050499D01*
X170884568Y-106047552D01*
X170928229Y-106038868D01*
X170928229Y-106038867D01*
X170928231Y-106038867D01*
X170994552Y-105994552D01*
X171038867Y-105928231D01*
X171038867Y-105928229D01*
X171038868Y-105928229D01*
X171050499Y-105869752D01*
X171050500Y-105869750D01*
X171050500Y-104130249D01*
X171050499Y-104130247D01*
X171038868Y-104071770D01*
X171038867Y-104071769D01*
X170994552Y-104005447D01*
X170928230Y-103961132D01*
X170928229Y-103961131D01*
X170869752Y-103949500D01*
X170869748Y-103949500D01*
X169130252Y-103949500D01*
X169130247Y-103949500D01*
X169071770Y-103961131D01*
X169071769Y-103961132D01*
X169005447Y-104005447D01*
X168961132Y-104071769D01*
X168961131Y-104071770D01*
X168949500Y-104130247D01*
X161901995Y-104130247D01*
X161831263Y-104059515D01*
X161737616Y-104005448D01*
X161734239Y-104003498D01*
X161734238Y-104003497D01*
X161734237Y-104003497D01*
X161626018Y-103974500D01*
X161513982Y-103974500D01*
X161405753Y-104003499D01*
X161403447Y-104004455D01*
X161401347Y-104004680D01*
X161397912Y-104005601D01*
X161397768Y-104005064D01*
X161333977Y-104011916D01*
X161271501Y-103980635D01*
X161235855Y-103920542D01*
X161238357Y-103850717D01*
X161248617Y-103827895D01*
X161256503Y-103814237D01*
X161285500Y-103706018D01*
X161285500Y-103593982D01*
X161256503Y-103485763D01*
X161200485Y-103388737D01*
X161121263Y-103309515D01*
X161024237Y-103253497D01*
X160989816Y-103244274D01*
X160930157Y-103207910D01*
X160899628Y-103145063D01*
X160907922Y-103075688D01*
X160952408Y-103021810D01*
X161018960Y-103000535D01*
X161021911Y-103000500D01*
X171184108Y-103000500D01*
X171245572Y-103000500D01*
X171254418Y-103000816D01*
X171454561Y-103015130D01*
X171472063Y-103017647D01*
X171663797Y-103059355D01*
X171680755Y-103064334D01*
X171864609Y-103132909D01*
X171880701Y-103140259D01*
X172052904Y-103234288D01*
X172067784Y-103243849D01*
X172155505Y-103309517D01*
X172224867Y-103361441D01*
X172238237Y-103373027D01*
X172376972Y-103511762D01*
X172388558Y-103525132D01*
X172506146Y-103682210D01*
X172515711Y-103697095D01*
X172609740Y-103869298D01*
X172617090Y-103885390D01*
X172685662Y-104069236D01*
X172690646Y-104086212D01*
X172732351Y-104277931D01*
X172734869Y-104295442D01*
X172738341Y-104343982D01*
X172747815Y-104476448D01*
X172749184Y-104495580D01*
X172749500Y-104504427D01*
X172749500Y-107565891D01*
X172783608Y-107693187D01*
X172789713Y-107703761D01*
X172849500Y-107807314D01*
X172942686Y-107900500D01*
X173056814Y-107966392D01*
X173184108Y-108000500D01*
X177434108Y-108000500D01*
X177497128Y-108000500D01*
X177502855Y-108000632D01*
X177909440Y-108019429D01*
X177920837Y-108020485D01*
X178321117Y-108076322D01*
X178332353Y-108078423D01*
X178725776Y-108170955D01*
X178736766Y-108174082D01*
X179119989Y-108302525D01*
X179130643Y-108306653D01*
X179500365Y-108469901D01*
X179510592Y-108474993D01*
X179748010Y-108607234D01*
X179863669Y-108671656D01*
X179873407Y-108677685D01*
X180184059Y-108890486D01*
X180206830Y-108906084D01*
X180215967Y-108912985D01*
X180487830Y-109138737D01*
X180526883Y-109171166D01*
X180535347Y-109178882D01*
X180821117Y-109464652D01*
X180828833Y-109473116D01*
X181087012Y-109784029D01*
X181093915Y-109793169D01*
X181322314Y-110126592D01*
X181328343Y-110136330D01*
X181524999Y-110489394D01*
X181530104Y-110499647D01*
X181693341Y-110869343D01*
X181697479Y-110880023D01*
X181825913Y-111263220D01*
X181829047Y-111274236D01*
X181921573Y-111667633D01*
X181923678Y-111678892D01*
X181979513Y-112079160D01*
X181980570Y-112090564D01*
X181999235Y-112494273D01*
X181999235Y-112505727D01*
X181980570Y-112909435D01*
X181979513Y-112920839D01*
X181923678Y-113321107D01*
X181921573Y-113332366D01*
X181829047Y-113725763D01*
X181825913Y-113736779D01*
X181697479Y-114119976D01*
X181693341Y-114130656D01*
X181530104Y-114500352D01*
X181524999Y-114510605D01*
X181328343Y-114863669D01*
X181322314Y-114873407D01*
X181093915Y-115206830D01*
X181087012Y-115215970D01*
X180828833Y-115526883D01*
X180821117Y-115535347D01*
X180535347Y-115821117D01*
X180526883Y-115828833D01*
X180215970Y-116087012D01*
X180206830Y-116093915D01*
X179873407Y-116322314D01*
X179863669Y-116328343D01*
X179510605Y-116524999D01*
X179500352Y-116530104D01*
X179130656Y-116693341D01*
X179119976Y-116697479D01*
X178736779Y-116825913D01*
X178725763Y-116829047D01*
X178332366Y-116921573D01*
X178321107Y-116923678D01*
X177920839Y-116979513D01*
X177909435Y-116980570D01*
X177502855Y-116999368D01*
X177497128Y-116999500D01*
X177434108Y-116999500D01*
X177306812Y-117033608D01*
X177192686Y-117099500D01*
X177192683Y-117099502D01*
X177099502Y-117192683D01*
X177099500Y-117192686D01*
X177033608Y-117306812D01*
X176999500Y-117434108D01*
X176999500Y-121245572D01*
X176999184Y-121254418D01*
X176999184Y-121254419D01*
X176984869Y-121454557D01*
X176982351Y-121472068D01*
X176940646Y-121663787D01*
X176935662Y-121680763D01*
X176867090Y-121864609D01*
X176859740Y-121880701D01*
X176765711Y-122052904D01*
X176756146Y-122067789D01*
X176638558Y-122224867D01*
X176626972Y-122238237D01*
X176488237Y-122376972D01*
X176474867Y-122388558D01*
X176317789Y-122506146D01*
X176302904Y-122515711D01*
X176130701Y-122609740D01*
X176114609Y-122617090D01*
X175930763Y-122685662D01*
X175913787Y-122690646D01*
X175722068Y-122732351D01*
X175704557Y-122734869D01*
X175523779Y-122747799D01*
X175504417Y-122749184D01*
X175495572Y-122749500D01*
X143004428Y-122749500D01*
X142995582Y-122749184D01*
X142973622Y-122747613D01*
X142795442Y-122734869D01*
X142777931Y-122732351D01*
X142586212Y-122690646D01*
X142569236Y-122685662D01*
X142385390Y-122617090D01*
X142369298Y-122609740D01*
X142197095Y-122515711D01*
X142182210Y-122506146D01*
X142025132Y-122388558D01*
X142011762Y-122376972D01*
X141873027Y-122238237D01*
X141861441Y-122224867D01*
X141743849Y-122067784D01*
X141734288Y-122052904D01*
X141640259Y-121880701D01*
X141632909Y-121864609D01*
X141616177Y-121819750D01*
X141564334Y-121680755D01*
X141559355Y-121663797D01*
X141517647Y-121472063D01*
X141515130Y-121454556D01*
X141514632Y-121447598D01*
X141500816Y-121254418D01*
X141500500Y-121245572D01*
X141500500Y-120080247D01*
X142749500Y-120080247D01*
X142749500Y-121819752D01*
X142761131Y-121878229D01*
X142761132Y-121878230D01*
X142805447Y-121944552D01*
X142871769Y-121988867D01*
X142871770Y-121988868D01*
X142930247Y-122000499D01*
X142930250Y-122000500D01*
X142930252Y-122000500D01*
X144669750Y-122000500D01*
X144669751Y-122000499D01*
X144684568Y-121997552D01*
X144728229Y-121988868D01*
X144728229Y-121988867D01*
X144728231Y-121988867D01*
X144794552Y-121944552D01*
X144838867Y-121878231D01*
X144838867Y-121878229D01*
X144838868Y-121878229D01*
X144850499Y-121819752D01*
X144850500Y-121819750D01*
X144850500Y-120846530D01*
X145289500Y-120846530D01*
X145289500Y-121053469D01*
X145329868Y-121256412D01*
X145329870Y-121256420D01*
X145409058Y-121447596D01*
X145524024Y-121619657D01*
X145670342Y-121765975D01*
X145670345Y-121765977D01*
X145842402Y-121880941D01*
X146033580Y-121960130D01*
X146178052Y-121988867D01*
X146236530Y-122000499D01*
X146236534Y-122000500D01*
X146236535Y-122000500D01*
X146443466Y-122000500D01*
X146443467Y-122000499D01*
X146646420Y-121960130D01*
X146837598Y-121880941D01*
X147009655Y-121765977D01*
X147155977Y-121619655D01*
X147270941Y-121447598D01*
X147350130Y-121256420D01*
X147390500Y-121053465D01*
X147390500Y-120846535D01*
X147390499Y-120846530D01*
X147829500Y-120846530D01*
X147829500Y-121053469D01*
X147869868Y-121256412D01*
X147869870Y-121256420D01*
X147949058Y-121447596D01*
X148064024Y-121619657D01*
X148210342Y-121765975D01*
X148210345Y-121765977D01*
X148382402Y-121880941D01*
X148573580Y-121960130D01*
X148718052Y-121988867D01*
X148776530Y-122000499D01*
X148776534Y-122000500D01*
X148776535Y-122000500D01*
X148983466Y-122000500D01*
X148983467Y-122000499D01*
X149186420Y-121960130D01*
X149377598Y-121880941D01*
X149549655Y-121765977D01*
X149695977Y-121619655D01*
X149810941Y-121447598D01*
X149890130Y-121256420D01*
X149930500Y-121053465D01*
X149930500Y-120846535D01*
X149930499Y-120846530D01*
X156869500Y-120846530D01*
X156869500Y-121053469D01*
X156909868Y-121256412D01*
X156909870Y-121256420D01*
X156989058Y-121447596D01*
X157104024Y-121619657D01*
X157250342Y-121765975D01*
X157250345Y-121765977D01*
X157422402Y-121880941D01*
X157613580Y-121960130D01*
X157758052Y-121988867D01*
X157816530Y-122000499D01*
X157816534Y-122000500D01*
X157816535Y-122000500D01*
X158023466Y-122000500D01*
X158023467Y-122000499D01*
X158226420Y-121960130D01*
X158417598Y-121880941D01*
X158589655Y-121765977D01*
X158735977Y-121619655D01*
X158850941Y-121447598D01*
X158930130Y-121256420D01*
X158970500Y-121053465D01*
X158970500Y-120846535D01*
X158970499Y-120846530D01*
X159409500Y-120846530D01*
X159409500Y-121053469D01*
X159449868Y-121256412D01*
X159449870Y-121256420D01*
X159529058Y-121447596D01*
X159644024Y-121619657D01*
X159790342Y-121765975D01*
X159790345Y-121765977D01*
X159962402Y-121880941D01*
X160153580Y-121960130D01*
X160298052Y-121988867D01*
X160356530Y-122000499D01*
X160356534Y-122000500D01*
X160356535Y-122000500D01*
X160563466Y-122000500D01*
X160563467Y-122000499D01*
X160766420Y-121960130D01*
X160957598Y-121880941D01*
X161129655Y-121765977D01*
X161275977Y-121619655D01*
X161390941Y-121447598D01*
X161470130Y-121256420D01*
X161510500Y-121053465D01*
X161510500Y-120846535D01*
X161470130Y-120643580D01*
X161390941Y-120452402D01*
X161275977Y-120280345D01*
X161275975Y-120280342D01*
X161129657Y-120134024D01*
X161049173Y-120080247D01*
X161949500Y-120080247D01*
X161949500Y-121819752D01*
X161961131Y-121878229D01*
X161961132Y-121878230D01*
X162005447Y-121944552D01*
X162071769Y-121988867D01*
X162071770Y-121988868D01*
X162130247Y-122000499D01*
X162130250Y-122000500D01*
X162130252Y-122000500D01*
X163869750Y-122000500D01*
X163869751Y-122000499D01*
X163884568Y-121997552D01*
X163928229Y-121988868D01*
X163928229Y-121988867D01*
X163928231Y-121988867D01*
X163994552Y-121944552D01*
X164038867Y-121878231D01*
X164038867Y-121878229D01*
X164038868Y-121878229D01*
X164050499Y-121819752D01*
X164050500Y-121819750D01*
X164050500Y-120080249D01*
X164050499Y-120080247D01*
X165949500Y-120080247D01*
X165949500Y-121819752D01*
X165961131Y-121878229D01*
X165961132Y-121878230D01*
X166005447Y-121944552D01*
X166071769Y-121988867D01*
X166071770Y-121988868D01*
X166130247Y-122000499D01*
X166130250Y-122000500D01*
X166130252Y-122000500D01*
X167869750Y-122000500D01*
X167869751Y-122000499D01*
X167884568Y-121997552D01*
X167928229Y-121988868D01*
X167928229Y-121988867D01*
X167928231Y-121988867D01*
X167994552Y-121944552D01*
X168038867Y-121878231D01*
X168038867Y-121878229D01*
X168038868Y-121878229D01*
X168050499Y-121819752D01*
X168050500Y-121819750D01*
X168050500Y-120846530D01*
X171029500Y-120846530D01*
X171029500Y-121053469D01*
X171069868Y-121256412D01*
X171069870Y-121256420D01*
X171149058Y-121447596D01*
X171264024Y-121619657D01*
X171410342Y-121765975D01*
X171410345Y-121765977D01*
X171582402Y-121880941D01*
X171773580Y-121960130D01*
X171918052Y-121988867D01*
X171976530Y-122000499D01*
X171976534Y-122000500D01*
X171976535Y-122000500D01*
X172183466Y-122000500D01*
X172183467Y-122000499D01*
X172386420Y-121960130D01*
X172577598Y-121880941D01*
X172749655Y-121765977D01*
X172895977Y-121619655D01*
X173010941Y-121447598D01*
X173090130Y-121256420D01*
X173130500Y-121053465D01*
X173130500Y-120846535D01*
X173090130Y-120643580D01*
X173010941Y-120452402D01*
X172895977Y-120280345D01*
X172895975Y-120280342D01*
X172749657Y-120134024D01*
X172581655Y-120021770D01*
X172577598Y-120019059D01*
X172386420Y-119939870D01*
X172386412Y-119939868D01*
X172183469Y-119899500D01*
X172183465Y-119899500D01*
X171976535Y-119899500D01*
X171976530Y-119899500D01*
X171773587Y-119939868D01*
X171773579Y-119939870D01*
X171582403Y-120019058D01*
X171410342Y-120134024D01*
X171264024Y-120280342D01*
X171149058Y-120452403D01*
X171069870Y-120643579D01*
X171069868Y-120643587D01*
X171029500Y-120846530D01*
X168050500Y-120846530D01*
X168050500Y-120080249D01*
X168050499Y-120080247D01*
X168038868Y-120021770D01*
X168038867Y-120021769D01*
X167994552Y-119955447D01*
X167928230Y-119911132D01*
X167928229Y-119911131D01*
X167869752Y-119899500D01*
X167869748Y-119899500D01*
X166130252Y-119899500D01*
X166130247Y-119899500D01*
X166071770Y-119911131D01*
X166071769Y-119911132D01*
X166005447Y-119955447D01*
X165961132Y-120021769D01*
X165961131Y-120021770D01*
X165949500Y-120080247D01*
X164050499Y-120080247D01*
X164038868Y-120021770D01*
X164038867Y-120021769D01*
X163994552Y-119955447D01*
X163928230Y-119911132D01*
X163928229Y-119911131D01*
X163869752Y-119899500D01*
X163869748Y-119899500D01*
X162130252Y-119899500D01*
X162130247Y-119899500D01*
X162071770Y-119911131D01*
X162071769Y-119911132D01*
X162005447Y-119955447D01*
X161961132Y-120021769D01*
X161961131Y-120021770D01*
X161949500Y-120080247D01*
X161049173Y-120080247D01*
X160961655Y-120021770D01*
X160957598Y-120019059D01*
X160766420Y-119939870D01*
X160766412Y-119939868D01*
X160563469Y-119899500D01*
X160563465Y-119899500D01*
X160356535Y-119899500D01*
X160356530Y-119899500D01*
X160153587Y-119939868D01*
X160153579Y-119939870D01*
X159962403Y-120019058D01*
X159790342Y-120134024D01*
X159644024Y-120280342D01*
X159529058Y-120452403D01*
X159449870Y-120643579D01*
X159449868Y-120643587D01*
X159409500Y-120846530D01*
X158970499Y-120846530D01*
X158930130Y-120643580D01*
X158850941Y-120452402D01*
X158735977Y-120280345D01*
X158735975Y-120280342D01*
X158589657Y-120134024D01*
X158421655Y-120021770D01*
X158417598Y-120019059D01*
X158226420Y-119939870D01*
X158226412Y-119939868D01*
X158023469Y-119899500D01*
X158023465Y-119899500D01*
X157816535Y-119899500D01*
X157816530Y-119899500D01*
X157613587Y-119939868D01*
X157613579Y-119939870D01*
X157422403Y-120019058D01*
X157250342Y-120134024D01*
X157104024Y-120280342D01*
X156989058Y-120452403D01*
X156909870Y-120643579D01*
X156909868Y-120643587D01*
X156869500Y-120846530D01*
X149930499Y-120846530D01*
X149890130Y-120643580D01*
X149810941Y-120452402D01*
X149695977Y-120280345D01*
X149695975Y-120280342D01*
X149549657Y-120134024D01*
X149381655Y-120021770D01*
X149377598Y-120019059D01*
X149186420Y-119939870D01*
X149186412Y-119939868D01*
X148983469Y-119899500D01*
X148983465Y-119899500D01*
X148776535Y-119899500D01*
X148776530Y-119899500D01*
X148573587Y-119939868D01*
X148573579Y-119939870D01*
X148382403Y-120019058D01*
X148210342Y-120134024D01*
X148064024Y-120280342D01*
X147949058Y-120452403D01*
X147869870Y-120643579D01*
X147869868Y-120643587D01*
X147829500Y-120846530D01*
X147390499Y-120846530D01*
X147350130Y-120643580D01*
X147270941Y-120452402D01*
X147155977Y-120280345D01*
X147155975Y-120280342D01*
X147009657Y-120134024D01*
X146841655Y-120021770D01*
X146837598Y-120019059D01*
X146646420Y-119939870D01*
X146646412Y-119939868D01*
X146443469Y-119899500D01*
X146443465Y-119899500D01*
X146236535Y-119899500D01*
X146236530Y-119899500D01*
X146033587Y-119939868D01*
X146033579Y-119939870D01*
X145842403Y-120019058D01*
X145670342Y-120134024D01*
X145524024Y-120280342D01*
X145409058Y-120452403D01*
X145329870Y-120643579D01*
X145329868Y-120643587D01*
X145289500Y-120846530D01*
X144850500Y-120846530D01*
X144850500Y-120080249D01*
X144850499Y-120080247D01*
X144838868Y-120021770D01*
X144838867Y-120021769D01*
X144794552Y-119955447D01*
X144728230Y-119911132D01*
X144728229Y-119911131D01*
X144669752Y-119899500D01*
X144669748Y-119899500D01*
X142930252Y-119899500D01*
X142930247Y-119899500D01*
X142871770Y-119911131D01*
X142871769Y-119911132D01*
X142805447Y-119955447D01*
X142761132Y-120021769D01*
X142761131Y-120021770D01*
X142749500Y-120080247D01*
X141500500Y-120080247D01*
X141500500Y-118833982D01*
X161374500Y-118833982D01*
X161374500Y-118946018D01*
X161403497Y-119054237D01*
X161459515Y-119151263D01*
X161538737Y-119230485D01*
X161635763Y-119286503D01*
X161743982Y-119315500D01*
X161743984Y-119315500D01*
X161856016Y-119315500D01*
X161856018Y-119315500D01*
X161964237Y-119286503D01*
X162061263Y-119230485D01*
X162140485Y-119151263D01*
X162196503Y-119054237D01*
X162225500Y-118946018D01*
X162225500Y-118833982D01*
X162196503Y-118725763D01*
X162140485Y-118628737D01*
X162061263Y-118549515D01*
X161964237Y-118493497D01*
X161856018Y-118464500D01*
X161743982Y-118464500D01*
X161635763Y-118493497D01*
X161635760Y-118493498D01*
X161538740Y-118549513D01*
X161538734Y-118549517D01*
X161459517Y-118628734D01*
X161459513Y-118628740D01*
X161403498Y-118725760D01*
X161403497Y-118725763D01*
X161374500Y-118833982D01*
X141500500Y-118833982D01*
X141500500Y-117434110D01*
X141500500Y-117434108D01*
X141466392Y-117306814D01*
X141400500Y-117192686D01*
X141307314Y-117099500D01*
X141280436Y-117083982D01*
X153154500Y-117083982D01*
X153154500Y-117196018D01*
X153159859Y-117216016D01*
X153183497Y-117304236D01*
X153183498Y-117304239D01*
X153189272Y-117314239D01*
X153239515Y-117401263D01*
X153318737Y-117480485D01*
X153415763Y-117536503D01*
X153523982Y-117565500D01*
X153523984Y-117565500D01*
X153636016Y-117565500D01*
X153636018Y-117565500D01*
X153744237Y-117536503D01*
X153841263Y-117480485D01*
X153920485Y-117401263D01*
X153976503Y-117304237D01*
X154005500Y-117196018D01*
X154005500Y-117093982D01*
X157804500Y-117093982D01*
X157804500Y-117206018D01*
X157831508Y-117306812D01*
X157833497Y-117314236D01*
X157833498Y-117314239D01*
X157839272Y-117324239D01*
X157889515Y-117411263D01*
X157968737Y-117490485D01*
X158065763Y-117546503D01*
X158173982Y-117575500D01*
X158173984Y-117575500D01*
X158286016Y-117575500D01*
X158286018Y-117575500D01*
X158394237Y-117546503D01*
X158491263Y-117490485D01*
X158570485Y-117411263D01*
X158626503Y-117314237D01*
X158655500Y-117206018D01*
X158655500Y-117103982D01*
X162564500Y-117103982D01*
X162564500Y-117216018D01*
X162593497Y-117324237D01*
X162649515Y-117421263D01*
X162728737Y-117500485D01*
X162825763Y-117556503D01*
X162933982Y-117585500D01*
X162933984Y-117585500D01*
X163046016Y-117585500D01*
X163046018Y-117585500D01*
X163154237Y-117556503D01*
X163251263Y-117500485D01*
X163330485Y-117421263D01*
X163386503Y-117324237D01*
X163415500Y-117216018D01*
X163415500Y-117103982D01*
X163386503Y-116995763D01*
X163330485Y-116898737D01*
X163251263Y-116819515D01*
X163154237Y-116763497D01*
X163046018Y-116734500D01*
X162933982Y-116734500D01*
X162825763Y-116763497D01*
X162825760Y-116763498D01*
X162728740Y-116819513D01*
X162728734Y-116819517D01*
X162649517Y-116898734D01*
X162649513Y-116898740D01*
X162593498Y-116995760D01*
X162593497Y-116995763D01*
X162564500Y-117103982D01*
X158655500Y-117103982D01*
X158655500Y-117093982D01*
X158626503Y-116985763D01*
X158570485Y-116888737D01*
X158491263Y-116809515D01*
X158394237Y-116753497D01*
X158286018Y-116724500D01*
X158173982Y-116724500D01*
X158065763Y-116753497D01*
X158065760Y-116753498D01*
X157968740Y-116809513D01*
X157968734Y-116809517D01*
X157889517Y-116888734D01*
X157889513Y-116888740D01*
X157833498Y-116985760D01*
X157833497Y-116985763D01*
X157804500Y-117093982D01*
X154005500Y-117093982D01*
X154005500Y-117083982D01*
X153976503Y-116975763D01*
X153920485Y-116878737D01*
X153841263Y-116799515D01*
X153744237Y-116743497D01*
X153636018Y-116714500D01*
X153523982Y-116714500D01*
X153415763Y-116743497D01*
X153415760Y-116743498D01*
X153318740Y-116799513D01*
X153318734Y-116799517D01*
X153239517Y-116878734D01*
X153239513Y-116878740D01*
X153183498Y-116975760D01*
X153183497Y-116975763D01*
X153154500Y-117083982D01*
X141280436Y-117083982D01*
X141250250Y-117066554D01*
X141193187Y-117033608D01*
X141129539Y-117016554D01*
X141065892Y-116999500D01*
X141065891Y-116999500D01*
X141002872Y-116999500D01*
X140997145Y-116999368D01*
X140590564Y-116980570D01*
X140579160Y-116979513D01*
X140178892Y-116923678D01*
X140167633Y-116921573D01*
X139774236Y-116829047D01*
X139763220Y-116825913D01*
X139430807Y-116714500D01*
X139380021Y-116697478D01*
X139369343Y-116693341D01*
X138999647Y-116530104D01*
X138989399Y-116525001D01*
X138874474Y-116460989D01*
X138636330Y-116328343D01*
X138626592Y-116322314D01*
X138293169Y-116093915D01*
X138284029Y-116087012D01*
X137973116Y-115828833D01*
X137964652Y-115821117D01*
X137678882Y-115535347D01*
X137671166Y-115526883D01*
X137502679Y-115323982D01*
X165864500Y-115323982D01*
X165864500Y-115436018D01*
X165893497Y-115544237D01*
X165949515Y-115641263D01*
X166028737Y-115720485D01*
X166125763Y-115776503D01*
X166233982Y-115805500D01*
X166233984Y-115805500D01*
X166346016Y-115805500D01*
X166346018Y-115805500D01*
X166454237Y-115776503D01*
X166551263Y-115720485D01*
X166630485Y-115641263D01*
X166686503Y-115544237D01*
X166715500Y-115436018D01*
X166715500Y-115323982D01*
X166686503Y-115215763D01*
X166630485Y-115118737D01*
X166551263Y-115039515D01*
X166454237Y-114983497D01*
X166346018Y-114954500D01*
X166233982Y-114954500D01*
X166125763Y-114983497D01*
X166125760Y-114983498D01*
X166028740Y-115039513D01*
X166028734Y-115039517D01*
X165949517Y-115118734D01*
X165949513Y-115118740D01*
X165893498Y-115215760D01*
X165893497Y-115215763D01*
X165864500Y-115323982D01*
X137502679Y-115323982D01*
X137412974Y-115215954D01*
X137406084Y-115206830D01*
X137177685Y-114873407D01*
X137171656Y-114863669D01*
X137127924Y-114785155D01*
X136974993Y-114510592D01*
X136969901Y-114500365D01*
X136806653Y-114130643D01*
X136802525Y-114119989D01*
X136674082Y-113736766D01*
X136670955Y-113725776D01*
X136604678Y-113443982D01*
X149374500Y-113443982D01*
X149374500Y-113556018D01*
X149403497Y-113664237D01*
X149459515Y-113761263D01*
X149538737Y-113840485D01*
X149635763Y-113896503D01*
X149743982Y-113925500D01*
X149743984Y-113925500D01*
X149856016Y-113925500D01*
X149856018Y-113925500D01*
X149964237Y-113896503D01*
X150061263Y-113840485D01*
X150140485Y-113761263D01*
X150196503Y-113664237D01*
X150225500Y-113556018D01*
X150225500Y-113483982D01*
X158834500Y-113483982D01*
X158834500Y-113596018D01*
X158863497Y-113704237D01*
X158919515Y-113801263D01*
X158998737Y-113880485D01*
X159095763Y-113936503D01*
X159203982Y-113965500D01*
X159203984Y-113965500D01*
X159316016Y-113965500D01*
X159316018Y-113965500D01*
X159424237Y-113936503D01*
X159521263Y-113880485D01*
X159600485Y-113801263D01*
X159656503Y-113704237D01*
X159685500Y-113596018D01*
X159685500Y-113483982D01*
X159656503Y-113375763D01*
X159600485Y-113278737D01*
X159521263Y-113199515D01*
X159424237Y-113143497D01*
X159316018Y-113114500D01*
X159203982Y-113114500D01*
X159095763Y-113143497D01*
X159095760Y-113143498D01*
X158998740Y-113199513D01*
X158998734Y-113199517D01*
X158919517Y-113278734D01*
X158919513Y-113278740D01*
X158863498Y-113375760D01*
X158863497Y-113375763D01*
X158834500Y-113483982D01*
X150225500Y-113483982D01*
X150225500Y-113443982D01*
X150196503Y-113335763D01*
X150140485Y-113238737D01*
X150061263Y-113159515D01*
X149964237Y-113103497D01*
X149856018Y-113074500D01*
X149743982Y-113074500D01*
X149635763Y-113103497D01*
X149635760Y-113103498D01*
X149538740Y-113159513D01*
X149538734Y-113159517D01*
X149459517Y-113238734D01*
X149459513Y-113238740D01*
X149403498Y-113335760D01*
X149403497Y-113335763D01*
X149374500Y-113443982D01*
X136604678Y-113443982D01*
X136578423Y-113332353D01*
X136576322Y-113321117D01*
X136520485Y-112920837D01*
X136519429Y-112909435D01*
X136511018Y-112727502D01*
X136500764Y-112505710D01*
X136500764Y-112494289D01*
X136504708Y-112408982D01*
X170749500Y-112408982D01*
X170749500Y-112521018D01*
X170778497Y-112629237D01*
X170834515Y-112726263D01*
X170913737Y-112805485D01*
X171010763Y-112861503D01*
X171118982Y-112890500D01*
X171118984Y-112890500D01*
X171231016Y-112890500D01*
X171231018Y-112890500D01*
X171339237Y-112861503D01*
X171436263Y-112805485D01*
X171515485Y-112726263D01*
X171571503Y-112629237D01*
X171600500Y-112521018D01*
X171600500Y-112408982D01*
X171571503Y-112300763D01*
X171515485Y-112203737D01*
X171436263Y-112124515D01*
X171339237Y-112068497D01*
X171231018Y-112039500D01*
X171118982Y-112039500D01*
X171010763Y-112068497D01*
X171010760Y-112068498D01*
X170913740Y-112124513D01*
X170913734Y-112124517D01*
X170834517Y-112203734D01*
X170834513Y-112203740D01*
X170778498Y-112300760D01*
X170778497Y-112300763D01*
X170749500Y-112408982D01*
X136504708Y-112408982D01*
X136519429Y-112090557D01*
X136520486Y-112079160D01*
X136521973Y-112068498D01*
X136574216Y-111693982D01*
X157574500Y-111693982D01*
X157574500Y-111806018D01*
X157603497Y-111914237D01*
X157659515Y-112011263D01*
X157738737Y-112090485D01*
X157835763Y-112146503D01*
X157943982Y-112175500D01*
X157943984Y-112175500D01*
X158056016Y-112175500D01*
X158056018Y-112175500D01*
X158164237Y-112146503D01*
X158261263Y-112090485D01*
X158340485Y-112011263D01*
X158396503Y-111914237D01*
X158425500Y-111806018D01*
X158425500Y-111693982D01*
X158396503Y-111585763D01*
X158340485Y-111488737D01*
X158261263Y-111409515D01*
X158164237Y-111353497D01*
X158056018Y-111324500D01*
X157943982Y-111324500D01*
X157835763Y-111353497D01*
X157835760Y-111353498D01*
X157738740Y-111409513D01*
X157738734Y-111409517D01*
X157659517Y-111488734D01*
X157659513Y-111488740D01*
X157603498Y-111585760D01*
X157603497Y-111585763D01*
X157574500Y-111693982D01*
X136574216Y-111693982D01*
X136576323Y-111678878D01*
X136578418Y-111667668D01*
X136670957Y-111274217D01*
X136674080Y-111263238D01*
X136802527Y-110880002D01*
X136806650Y-110869363D01*
X136969905Y-110499625D01*
X136974988Y-110489416D01*
X137171659Y-110136324D01*
X137177685Y-110126592D01*
X137406094Y-109793154D01*
X137412976Y-109784042D01*
X137671177Y-109473103D01*
X137678871Y-109464663D01*
X137799552Y-109343982D01*
X147124500Y-109343982D01*
X147124500Y-109456018D01*
X147153497Y-109564237D01*
X147209515Y-109661263D01*
X147288737Y-109740485D01*
X147385763Y-109796503D01*
X147493982Y-109825500D01*
X147493984Y-109825500D01*
X147606016Y-109825500D01*
X147606018Y-109825500D01*
X147630336Y-109818984D01*
X160114500Y-109818984D01*
X160114500Y-109931020D01*
X160143497Y-110039239D01*
X160199515Y-110136265D01*
X160278737Y-110215487D01*
X160375763Y-110271505D01*
X160483982Y-110300502D01*
X160483984Y-110300502D01*
X160596016Y-110300502D01*
X160596018Y-110300502D01*
X160704237Y-110271505D01*
X160801263Y-110215487D01*
X160880485Y-110136265D01*
X160936503Y-110039239D01*
X160965500Y-109931020D01*
X160965500Y-109818984D01*
X160936503Y-109710765D01*
X160880485Y-109613739D01*
X160801263Y-109534517D01*
X160704237Y-109478499D01*
X160596018Y-109449502D01*
X160483982Y-109449502D01*
X160375763Y-109478499D01*
X160375760Y-109478500D01*
X160278740Y-109534515D01*
X160278734Y-109534519D01*
X160199517Y-109613736D01*
X160199513Y-109613742D01*
X160143498Y-109710762D01*
X160143497Y-109710765D01*
X160114500Y-109818984D01*
X147630336Y-109818984D01*
X147714237Y-109796503D01*
X147811263Y-109740485D01*
X147890485Y-109661263D01*
X147946503Y-109564237D01*
X147975500Y-109456018D01*
X147975500Y-109343982D01*
X147946503Y-109235763D01*
X147890485Y-109138737D01*
X147881513Y-109129765D01*
X162687552Y-109129765D01*
X162687552Y-109241801D01*
X162716549Y-109350020D01*
X162772567Y-109447046D01*
X162851789Y-109526268D01*
X162948815Y-109582286D01*
X163057034Y-109611283D01*
X163057036Y-109611283D01*
X163169068Y-109611283D01*
X163169070Y-109611283D01*
X163277289Y-109582286D01*
X163374315Y-109526268D01*
X163453537Y-109447046D01*
X163509555Y-109350020D01*
X163538552Y-109241801D01*
X163538552Y-109129765D01*
X163509555Y-109021546D01*
X163453537Y-108924520D01*
X163374315Y-108845298D01*
X163277289Y-108789280D01*
X163169070Y-108760283D01*
X163057034Y-108760283D01*
X162948815Y-108789280D01*
X162948812Y-108789281D01*
X162851792Y-108845296D01*
X162851786Y-108845300D01*
X162772569Y-108924517D01*
X162772565Y-108924523D01*
X162716550Y-109021543D01*
X162716549Y-109021546D01*
X162687552Y-109129765D01*
X147881513Y-109129765D01*
X147811263Y-109059515D01*
X147714237Y-109003497D01*
X147606018Y-108974500D01*
X147493982Y-108974500D01*
X147385763Y-109003497D01*
X147385760Y-109003498D01*
X147288740Y-109059513D01*
X147288734Y-109059517D01*
X147209517Y-109138734D01*
X147209513Y-109138740D01*
X147153498Y-109235760D01*
X147153497Y-109235763D01*
X147124500Y-109343982D01*
X137799552Y-109343982D01*
X137964663Y-109178871D01*
X137973103Y-109171177D01*
X138284042Y-108912976D01*
X138293154Y-108906094D01*
X138626597Y-108677681D01*
X138636324Y-108671659D01*
X138955315Y-108493982D01*
X164224500Y-108493982D01*
X164224500Y-108606018D01*
X164253497Y-108714237D01*
X164309515Y-108811263D01*
X164388737Y-108890485D01*
X164485763Y-108946503D01*
X164593982Y-108975500D01*
X164593984Y-108975500D01*
X164706016Y-108975500D01*
X164706018Y-108975500D01*
X164814237Y-108946503D01*
X164911263Y-108890485D01*
X164990485Y-108811263D01*
X165046503Y-108714237D01*
X165075500Y-108606018D01*
X165075500Y-108493982D01*
X165046503Y-108385763D01*
X164990485Y-108288737D01*
X164911263Y-108209515D01*
X164814237Y-108153497D01*
X164706018Y-108124500D01*
X164593982Y-108124500D01*
X164485763Y-108153497D01*
X164485760Y-108153498D01*
X164388740Y-108209513D01*
X164388734Y-108209517D01*
X164309517Y-108288734D01*
X164309513Y-108288740D01*
X164253498Y-108385760D01*
X164253497Y-108385763D01*
X164224500Y-108493982D01*
X138955315Y-108493982D01*
X138989416Y-108474988D01*
X138999625Y-108469905D01*
X139369363Y-108306650D01*
X139380002Y-108302527D01*
X139763238Y-108174080D01*
X139774217Y-108170957D01*
X140167649Y-108078422D01*
X140178878Y-108076323D01*
X140579164Y-108020485D01*
X140590557Y-108019429D01*
X140997145Y-108000632D01*
X141002872Y-108000500D01*
X145565890Y-108000500D01*
X145565892Y-108000500D01*
X145693186Y-107966392D01*
X145807314Y-107900500D01*
X145900500Y-107807314D01*
X145966392Y-107693186D01*
X146000500Y-107565892D01*
X146000500Y-107543982D01*
X161507000Y-107543982D01*
X161507000Y-107656018D01*
X161535997Y-107764237D01*
X161592015Y-107861263D01*
X161671237Y-107940485D01*
X161768263Y-107996503D01*
X161876482Y-108025500D01*
X161876484Y-108025500D01*
X161988516Y-108025500D01*
X161988518Y-108025500D01*
X162096737Y-107996503D01*
X162193763Y-107940485D01*
X162272985Y-107861263D01*
X162329003Y-107764237D01*
X162334430Y-107743982D01*
X165774500Y-107743982D01*
X165774500Y-107856018D01*
X165775906Y-107861263D01*
X165803497Y-107964236D01*
X165803498Y-107964239D01*
X165804741Y-107966392D01*
X165859515Y-108061263D01*
X165938737Y-108140485D01*
X166035763Y-108196503D01*
X166143982Y-108225500D01*
X166143984Y-108225500D01*
X166256016Y-108225500D01*
X166256018Y-108225500D01*
X166364237Y-108196503D01*
X166461263Y-108140485D01*
X166540485Y-108061263D01*
X166596503Y-107964237D01*
X166625500Y-107856018D01*
X166625500Y-107743982D01*
X166596503Y-107635763D01*
X166540485Y-107538737D01*
X166461263Y-107459515D01*
X166421452Y-107436530D01*
X168949500Y-107436530D01*
X168949500Y-107643469D01*
X168989868Y-107846412D01*
X168989870Y-107846420D01*
X169038672Y-107964239D01*
X169069059Y-108037598D01*
X169084873Y-108061265D01*
X169184024Y-108209657D01*
X169330342Y-108355975D01*
X169330345Y-108355977D01*
X169502402Y-108470941D01*
X169693580Y-108550130D01*
X169896530Y-108590499D01*
X169896534Y-108590500D01*
X169896535Y-108590500D01*
X170103466Y-108590500D01*
X170103467Y-108590499D01*
X170306420Y-108550130D01*
X170497598Y-108470941D01*
X170669655Y-108355977D01*
X170815977Y-108209655D01*
X170930941Y-108037598D01*
X171010130Y-107846420D01*
X171050500Y-107643465D01*
X171050500Y-107436535D01*
X171010130Y-107233580D01*
X170930941Y-107042402D01*
X170815977Y-106870345D01*
X170815975Y-106870342D01*
X170669657Y-106724024D01*
X170498277Y-106609513D01*
X170497598Y-106609059D01*
X170416577Y-106575499D01*
X170306420Y-106529870D01*
X170306412Y-106529868D01*
X170103469Y-106489500D01*
X170103465Y-106489500D01*
X169896535Y-106489500D01*
X169896530Y-106489500D01*
X169693587Y-106529868D01*
X169693579Y-106529870D01*
X169502403Y-106609058D01*
X169330342Y-106724024D01*
X169184024Y-106870342D01*
X169069058Y-107042403D01*
X168989870Y-107233579D01*
X168989868Y-107233587D01*
X168949500Y-107436530D01*
X166421452Y-107436530D01*
X166364237Y-107403497D01*
X166256018Y-107374500D01*
X166143982Y-107374500D01*
X166035763Y-107403497D01*
X166035760Y-107403498D01*
X165938740Y-107459513D01*
X165938734Y-107459517D01*
X165859517Y-107538734D01*
X165859513Y-107538740D01*
X165803498Y-107635760D01*
X165803497Y-107635763D01*
X165774500Y-107743982D01*
X162334430Y-107743982D01*
X162358000Y-107656018D01*
X162358000Y-107543982D01*
X162329003Y-107435763D01*
X162272985Y-107338737D01*
X162193763Y-107259515D01*
X162096737Y-107203497D01*
X161988518Y-107174500D01*
X161876482Y-107174500D01*
X161768263Y-107203497D01*
X161768260Y-107203498D01*
X161671240Y-107259513D01*
X161671234Y-107259517D01*
X161592017Y-107338734D01*
X161592013Y-107338740D01*
X161535998Y-107435760D01*
X161535997Y-107435763D01*
X161507000Y-107543982D01*
X146000500Y-107543982D01*
X146000500Y-106893982D01*
X154714500Y-106893982D01*
X154714500Y-107006018D01*
X154743497Y-107114237D01*
X154799515Y-107211263D01*
X154878737Y-107290485D01*
X154975763Y-107346503D01*
X155083982Y-107375500D01*
X155083984Y-107375500D01*
X155196016Y-107375500D01*
X155196018Y-107375500D01*
X155304237Y-107346503D01*
X155401263Y-107290485D01*
X155480485Y-107211263D01*
X155536503Y-107114237D01*
X155565500Y-107006018D01*
X155565500Y-106893982D01*
X155536503Y-106785763D01*
X155480485Y-106688737D01*
X155401263Y-106609515D01*
X155304237Y-106553497D01*
X155196018Y-106524500D01*
X155083982Y-106524500D01*
X154975763Y-106553497D01*
X154975760Y-106553498D01*
X154878740Y-106609513D01*
X154878734Y-106609517D01*
X154799517Y-106688734D01*
X154799513Y-106688740D01*
X154743498Y-106785760D01*
X154743497Y-106785763D01*
X154714500Y-106893982D01*
X146000500Y-106893982D01*
X146000500Y-105853982D01*
X154224500Y-105853982D01*
X154224500Y-105966018D01*
X154253497Y-106074237D01*
X154309515Y-106171263D01*
X154388737Y-106250485D01*
X154485763Y-106306503D01*
X154593982Y-106335500D01*
X154593984Y-106335500D01*
X154706016Y-106335500D01*
X154706018Y-106335500D01*
X154814237Y-106306503D01*
X154911263Y-106250485D01*
X154990485Y-106171263D01*
X155035103Y-106093982D01*
X164914500Y-106093982D01*
X164914500Y-106206018D01*
X164943497Y-106314237D01*
X164999515Y-106411263D01*
X165078737Y-106490485D01*
X165175763Y-106546503D01*
X165283982Y-106575500D01*
X165283984Y-106575500D01*
X165396016Y-106575500D01*
X165396018Y-106575500D01*
X165504237Y-106546503D01*
X165601263Y-106490485D01*
X165680485Y-106411263D01*
X165736503Y-106314237D01*
X165765500Y-106206018D01*
X165765500Y-106093982D01*
X165736503Y-105985763D01*
X165680485Y-105888737D01*
X165601263Y-105809515D01*
X165504237Y-105753497D01*
X165396018Y-105724500D01*
X165283982Y-105724500D01*
X165175763Y-105753497D01*
X165175760Y-105753498D01*
X165078740Y-105809513D01*
X165078734Y-105809517D01*
X164999517Y-105888734D01*
X164999513Y-105888740D01*
X164943498Y-105985760D01*
X164943497Y-105985763D01*
X164914500Y-106093982D01*
X155035103Y-106093982D01*
X155046503Y-106074237D01*
X155075500Y-105966018D01*
X155075500Y-105853982D01*
X155046503Y-105745763D01*
X154990485Y-105648737D01*
X154911263Y-105569515D01*
X154814237Y-105513497D01*
X154706018Y-105484500D01*
X154593982Y-105484500D01*
X154485763Y-105513497D01*
X154485760Y-105513498D01*
X154388740Y-105569513D01*
X154388734Y-105569517D01*
X154309517Y-105648734D01*
X154309513Y-105648740D01*
X154253498Y-105745760D01*
X154253497Y-105745763D01*
X154224500Y-105853982D01*
X146000500Y-105853982D01*
X146000500Y-105343982D01*
X153204500Y-105343982D01*
X153204500Y-105456018D01*
X153233497Y-105564237D01*
X153289515Y-105661263D01*
X153368737Y-105740485D01*
X153465763Y-105796503D01*
X153573982Y-105825500D01*
X153573984Y-105825500D01*
X153686016Y-105825500D01*
X153686018Y-105825500D01*
X153794237Y-105796503D01*
X153891263Y-105740485D01*
X153970485Y-105661263D01*
X154026503Y-105564237D01*
X154055500Y-105456018D01*
X154055500Y-105343982D01*
X154026503Y-105235763D01*
X153970485Y-105138737D01*
X153891263Y-105059515D01*
X153794237Y-105003497D01*
X153686018Y-104974500D01*
X153573982Y-104974500D01*
X153465763Y-105003497D01*
X153465760Y-105003498D01*
X153368740Y-105059513D01*
X153368734Y-105059517D01*
X153289517Y-105138734D01*
X153289513Y-105138740D01*
X153233498Y-105235760D01*
X153233497Y-105235763D01*
X153204500Y-105343982D01*
X146000500Y-105343982D01*
X146000500Y-104943982D01*
X155782000Y-104943982D01*
X155782000Y-105056018D01*
X155810997Y-105164237D01*
X155867015Y-105261263D01*
X155946237Y-105340485D01*
X156043263Y-105396503D01*
X156151482Y-105425500D01*
X156151484Y-105425500D01*
X156263516Y-105425500D01*
X156263518Y-105425500D01*
X156371737Y-105396503D01*
X156468763Y-105340485D01*
X156547985Y-105261263D01*
X156604003Y-105164237D01*
X156633000Y-105056018D01*
X156633000Y-104943982D01*
X156604003Y-104835763D01*
X156547985Y-104738737D01*
X156468763Y-104659515D01*
X156371737Y-104603497D01*
X156263518Y-104574500D01*
X156151482Y-104574500D01*
X156043263Y-104603497D01*
X156043260Y-104603498D01*
X155946240Y-104659513D01*
X155946234Y-104659517D01*
X155867017Y-104738734D01*
X155867013Y-104738740D01*
X155810998Y-104835760D01*
X155810997Y-104835763D01*
X155782000Y-104943982D01*
X146000500Y-104943982D01*
X146000500Y-104504427D01*
X146000816Y-104495581D01*
X146002184Y-104476449D01*
X146015131Y-104295434D01*
X146017646Y-104277938D01*
X146059356Y-104086199D01*
X146061193Y-104079945D01*
X152878530Y-104079945D01*
X152878530Y-104191981D01*
X152907527Y-104300200D01*
X152963545Y-104397226D01*
X153042767Y-104476448D01*
X153139793Y-104532466D01*
X153248012Y-104561463D01*
X153248014Y-104561463D01*
X153360046Y-104561463D01*
X153360048Y-104561463D01*
X153468267Y-104532466D01*
X153565293Y-104476448D01*
X153644515Y-104397226D01*
X153700533Y-104300200D01*
X153729530Y-104191981D01*
X153729530Y-104079945D01*
X153700533Y-103971726D01*
X153644515Y-103874700D01*
X153565293Y-103795478D01*
X153468267Y-103739460D01*
X153360048Y-103710463D01*
X153248012Y-103710463D01*
X153139793Y-103739460D01*
X153139790Y-103739461D01*
X153042770Y-103795476D01*
X153042764Y-103795480D01*
X152963547Y-103874697D01*
X152963543Y-103874703D01*
X152907528Y-103971723D01*
X152907527Y-103971726D01*
X152878530Y-104079945D01*
X146061193Y-104079945D01*
X146064338Y-104069236D01*
X146067964Y-104059515D01*
X146132911Y-103885385D01*
X146140259Y-103869298D01*
X146170325Y-103814236D01*
X146234291Y-103697089D01*
X146243845Y-103682221D01*
X146361448Y-103525123D01*
X146373020Y-103511769D01*
X146511769Y-103373020D01*
X146525123Y-103361448D01*
X146682221Y-103243845D01*
X146697089Y-103234291D01*
X146869298Y-103140258D01*
X146885385Y-103132911D01*
X147069248Y-103064333D01*
X147086199Y-103059356D01*
X147277938Y-103017646D01*
X147295436Y-103015130D01*
X147495582Y-103000816D01*
X147504428Y-103000500D01*
X147565892Y-103000500D01*
X157128089Y-103000500D01*
X157195128Y-103020185D01*
G37*
%TD.AperFunction*%
%TD*%
M02*
